<svg xmlns="http://www.w3.org/2000/svg" xmlns:xlink="http://www.w3.org/1999/xlink" width="61.028" height="19" viewBox="0 0 61.028 19">
  <defs>
    <radialGradient id="radial-gradient" cx="0.515" cy="0.399" r="0.51" gradientTransform="matrix(0.962, 0.004, -0.004, 1, 0.027, -0.003)" gradientUnits="objectBoundingBox">
      <stop offset="0.138" stop-color="#fff208"/>
      <stop offset="1" stop-color="#ffb000"/>
    </radialGradient>
    <linearGradient id="linear-gradient" x1="0.497" y1="0.845" x2="0.509" y2="-0.279" gradientUnits="objectBoundingBox">
      <stop offset="0" stop-color="#ff615c"/>
      <stop offset="0.882" stop-color="#f78c4a"/>
    </linearGradient>
    <linearGradient id="linear-gradient-2" x1="0.488" y1="1.625" x2="0.504" y2="-0.001" gradientUnits="objectBoundingBox">
      <stop offset="0" stop-color="#fffc69"/>
      <stop offset="1" stop-color="#f7e317"/>
    </linearGradient>
    <linearGradient id="linear-gradient-3" x1="0.677" y1="-0.518" x2="0.681" y2="1.208" gradientUnits="objectBoundingBox">
      <stop offset="0" stop-color="#fffcff"/>
      <stop offset="1" stop-color="#edffc4"/>
    </linearGradient>
    <radialGradient id="radial-gradient-3" cx="0.515" cy="0.399" r="0.51" gradientTransform="matrix(0.962, 0.004, -0.004, 1, 0.027, -0.003)" gradientUnits="objectBoundingBox">
      <stop offset="0.138" stop-color="#e5e4df"/>
      <stop offset="1" stop-color="#bcbcbc"/>
    </radialGradient>
    <linearGradient id="linear-gradient-7" x1="0.497" y1="0.845" x2="0.509" y2="-0.279" gradientUnits="objectBoundingBox">
      <stop offset="0" stop-color="#a0a0a0"/>
      <stop offset="0.882" stop-color="#c6c6c6"/>
    </linearGradient>
    <linearGradient id="linear-gradient-8" x1="0.488" y1="1.625" x2="0.504" y2="-0.001" gradientUnits="objectBoundingBox">
      <stop offset="0" stop-color="#e2e2e2"/>
      <stop offset="1" stop-color="#e8e8e6"/>
    </linearGradient>
    <linearGradient id="linear-gradient-9" x1="0.677" y1="-0.527" x2="0.681" y2="1.199" gradientUnits="objectBoundingBox">
      <stop offset="0" stop-color="#fffcff"/>
      <stop offset="1" stop-color="#e4e5e3"/>
    </linearGradient>
  </defs>
  <g id="グループ_2307" data-name="グループ 2307" transform="translate(4503 -3050)">
    <g id="_レイヤー_1-2" transform="translate(-4503 3050)">
      <g id="グループ_2187" data-name="グループ 2187" transform="translate(0 0)">
        <path id="パス_3270" data-name="パス 3270" d="M18.931,7.585c-.43-1.291-2.228-2.046-5.494-2.3C12.164,2.313,10.875.866,9.5.861S6.834,2.31,5.572,5.307C2.308,5.585.515,6.352.093,7.646S.677,10.594,3.166,12.7c-.644,2.742-.589,4.539.166,5.491a2.089,2.089,0,0,0,1.719.762h0A9.516,9.516,0,0,0,9.544,17.24,9.656,9.656,0,0,0,14,18.922a2.1,2.1,0,0,0,1.752-.762c.758-.954.8-2.755.14-5.5,2.475-2.12,3.469-3.78,3.039-5.071Z" transform="translate(0 0.049)" fill="#05021c" opacity="0.45"/>
        <path id="パス_3271" data-name="パス 3271" d="M18.931,6.724c-.43-1.292-2.228-2.046-5.494-2.3C12.164,1.452,10.875.005,9.5,0S6.834,1.449,5.572,4.446C2.308,4.725.515,5.491.093,6.786s.584,2.948,3.073,5.052c-.644,2.742-.589,4.539.166,5.491a2.088,2.088,0,0,0,1.719.762h0a9.511,9.511,0,0,0,4.492-1.711A9.651,9.651,0,0,0,14,18.061a2.1,2.1,0,0,0,1.752-.762c.758-.954.8-2.755.14-5.5,2.475-2.12,3.469-3.78,3.039-5.071Z" transform="translate(0 0)" fill="#a06a0a"/>
        <path id="パス_3272" data-name="パス 3272" d="M9.52,15.878Q1.334,20.916,3.6,11.665-3.787,5.541,5.834,4.808q3.62-8.823,7.3-.024,9.625.67,2.279,6.841,2.328,9.238-5.892,4.252Z" transform="translate(0.022 0.022)" fill="url(#radial-gradient)"/>
        <g id="グループ_2184" data-name="グループ 2184" transform="translate(2.973 11.265)">
          <path id="パス_3273" data-name="パス 3273" d="M3.262,12.718q-1.483,8.01,6.331,3.135,8.09,4.974,6.206-3.686A18.142,18.142,0,0,0,3.262,12.718Z" transform="translate(-3.026 -11.286)" opacity="0.67" fill="url(#linear-gradient)"/>
        </g>
        <g id="グループ_2185" data-name="グループ 2185" transform="translate(2.986 14.124)">
          <path id="パス_3274" data-name="パス 3274" d="M14.4,16.176c-2.129-.2-4.65-2.185-4.65-2.185a11.385,11.385,0,0,1-4.285,2.1c-1.073.2-1.842-.738-2.351-1.762q-.058.458-.078.864.263,4.432,6.557.505,6.09,3.744,6.528-.238a1.95,1.95,0,0,1-1.722.715Z" transform="translate(-3.036 -13.991)" fill="url(#linear-gradient-2)"/>
        </g>
        <g id="グループ_2186" data-name="グループ 2186" transform="translate(1.087 1.064)">
          <path id="パス_3275" data-name="パス 3275" d="M12.868,5.293q-3.45-8.583-6.843.023C.708,5.738-.3,7.362,2.692,10.525a18.8,18.8,0,0,1,13.223.3C19.238,7.461,18.348,5.69,12.868,5.293Z" transform="translate(-1.028 -1.007)" opacity="0.498" fill="url(#linear-gradient-3)"/>
        </g>
        <path id="パス_3276" data-name="パス 3276" d="M9.742,1.529s-1.068-.412-.919.506,2.129,2.708,2.791,2.66-.447-2.7-1.872-3.165Z" transform="translate(0.251 0.082)" fill="#fffbe1"/>
        <path id="パス_3277" data-name="パス 3277" d="M15.986,5.931a6.452,6.452,0,0,0-2.673-.4c-1.1.189.547,1.077,2.117,1.414s1.9-.516.556-1.018Z" transform="translate(0.294 0.101)" fill="#fffbe1"/>
        <path id="パス_3278" data-name="パス 3278" d="M14.936,11.452q2.076,8.888-5.566,4.025-7.648,4.94-5.573-4.07H3.438l.074.065Q1.268,21.079,9.37,15.846q8.125,5.171,5.836-4.393h-.27Z" transform="translate(0.173 -0.014)" fill="#ffef5a" opacity="0.66"/>
      </g>
    </g>
    <g id="_レイヤー_1-2-2" data-name="_レイヤー_1-2" transform="translate(-4482 3050)">
      <g id="グループ_2187-2" data-name="グループ 2187" transform="translate(0 0)">
        <path id="パス_3270-2" data-name="パス 3270" d="M18.931,7.585c-.43-1.291-2.228-2.046-5.494-2.3C12.164,2.313,10.875.866,9.5.861S6.834,2.31,5.572,5.307C2.308,5.585.515,6.352.093,7.646S.677,10.594,3.166,12.7c-.644,2.742-.589,4.539.166,5.491a2.089,2.089,0,0,0,1.719.762h0A9.516,9.516,0,0,0,9.544,17.24,9.656,9.656,0,0,0,14,18.922a2.1,2.1,0,0,0,1.752-.762c.758-.954.8-2.755.14-5.5,2.475-2.12,3.469-3.78,3.039-5.071Z" transform="translate(0 0.049)" fill="#05021c" opacity="0.45"/>
        <path id="パス_3271-2" data-name="パス 3271" d="M18.931,6.724c-.43-1.292-2.228-2.046-5.494-2.3C12.164,1.452,10.875.005,9.5,0S6.834,1.449,5.572,4.446C2.308,4.725.515,5.491.093,6.786s.584,2.948,3.073,5.052c-.644,2.742-.589,4.539.166,5.491a2.088,2.088,0,0,0,1.719.762h0a9.511,9.511,0,0,0,4.492-1.711A9.651,9.651,0,0,0,14,18.061a2.1,2.1,0,0,0,1.752-.762c.758-.954.8-2.755.14-5.5,2.475-2.12,3.469-3.78,3.039-5.071Z" transform="translate(0 0)" fill="#a06a0a"/>
        <path id="パス_3272-2" data-name="パス 3272" d="M9.52,15.878Q1.334,20.916,3.6,11.665-3.787,5.541,5.834,4.808q3.62-8.823,7.3-.024,9.625.67,2.279,6.841,2.328,9.238-5.892,4.252Z" transform="translate(0.022 0.022)" fill="url(#radial-gradient)"/>
        <g id="グループ_2184-2" data-name="グループ 2184" transform="translate(2.973 11.265)">
          <path id="パス_3273-2" data-name="パス 3273" d="M3.262,12.718q-1.483,8.01,6.331,3.135,8.09,4.974,6.206-3.686A18.142,18.142,0,0,0,3.262,12.718Z" transform="translate(-3.026 -11.286)" opacity="0.67" fill="url(#linear-gradient)"/>
        </g>
        <g id="グループ_2185-2" data-name="グループ 2185" transform="translate(2.986 14.124)">
          <path id="パス_3274-2" data-name="パス 3274" d="M14.4,16.176c-2.129-.2-4.65-2.185-4.65-2.185a11.385,11.385,0,0,1-4.285,2.1c-1.073.2-1.842-.738-2.351-1.762q-.058.458-.078.864.263,4.432,6.557.505,6.09,3.744,6.528-.238a1.95,1.95,0,0,1-1.722.715Z" transform="translate(-3.036 -13.991)" fill="url(#linear-gradient-2)"/>
        </g>
        <g id="グループ_2186-2" data-name="グループ 2186" transform="translate(1.087 1.064)">
          <path id="パス_3275-2" data-name="パス 3275" d="M12.868,5.293q-3.45-8.583-6.843.023C.708,5.738-.3,7.362,2.692,10.525a18.8,18.8,0,0,1,13.223.3C19.238,7.461,18.348,5.69,12.868,5.293Z" transform="translate(-1.028 -1.007)" opacity="0.498" fill="url(#linear-gradient-3)"/>
        </g>
        <path id="パス_3276-2" data-name="パス 3276" d="M9.742,1.529s-1.068-.412-.919.506,2.129,2.708,2.791,2.66-.447-2.7-1.872-3.165Z" transform="translate(0.251 0.082)" fill="#fffbe1"/>
        <path id="パス_3277-2" data-name="パス 3277" d="M15.986,5.931a6.452,6.452,0,0,0-2.673-.4c-1.1.189.547,1.077,2.117,1.414s1.9-.516.556-1.018Z" transform="translate(0.294 0.101)" fill="#fffbe1"/>
        <path id="パス_3278-2" data-name="パス 3278" d="M14.936,11.452q2.076,8.888-5.566,4.025-7.648,4.94-5.573-4.07H3.438l.074.065Q1.268,21.079,9.37,15.846q8.125,5.171,5.836-4.393h-.27Z" transform="translate(0.173 -0.014)" fill="#ffef5a" opacity="0.66"/>
      </g>
    </g>
    <g id="_レイヤー_1-2-3" data-name="_レイヤー_1-2" transform="translate(-4461 3050)">
      <g id="グループ_2191" data-name="グループ 2191" transform="translate(0 0)">
        <path id="パス_3279" data-name="パス 3279" d="M18.931,7.585c-.43-1.291-2.228-2.046-5.494-2.3C12.164,2.313,10.875.866,9.5.861S6.834,2.31,5.572,5.307C2.308,5.585.515,6.352.093,7.646S.677,10.594,3.166,12.7c-.644,2.742-.589,4.539.166,5.491a2.089,2.089,0,0,0,1.719.762h0A9.516,9.516,0,0,0,9.544,17.24,9.656,9.656,0,0,0,14,18.922a2.1,2.1,0,0,0,1.752-.762c.758-.954.8-2.755.14-5.5,2.475-2.12,3.469-3.78,3.039-5.071Z" transform="translate(0 0.049)" fill="#2d2d2d" opacity="0.45"/>
        <path id="パス_3280" data-name="パス 3280" d="M18.931,6.724c-.43-1.292-2.228-2.046-5.494-2.3C12.164,1.452,10.875.005,9.5,0S6.834,1.449,5.572,4.446C2.308,4.725.515,5.491.093,6.786s.584,2.948,3.073,5.052c-.644,2.742-.589,4.539.166,5.491a2.088,2.088,0,0,0,1.719.762h0a9.511,9.511,0,0,0,4.492-1.711A9.651,9.651,0,0,0,14,18.061a2.1,2.1,0,0,0,1.752-.762c.758-.954.8-2.755.14-5.5,2.475-2.12,3.469-3.78,3.039-5.071Z" transform="translate(0 0)" fill="#6b6b6b"/>
        <path id="パス_3281" data-name="パス 3281" d="M9.52,15.878Q1.334,20.916,3.6,11.665-3.787,5.541,5.834,4.808q3.62-8.823,7.3-.024,9.625.67,2.279,6.841,2.328,9.238-5.892,4.252Z" transform="translate(0.022 0.022)" fill="url(#radial-gradient-3)"/>
        <g id="グループ_2188" data-name="グループ 2188" transform="translate(2.973 11.265)">
          <path id="パス_3282" data-name="パス 3282" d="M3.262,12.718q-1.483,8.01,6.331,3.135,8.09,4.974,6.206-3.686A18.142,18.142,0,0,0,3.262,12.718Z" transform="translate(-3.026 -11.286)" opacity="0.67" fill="url(#linear-gradient-7)"/>
        </g>
        <g id="グループ_2189" data-name="グループ 2189" transform="translate(2.986 14.124)">
          <path id="パス_3283" data-name="パス 3283" d="M14.4,16.176c-2.129-.2-4.65-2.185-4.65-2.185a11.385,11.385,0,0,1-4.285,2.1c-1.073.2-1.842-.738-2.351-1.762q-.058.458-.078.864.263,4.432,6.557.505,6.09,3.744,6.528-.238a1.95,1.95,0,0,1-1.722.715Z" transform="translate(-3.036 -13.991)" fill="url(#linear-gradient-8)"/>
        </g>
        <g id="グループ_2190" data-name="グループ 2190" transform="translate(1.087 1.064)">
          <path id="パス_3284" data-name="パス 3284" d="M12.868,5.293q-3.45-8.583-6.843.023C.708,5.738-.3,7.362,2.692,10.525a18.8,18.8,0,0,1,13.223.3C19.238,7.461,18.348,5.69,12.868,5.293Z" transform="translate(-1.028 -1.007)" fill="url(#linear-gradient-9)"/>
        </g>
        <path id="パス_3285" data-name="パス 3285" d="M9.742,1.529s-1.068-.412-.919.506,2.129,2.708,2.791,2.66-.447-2.7-1.872-3.165Z" transform="translate(0.251 0.082)" fill="#fff"/>
        <path id="パス_3286" data-name="パス 3286" d="M15.986,5.931a6.452,6.452,0,0,0-2.673-.4c-1.1.189.547,1.077,2.117,1.414s1.9-.516.556-1.018Z" transform="translate(0.294 0.101)" fill="#fff"/>
        <path id="パス_3287" data-name="パス 3287" d="M14.936,11.452q2.076,8.888-5.566,4.025-7.648,4.94-5.573-4.07H3.438l.074.065Q1.268,21.079,9.37,15.846q8.125,5.171,5.836-4.393h-.27Z" transform="translate(0.173 -0.014)" fill="#d8d8d8" opacity="0.66"/>
      </g>
    </g>
  </g>
</svg>
