<svg xmlns="http://www.w3.org/2000/svg" width="64" height="64" viewBox="0 0 64 64">
  <g id="グループ_2512" data-name="グループ 2512" transform="translate(-1056.733 -141.601)">
    <circle id="楕円形_46" data-name="楕円形 46" cx="32" cy="32" r="32" transform="translate(1056.733 141.601)" fill="#f25c5c"/>
    <path id="パス_3598" data-name="パス 3598" d="M1120.733,173.6a32,32,0,0,1-57,19.98,32,32,0,0,0,44.99-44.97A31.94,31.94,0,0,1,1120.733,173.6Z" fill="#ea4242"/>
    <path id="パス_3599" data-name="パス 3599" d="M1073.954,150.349a5.283,5.283,0,0,1,2.841-.573,1.807,1.807,0,0,1,1.465,1.261,2.858,2.858,0,0,1-.261,1.792c-1.051,2.527-3.486,4.708-5.994,6.714a9.212,9.212,0,0,1-2.877,1.77c-1.676.521-2.723.1-3.084-.97a6.117,6.117,0,0,1-.062-3.31C1066.583,154.109,1070.55,151.755,1073.954,150.349Z" fill="#fff" opacity="0.5"/>
  </g>
</svg>
