<svg id="グループ_3286" data-name="グループ 3286" xmlns="http://www.w3.org/2000/svg" xmlns:xlink="http://www.w3.org/1999/xlink" width="72.474" height="116.075" viewBox="0 0 72.474 116.075">
  <defs>
    <clipPath id="clip-path">
      <rect id="長方形_1437" data-name="長方形 1437" width="72.474" height="116.075" fill="none"/>
    </clipPath>
  </defs>
  <g id="グループ_3285" data-name="グループ 3285" transform="translate(0 0)" clip-path="url(#clip-path)">
    <path id="パス_28672" data-name="パス 28672" d="M72.474,36.249A36.237,36.237,0,1,0,27.056,71.3c-.955,2.318-1.489,5.772,1.023,7.9a8.631,8.631,0,0,0,3.7,1.67c-2.1,6.625.1,15.09,2.079,22.681A69.675,69.675,0,0,1,36.078,114.1a2.153,2.153,0,0,0,2.148,1.977h.17a2.171,2.171,0,0,0,1.977-2.329,70.55,70.55,0,0,0-2.341-11.284C36.089,95,33.9,86.6,36.271,81.145A10.047,10.047,0,0,0,41.748,79.2c2.329-1.954,2.045-5.057,1.227-7.352a36.3,36.3,0,0,0,29.5-35.6m-33.5,39.658c-1.6,1.341-6.522,1.341-8.125,0-.67-.568-.034-2.636.5-3.625a1.332,1.332,0,0,0,.057-.125,37.6,37.6,0,0,0,4.829.33c.773,0,1.534-.034,2.3-.08.523,1.023,1.091,2.954.443,3.5m-2.739-7.738A31.925,31.925,0,1,1,68.168,36.249,31.963,31.963,0,0,1,36.237,68.168" transform="translate(0 0)" fill="#f29a2e"/>
    <path id="パス_28673" data-name="パス 28673" d="M35.309,67.25c-1.6,1.341-6.522,1.341-8.125,0-.67-.568-.034-2.636.5-3.625a1.332,1.332,0,0,0,.057-.125,37.6,37.6,0,0,0,4.829.33c.773,0,1.534-.034,2.3-.08.523,1.023,1.091,2.954.443,3.5" transform="translate(3.666 8.656)" fill="#f2b950"/>
    <path id="パス_28674" data-name="パス 28674" d="M67.651,35.731A31.931,31.931,0,1,1,35.721,3.8,31.963,31.963,0,0,1,67.651,35.731" transform="translate(0.517 0.518)" fill="#f2b950"/>
    <path id="パス_28675" data-name="パス 28675" d="M32.462,7.263a24.424,24.424,0,0,0-22.081,13.78,2.156,2.156,0,0,0,3.874,1.9A20.142,20.142,0,0,1,32.462,11.575a2.156,2.156,0,0,0,0-4.312" transform="translate(1.385 0.99)" fill="#ffe6bd"/>
  </g>
</svg>
