<svg xmlns="http://www.w3.org/2000/svg" xmlns:xlink="http://www.w3.org/1999/xlink" width="66.888" height="102.049" viewBox="0 0 66.888 102.049">
  <defs>
    <clipPath id="clip-path">
      <rect id="長方形_1439" data-name="長方形 1439" width="61.794" height="98.951" fill="none"/>
    </clipPath>
  </defs>
  <g id="グループ_3290" data-name="グループ 3290" transform="translate(5.179) rotate(3)">
    <g id="グループ_3289" data-name="グループ 3289" clip-path="url(#clip-path)">
      <path id="パス_28680" data-name="パス 28680" d="M61.794,30.9A30.9,30.9,0,1,0,23.07,60.776c-.812,1.98-1.27,4.932.87,6.74a7.655,7.655,0,0,0,3.158,1.43c-1.785,5.642.092,12.862,1.774,19.328a57.46,57.46,0,0,1,1.888,8.983,1.843,1.843,0,0,0,1.831,1.694h.149a1.843,1.843,0,0,0,1.682-1.98,60.243,60.243,0,0,0-1.991-9.624c-1.659-6.363-3.525-13.526-1.5-18.172A8.525,8.525,0,0,0,35.6,67.516c1.98-1.671,1.739-4.314,1.053-6.271A30.936,30.936,0,0,0,61.794,30.9M33.232,64.7c-1.362,1.144-5.561,1.144-6.923,0-.572-.481-.034-2.243.423-3.078a1.064,1.064,0,0,1,.057-.114,32.3,32.3,0,0,0,4.108.275q1,0,1.957-.069c.446.881.927,2.518.378,2.987M30.9,58.11A27.218,27.218,0,1,1,58.121,30.9,27.247,27.247,0,0,1,30.9,58.11" fill="#ed4076"/>
      <path id="パス_28681" data-name="パス 28681" d="M29.944,56.943c-1.362,1.144-5.561,1.144-6.923,0-.572-.481-.034-2.243.423-3.078a1.063,1.063,0,0,1,.057-.114,32.3,32.3,0,0,0,4.108.275q1,0,1.957-.069c.446.881.927,2.518.378,2.987" transform="translate(3.287 7.758)" fill="#f2798f"/>
      <path id="パス_28682" data-name="パス 28682" d="M57.656,30.434A27.218,27.218,0,1,1,30.432,3.21,27.249,27.249,0,0,1,57.656,30.434" transform="translate(0.465 0.463)" fill="#f2798f"/>
      <path id="パス_28683" data-name="パス 28683" d="M27.619,6.141A20.824,20.824,0,0,0,8.795,17.889,1.838,1.838,0,1,0,12.1,19.5,17.173,17.173,0,0,1,27.619,9.818a1.838,1.838,0,0,0,0-3.677" transform="translate(1.242 0.886)" fill="#fcd9e1"/>
    </g>
  </g>
</svg>
