<svg id="グループ_3288" data-name="グループ 3288" xmlns="http://www.w3.org/2000/svg" xmlns:xlink="http://www.w3.org/1999/xlink" width="57.141" height="91.5" viewBox="0 0 57.141 91.5">
  <defs>
    <clipPath id="clip-path">
      <rect id="長方形_1438" data-name="長方形 1438" width="57.141" height="91.5" fill="none"/>
    </clipPath>
  </defs>
  <g id="グループ_3287" data-name="グループ 3287" clip-path="url(#clip-path)">
    <path id="パス_28676" data-name="パス 28676" d="M57.141,28.571A28.571,28.571,0,1,0,21.333,56.2c-.751,1.831-1.175,4.561.8,6.233a7.079,7.079,0,0,0,2.921,1.323c-1.651,5.217.085,11.894,1.64,17.872a53.133,53.133,0,0,1,1.746,8.307A1.7,1.7,0,0,0,30.137,91.5h.138a1.7,1.7,0,0,0,1.556-1.831,55.707,55.707,0,0,0-1.841-8.9c-1.534-5.883-3.259-12.508-1.386-16.8a7.883,7.883,0,0,0,4.317-1.534c1.831-1.545,1.608-3.989.974-5.8A28.606,28.606,0,0,0,57.141,28.571M30.729,59.829c-1.259,1.058-5.143,1.058-6.4,0-.529-.444-.032-2.074.392-2.846a.983.983,0,0,1,.053-.106,29.872,29.872,0,0,0,3.8.254q.921,0,1.809-.063c.413.815.857,2.328.349,2.762m-2.159-6.1A25.169,25.169,0,1,1,53.744,28.571,25.195,25.195,0,0,1,28.571,53.734" fill="#04afaa"/>
    <path id="パス_28677" data-name="パス 28677" d="M29.4,56.7c-1.259,1.058-5.143,1.058-6.4,0-.529-.444-.032-2.074.392-2.846a.983.983,0,0,1,.053-.106,29.872,29.872,0,0,0,3.8.254q.921,0,1.809-.063c.413.815.857,2.328.349,2.762" transform="translate(1.325 3.127)" fill="#27cfbe"/>
    <path id="パス_28678" data-name="パス 28678" d="M53.557,28.384A25.169,25.169,0,1,1,28.383,3.21,25.2,25.2,0,0,1,53.557,28.384" transform="translate(0.187 0.187)" fill="#27cfbe"/>
    <path id="パス_28679" data-name="パス 28679" d="M26.187,6.141A19.256,19.256,0,0,0,8.781,17,1.7,1.7,0,1,0,11.833,18.5,15.88,15.88,0,0,1,26.187,9.541a1.7,1.7,0,0,0,0-3.4" transform="translate(0.501 0.357)" fill="#adf2e8"/>
  </g>
</svg>
