<svg xmlns="http://www.w3.org/2000/svg" width="339" height="105" viewBox="0 0 339 105">
  <g id="グループ_2669" data-name="グループ 2669" transform="translate(4835 -3088)">
    <rect id="長方形_1316" data-name="長方形 1316" width="339" height="105" transform="translate(-4835 3088)" fill="#fff" opacity="0"/>
    <g id="グループ_2668" data-name="グループ 2668" transform="translate(-4349.662 2228.094)">
      <g id="グループ_2662" data-name="グループ 2662">
        <g id="グループ_2661" data-name="グループ 2661">
          <path id="パス_27223" data-name="パス 27223" d="M-215.039,892.765h16.077l.773-5.353-15.749-2.274Z" fill="#f29a2e"/>
          <path id="パス_27224" data-name="パス 27224" d="M-412.959,892.765h6.416l-.027-.419Z" fill="#f29a2e"/>
          <path id="パス_27225" data-name="パス 27225" d="M-158.417,946.956l-4.194,8.09a4.949,4.949,0,0,1-.512,1.638c-.017.032-.037.061-.054.092a12.2,12.2,0,0,0,8.745-11.681v-3.146l-1.376,2.655A4.965,4.965,0,0,1-158.417,946.956Z" fill="#f29a2e"/>
          <path id="パス_27226" data-name="パス 27226" d="M-188.29,943.634a4.967,4.967,0,0,1,2.93-2.465,5,5,0,0,1,1.508-.233,5.029,5.029,0,0,1,2.291.555l11.6,6.013,2.316-4.466a4.906,4.906,0,0,1-.305-.748,4.972,4.972,0,0,1,.328-3.814l8.6-16.579a4.98,4.98,0,0,1,4.439-2.7c.052,0,.105.008.157.01V904.947a12.2,12.2,0,0,0-12.182-12.182h-.731l-3.363,23.288a5.462,5.462,0,0,1-2.15,3.619,5.513,5.513,0,0,1-2.025.945,5.458,5.458,0,0,1-1.949,2.742,5.533,5.533,0,0,1-3.295,1.1,5.4,5.4,0,0,1-.811-.06l-5.562-.8a5.465,5.465,0,0,1-3.619-2.151,5.466,5.466,0,0,1-1.074-2.792l-24.307-3.509a5.531,5.531,0,0,1-5.107,3.469,5.448,5.448,0,0,1-.8-.058l-5.574-.8a5.532,5.532,0,0,1-3.62-2.151,5.462,5.462,0,0,1-1.094-3.4,5.533,5.533,0,0,1-1.23-1.2,5.469,5.469,0,0,1-1.038-4.08l2.044-14.152H-387.593a9.717,9.717,0,0,1-.423.922,15.63,15.63,0,0,1-7.01,6.593l.3,4.62a13.477,13.477,0,0,1-12.551,14.314l-24.649,1.615c-.3.02-.6.029-.895.029a13.432,13.432,0,0,1-8.862-3.341,13.375,13.375,0,0,1-4.556-9.241l-.3-4.619a15.622,15.622,0,0,1-7.813-5.624,8.083,8.083,0,0,1-1.594-5.268h-6.3a12.2,12.2,0,0,0-12.183,12.182v.085a15.39,15.39,0,0,1,2.253-.194c7.493,0,10.864,5.712,12.371,10.5a20.759,20.759,0,0,1,.555,10.293l-.185.918a16.071,16.071,0,0,0-.458,3.283,11.575,11.575,0,0,0,.332,2.4,4.99,4.99,0,0,1,1.193,1.907l6.469,18.732a4.976,4.976,0,0,1-.588,4.4h264.535a14.269,14.269,0,0,1-1.263-2.836A14.08,14.08,0,0,1-188.29,943.634Z" fill="#f29a2e"/>
          <path id="パス_27227" data-name="パス 27227" d="M-472.871,936.578a11.188,11.188,0,0,0-1.115-1.875c-.134-.177-.285-.35-.446-.524v10.916a12.2,12.2,0,0,0,7.744,11.334l-5.989-17.341A5.018,5.018,0,0,1-472.871,936.578Z" fill="#f29a2e"/>
          <path id="パス_27228" data-name="パス 27228" d="M-436.131,894.284l.87,13.275a2.412,2.412,0,0,0,.833,1.688,2.423,2.423,0,0,0,1.619.61c.056,0,.112,0,.169,0l24.645-1.616a2.466,2.466,0,0,0,2.3-2.618l-.843-12.854h-6.417Z" fill="#f29a2e"/>
          <path id="パス_27229" data-name="パス 27229" d="M-215.719,897.477l15.749,2.274,1.009-6.986h-16.077Z" fill="#f29a2e"/>
          <path id="パス_27230" data-name="パス 27230" d="M-406.57,892.346l.028.419h18.949a7.477,7.477,0,0,0-.6-7.117,8.28,8.28,0,0,0-6.984-3.491q-.471,0-.953.046l-.119.012a15.954,15.954,0,0,0-15.115-10.988c-.355,0-.712.011-1.065.036l-.965.062a9.5,9.5,0,0,0-9.244-7.419c-.213,0-.428.007-.634.022a9.415,9.415,0,0,0-6.511,3.213,9.409,9.409,0,0,0-2.32,5.411l-.963.063A15.817,15.817,0,0,0-444,878.006a15.813,15.813,0,0,0-3.689,7.581l-.114,0a8.441,8.441,0,0,0-7.418,4.451,7.237,7.237,0,0,0-.726,2.723h42.988Z" fill="#f29a2e"/>
          <path id="パス_27231" data-name="パス 27231" d="M-454.353,898.033a15.622,15.622,0,0,0,7.813,5.624l.3,4.619a13.375,13.375,0,0,0,4.556,9.241,13.432,13.432,0,0,0,8.862,3.341c.3,0,.593-.009.895-.029l24.649-1.615A13.477,13.477,0,0,0-394.724,904.9l-.3-4.62a15.63,15.63,0,0,0,7.01-6.593,9.717,9.717,0,0,0,.423-.922h-18.949l.843,12.854a2.466,2.466,0,0,1-2.3,2.618l-24.645,1.616c-.057,0-.113,0-.169,0a2.423,2.423,0,0,1-1.619-.61,2.412,2.412,0,0,1-.833-1.688l-.87-13.275,23.172-1.519h-42.988A8.083,8.083,0,0,0-454.353,898.033Z" fill="#f29a2e"/>
          <path id="パス_27232" data-name="パス 27232" d="M-454.353,898.033a15.622,15.622,0,0,0,7.813,5.624l.3,4.619a13.375,13.375,0,0,0,4.556,9.241,13.432,13.432,0,0,0,8.862,3.341c.3,0,.593-.009.895-.029l24.649-1.615A13.477,13.477,0,0,0-394.724,904.9l-.3-4.62a15.63,15.63,0,0,0,7.01-6.593,9.717,9.717,0,0,0,.423-.922h-18.949l.843,12.854a2.466,2.466,0,0,1-2.3,2.618l-24.645,1.616c-.057,0-.113,0-.169,0a2.423,2.423,0,0,1-1.619-.61,2.412,2.412,0,0,1-.833-1.688l-.87-13.275,23.172-1.519h-42.988A8.083,8.083,0,0,0-454.353,898.033Z" fill="#f29a2e"/>
          <path id="パス_27233" data-name="パス 27233" d="M-232.926,911a5.533,5.533,0,0,0,1.23,1.2,5.462,5.462,0,0,0,1.094,3.4,5.532,5.532,0,0,0,3.62,2.151l5.574.8a5.448,5.448,0,0,0,.8.058,5.531,5.531,0,0,0,5.107-3.469l24.307,3.509a5.466,5.466,0,0,0,1.074,2.792,5.465,5.465,0,0,0,3.619,2.151l5.562.8a5.4,5.4,0,0,0,.811.06,5.533,5.533,0,0,0,3.295-1.1,5.458,5.458,0,0,0,1.949-2.742,5.513,5.513,0,0,0,2.025-.945,5.462,5.462,0,0,0,2.15-3.619l3.363-23.288,1.81-12.534a5.529,5.529,0,0,0-1.034-4.075A5.534,5.534,0,0,0-170.192,874l-52.35-7.559a5.485,5.485,0,0,0-.814-.06,5.523,5.523,0,0,0-5.435,4.715l-3.129,21.67-2.044,14.152A5.469,5.469,0,0,0-232.926,911Zm33.964-18.232-1.009,6.986-15.748-2.274.68-4.712,1.1-7.627,15.749,2.274Z" fill="#f29a2e"/>
          <path id="パス_27234" data-name="パス 27234" d="M-451.9,952.877l-6.469-18.732a4.99,4.99,0,0,0-1.193-1.907,11.575,11.575,0,0,1-.332-2.4,16.071,16.071,0,0,1,.458-3.283l.185-.918a20.759,20.759,0,0,0-.555-10.293c-1.507-4.792-4.878-10.5-12.371-10.5a15.39,15.39,0,0,0-2.253.194c-.374.056-.747.1-1.128.187l-.064.012a4.106,4.106,0,0,0-.647.191l-.154.053c-.06.022-.122.047-.184.074-.04.017-.188.087-.222.1-4.084,1.971-10.245,6.875-6.171,17.7a20.8,20.8,0,0,0,5.935,8.458l.7.6a22.738,22.738,0,0,1,1.932,1.768c.161.174.312.347.446.524a11.188,11.188,0,0,1,1.115,1.875,5.018,5.018,0,0,0,.194,2.51l5.989,17.341.48,1.391a4.987,4.987,0,0,0,2.55,2.868,5.038,5.038,0,0,0,2.176.5,5.037,5.037,0,0,0,1.632-.274l4.857-1.678a4.948,4.948,0,0,0,2.5-1.956A4.976,4.976,0,0,0-451.9,952.877Z" fill="#f29a2e"/>
          <path id="パス_27235" data-name="パス 27235" d="M-146.883,924.212a4.969,4.969,0,0,0-2.466-2.93l-2.943-1.525a5.038,5.038,0,0,0-2.14-.549v22.741l7.221-13.926A4.97,4.97,0,0,0-146.883,924.212Z" fill="#f29a2e"/>
          <path id="パス_27236" data-name="パス 27236" d="M-187.955,957.278a14.078,14.078,0,0,0,5.724,5.463,14.206,14.206,0,0,0,6.514,1.6,14.2,14.2,0,0,0,4.295-.668,14.07,14.07,0,0,0,8.245-6.894,12.119,12.119,0,0,1-3.437.5Z" fill="#f29a2e"/>
          <path id="パス_27237" data-name="パス 27237" d="M-154.589,919.2a4.98,4.98,0,0,0-4.439,2.7l-8.6,16.579a4.972,4.972,0,0,0-.328,3.814,4.906,4.906,0,0,0,.305.748l-2.316,4.466-11.6-6.013a5.029,5.029,0,0,0-2.291-.555,5,5,0,0,0-1.508.233,4.967,4.967,0,0,0-2.93,2.465,14.08,14.08,0,0,0-.928,10.808,14.269,14.269,0,0,0,1.263,2.836h21.341a12.119,12.119,0,0,0,3.437-.5c.017-.031.037-.06.054-.092a4.949,4.949,0,0,0,.512-1.638l4.194-8.09a4.965,4.965,0,0,0,2.609-2.352l1.376-2.655V919.208C-154.484,919.206-154.537,919.2-154.589,919.2Z" fill="#f29a2e"/>
          <path id="パス_27238" data-name="パス 27238" d="M-154.589,919.2a4.98,4.98,0,0,0-4.439,2.7l-8.6,16.579a4.972,4.972,0,0,0-.328,3.814,4.906,4.906,0,0,0,.305.748l-2.316,4.466-11.6-6.013a5.029,5.029,0,0,0-2.291-.555,5,5,0,0,0-1.508.233,4.967,4.967,0,0,0-2.93,2.465,14.08,14.08,0,0,0-.928,10.808,14.269,14.269,0,0,0,1.263,2.836h21.341a12.119,12.119,0,0,0,3.437-.5c.017-.031.037-.06.054-.092a4.949,4.949,0,0,0,.512-1.638l4.194-8.09a4.965,4.965,0,0,0,2.609-2.352l1.376-2.655V919.208C-154.484,919.206-154.537,919.2-154.589,919.2Z" fill="#f29a2e"/>
        </g>
      </g>
      <g id="グループ_2664" data-name="グループ 2664">
        <g id="グループ_2663" data-name="グループ 2663">
          <path id="パス_27239" data-name="パス 27239" d="M-412.959,889.765h6.416l-.027-.419Z" fill="#fff"/>
          <path id="パス_27240" data-name="パス 27240" d="M-215.039,889.765h16.077l.773-5.353-15.749-2.274Z" fill="#fff"/>
          <path id="パス_27241" data-name="パス 27241" d="M-436.131,891.284l.87,13.275a2.412,2.412,0,0,0,.833,1.688,2.423,2.423,0,0,0,1.619.61c.056,0,.112,0,.169,0l24.645-1.616a2.466,2.466,0,0,0,2.3-2.618l-.843-12.854h-6.417Z" fill="#fff"/>
          <path id="パス_27242" data-name="パス 27242" d="M-158.417,943.956l-4.194,8.09a4.949,4.949,0,0,1-.512,1.638c-.017.032-.037.061-.054.092a12.2,12.2,0,0,0,8.745-11.681v-3.146l-1.376,2.655A4.965,4.965,0,0,1-158.417,943.956Z" fill="#fff"/>
          <path id="パス_27243" data-name="パス 27243" d="M-188.29,940.634a4.967,4.967,0,0,1,2.93-2.465,5,5,0,0,1,1.508-.233,5.029,5.029,0,0,1,2.291.555l11.6,6.013,2.316-4.466a4.906,4.906,0,0,1-.305-.748,4.972,4.972,0,0,1,.328-3.814l8.6-16.579a4.98,4.98,0,0,1,4.439-2.7c.052,0,.105.008.157.01V901.947a12.2,12.2,0,0,0-12.182-12.182h-.731l-3.363,23.288a5.462,5.462,0,0,1-2.15,3.619,5.513,5.513,0,0,1-2.025.945,5.458,5.458,0,0,1-1.949,2.742,5.533,5.533,0,0,1-3.295,1.1,5.4,5.4,0,0,1-.811-.06l-5.562-.8a5.465,5.465,0,0,1-3.619-2.151,5.466,5.466,0,0,1-1.074-2.792l-24.307-3.509a5.531,5.531,0,0,1-5.107,3.469,5.448,5.448,0,0,1-.8-.058l-5.574-.8a5.532,5.532,0,0,1-3.62-2.151,5.462,5.462,0,0,1-1.094-3.4,5.533,5.533,0,0,1-1.23-1.2,5.469,5.469,0,0,1-1.038-4.08l2.044-14.152H-387.593a9.717,9.717,0,0,1-.423.922,15.63,15.63,0,0,1-7.01,6.593l.3,4.62a13.477,13.477,0,0,1-12.551,14.314l-24.649,1.615c-.3.02-.6.029-.895.029a13.432,13.432,0,0,1-8.862-3.341,13.375,13.375,0,0,1-4.556-9.241l-.3-4.619a15.622,15.622,0,0,1-7.813-5.624,8.083,8.083,0,0,1-1.594-5.268h-6.3a12.2,12.2,0,0,0-12.183,12.182v.085a15.39,15.39,0,0,1,2.253-.194c7.493,0,10.864,5.712,12.371,10.5a20.759,20.759,0,0,1,.555,10.293l-.185.918a16.071,16.071,0,0,0-.458,3.283,11.575,11.575,0,0,0,.332,2.4,4.99,4.99,0,0,1,1.193,1.907l6.469,18.732a4.976,4.976,0,0,1-.588,4.4h264.535a14.269,14.269,0,0,1-1.263-2.836A14.08,14.08,0,0,1-188.29,940.634Z" fill="#fff"/>
          <path id="パス_27244" data-name="パス 27244" d="M-215.719,894.477l15.749,2.274,1.009-6.986h-16.077Z" fill="#fff"/>
          <path id="パス_27245" data-name="パス 27245" d="M-472.871,933.578a11.188,11.188,0,0,0-1.115-1.875c-.134-.177-.285-.35-.446-.524v10.916a12.2,12.2,0,0,0,7.744,11.334l-5.989-17.341A5.018,5.018,0,0,1-472.871,933.578Z" fill="#fff"/>
          <path id="パス_27246" data-name="パス 27246" d="M-406.57,889.346l.028.419h18.949a7.477,7.477,0,0,0-.6-7.117,8.28,8.28,0,0,0-6.984-3.491q-.471,0-.953.046l-.119.012a15.954,15.954,0,0,0-15.115-10.988c-.355,0-.712.011-1.065.036l-.965.062a9.5,9.5,0,0,0-9.244-7.419c-.213,0-.428.007-.634.022a9.415,9.415,0,0,0-6.511,3.213,9.409,9.409,0,0,0-2.32,5.411l-.963.063A15.817,15.817,0,0,0-444,875.006a15.813,15.813,0,0,0-3.689,7.581l-.114,0a8.441,8.441,0,0,0-7.418,4.451,7.237,7.237,0,0,0-.726,2.723h42.988Z" fill="#fff"/>
          <path id="パス_27247" data-name="パス 27247" d="M-454.353,895.033a15.622,15.622,0,0,0,7.813,5.624l.3,4.619a13.375,13.375,0,0,0,4.556,9.241,13.432,13.432,0,0,0,8.862,3.341c.3,0,.593-.009.895-.029l24.649-1.615A13.477,13.477,0,0,0-394.724,901.9l-.3-4.62a15.63,15.63,0,0,0,7.01-6.593,9.717,9.717,0,0,0,.423-.922h-18.949l.843,12.854a2.466,2.466,0,0,1-2.3,2.618l-24.645,1.616c-.057,0-.113,0-.169,0a2.423,2.423,0,0,1-1.619-.61,2.412,2.412,0,0,1-.833-1.688l-.87-13.275,23.172-1.519h-42.988A8.083,8.083,0,0,0-454.353,895.033Z" fill="#fff"/>
          <path id="パス_27248" data-name="パス 27248" d="M-454.353,895.033a15.622,15.622,0,0,0,7.813,5.624l.3,4.619a13.375,13.375,0,0,0,4.556,9.241,13.432,13.432,0,0,0,8.862,3.341c.3,0,.593-.009.895-.029l24.649-1.615A13.477,13.477,0,0,0-394.724,901.9l-.3-4.62a15.63,15.63,0,0,0,7.01-6.593,9.717,9.717,0,0,0,.423-.922h-18.949l.843,12.854a2.466,2.466,0,0,1-2.3,2.618l-24.645,1.616c-.057,0-.113,0-.169,0a2.423,2.423,0,0,1-1.619-.61,2.412,2.412,0,0,1-.833-1.688l-.87-13.275,23.172-1.519h-42.988A8.083,8.083,0,0,0-454.353,895.033Z" fill="#fff"/>
          <path id="パス_27249" data-name="パス 27249" d="M-232.926,908a5.533,5.533,0,0,0,1.23,1.2,5.462,5.462,0,0,0,1.094,3.4,5.532,5.532,0,0,0,3.62,2.151l5.574.8a5.448,5.448,0,0,0,.8.058,5.531,5.531,0,0,0,5.107-3.469l24.307,3.509a5.466,5.466,0,0,0,1.074,2.792,5.465,5.465,0,0,0,3.619,2.151l5.562.8a5.4,5.4,0,0,0,.811.06,5.533,5.533,0,0,0,3.295-1.1,5.458,5.458,0,0,0,1.949-2.742,5.513,5.513,0,0,0,2.025-.945,5.462,5.462,0,0,0,2.15-3.619l3.363-23.288,1.81-12.534a5.529,5.529,0,0,0-1.034-4.075A5.534,5.534,0,0,0-170.192,871l-52.35-7.559a5.485,5.485,0,0,0-.814-.06,5.523,5.523,0,0,0-5.435,4.715l-3.129,21.67-2.044,14.152A5.469,5.469,0,0,0-232.926,908Zm33.964-18.232-1.009,6.986-15.748-2.274.68-4.712,1.1-7.627,15.749,2.274Z" fill="#fff"/>
          <path id="パス_27250" data-name="パス 27250" d="M-451.9,949.877l-6.469-18.732a4.99,4.99,0,0,0-1.193-1.907,11.575,11.575,0,0,1-.332-2.4,16.071,16.071,0,0,1,.458-3.283l.185-.918a20.759,20.759,0,0,0-.555-10.293c-1.507-4.792-4.878-10.5-12.371-10.5a15.39,15.39,0,0,0-2.253.194c-.374.056-.747.1-1.128.187l-.064.012a4.106,4.106,0,0,0-.647.191l-.154.053c-.06.022-.122.047-.184.074-.04.017-.188.087-.222.1-4.084,1.971-10.245,6.875-6.171,17.7a20.8,20.8,0,0,0,5.935,8.458l.7.6a22.738,22.738,0,0,1,1.932,1.768c.161.174.312.347.446.524a11.188,11.188,0,0,1,1.115,1.875,5.018,5.018,0,0,0,.194,2.51l5.989,17.341.48,1.391a4.987,4.987,0,0,0,2.55,2.868,5.038,5.038,0,0,0,2.176.5,5.037,5.037,0,0,0,1.632-.274l4.857-1.678a4.948,4.948,0,0,0,2.5-1.956A4.976,4.976,0,0,0-451.9,949.877Z" fill="#fff"/>
          <path id="パス_27251" data-name="パス 27251" d="M-146.883,921.212a4.969,4.969,0,0,0-2.466-2.93l-2.943-1.525a5.038,5.038,0,0,0-2.14-.549v22.741l7.221-13.926A4.97,4.97,0,0,0-146.883,921.212Z" fill="#fff"/>
          <path id="パス_27252" data-name="パス 27252" d="M-187.955,954.278a14.078,14.078,0,0,0,5.724,5.463,14.206,14.206,0,0,0,6.514,1.6,14.2,14.2,0,0,0,4.295-.668,14.07,14.07,0,0,0,8.245-6.894,12.119,12.119,0,0,1-3.437.5Z" fill="#fff"/>
          <path id="パス_27253" data-name="パス 27253" d="M-154.589,916.2a4.98,4.98,0,0,0-4.439,2.7l-8.6,16.579a4.972,4.972,0,0,0-.328,3.814,4.906,4.906,0,0,0,.305.748l-2.316,4.466-11.6-6.013a5.029,5.029,0,0,0-2.291-.555,5,5,0,0,0-1.508.233,4.967,4.967,0,0,0-2.93,2.465,14.08,14.08,0,0,0-.928,10.808,14.269,14.269,0,0,0,1.263,2.836h21.341a12.119,12.119,0,0,0,3.437-.5c.017-.031.037-.06.054-.092a4.949,4.949,0,0,0,.512-1.638l4.194-8.09a4.965,4.965,0,0,0,2.609-2.352l1.376-2.655V916.208C-154.484,916.206-154.537,916.2-154.589,916.2Z" fill="#fff"/>
          <path id="パス_27254" data-name="パス 27254" d="M-154.589,916.2a4.98,4.98,0,0,0-4.439,2.7l-8.6,16.579a4.972,4.972,0,0,0-.328,3.814,4.906,4.906,0,0,0,.305.748l-2.316,4.466-11.6-6.013a5.029,5.029,0,0,0-2.291-.555,5,5,0,0,0-1.508.233,4.967,4.967,0,0,0-2.93,2.465,14.08,14.08,0,0,0-.928,10.808,14.269,14.269,0,0,0,1.263,2.836h21.341a12.119,12.119,0,0,0,3.437-.5c.017-.031.037-.06.054-.092a4.949,4.949,0,0,0,.512-1.638l4.194-8.09a4.965,4.965,0,0,0,2.609-2.352l1.376-2.655V916.208C-154.484,916.206-154.537,916.2-154.589,916.2Z" fill="#fff"/>
        </g>
      </g>
      <g id="グループ_2667" data-name="グループ 2667">
        <rect id="長方形_1317" data-name="長方形 1317" width="312" height="56.513" rx="8.183" transform="translate(-470.431 893.765)" fill="#f2b950"/>
        <path id="パス_27255" data-name="パス 27255" d="M-391.524,884.869a4.473,4.473,0,0,0-4.229-1.684,14.1,14.1,0,0,0-4,1.114,1.49,1.49,0,0,0,.254-.929,11.93,11.93,0,0,0-12.677-11.116l-5.472.358a5.437,5.437,0,0,0,.462-2.578,5.485,5.485,0,0,0-5.834-5.115,5.492,5.492,0,0,0-5.115,5.833,5.405,5.405,0,0,0,.817,2.494l-5.495.361a11.841,11.841,0,0,0-8.184,4.035,11.843,11.843,0,0,0-2.933,8.641,1.482,1.482,0,0,0,.374.888,14.2,14.2,0,0,0-4.108-.583,4.475,4.475,0,0,0-3.973,2.222,3.661,3.661,0,0,0,.537,3.9c1.745,2.446,4.564,4.067,8.361,4.849l.489,7.455a9.4,9.4,0,0,0,3.2,6.495,9.388,9.388,0,0,0,6.224,2.348q.315,0,.633-.02l24.649-1.616a9.472,9.472,0,0,0,8.822-10.06l-.489-7.456c3.663-1.271,6.246-3.246,7.656-5.9A3.661,3.661,0,0,0-391.524,884.869Zm-31.3-16.957c.056,0,.111-.006.167-.006a2.471,2.471,0,0,1,1.636.618,2.474,2.474,0,0,1,.842,1.707,2.49,2.49,0,0,1-2.319,2.643,2.5,2.5,0,0,1-2.644-2.318A2.49,2.49,0,0,1-422.82,867.912Zm-15.918,11.708a8.864,8.864,0,0,1,6.125-3.02l20.638-1.353c.2-.013.394-.019.589-.019a8.941,8.941,0,0,1,8.674,6.85l-33.626,2.205-4.568.3A8.865,8.865,0,0,1-438.738,879.62Zm-9.916,11.349c-.254-.357-.365-.677-.288-.833a1.675,1.675,0,0,1,1.389-.55,14.959,14.959,0,0,1,4.348.795h0l.266,4.062A9.641,9.641,0,0,1-448.654,890.969Zm40.92,18.259-24.648,1.616a6.435,6.435,0,0,1-4.683-1.589,6.422,6.422,0,0,1-2.188-4.435l-1.131-17.266,18.772-1.231,18.772-1.23,1.132,17.264A6.469,6.469,0,0,1-407.734,909.228ZM-394.2,887.4a9.641,9.641,0,0,1-5.212,4.19l-.267-4.063a14.7,14.7,0,0,1,4.207-1.355,1.671,1.671,0,0,1,1.449.363C-393.922,886.68-393.99,887.011-394.2,887.4Z" fill="#f2b950" style="mix-blend-mode: multiply;isolation: isolate"/>
        <g id="グループ_2665" data-name="グループ 2665" style="mix-blend-mode: multiply;isolation: isolate">
          <path id="パス_27256" data-name="パス 27256" d="M-169.777,875.545a1.5,1.5,0,0,0-.987-.587l-52.37-7.562a1.5,1.5,0,0,0-1.7,1.27l-5.173,35.823a1.5,1.5,0,0,0,1.27,1.7l1.443.209-.389,2.692a1.5,1.5,0,0,0,.283,1.113,1.5,1.5,0,0,0,.987.586l5.587.806a1.449,1.449,0,0,0,.216.016,1.5,1.5,0,0,0,1.483-1.286l.389-2.692,31.926,4.61-.388,2.692a1.5,1.5,0,0,0,1.27,1.7l5.586.806a1.4,1.4,0,0,0,.214.016,1.5,1.5,0,0,0,.9-.3,1.5,1.5,0,0,0,.586-.987l.388-2.692,1.89.273a1.538,1.538,0,0,0,.214.015,1.5,1.5,0,0,0,.9-.3,1.5,1.5,0,0,0,.586-.987l5.173-35.824A1.5,1.5,0,0,0-169.777,875.545Zm-52.3-4.965,34.274,4.949-4.744,32.854-27.016-3.9a1.5,1.5,0,0,0-.225-.055l-5.586-.807a1.494,1.494,0,0,0-.24-.011l-1.206-.175Zm.2,37.831-2.617-.378.174-1.208,2.618.378Zm40.482,5.846-2.617-.378.174-1.208,2.618.378Zm3.977-3.69-1.66-.239a1.5,1.5,0,0,0-.226-.057l-5.586-.806a1.412,1.412,0,0,0-.251-.013l-4.435-.641,4.744-32.854,12.158,1.756Z" fill="#f2b950"/>
          <path id="パス_27257" data-name="パス 27257" d="M-222.164,900.619l26.636,3.846a1.6,1.6,0,0,0,.216.015,1.5,1.5,0,0,0,1.483-1.285l3.353-23.226a1.5,1.5,0,0,0-1.27-1.7l-26.635-3.846a1.5,1.5,0,0,0-1.7,1.27l-3.354,23.226a1.5,1.5,0,0,0,.283,1.113A1.506,1.506,0,0,0-222.164,900.619Zm4.839-23.012,23.666,3.417-2.925,20.257-23.666-3.417Z" fill="#f2b950"/>
          <path id="パス_27258" data-name="パス 27258" d="M-185.323,885.93a1.493,1.493,0,0,0,.283,1.113,1.494,1.494,0,0,0,.987.586l7.087,1.024a1.538,1.538,0,0,0,.214.015,1.5,1.5,0,0,0,.9-.3,1.5,1.5,0,0,0,.586-.986l.8-5.54a1.5,1.5,0,0,0-1.271-1.7l-7.086-1.024a1.5,1.5,0,0,0-1.7,1.27Zm3.554-3.626,4.118.594-.371,2.571-4.118-.594Z" fill="#f2b950"/>
          <path id="パス_27259" data-name="パス 27259" d="M-177.95,891.14l-5.863-.847a1.494,1.494,0,0,0-1.7,1.27,1.5,1.5,0,0,0,1.27,1.7l5.863.847a1.592,1.592,0,0,0,.217.015,1.5,1.5,0,0,0,1.482-1.285A1.5,1.5,0,0,0-177.95,891.14Z" fill="#f2b950"/>
          <path id="パス_27260" data-name="パス 27260" d="M-178.6,895.656l-5.864-.847a1.5,1.5,0,0,0-1.7,1.27,1.5,1.5,0,0,0,1.27,1.7l5.864.847a1.578,1.578,0,0,0,.216.015,1.5,1.5,0,0,0,1.482-1.286A1.5,1.5,0,0,0-178.6,895.656Z" fill="#f2b950"/>
          <path id="パス_27261" data-name="パス 27261" d="M-179.254,900.172l-5.863-.847a1.5,1.5,0,0,0-1.7,1.269,1.5,1.5,0,0,0,1.27,1.7l5.863.846a1.449,1.449,0,0,0,.216.016,1.5,1.5,0,0,0,1.483-1.285A1.5,1.5,0,0,0-179.254,900.172Z" fill="#f2b950"/>
          <path id="パス_27262" data-name="パス 27262" d="M-179.906,904.687l-5.864-.846a1.492,1.492,0,0,0-1.7,1.269,1.5,1.5,0,0,0,1.27,1.7l5.863.847a1.452,1.452,0,0,0,.217.016,1.5,1.5,0,0,0,1.482-1.286A1.5,1.5,0,0,0-179.906,904.687Z" fill="#f2b950"/>
        </g>
        <g id="グループ_2666" data-name="グループ 2666" style="mix-blend-mode: multiply;isolation: isolate">
          <path id="パス_27263" data-name="パス 27263" d="M-455.683,951.182l-6.468-18.729a1,1,0,0,0-.508-.573,1.013,1.013,0,0,0-.364-.1,18.208,18.208,0,0,1-.873-4.884,19.078,19.078,0,0,1,.536-4.135l.18-.892a16.793,16.793,0,0,0-.444-8.331c-.719-2.286-2.909-9.232-11.151-7.4l-.012,0-.023,0c-.037.009-.065.033-.1.045s-.074.011-.109.027l-.022.012-.005,0c-7.622,3.645-5.056,10.466-4.212,12.709a16.806,16.806,0,0,0,4.792,6.828l.694.594a19.044,19.044,0,0,1,2.973,2.921,18.226,18.226,0,0,1,2.314,4.348.986.986,0,0,0-.365.385,1,1,0,0,0-.046.764l6.469,18.729a1,1,0,0,0,.508.574,1.013,1.013,0,0,0,.437.1,1.019,1.019,0,0,0,.327-.054l4.855-1.677A1,1,0,0,0-455.683,951.182Zm-17.236-42.04a13.8,13.8,0,0,1,3.876,6.228,28.165,28.165,0,0,1,1.414,7.222l.043.8c.025.473.053.956.087,1.444Zm-1.806.9,5.144,14.895c-.16-.232-.321-.461-.48-.687l-.462-.658a28.206,28.206,0,0,1-3.343-6.555A14.224,14.224,0,0,1-474.725,910.041Zm9.194,4.1a14.81,14.81,0,0,1,.387,7.349l-.175.874q-.129.633-.25,1.282c-.006-.12-.013-.238-.019-.359l-.044-.813a30.232,30.232,0,0,0-1.511-7.733,16.412,16.412,0,0,0-4.165-6.871C-468.572,908.2-466.773,910.2-465.531,914.143Zm-6.946,10.7-.679-.582a14.821,14.821,0,0,1-4.231-6.022c-1.457-3.87-1.277-6.556.679-8.5a16.37,16.37,0,0,0,.96,7.977,30.226,30.226,0,0,0,3.584,7.019l.468.667.205.294C-471.819,925.4-472.149,925.119-472.477,924.841Zm11.613,27.073-5.816-16.839,2.965-1.024,5.815,16.838Z" fill="#f2b950"/>
          <path id="パス_27264" data-name="パス 27264" d="M-460.919,950.015a1,1,0,0,0,.946.674,1,1,0,0,0,.326-.054,1,1,0,0,0,.619-1.272l-.568-1.645a1,1,0,0,0-1.271-.62,1,1,0,0,0-.62,1.272Z" fill="#f2b950"/>
        </g>
        <path id="パス_27265" data-name="パス 27265" d="M-150.7,922.419a1,1,0,0,0-.493-.585l-2.94-1.524a1,1,0,0,0-1.347.428l-8.6,16.58a1,1,0,0,0,.427,1.348l.958.5-5.565,10.733-15.137-7.848a1.007,1.007,0,0,0-.763-.066,1,1,0,0,0-.585.493,10.108,10.108,0,0,0-.666,7.758,10.107,10.107,0,0,0,5.015,5.957,10.124,10.124,0,0,0,4.673,1.148,10.218,10.218,0,0,0,3.086-.481,10.106,10.106,0,0,0,5.957-5.015,1,1,0,0,0,.065-.762l0-.007,5.7-10.99.206.107a1.009,1.009,0,0,0,.461.112,1.011,1.011,0,0,0,.3-.046,1,1,0,0,0,.585-.494l8.6-16.581A1,1,0,0,0-150.7,922.419Zm-22.539,32.532a8.124,8.124,0,0,1-6.233-.536,8.124,8.124,0,0,1-4.03-4.786,8.111,8.111,0,0,1,.129-5.318l14.407,7.47A8.118,8.118,0,0,1-173.236,954.951Zm12.561-17-1.164-.6,7.677-14.8,1.164.6Z" fill="#f2b950" style="mix-blend-mode: multiply;isolation: isolate"/>
      </g>
    </g>
    <text id="キッチン" transform="translate(-4729 3164)" fill="#fff" font-size="32" font-family="rounded-mplus-2p-black, 'Rounded M\+ \32 p'" font-weight="800"><tspan x="0" y="0">キッチン</tspan></text>
  </g>
</svg>
