<svg xmlns="http://www.w3.org/2000/svg" width="353" height="107" viewBox="0 0 353 107">
  <g id="グループ_3075" data-name="グループ 3075" transform="translate(3615 -3089)">
    <rect id="長方形_1370" data-name="長方形 1370" width="353" height="107" transform="translate(-3615 3089)" fill="#fff" opacity="0"/>
    <g id="グループ_3074" data-name="グループ 3074" transform="translate(-3508.882 1714.362)">
      <g id="グループ_3067" data-name="グループ 3067">
        <path id="パス_27964" data-name="パス 27964" d="M246.3,1455.711c-2.982-9.492-11.744-15.148-12.723-15.755a4.99,4.99,0,0,0-1.536-.622,8.01,8.01,0,0,0-2.513-10.11v-9.783a12.2,12.2,0,0,0-12.183-12.182H211.6l1.84-20.442a6.324,6.324,0,0,0-5.73-6.865l-25.493-2.294c-.173-.013-.346-.02-.517-.02a6.3,6.3,0,0,0-6.312,5.754l-2.148,23.867H-34.352l-2.4-10.61a5.049,5.049,0,0,0,.323-.51,4.968,4.968,0,0,0,.425-3.8l-1.173-4.055a5.039,5.039,0,0,0-2.4-3.005,5.027,5.027,0,0,0-2.4-.613,5.012,5.012,0,0,0-1.14.132,17.382,17.382,0,0,0-10.026-3.369h-.226a13.818,13.818,0,0,0-10.088,4.176,17.776,17.776,0,0,0-1.766.3,12.31,12.31,0,0,0-9.2,7.935l-.585.169a4.972,4.972,0,0,0-2.99,2.388,4.969,4.969,0,0,0-.425,3.8l1.173,4.055a5.034,5.034,0,0,0,2.4,3l.006,0h-3.43a12.2,12.2,0,0,0-12.182,12.182v9.762a6.843,6.843,0,0,0-3.165-.781,6.916,6.916,0,0,0-1.607.19l-3.406.833a6.893,6.893,0,0,0-5.034,8.32l.149.611a5.02,5.02,0,0,0-1.074,4.461l.86,3.538a36.765,36.765,0,0,0-1.269,13.09,82.056,82.056,0,0,0,2.277,13.563l.18.741a9.647,9.647,0,0,0,3.1,4.948,8.489,8.489,0,0,0,2.772,1.578,7.341,7.341,0,0,0,2.343.387,7.052,7.052,0,0,0,1.458-.153c.068-.012.136-.027.2-.044l17.94-4.386a8.488,8.488,0,0,0,3.609-1.82,7.834,7.834,0,0,0,1.892-2.508H201.848c0,.194-.013.4-.012.583a5.011,5.011,0,0,0,4.053,4.879l21.116,4.074a5,5,0,0,0,5.6-3.015,57.937,57.937,0,0,0,2.836-11.345,4.919,4.919,0,0,0,.948.092,4.982,4.982,0,0,0,3.422-1.355l5.143-4.83A5.027,5.027,0,0,0,246.3,1455.711Z" fill="#ea4242"/>
      </g>
      <g id="グループ_3068" data-name="グループ 3068">
        <path id="パス_27965" data-name="パス 27965" d="M246.3,1452.711c-2.982-9.492-11.744-15.148-12.723-15.755a4.99,4.99,0,0,0-1.536-.622,8.01,8.01,0,0,0-2.513-10.11v-9.783a12.2,12.2,0,0,0-12.183-12.182H211.6l1.84-20.442a6.324,6.324,0,0,0-5.73-6.865l-25.493-2.294c-.173-.013-.346-.02-.517-.02a6.3,6.3,0,0,0-6.312,5.754l-2.148,23.867H-34.352l-2.4-10.61a5.049,5.049,0,0,0,.323-.51,4.968,4.968,0,0,0,.425-3.8l-1.173-4.055a5.039,5.039,0,0,0-2.4-3.005,5.027,5.027,0,0,0-2.4-.613,5.012,5.012,0,0,0-1.14.132,17.382,17.382,0,0,0-10.026-3.369h-.226a13.818,13.818,0,0,0-10.088,4.176,17.776,17.776,0,0,0-1.766.3,12.31,12.31,0,0,0-9.2,7.935l-.585.169a4.972,4.972,0,0,0-2.99,2.388,4.969,4.969,0,0,0-.425,3.8l1.173,4.055a5.034,5.034,0,0,0,2.4,3l.006,0h-3.43a12.2,12.2,0,0,0-12.182,12.182v9.762a6.843,6.843,0,0,0-3.165-.781,6.916,6.916,0,0,0-1.607.19l-3.406.833a6.893,6.893,0,0,0-5.034,8.32l.149.611a5.02,5.02,0,0,0-1.074,4.461l.86,3.538a36.765,36.765,0,0,0-1.269,13.09,82.056,82.056,0,0,0,2.277,13.563l.18.741a9.647,9.647,0,0,0,3.1,4.948,8.489,8.489,0,0,0,2.772,1.578,7.341,7.341,0,0,0,2.343.387,7.052,7.052,0,0,0,1.458-.153c.068-.012.136-.027.2-.044l17.94-4.386a8.488,8.488,0,0,0,3.609-1.82,7.834,7.834,0,0,0,1.892-2.508H201.848c0,.194-.013.4-.012.583a5.011,5.011,0,0,0,4.053,4.879l21.116,4.074a5,5,0,0,0,5.6-3.015,57.937,57.937,0,0,0,2.836-11.345,4.919,4.919,0,0,0,.948.092,4.982,4.982,0,0,0,3.422-1.355l5.143-4.83A5.027,5.027,0,0,0,246.3,1452.711Z" fill="#fff"/>
      </g>
      <g id="グループ_3073" data-name="グループ 3073">
        <rect id="長方形_1371" data-name="長方形 1371" width="312" height="56.513" rx="8.183" transform="translate(-86.468 1408.258)" fill="#f25c5c"/>
        <g id="グループ_3069" data-name="グループ 3069" style="mix-blend-mode: multiply;isolation: isolate">
          <path id="パス_27966" data-name="パス 27966" d="M-37.418,1408.832l-3.834-16.939.721-.208a1,1,0,0,0,.683-1.239l-1.174-4.06a1,1,0,0,0-.478-.6,1.006,1.006,0,0,0-.76-.085l-1.858.537c-.012-.014-.015-.031-.027-.045a12.906,12.906,0,0,0-9.062-3.768,9.761,9.761,0,0,0-8.233,3.979c-.011.017-.011.037-.021.054a15.123,15.123,0,0,0-2.889.349,8.818,8.818,0,0,0-6.855,6.993c-.032.12-.056.211-.081.293l-2.62.758a1,1,0,0,0-.683,1.238l1.174,4.06a1,1,0,0,0,.477.6,1.006,1.006,0,0,0,.483.124,1.009,1.009,0,0,0,.278-.039l.721-.209,5.8,16.372a4.9,4.9,0,0,0,4.615,3.26,4.9,4.9,0,0,0,1.357-.193l18.854-5.451A4.9,4.9,0,0,0-37.418,1408.832Zm-15.83-24.406a11.393,11.393,0,0,1,6.9,2.458l-5.787,1.673a.932.932,0,0,0-.077-.062,21.216,21.216,0,0,0-6.729-1.935,7.846,7.846,0,0,1,5.5-2.136C-53.375,1384.424-53.311,1384.424-53.248,1384.426Zm-10.662,4.333a16.732,16.732,0,0,1,8.706.685l-13.812,3.994A6.53,6.53,0,0,1-63.91,1388.759Zm-8.48,7.736,29.724-8.594.619,2.14-.665.192h0l-14.2,4.1-14.862,4.3Zm31,16.2-18.854,5.452a2.9,2.9,0,0,1-3.53-1.814l-5.759-16.26,16.441-4.753,9.914-2.867,3.807,16.824A2.9,2.9,0,0,1-41.388,1412.691Z" fill="#ea4242"/>
          <path id="パス_27967" data-name="パス 27967" d="M-62.174,1401.018a1,1,0,0,0-1.238-.683l-2.508.726a1,1,0,0,0-.683,1.239,1,1,0,0,0,.96.721,1,1,0,0,0,.279-.039l2.508-.725A1,1,0,0,0-62.174,1401.018Z" fill="#ea4242"/>
          <path id="パス_27968" data-name="パス 27968" d="M-59.739,1401.314a.993.993,0,0,0,.278-.039l2.508-.725a1,1,0,0,0,.683-1.239,1,1,0,0,0-1.238-.683l-2.509.726a1,1,0,0,0-.682,1.239A1,1,0,0,0-59.739,1401.314Z" fill="#ea4242"/>
          <path id="パス_27969" data-name="パス 27969" d="M-53.835,1399.607a.986.986,0,0,0,.277-.039l2.509-.724a1,1,0,0,0,.683-1.239,1,1,0,0,0-1.238-.683l-2.508.724a1,1,0,0,0-.684,1.239A1,1,0,0,0-53.835,1399.607Z" fill="#ea4242"/>
          <path id="パス_27970" data-name="パス 27970" d="M-47.932,1397.9a.993.993,0,0,0,.278-.039l2.508-.724a1,1,0,0,0,.684-1.239,1,1,0,0,0-1.239-.683l-2.508.724a1,1,0,0,0-.684,1.239A1,1,0,0,0-47.932,1397.9Z" fill="#ea4242"/>
          <path id="パス_27971" data-name="パス 27971" d="M-62.677,1404.816a1,1,0,0,0,.96.722,1.037,1.037,0,0,0,.279-.039l2.508-.726a1,1,0,0,0,.682-1.239,1,1,0,0,0-1.238-.682l-2.508.725A1,1,0,0,0-62.677,1404.816Z" fill="#ea4242"/>
          <path id="パス_27972" data-name="パス 27972" d="M-56.773,1403.109a1,1,0,0,0,.96.722,1.025,1.025,0,0,0,.278-.039l2.509-.726a1,1,0,0,0,.682-1.239,1,1,0,0,0-1.238-.682l-2.508.725A1,1,0,0,0-56.773,1403.109Z" fill="#ea4242"/>
          <path id="パス_27973" data-name="パス 27973" d="M-50.869,1401.4a1,1,0,0,0,.96.722,1.03,1.03,0,0,0,.278-.039l2.508-.726a1,1,0,0,0,.683-1.239,1,1,0,0,0-1.239-.682l-2.508.725A1,1,0,0,0-50.869,1401.4Z" fill="#ea4242"/>
          <path id="パス_27974" data-name="パス 27974" d="M-60.225,1407.759a1,1,0,0,0-1.238-.684l-2.508.725a1,1,0,0,0-.684,1.238,1,1,0,0,0,.961.723,1.023,1.023,0,0,0,.277-.039l2.509-.725A1,1,0,0,0-60.225,1407.759Z" fill="#ea4242"/>
          <path id="パス_27975" data-name="パス 27975" d="M-55.559,1405.368l-2.508.725a1,1,0,0,0-.684,1.238,1,1,0,0,0,.96.723,1.025,1.025,0,0,0,.278-.039l2.509-.725a1,1,0,0,0,.683-1.238A1,1,0,0,0-55.559,1405.368Z" fill="#ea4242"/>
          <path id="パス_27976" data-name="パス 27976" d="M-49.656,1403.661l-2.508.726a1,1,0,0,0-.683,1.239,1,1,0,0,0,.96.722,1.038,1.038,0,0,0,.279-.039l2.507-.726a1,1,0,0,0,.683-1.239A1,1,0,0,0-49.656,1403.661Z" fill="#ea4242"/>
          <path id="パス_27977" data-name="パス 27977" d="M-46.943,1403.919a1,1,0,0,0,.96.722,1.036,1.036,0,0,0,.278-.039l2.508-.726a1,1,0,0,0,.683-1.239,1,1,0,0,0-1.238-.683l-2.509.726A1,1,0,0,0-46.943,1403.919Z" fill="#ea4242"/>
          <path id="パス_27978" data-name="パス 27978" d="M-56.3,1410.275a1,1,0,0,0-1.239-.683l-2.508.724a1,1,0,0,0-.684,1.239,1,1,0,0,0,.961.722.993.993,0,0,0,.278-.039l2.508-.724A1,1,0,0,0-56.3,1410.275Z" fill="#ea4242"/>
          <path id="パス_27979" data-name="パス 27979" d="M-50.4,1408.568a1,1,0,0,0-1.238-.683l-2.508.724a1,1,0,0,0-.684,1.239,1,1,0,0,0,.961.722.993.993,0,0,0,.278-.039l2.508-.724A1,1,0,0,0-50.4,1408.568Z" fill="#ea4242"/>
          <path id="パス_27980" data-name="パス 27980" d="M-44.491,1406.861a1,1,0,0,0-1.238-.683l-2.509.724a1,1,0,0,0-.683,1.239,1,1,0,0,0,.96.722.988.988,0,0,0,.278-.039l2.508-.724A1,1,0,0,0-44.491,1406.861Z" fill="#ea4242"/>
          <path id="パス_27981" data-name="パス 27981" d="M-59.515,1413.814l-2.508.726a1,1,0,0,0-.683,1.239,1,1,0,0,0,.96.722,1.037,1.037,0,0,0,.279-.039l2.508-.726a1,1,0,0,0,.683-1.239A1,1,0,0,0-59.515,1413.814Z" fill="#ea4242"/>
          <path id="パス_27982" data-name="パス 27982" d="M-53.611,1412.107l-2.508.726a1,1,0,0,0-.683,1.239,1,1,0,0,0,.96.722,1.037,1.037,0,0,0,.279-.039l2.508-.726a1,1,0,0,0,.682-1.239A1,1,0,0,0-53.611,1412.107Z" fill="#ea4242"/>
          <path id="パス_27983" data-name="パス 27983" d="M-47.708,1410.4l-2.508.726a1,1,0,0,0-.682,1.239,1,1,0,0,0,.96.722,1.036,1.036,0,0,0,.278-.039l2.508-.726a1,1,0,0,0,.683-1.239A1,1,0,0,0-47.708,1410.4Z" fill="#ea4242"/>
          <path id="パス_27984" data-name="パス 27984" d="M-41.8,1408.694l-2.509.725a1,1,0,0,0-.683,1.238,1,1,0,0,0,.96.723,1.025,1.025,0,0,0,.278-.039l2.508-.725a1,1,0,0,0,.684-1.238A1,1,0,0,0-41.8,1408.694Z" fill="#ea4242"/>
        </g>
        <g id="グループ_3070" data-name="グループ 3070" style="mix-blend-mode: multiply;isolation: isolate">
          <path id="パス_27985" data-name="パス 27985" d="M242.488,1453.91c-2.592-8.251-10.683-13.348-11.026-13.561a.982.982,0,0,0-.8-.111,1,1,0,0,0-.623.517,6.974,6.974,0,0,1-12.968-2.5,1,1,0,0,0-.383-.715.982.982,0,0,0-.787-.195c-.4.069-9.8,1.791-15.281,8.487a1,1,0,0,0-.133,1.055l2.978,6.4a1,1,0,0,0,1.321.488l4.221-1.92c-1.069,3.913-3.2,12.376-3.17,17.478a1,1,0,0,0,.81.976l21.144,4.079a1.019,1.019,0,0,0,.189.018,1,1,0,0,0,.926-.622c1.927-4.725,3.1-13.375,3.559-17.405l3.2,3.353a1,1,0,0,0,1.408.039l5.143-4.83A1,1,0,0,0,242.488,1453.91Zm-20.209-7.8a8.718,8.718,0,0,0,8.96-3.495c.172.124.373.275.587.437-.8,1.506-3.467,5.267-9.741,4.059s-7.35-5.7-7.531-7.391c.259-.072.5-.137.708-.188A8.725,8.725,0,0,0,222.279,1446.114Zm14.151,11.518-4.009-4.195a1,1,0,0,0-1.719.6c-.012.125-1.146,12.052-3.358,18.229L207.85,1468.5c.244-6.555,3.628-18.049,3.664-18.169a1,1,0,0,0-1.373-1.194l-5.282,2.4-2.289-4.915a24.144,24.144,0,0,1,10.065-6.3c.384,2.4,2.031,7.4,9.072,8.754a14.364,14.364,0,0,0,2.733.275,10.1,10.1,0,0,0,8.942-5.027,24.136,24.136,0,0,1,7,9.594Z" fill="#ea4242"/>
          <path id="パス_27986" data-name="パス 27986" d="M219.161,1439.908a23.9,23.9,0,0,1,8.3,1.6,1,1,0,1,0,.722-1.865,25.726,25.726,0,0,0-3.438-1.033l.352-1.821a4.038,4.038,0,0,0,3.1-6.294,4.038,4.038,0,0,0-7.309,1.5,1,1,0,1,0,1.963.379,2.038,2.038,0,1,1,1.615,2.387,1.006,1.006,0,0,0-1.171.793l-.517,2.68a25.88,25.88,0,0,0-3.6-.322h-.013a1,1,0,0,0-.011,2Z" fill="#ea4242"/>
        </g>
        <g id="グループ_3071" data-name="グループ 3071" style="mix-blend-mode: multiply;isolation: isolate">
          <path id="パス_27987" data-name="パス 27987" d="M208.921,1381.762a2.3,2.3,0,0,0-1.575-.825l-25.457-2.291a2.332,2.332,0,0,0-2.522,2.1l-2.975,33.053a2.318,2.318,0,0,0,1.4,2.33l-.183,2.025a1,1,0,0,0,.907,1.086c.031,0,.061,0,.091,0a1,1,0,0,0,.995-.91l.171-1.9,22.916,2.063-.171,1.9a1,1,0,0,0,.906,1.086c.031,0,.061,0,.091,0a1,1,0,0,0,1-.91l.182-2.02a2.323,2.323,0,0,0,1.789-2.048l2.975-33.053A2.308,2.308,0,0,0,208.921,1381.762Zm-27.447-1.051a.3.3,0,0,1,.235-.073l25.458,2.291a.322.322,0,0,1,.292.35l-.366,4.067-26.1-2.349.366-4.067A.314.314,0,0,1,181.474,1380.711Zm23.01,35.621a.32.32,0,0,1-.351.293l-25.457-2.292a.323.323,0,0,1-.292-.351l.2-2.18,26.1,2.35Zm.375-4.172-26.1-2.35,2.055-22.82,26.1,2.349Z" fill="#ea4242"/>
          <path id="パス_27988" data-name="パス 27988" d="M193.633,1390.723a8.954,8.954,0,0,0-1.6,17.836c.274.024.547.037.82.037a8.954,8.954,0,0,0,.785-17.873Zm6.123,9.542a6.954,6.954,0,1,1-6.93-7.578c.207,0,.417.008.628.028A6.963,6.963,0,0,1,199.756,1400.265Z" fill="#ea4242"/>
          <path id="パス_27989" data-name="パス 27989" d="M183.619,1383.921l4.228.38c.03,0,.06,0,.09,0a1,1,0,0,0,.088-2l-4.227-.38a.988.988,0,0,0-1.086.906A1,1,0,0,0,183.619,1383.921Z" fill="#ea4242"/>
          <path id="パス_27990" data-name="パス 27990" d="M203.812,1385.738l1.116.1a.908.908,0,0,0,.091,0,1,1,0,0,0,.088-2l-1.116-.1a1,1,0,1,0-.179,1.992Z" fill="#ea4242"/>
          <path id="パス_27991" data-name="パス 27991" d="M199.958,1385.392l1.116.1a.908.908,0,0,0,.091,0,1,1,0,0,0,.088-2l-1.116-.1a1,1,0,1,0-.179,1.993Z" fill="#ea4242"/>
        </g>
        <g id="グループ_3072" data-name="グループ 3072" style="mix-blend-mode: multiply;isolation: isolate">
          <path id="パス_27992" data-name="パス 27992" d="M-77.9,1447.272a22.613,22.613,0,0,0-8.833-7.063l-1.087-4.469a1.023,1.023,0,0,0-1.236-.751l-.913.223-.879-3.6a2.869,2.869,0,0,0-3.457-2.108l-.011,0-3.378.826a2.868,2.868,0,0,0-2.107,3.456l.007.029.875,3.585-1.049.256a1.023,1.023,0,0,0-.751,1.235l1.127,4.633a32.3,32.3,0,0,0-1.431,12.677,77.439,77.439,0,0,0,2.176,12.894c.057.235.113.468.17.7a5.585,5.585,0,0,0,1.8,2.862,4.486,4.486,0,0,0,1.468.844,3.212,3.212,0,0,0,1.754.1h0l.019,0,.006,0,17.947-4.388a4.562,4.562,0,0,0,1.935-.956,4.2,4.2,0,0,0,1.323-2.365,10.134,10.134,0,0,0,.151-2.3,28.353,28.353,0,0,0-.787-5.966A27.952,27.952,0,0,0-77.9,1447.272Zm-19.254-14.742,3.378-.826a.6.6,0,0,1,.727.444l.88,3.6-4.55,1.112-.88-3.6A.6.6,0,0,1-97.154,1432.53Zm7.427,4.955.657,2.7-8.5,2.078-.657-2.7Zm15.193,26.158a5.96,5.96,0,0,1-.239,2.236,1.654,1.654,0,0,1-.456.665,2.308,2.308,0,0,1-.988.467L-94.16,1471.4h0a.967.967,0,0,1-.527-.044,2.628,2.628,0,0,1-1.081-.781,3.234,3.234,0,0,1-.706-1.315q-.085-.345-.168-.692a75.135,75.135,0,0,1-2.118-12.514,30.33,30.33,0,0,1,1.205-11.461l9.749-2.385a20.329,20.329,0,0,1,8.106,6.436,25.72,25.72,0,0,1,4.443,9.513A26.135,26.135,0,0,1-74.534,1463.643Z" fill="#ea4242"/>
          <path id="パス_27993" data-name="パス 27993" d="M-81.8,1449.91a3.308,3.308,0,0,0-1.134-.606,2.489,2.489,0,0,0-1.275-.044,2.16,2.16,0,0,0-.985.535,2.687,2.687,0,0,0-.768,1.58,5.589,5.589,0,0,0,.149,2.129,14.216,14.216,0,0,0,1.38,3.384,9.007,9.007,0,0,0,2.221,2.865,3.5,3.5,0,0,0,1.181.623,2.381,2.381,0,0,0,1.224.038,2.26,2.26,0,0,0,1-.537,2.81,2.81,0,0,0,.8-1.363,3.451,3.451,0,0,0,.036-1.6c-.026-.121-.053-.241-.083-.364a15.348,15.348,0,0,0-1.4-3.668A9.747,9.747,0,0,0-81.8,1449.91Zm1.908,7.411a1.442,1.442,0,0,1-.078.873.743.743,0,0,1-.163.236l-.133.076a.441.441,0,0,1-.225-.016,2.194,2.194,0,0,1-.879-.615,8.7,8.7,0,0,1-1.337-1.922,12.358,12.358,0,0,1-1.2-2.908,3.023,3.023,0,0,1-.059-1.615.525.525,0,0,1,.121-.212l.093-.049a.521.521,0,0,1,.266.02,1.354,1.354,0,0,1,.453.25,7.89,7.89,0,0,1,1.85,2.374,13.5,13.5,0,0,1,1.218,3.193C-79.938,1457.111-79.914,1457.216-79.892,1457.321Z" fill="#ea4242"/>
        </g>
      </g>
    </g>
    <text id="お洗濯" transform="translate(-3486 3163)" fill="#fff" font-size="32" font-family="rounded-mplus-2p-black, 'Rounded M\+ \32 p'" font-weight="800"><tspan x="0" y="0">お</tspan><tspan y="0">洗濯</tspan></text>
  </g>
</svg>
