<svg xmlns="http://www.w3.org/2000/svg" width="333" height="98" viewBox="0 0 333 98">
  <g id="グループ_2957" data-name="グループ 2957" transform="translate(4090 -3098)">
    <rect id="長方形_1354" data-name="長方形 1354" width="333" height="98" transform="translate(-4090 3098)" fill="#fff" opacity="0"/>
    <g id="グループ_2956" data-name="グループ 2956" transform="translate(-4004.4 1840.849)">
      <g id="グループ_2949" data-name="グループ 2949">
        <path id="長方形_1355" data-name="長方形 1355" d="M12.183,0H307.817A12.183,12.183,0,0,1,320,12.183V52.331a12.183,12.183,0,0,1-12.183,12.183H12.184A12.184,12.184,0,0,1,0,52.33V12.183A12.183,12.183,0,0,1,12.183,0Z" transform="translate(-76.751 1283.309)" fill="#049dd9"/>
        <path id="パス_27751" data-name="パス 27751" d="M-68.4,1350.421a7.06,7.06,0,0,1-7.052-7.053,7.059,7.059,0,0,1,7.052-7.052,7.06,7.06,0,0,1,7.052,7.052A7.061,7.061,0,0,1-68.4,1350.421Z" fill="#049dd9"/>
        <path id="パス_27752" data-name="パス 27752" d="M233.579,1330.289a7.052,7.052,0,1,1,7.052-7.053A7.06,7.06,0,0,1,233.579,1330.289Z" fill="#049dd9"/>
        <path id="パス_27753" data-name="パス 27753" d="M-62.789,1344.594a6.629,6.629,0,0,1-6.621-6.621,6.628,6.628,0,0,1,6.621-6.62,6.627,6.627,0,0,1,6.62,6.62A6.628,6.628,0,0,1-62.789,1344.594Z" fill="#049dd9"/>
        <path id="パス_27754" data-name="パス 27754" d="M228.386,1354.972a9.241,9.241,0,0,1-6.294-2.436,8.977,8.977,0,0,1-8.794-8.833c0-.181.006-.361.018-.542a8.683,8.683,0,0,1-2.176-5.747,8.9,8.9,0,0,1,6.661-8.513,9.294,9.294,0,0,1,11.745-2.443,9.376,9.376,0,0,1,2.41-.312,9.143,9.143,0,0,1,8.144,4.871,8.826,8.826,0,0,1,5.823,8.25,8.71,8.71,0,0,1-2.228,5.791,9.053,9.053,0,0,1-8.572,7.014A9.3,9.3,0,0,1,228.386,1354.972Zm-3.26-13.52a5.28,5.28,0,0,1,2.937,1.3,5.251,5.251,0,0,1,5.494-1.894c.022-.067.045-.133.069-.2a5.257,5.257,0,0,1-2.786-2.854,5.266,5.266,0,0,1-2.1.438,5.149,5.149,0,0,1-.642-.039,5.331,5.331,0,0,1-2.626-1.109,5.234,5.234,0,0,1-1.121,1.108l0,0a5.315,5.315,0,0,1,.57,1.261A5.243,5.243,0,0,1,225.126,1341.452Z" fill="#049dd9"/>
        <path id="パス_27755" data-name="パス 27755" d="M-72.037,1340.114a8.746,8.746,0,0,1-5.8-2.183,8.793,8.793,0,0,1-7.762-8.72,8.779,8.779,0,0,1,2.483-6.126,8.793,8.793,0,0,1,8.7-7.616,8.824,8.824,0,0,1,6.686,3.1,8.842,8.842,0,0,1,6.312,8.421,8.823,8.823,0,0,1-1.911,5.454A8.79,8.79,0,0,1-72.037,1340.114Z" fill="#049dd9"/>
        <g id="グループ_2947" data-name="グループ 2947">
          <path id="パス_27756" data-name="パス 27756" d="M240.4,1337.067a4.149,4.149,0,0,1-4.123-3.673c-.005-.05-.011-.1-.016-.142a4.149,4.149,0,0,1,0-7.868q.007-.06.015-.126a4.149,4.149,0,0,1,8.246-.014c.006.05.011.1.017.141a4.149,4.149,0,0,1,0,7.868c-.005.041-.01.083-.015.127A4.152,4.152,0,0,1,240.4,1337.067Z" fill="#049dd9"/>
        </g>
        <g id="グループ_2948" data-name="グループ 2948">
          <path id="パス_27757" data-name="パス 27757" d="M-59.588,1312.183a6.909,6.909,0,0,1-6.784-5.829l-5.6-36.683a6.872,6.872,0,0,1,5.748-7.819l6.75-1.03a6.959,6.959,0,0,1,1.042-.08,6.8,6.8,0,0,1,4.06,1.336,6.816,6.816,0,0,1,2.718,4.494l2.2,14.394,16.851-2.57a6.79,6.79,0,0,1,1.047-.082,6.794,6.794,0,0,1,4.086,1.359,6.8,6.8,0,0,1,2.7,4.537c.844,5.986-1.125,11.068-5.4,13.947a25.419,25.419,0,0,1-7.865,3.461c-.483.138-1.1.314-1.478.456a6.815,6.815,0,0,1-1.164,5.194,6.8,6.8,0,0,1-4.558,2.8l-13.312,2.032A6.947,6.947,0,0,1-59.588,1312.183Zm3.047-11.007,6.63-1.012a9.964,9.964,0,0,1,2.012-4.6c2.081-2.646,4.8-3.42,6.983-4.041a15.718,15.718,0,0,0,4.694-1.953l-15.245,2.326a6.935,6.935,0,0,1-1.044.08,6.807,6.807,0,0,1-4.057-1.335,6.86,6.86,0,0,1-1.907-2.141Z" fill="#049dd9"/>
          <path id="パス_27758" data-name="パス 27758" d="M-50.632,1288.176a5.221,5.221,0,0,1-5.188-4.456l-2.479-16.248a5.218,5.218,0,0,1,.961-3.9,5.212,5.212,0,0,1,3.441-2.08,5.221,5.221,0,0,1,.8-.06,5.217,5.217,0,0,1,5.181,4.456l1.687,11.059,14.616-2.229a5.271,5.271,0,0,1,.791-.06,5.221,5.221,0,0,1,5.191,4.455,5.221,5.221,0,0,1-.961,3.905,5.212,5.212,0,0,1-3.441,2.08l-19.8,3.02A5.212,5.212,0,0,1-50.632,1288.176Z" fill="#049dd9"/>
          <path id="パス_27759" data-name="パス 27759" d="M214.93,1310.123a5.27,5.27,0,0,1-5.137-4.172,62.644,62.644,0,0,1-7.313-.863l-1.31-.209a55.992,55.992,0,0,1-8.049-1.691,5.248,5.248,0,0,1-6.886,2.222,5.249,5.249,0,0,1-2.453-7.013l.261-.542q-.3-.306-.575-.626a19.491,19.491,0,0,1-4.424-14.177,5.248,5.248,0,0,1,3.331-9.3,5.341,5.341,0,0,1,.831.065l36.37,5.774.912-5.747a5.43,5.43,0,0,1-.627.037,5.251,5.251,0,0,1-5.007-6.833,9.217,9.217,0,0,1,4.912-5.659,8.11,8.11,0,0,1,3.384-.736,8.332,8.332,0,0,1,3.341.7c3.756,1.645,5.693,5.782,4.937,10.542l-1.491,9.393a5.254,5.254,0,0,1,.341,9.9,19.5,19.5,0,0,1-8.6,12.1,17.417,17.417,0,0,1-1.556.821l.007.055a5.257,5.257,0,0,1-4.5,5.9A5.792,5.792,0,0,1,214.93,1310.123Zm-25.387-24.671a8.275,8.275,0,0,0,1.821,4.857c2.436,2.78,6.812,3.468,11.445,4.2l1.327.211a45.375,45.375,0,0,0,6.941.763,9.911,9.911,0,0,0,5.24-1.211,8.272,8.272,0,0,0,3.235-4.055Z" fill="#049dd9"/>
        </g>
      </g>
      <g id="グループ_2952" data-name="グループ 2952">
        <path id="長方形_1356" data-name="長方形 1356" d="M12.183,0H307.817A12.183,12.183,0,0,1,320,12.183V52.331a12.183,12.183,0,0,1-12.183,12.183H12.184A12.184,12.184,0,0,1,0,52.33V12.183A12.183,12.183,0,0,1,12.183,0Z" transform="translate(-76.751 1280.309)" fill="#fff"/>
        <path id="パス_27760" data-name="パス 27760" d="M-68.4,1347.421a7.06,7.06,0,0,1-7.052-7.053,7.059,7.059,0,0,1,7.052-7.052,7.06,7.06,0,0,1,7.052,7.052A7.061,7.061,0,0,1-68.4,1347.421Z" fill="#fff"/>
        <path id="パス_27761" data-name="パス 27761" d="M233.579,1327.289a7.052,7.052,0,1,1,7.052-7.053A7.06,7.06,0,0,1,233.579,1327.289Z" fill="#fff"/>
        <path id="パス_27762" data-name="パス 27762" d="M-62.789,1341.594a6.629,6.629,0,0,1-6.621-6.621,6.628,6.628,0,0,1,6.621-6.62,6.627,6.627,0,0,1,6.62,6.62A6.628,6.628,0,0,1-62.789,1341.594Z" fill="#fff"/>
        <path id="パス_27763" data-name="パス 27763" d="M228.386,1351.972a9.241,9.241,0,0,1-6.294-2.436,8.977,8.977,0,0,1-8.794-8.833c0-.181.006-.361.018-.542a8.683,8.683,0,0,1-2.176-5.747,8.9,8.9,0,0,1,6.661-8.513,9.294,9.294,0,0,1,11.745-2.443,9.376,9.376,0,0,1,2.41-.312,9.143,9.143,0,0,1,8.144,4.871,8.826,8.826,0,0,1,5.823,8.25,8.71,8.71,0,0,1-2.228,5.791,9.053,9.053,0,0,1-8.572,7.014A9.3,9.3,0,0,1,228.386,1351.972Zm-3.26-13.52a5.28,5.28,0,0,1,2.937,1.3,5.251,5.251,0,0,1,5.494-1.894c.022-.067.045-.133.069-.2a5.257,5.257,0,0,1-2.786-2.854,5.266,5.266,0,0,1-2.1.438,5.149,5.149,0,0,1-.642-.039,5.331,5.331,0,0,1-2.626-1.109,5.234,5.234,0,0,1-1.121,1.108l0,0a5.315,5.315,0,0,1,.57,1.261A5.243,5.243,0,0,1,225.126,1338.452Z" fill="#fff"/>
        <path id="パス_27764" data-name="パス 27764" d="M-72.037,1337.114a8.746,8.746,0,0,1-5.8-2.183,8.793,8.793,0,0,1-7.762-8.72,8.779,8.779,0,0,1,2.483-6.126,8.793,8.793,0,0,1,8.7-7.616,8.824,8.824,0,0,1,6.686,3.1,8.842,8.842,0,0,1,6.312,8.421,8.823,8.823,0,0,1-1.911,5.454A8.79,8.79,0,0,1-72.037,1337.114Z" fill="#fff"/>
        <g id="グループ_2950" data-name="グループ 2950">
          <path id="パス_27765" data-name="パス 27765" d="M240.4,1334.067a4.149,4.149,0,0,1-4.123-3.673c-.005-.05-.011-.1-.016-.142a4.149,4.149,0,0,1,0-7.868q.007-.06.015-.126a4.149,4.149,0,0,1,8.246-.014c.006.05.011.1.017.141a4.149,4.149,0,0,1,0,7.868c-.005.041-.01.083-.015.127A4.152,4.152,0,0,1,240.4,1334.067Z" fill="#fff"/>
        </g>
        <g id="グループ_2951" data-name="グループ 2951">
          <path id="パス_27766" data-name="パス 27766" d="M-59.588,1309.183a6.909,6.909,0,0,1-6.784-5.829l-5.6-36.683a6.872,6.872,0,0,1,5.748-7.819l6.75-1.03a6.959,6.959,0,0,1,1.042-.08,6.8,6.8,0,0,1,4.06,1.336,6.816,6.816,0,0,1,2.718,4.494l2.2,14.394,16.851-2.57a6.79,6.79,0,0,1,1.047-.082,6.794,6.794,0,0,1,4.086,1.359,6.8,6.8,0,0,1,2.7,4.537c.844,5.986-1.125,11.068-5.4,13.947a25.419,25.419,0,0,1-7.865,3.461c-.483.138-1.1.314-1.478.456a6.815,6.815,0,0,1-1.164,5.194,6.8,6.8,0,0,1-4.558,2.8l-13.312,2.032A6.947,6.947,0,0,1-59.588,1309.183Zm3.047-11.007,6.63-1.012a9.964,9.964,0,0,1,2.012-4.6c2.081-2.646,4.8-3.42,6.983-4.041a15.718,15.718,0,0,0,4.694-1.953l-15.245,2.326a6.935,6.935,0,0,1-1.044.08,6.807,6.807,0,0,1-4.057-1.335,6.86,6.86,0,0,1-1.907-2.141Z" fill="#fff"/>
          <path id="パス_27767" data-name="パス 27767" d="M-50.632,1285.176a5.221,5.221,0,0,1-5.188-4.456l-2.479-16.248a5.218,5.218,0,0,1,.961-3.9,5.212,5.212,0,0,1,3.441-2.08,5.221,5.221,0,0,1,.8-.06,5.217,5.217,0,0,1,5.181,4.456l1.687,11.059,14.616-2.229a5.271,5.271,0,0,1,.791-.06,5.221,5.221,0,0,1,5.191,4.455,5.221,5.221,0,0,1-.961,3.905,5.212,5.212,0,0,1-3.441,2.08l-19.8,3.02A5.212,5.212,0,0,1-50.632,1285.176Z" fill="#fff"/>
          <path id="パス_27768" data-name="パス 27768" d="M214.93,1307.123a5.27,5.27,0,0,1-5.137-4.172,62.644,62.644,0,0,1-7.313-.863l-1.31-.209a55.992,55.992,0,0,1-8.049-1.691,5.248,5.248,0,0,1-6.886,2.222,5.249,5.249,0,0,1-2.453-7.013l.261-.542q-.3-.306-.575-.626a19.491,19.491,0,0,1-4.424-14.177,5.248,5.248,0,0,1,3.331-9.3,5.341,5.341,0,0,1,.831.065l36.37,5.774.912-5.747a5.43,5.43,0,0,1-.627.037,5.251,5.251,0,0,1-5.007-6.833,9.217,9.217,0,0,1,4.912-5.659,8.11,8.11,0,0,1,3.384-.736,8.332,8.332,0,0,1,3.341.7c3.756,1.645,5.693,5.782,4.937,10.542l-1.491,9.393a5.254,5.254,0,0,1,.341,9.9,19.5,19.5,0,0,1-8.6,12.1,17.417,17.417,0,0,1-1.556.821l.007.055a5.257,5.257,0,0,1-4.5,5.9A5.792,5.792,0,0,1,214.93,1307.123Zm-25.387-24.671a8.275,8.275,0,0,0,1.821,4.857c2.436,2.78,6.812,3.468,11.445,4.2l1.327.211a45.375,45.375,0,0,0,6.941.763,9.911,9.911,0,0,0,5.24-1.211,8.272,8.272,0,0,0,3.235-4.055Z" fill="#fff"/>
        </g>
      </g>
      <g id="グループ_2955" data-name="グループ 2955">
        <rect id="長方形_1357" data-name="長方形 1357" width="312" height="56.513" rx="8.183" transform="translate(-72.751 1284.309)" fill="#36c8d9"/>
        <path id="パス_27769" data-name="パス 27769" d="M-68.4,1343.421a3.056,3.056,0,0,1-3.052-3.053,3.056,3.056,0,0,1,3.052-3.052,3.056,3.056,0,0,1,3.052,3.052A3.056,3.056,0,0,1-68.4,1343.421Zm0-4.1a1.053,1.053,0,0,0-1.052,1.052,1.054,1.054,0,0,0,1.052,1.053,1.054,1.054,0,0,0,1.052-1.053A1.053,1.053,0,0,0-68.4,1339.316Z" fill="#049dd9" style="mix-blend-mode: multiply;isolation: isolate"/>
        <path id="パス_27770" data-name="パス 27770" d="M233.579,1323.289a3.052,3.052,0,1,1,3.052-3.053A3.055,3.055,0,0,1,233.579,1323.289Zm0-4.1a1.052,1.052,0,1,0,1.052,1.051A1.052,1.052,0,0,0,233.579,1319.185Z" fill="#049dd9" style="mix-blend-mode: multiply;isolation: isolate"/>
        <path id="パス_27771" data-name="パス 27771" d="M-62.789,1337.594a2.624,2.624,0,0,1-2.621-2.621,2.623,2.623,0,0,1,2.621-2.62,2.623,2.623,0,0,1,2.62,2.62A2.623,2.623,0,0,1-62.789,1337.594Zm0-3.241a.621.621,0,0,0-.621.62.622.622,0,0,0,.621.621.621.621,0,0,0,.62-.621A.621.621,0,0,0-62.789,1334.353Z" fill="#049dd9" style="mix-blend-mode: multiply;isolation: isolate"/>
        <path id="パス_27772" data-name="パス 27772" d="M228.386,1347.972a5.117,5.117,0,0,1-4.546-2.623,5.388,5.388,0,0,1-1.431.192,4.986,4.986,0,0,1-5.111-4.838,4.618,4.618,0,0,1,.481-2.048,4.778,4.778,0,0,1-2.639-4.241,5,5,0,0,1,5.147-4.838,5.107,5.107,0,0,1,4.82-3.24,5.236,5.236,0,0,1,3.889,1.7,5.3,5.3,0,0,1,2.96-.894,5.024,5.024,0,0,1,5.077,4.287,4.97,4.97,0,0,1,4.89,4.834,4.721,4.721,0,0,1-2.035,3.863c0,.037,0,.073,0,.11a4.985,4.985,0,0,1-5.11,4.838,5.358,5.358,0,0,1-1.607-.247A5.117,5.117,0,0,1,228.386,1347.972Zm-3.812-5.548a1.249,1.249,0,0,1,1.234,1.049,2.548,2.548,0,0,0,2.578,2,2.489,2.489,0,0,0,2.611-2.338l-.009-.126a1.25,1.25,0,0,1,2.038-1.042,2.779,2.779,0,0,0,1.753.612,2.488,2.488,0,0,0,2.61-2.338,2.1,2.1,0,0,0-.058-.484,1.25,1.25,0,0,1,.686-1.419,2.317,2.317,0,0,0,1.406-2.07,2.488,2.488,0,0,0-2.61-2.339,2.915,2.915,0,0,0-.774.106,1.249,1.249,0,0,1-1.544-1.519,2.147,2.147,0,0,0,.071-.532,2.487,2.487,0,0,0-2.61-2.337,2.687,2.687,0,0,0-2.194,1.075,1.265,1.265,0,0,1-1.179.508,1.252,1.252,0,0,1-1-.8,2.6,2.6,0,0,0-2.471-1.594,2.5,2.5,0,0,0-2.6,2.2,1.248,1.248,0,0,1-1.552,1.131,2.555,2.555,0,0,0-3.314,2.248A2.472,2.472,0,0,0,220,1336.74a1.25,1.25,0,0,1,.675,2.221,2.245,2.245,0,0,0-.876,1.742,2.489,2.489,0,0,0,2.611,2.338,2.788,2.788,0,0,0,1.5-.425A1.251,1.251,0,0,1,224.574,1342.424Z" fill="#049dd9" style="mix-blend-mode: multiply;isolation: isolate"/>
        <path id="パス_27773" data-name="パス 27773" d="M-72.037,1333.114a4.764,4.764,0,0,1-4.015-2.187,4.7,4.7,0,0,1-.769.062,4.784,4.784,0,0,1-4.779-4.778,4.747,4.747,0,0,1,2.47-4.187,4.771,4.771,0,0,1-.064-.776,4.784,4.784,0,0,1,4.779-4.779,4.8,4.8,0,0,1,4.322,2.74,4.785,4.785,0,0,1,4.676,4.777,4.8,4.8,0,0,1-1.875,3.79,4.755,4.755,0,0,1,.034.56A4.784,4.784,0,0,1-72.037,1333.114Zm-3.352-4.93a1.251,1.251,0,0,1,.509.108,1.252,1.252,0,0,1,.679.753,2.273,2.273,0,0,0,2.164,1.569,2.281,2.281,0,0,0,2.279-2.278,2.272,2.272,0,0,0-.128-.745,1.249,1.249,0,0,1,.651-1.541,2.292,2.292,0,0,0,1.318-2.064,2.284,2.284,0,0,0-2.769-2.223,1.24,1.24,0,0,1-.952-.171,1.255,1.255,0,0,1-.545-.8,2.281,2.281,0,0,0-2.232-1.822,2.282,2.282,0,0,0-2.279,2.279,2.254,2.254,0,0,0,.226.981,1.247,1.247,0,0,1,0,1.085,1.25,1.25,0,0,1-.851.675,2.293,2.293,0,0,0-1.779,2.222,2.281,2.281,0,0,0,2.279,2.278,2.268,2.268,0,0,0,.926-.2A1.256,1.256,0,0,1-75.389,1328.184Z" fill="#049dd9" style="mix-blend-mode: multiply;isolation: isolate"/>
        <g id="グループ_2953" data-name="グループ 2953" style="mix-blend-mode: multiply;isolation: isolate">
          <path id="パス_27774" data-name="パス 27774" d="M242.531,1322.959h0m-2.128-.39a.146.146,0,0,0-.149.134c-.283,2.525-.768,3.091-2.7,3.468a.15.15,0,0,0,0,.295c1.93.377,2.415.943,2.7,3.468a.15.15,0,0,0,.3,0c.283-2.525.768-3.091,2.7-3.468a.15.15,0,0,0,0-.295c-1.93-.377-2.415-.943-2.7-3.468a.146.146,0,0,0-.149-.134Z" fill="#049dd9"/>
        </g>
        <g id="グループ_2954" data-name="グループ 2954" style="mix-blend-mode: multiply;isolation: isolate">
          <path id="パス_27775" data-name="パス 27775" d="M-29.858,1279.882A2.828,2.828,0,0,0-32,1279.35l-20.448,3.119a.356.356,0,0,1-.269-.067.36.36,0,0,1-.144-.238l-2.744-17.989a2.848,2.848,0,0,0-1.135-1.875,2.841,2.841,0,0,0-2.128-.524l-6.749,1.03a2.867,2.867,0,0,0-2.4,3.261l5.6,36.684a2.868,2.868,0,0,0,2.83,2.432,2.759,2.759,0,0,0,.432-.034l13.316-2.032a2.834,2.834,0,0,0,1.9-1.168,2.85,2.85,0,0,0,.483-2.188,3.814,3.814,0,0,1,.668-3.182c.778-.988,1.984-1.332,3.654-1.808a21.608,21.608,0,0,0,6.727-2.932c4.048-2.725,4.04-7.477,3.675-10.068A2.832,2.832,0,0,0-29.858,1279.882Zm-35.381-14.606,6.749-1.029a.391.391,0,0,1,.057,0,.356.356,0,0,1,.212.07.362.362,0,0,1,.144.239l.253,1.658-7.466,1.139-.253-1.659A.364.364,0,0,1-65.239,1265.276Zm31.434,24.489a19.22,19.22,0,0,1-6.016,2.6c-1.88.535-3.655,1.041-4.934,2.667a6.3,6.3,0,0,0-1.162,5.182.367.367,0,0,1-.062.284.35.35,0,0,1-.238.146l-13.315,2.033a.369.369,0,0,1-.414-.3l-4.967-32.554,7.466-1.14,2.114,13.861a2.849,2.849,0,0,0,1.135,1.875,2.833,2.833,0,0,0,2.128.523l20.447-3.119a.374.374,0,0,1,.274.069.345.345,0,0,1,.139.232C-30.926,1284.133-30.887,1287.8-33.805,1289.765Z" fill="#049dd9"/>
          <path id="パス_27776" data-name="パス 27776" d="M-50.632,1281.176a1.225,1.225,0,0,0,.19-.015l19.806-3.021a1.25,1.25,0,0,0,1.048-1.424,1.252,1.252,0,0,0-1.425-1.047l-18.57,2.833-2.29-15.011a1.246,1.246,0,0,0-1.424-1.047,1.25,1.25,0,0,0-1.048,1.424l2.479,16.246A1.252,1.252,0,0,0-50.632,1281.176Z" fill="#049dd9"/>
          <path id="パス_27777" data-name="パス 27777" d="M228.558,1282.064l-3.19-.506,2.109-13.288c.351-2.207-.117-5.167-2.587-6.249a4.21,4.21,0,0,0-3.471.008,5.294,5.294,0,0,0-2.752,3.222,1.25,1.25,0,0,0,2.384.754,2.8,2.8,0,0,1,1.4-1.7,1.688,1.688,0,0,1,1.435.007c1.244.543,1.29,2.5,1.12,3.565l-2.109,13.288-40.324-6.4a1.249,1.249,0,1,0-.391,2.468l1.258.2c-1.155,5.32-.034,10.659,3.034,14.16a14.189,14.189,0,0,0,2.5,2.241l-1.59,3.3a1.25,1.25,0,1,0,2.252,1.084l1.5-3.11c3.337,1.656,7.154,2.265,10.664,2.818l1.314.209a50.721,50.721,0,0,0,7.956.84c.734,0,1.467-.032,2.2-.1l.427,3.167a1.25,1.25,0,0,0,1.238,1.083,1.375,1.375,0,0,0,.168-.011,1.251,1.251,0,0,0,1.072-1.406l-.44-3.262a14.367,14.367,0,0,0,3.909-1.587c4-2.379,6.72-7.108,7.27-12.524l1.258.2a1.2,1.2,0,0,0,.2.016,1.25,1.25,0,0,0,.194-2.485Zm-10.2,12.645c-4.42,2.629-9.724,1.78-14.854.96l-1.32-.21c-5.133-.809-10.44-1.645-13.831-5.514-2.576-2.938-3.457-7.516-2.418-12.115l38.474,6.107C223.976,1288.631,221.721,1292.711,218.361,1294.709Z" fill="#049dd9"/>
        </g>
      </g>
    </g>
    <text id="お風呂_トイレ" data-name="お風呂・トイレ" transform="translate(-4036 3165.5)" fill="#fff" font-size="32" font-family="rounded-mplus-2p-black, 'Rounded M\+ \32 p'" font-weight="800"><tspan x="0" y="0">お</tspan><tspan y="0">風呂・</tspan><tspan y="0">トイレ</tspan></text>
  </g>
</svg>
