<svg xmlns="http://www.w3.org/2000/svg" width="343" height="102" viewBox="0 0 343 102">
  <g id="グループ_3216" data-name="グループ 3216" transform="translate(3265 -3089)">
    <rect id="長方形_1386" data-name="長方形 1386" width="343" height="102" transform="translate(-3265 3089)" fill="#fff" opacity="0"/>
    <g id="グループ_3215" data-name="グループ 3215" transform="translate(-3158.444 1593.533)">
      <g id="グループ_3206" data-name="グループ 3206">
        <rect id="長方形_1387" data-name="長方形 1387" width="320" height="64.513" rx="12.183" transform="translate(-86.18 1520.086)" fill="#6148be"/>
        <g id="グループ_3203" data-name="グループ 3203">
          <path id="パス_28239" data-name="パス 28239" d="M179.4,1541.566a7.263,7.263,0,0,1-7.255-7.254v-10.328h-1.9a6.578,6.578,0,0,1,0-12.844h4.227a4.952,4.952,0,0,1,2.668-.776h11.274a4.987,4.987,0,0,1,3.491,1.423,4.981,4.981,0,0,1,3.49-1.423h4.4a4.958,4.958,0,0,1,2.669.776H206.3a6.578,6.578,0,0,1,0,12.844h-1.5v10.328a7.262,7.262,0,0,1-7.255,7.254Zm11.356-15.257v-6.525a4.974,4.974,0,0,1-2.337.58h-2.234v5.945Z" fill="#6148be"/>
          <path id="パス_28240" data-name="パス 28240" d="M189.507,1533.282a6.773,6.773,0,0,1-3.926-1.251,7.635,7.635,0,0,1-.661-.521,7.725,7.725,0,0,1-.824-.17,7.238,7.238,0,0,1-5.227-6.29c-.7-4.765,2.6-9.052,9.1-11.923l5.484-11.772a5.017,5.017,0,0,1,4.533-2.888,5,5,0,0,1,4.53,7.113l-5.484,11.773c1.941,6.738.761,12.141-3.272,14.632A8.033,8.033,0,0,1,189.507,1533.282Z" fill="#6148be"/>
        </g>
        <path id="パス_28241" data-name="パス 28241" d="M-60.755,1549.2A5.006,5.006,0,0,1-64,1548.006a4.956,4.956,0,0,1-1.742-3.41l-1.135-14.1a4.194,4.194,0,0,1-.01-.463,5.03,5.03,0,0,1,.185-1.306c.018-.065.038-.129.059-.194l3.555-10.818-.685-8.5a5.008,5.008,0,0,1,4.579-5.385l4.561-.368c.107-.009.289-.016.4-.016a5,5,0,0,1,3.248,1.195c.084.07.165.144.243.219l11.8-.949a4.992,4.992,0,0,1,3.6-2l4.561-.368c.107-.009.287-.016.394-.016a5.014,5.014,0,0,1,3.245,1.19,4.967,4.967,0,0,1,1.747,3.414l.684,8.5,5.238,10.11c.041.078.079.158.115.24a4.962,4.962,0,0,1,.358,1.166,3.849,3.849,0,0,1,.074.528l1.132,14.065a5.007,5.007,0,0,1-4.579,5.385l-3.572.288c-.106.009-.294.016-.4.016a5,5,0,0,1-3.241-1.194,4.961,4.961,0,0,1-1.743-3.41l-20.873,1.68v0a5.006,5.006,0,0,1-4.578,5.385l-3.572.288C-60.461,1549.192-60.648,1549.2-60.755,1549.2Z" fill="#6148be"/>
        <g id="グループ_3204" data-name="グループ 3204">
          <path id="パス_28242" data-name="パス 28242" d="M203.2,1580.268a4.757,4.757,0,0,1-4.6-3.582l-.86-3.393a4.707,4.707,0,0,1-.911-1.595l-.485-1.443a5.7,5.7,0,0,1,3.592-7.215l9.6-3.227a5.7,5.7,0,0,1,7.212,3.583l.485,1.445a4.728,4.728,0,0,1,.237,1.821l1.363,3.225a4.749,4.749,0,0,1-2.863,6.352l-11.255,3.782A4.731,4.731,0,0,1,203.2,1580.268Z" fill="#6148be"/>
          <path id="パス_28243" data-name="パス 28243" d="M221.3,1594.964a4.741,4.741,0,0,1-3.345-1.361c-.624.095-1.29.213-2.017.341-1.332.236-2.98.528-4.877.765a12.72,12.72,0,0,1-1.573.1c-5.684,0-11.426-3.6-12.52-4.325a4.748,4.748,0,0,1-2.081-3.268l-.32-2.173a4.954,4.954,0,0,1-.082-.557l0-.027a4.144,4.144,0,0,1-.043-.6,4.343,4.343,0,0,1,.013-.551c.379-3.783,2.567-6.262,5.576-6.34.187,0,.436,0,.757,0,6-.006,8.626-.668,9.773-1.222a28.434,28.434,0,0,0,2.906-1.925c2.64-1.885,4.537-3.241,6.812-3.241a5.2,5.2,0,0,1,2.046.413,9.189,9.189,0,0,1,1.46.828,5.219,5.219,0,0,0,2.747,1.133,4.179,4.179,0,0,0,1.952-.578,4.752,4.752,0,0,1,3.623-.374,4.792,4.792,0,0,1,2.849,2.352,15.5,15.5,0,0,1,.423,12.04c0,.042,0,.085-.005.127a4.331,4.331,0,0,1-.051.441l-.194,3.4a4.771,4.771,0,0,1-4.672,4.48l-9.143.13Z" fill="#6148be"/>
        </g>
        <g id="グループ_3205" data-name="グループ 3205">
          <path id="パス_28244" data-name="パス 28244" d="M-90.726,1597.065a4.737,4.737,0,0,1-4.387-2.927l-8.081-19.45a4.776,4.776,0,0,1-.006-3.633,4.724,4.724,0,0,1,2.575-2.578l28.435-11.815a4.68,4.68,0,0,1,1.823-.365,4.738,4.738,0,0,1,4.386,2.928l8.082,19.45a4.784,4.784,0,0,1,0,3.634,4.731,4.731,0,0,1-2.575,2.578L-88.9,1596.7A4.715,4.715,0,0,1-90.726,1597.065Zm2.563-10.959,19.668-8.172-4.436-10.677L-92.6,1575.43Z" fill="#6148be"/>
          <path id="パス_28245" data-name="パス 28245" d="M-93.376,1583.08a4.737,4.737,0,0,1-4.387-2.928l-.4-.968a4.712,4.712,0,0,1,0-3.636,4.714,4.714,0,0,1,2.572-2.573,4.714,4.714,0,0,1,1.818-.362,4.739,4.739,0,0,1,4.384,2.923l.4.974a4.712,4.712,0,0,1,0,3.636,4.722,4.722,0,0,1-2.573,2.573A4.733,4.733,0,0,1-93.376,1583.08Z" fill="#6148be"/>
          <path id="パス_28246" data-name="パス 28246" d="M-90.364,1590.327a4.737,4.737,0,0,1-4.387-2.928l-.4-.968a4.712,4.712,0,0,1,0-3.636,4.713,4.713,0,0,1,2.572-2.573,4.711,4.711,0,0,1,1.818-.362,4.737,4.737,0,0,1,4.385,2.927l.4.97a4.712,4.712,0,0,1,0,3.636,4.72,4.72,0,0,1-2.572,2.573A4.73,4.73,0,0,1-90.364,1590.327Z" fill="#6148be"/>
          <path id="パス_28247" data-name="パス 28247" d="M-91.87,1586.7a4.736,4.736,0,0,1-4.387-2.928l-.4-.964A4.754,4.754,0,0,1-94.1,1576.6a4.707,4.707,0,0,1,1.822-.365,4.737,4.737,0,0,1,4.389,2.931l.4.962a4.756,4.756,0,0,1-2.563,6.209A4.727,4.727,0,0,1-91.87,1586.7Z" fill="#6148be"/>
          <path id="パス_28248" data-name="パス 28248" d="M-94.882,1579.456a4.737,4.737,0,0,1-4.387-2.928l-.2-.478a4.007,4.007,0,0,1-.2-.639,5.071,5.071,0,0,1-.116-.64,4.836,4.836,0,0,1-.032-.63,4.178,4.178,0,0,1,.054-.695,4.1,4.1,0,0,1,.229-.827,4.535,4.535,0,0,1,.235-.549,4.909,4.909,0,0,1,.539-.827,4.834,4.834,0,0,1,.538-.563,4.617,4.617,0,0,1,.734-.534,4.188,4.188,0,0,1,.568-.294l.494-.206a4.717,4.717,0,0,1,1.815-.363,4.759,4.759,0,0,1,2.846.955,4.745,4.745,0,0,1,1.574,1.408,4.717,4.717,0,0,1,.815,3.545,4.738,4.738,0,0,1-3.46,3.8c-.074.035-.15.07-.227.1A4.738,4.738,0,0,1-94.882,1579.456Z" fill="#6148be"/>
          <path id="パス_28249" data-name="パス 28249" d="M-87.923,1576.005a4.738,4.738,0,0,1-4.387-2.928,4.721,4.721,0,0,1,0-3.638,4.722,4.722,0,0,1,2.573-2.573l1.023-.425a4.718,4.718,0,0,1,1.822-.364,4.735,4.735,0,0,1,4.387,2.932,4.714,4.714,0,0,1,0,3.635,4.722,4.722,0,0,1-2.573,2.573l-1.023.425A4.736,4.736,0,0,1-87.923,1576.005Z" fill="#6148be"/>
          <path id="パス_28250" data-name="パス 28250" d="M-91.777,1577.606a4.737,4.737,0,0,1-4.387-2.927,4.721,4.721,0,0,1,0-3.638,4.715,4.715,0,0,1,2.573-2.573l1.023-.425a4.74,4.74,0,0,1,1.822-.363,4.737,4.737,0,0,1,4.384,2.923,4.72,4.72,0,0,1,0,3.641,4.717,4.717,0,0,1-2.573,2.574l-1.023.425A4.738,4.738,0,0,1-91.777,1577.606Z" fill="#6148be"/>
          <path id="パス_28251" data-name="パス 28251" d="M-84.069,1574.4a4.739,4.739,0,0,1-4.385-2.923,4.716,4.716,0,0,1-.007-3.636,4.715,4.715,0,0,1,2.568-2.576l1.025-.427a4.756,4.756,0,0,1,1.826-.365,4.736,4.736,0,0,1,4.384,2.922,4.718,4.718,0,0,1,.008,3.637,4.719,4.719,0,0,1-2.568,2.576l-1.026.427A4.733,4.733,0,0,1-84.069,1574.4Z" fill="#6148be"/>
          <path id="パス_28252" data-name="パス 28252" d="M-76.361,1571.2a4.74,4.74,0,0,1-4.386-2.923,4.724,4.724,0,0,1,0-3.641,4.715,4.715,0,0,1,2.572-2.574l1.024-.425a4.726,4.726,0,0,1,1.822-.364,4.737,4.737,0,0,1,4.385,2.927,4.714,4.714,0,0,1,0,3.639,4.713,4.713,0,0,1-2.572,2.573l-1.024.425A4.733,4.733,0,0,1-76.361,1571.2Z" fill="#6148be"/>
          <path id="パス_28253" data-name="パス 28253" d="M-80.215,1572.8a4.741,4.741,0,0,1-4.388-2.928,4.716,4.716,0,0,1,0-3.638,4.714,4.714,0,0,1,2.572-2.573l1.024-.425a4.7,4.7,0,0,1,1.821-.363A4.736,4.736,0,0,1-74.8,1565.8a4.712,4.712,0,0,1,0,3.638,4.719,4.719,0,0,1-2.572,2.574l-1.024.424A4.714,4.714,0,0,1-80.215,1572.8Z" fill="#6148be"/>
          <path id="パス_28254" data-name="パス 28254" d="M-70.327,1573.5a4.737,4.737,0,0,1-4.387-2.928l-.4-.969a4.709,4.709,0,0,1,0-3.635,4.719,4.719,0,0,1,2.572-2.574,4.727,4.727,0,0,1,1.817-.361,4.738,4.738,0,0,1,4.388,2.931l.4.966a4.718,4.718,0,0,1,0,3.635,4.72,4.72,0,0,1-2.573,2.574A4.729,4.729,0,0,1-70.327,1573.5Z" fill="#6148be"/>
          <path id="パス_28255" data-name="パス 28255" d="M-68.821,1577.126a4.735,4.735,0,0,1-4.387-2.928l-.4-.965a4.754,4.754,0,0,1,2.563-6.209,4.709,4.709,0,0,1,1.822-.364,4.737,4.737,0,0,1,4.389,2.931l.4.962A4.754,4.754,0,0,1-67,1576.762,4.713,4.713,0,0,1-68.821,1577.126Z" fill="#6148be"/>
          <path id="パス_28256" data-name="パス 28256" d="M-67.315,1580.75a4.737,4.737,0,0,1-4.387-2.928l-.4-.966a4.756,4.756,0,0,1,2.561-6.208,4.766,4.766,0,0,1,1.826-.365,4.735,4.735,0,0,1,4.387,2.931l.4.963a4.755,4.755,0,0,1-2.561,6.208A4.733,4.733,0,0,1-67.315,1580.75Z" fill="#6148be"/>
          <path id="パス_28257" data-name="パス 28257" d="M-66.49,1584.082a4.734,4.734,0,0,1-2.314-.6l-.343-.057a4.716,4.716,0,0,1-3.078-1.928,4.719,4.719,0,0,1-.815-3.546,4.733,4.733,0,0,1,4.672-3.962,4.824,4.824,0,0,1,.88.082l.032.006a4.717,4.717,0,0,1,1.244-.167,4.739,4.739,0,0,1,4.385,2.924l.2.479a4.756,4.756,0,0,1-2.56,6.209l-.478.2A4.743,4.743,0,0,1-66.49,1584.082Z" fill="#6148be"/>
          <path id="パス_28258" data-name="パス 28258" d="M-81.9,1590.487a4.738,4.738,0,0,1-4.387-2.927,4.712,4.712,0,0,1,0-3.638,4.714,4.714,0,0,1,2.572-2.573l1.024-.425a4.721,4.721,0,0,1,1.822-.363,4.737,4.737,0,0,1,4.387,2.93,4.714,4.714,0,0,1,0,3.635,4.713,4.713,0,0,1-2.572,2.573l-1.023.425A4.742,4.742,0,0,1-81.9,1590.487Z" fill="#6148be"/>
          <path id="パス_28259" data-name="パス 28259" d="M-74.2,1587.285a4.737,4.737,0,0,1-4.387-2.928,4.714,4.714,0,0,1,0-3.637,4.719,4.719,0,0,1,2.572-2.574l1.023-.424a4.717,4.717,0,0,1,1.823-.364,4.737,4.737,0,0,1,4.385,2.927,4.714,4.714,0,0,1,0,3.639,4.715,4.715,0,0,1-2.573,2.573l-1.023.425A4.735,4.735,0,0,1-74.2,1587.285Z" fill="#6148be"/>
          <path id="パス_28260" data-name="パス 28260" d="M-85.759,1592.089a4.739,4.739,0,0,1-4.387-2.928,4.712,4.712,0,0,1,0-3.638,4.72,4.72,0,0,1,2.572-2.573l1.024-.425a4.713,4.713,0,0,1,1.822-.363,4.737,4.737,0,0,1,4.384,2.923,4.727,4.727,0,0,1,0,3.642,4.727,4.727,0,0,1-2.573,2.574l-1.023.425A4.74,4.74,0,0,1-85.759,1592.089Z" fill="#6148be"/>
          <path id="パス_28261" data-name="パス 28261" d="M-78.051,1588.887a4.739,4.739,0,0,1-4.385-2.923,4.723,4.723,0,0,1-.008-3.637,4.717,4.717,0,0,1,2.569-2.576l1.025-.427a4.756,4.756,0,0,1,1.826-.365,4.737,4.737,0,0,1,4.384,2.923,4.723,4.723,0,0,1,.008,3.637,4.723,4.723,0,0,1-2.569,2.576l-1.025.426A4.716,4.716,0,0,1-78.051,1588.887Z" fill="#6148be"/>
          <path id="パス_28262" data-name="パス 28262" d="M-70.344,1585.684a4.739,4.739,0,0,1-4.385-2.923,4.726,4.726,0,0,1-.005-3.642,4.717,4.717,0,0,1,2.573-2.574l1.023-.425a4.737,4.737,0,0,1,1.823-.363,4.737,4.737,0,0,1,4.383,2.923,4.713,4.713,0,0,1,0,3.642A4.72,4.72,0,0,1-67.5,1584.9l-1.023.424A4.715,4.715,0,0,1-70.344,1585.684Z" fill="#6148be"/>
          <path id="パス_28263" data-name="パス 28263" d="M-86.426,1580.439a4.618,4.618,0,0,1-.849-.077l-.961-.161a4.714,4.714,0,0,1-3.078-1.928,4.718,4.718,0,0,1-.815-3.545,4.731,4.731,0,0,1,4.676-3.961,4.776,4.776,0,0,1,.844.075l.973.164a4.71,4.71,0,0,1,3.078,1.928,4.718,4.718,0,0,1,.815,3.545A4.737,4.737,0,0,1-86.426,1580.439Z" fill="#6148be"/>
          <path id="パス_28264" data-name="パス 28264" d="M-74.973,1582.372a4.615,4.615,0,0,1-.849-.077l-.961-.161a4.718,4.718,0,0,1-3.078-1.928,4.72,4.72,0,0,1-.815-3.546A4.735,4.735,0,0,1-76,1572.7a4.825,4.825,0,0,1,.83.073l.986.166a4.718,4.718,0,0,1,3.079,1.928,4.723,4.723,0,0,1,.814,3.546A4.736,4.736,0,0,1-74.973,1582.372Z" fill="#6148be"/>
          <path id="パス_28265" data-name="パス 28265" d="M-71.155,1583.017a4.607,4.607,0,0,1-.849-.078l-.961-.161a4.716,4.716,0,0,1-3.078-1.927,4.72,4.72,0,0,1-.815-3.546,4.732,4.732,0,0,1,4.674-3.962,4.726,4.726,0,0,1,.864.08l.955.16a4.713,4.713,0,0,1,3.078,1.928,4.72,4.72,0,0,1,.815,3.546A4.737,4.737,0,0,1-71.155,1583.017Z" fill="#6148be"/>
          <path id="パス_28266" data-name="パス 28266" d="M-90.243,1579.8a4.6,4.6,0,0,1-.849-.077l-.961-.161a4.713,4.713,0,0,1-3.078-1.928,4.72,4.72,0,0,1-.815-3.546,4.73,4.73,0,0,1,4.668-3.963,4.8,4.8,0,0,1,.836.074l.989.167a4.718,4.718,0,0,1,3.078,1.928,4.719,4.719,0,0,1,.815,3.546A4.738,4.738,0,0,1-90.243,1579.8Z" fill="#6148be"/>
          <path id="パス_28267" data-name="パス 28267" d="M-81.576,1582.885a4.728,4.728,0,0,1-2.74-.87,4.758,4.758,0,0,1-1.139-6.621l.6-.846a4.766,4.766,0,0,1,2.622-1.836,4.726,4.726,0,0,1,2.413-.659,4.709,4.709,0,0,1,.894.086l.928.155a4.716,4.716,0,0,1,3.078,1.928,4.72,4.72,0,0,1,.815,3.546,4.737,4.737,0,0,1-4.349,3.948A4.755,4.755,0,0,1-81.576,1582.885Z" fill="#6148be"/>
          <path id="パス_28268" data-name="パス 28268" d="M-82.608,1581.084a4.6,4.6,0,0,1-.849-.077l-.961-.161a4.715,4.715,0,0,1-3.078-1.928,4.719,4.719,0,0,1-.815-3.546,4.733,4.733,0,0,1,4.673-3.962,4.878,4.878,0,0,1,.869.08l.951.16a4.715,4.715,0,0,1,3.078,1.928,4.72,4.72,0,0,1,.815,3.546A4.737,4.737,0,0,1-82.608,1581.084Z" fill="#6148be"/>
          <path id="パス_28269" data-name="パス 28269" d="M-89.063,1593.462a4.731,4.731,0,0,1-1.819-.362,4.72,4.72,0,0,1-2.567-2.567l-.2-.478a4.712,4.712,0,0,1,0-3.636,4.716,4.716,0,0,1,2.021-2.3l.063-.089a4.759,4.759,0,0,1,3.877-2,4.725,4.725,0,0,1,2.728.861,4.76,4.76,0,0,1,1.148,6.634l-.215.3a4.745,4.745,0,0,1-2.737,3.078l-.473.2A4.752,4.752,0,0,1-89.063,1593.462Z" fill="#6148be"/>
          <path id="パス_28270" data-name="パス 28270" d="M-72.628,1570.244a4.733,4.733,0,0,1-2.735-.866,4.765,4.765,0,0,1-1.853-5.115,4.7,4.7,0,0,1,2.878-3.8l.483-.2a4.287,4.287,0,0,1,.7-.219,4.515,4.515,0,0,1,.735-.12c.106-.009.266-.015.374-.015a4.7,4.7,0,0,1,.565.034,4.15,4.15,0,0,1,.574.1,4.15,4.15,0,0,1,.675.208,3.76,3.76,0,0,1,.5.246,4.054,4.054,0,0,1,.443.273,4.218,4.218,0,0,1,.544.464,4.749,4.749,0,0,1,.411.454,5.3,5.3,0,0,1,.355.507,4.194,4.194,0,0,1,.324.613l.205.5a4.709,4.709,0,0,1,0,3.635,4.718,4.718,0,0,1-2.572,2.574c-.081.033-.163.064-.245.093A4.748,4.748,0,0,1-72.628,1570.244Z" fill="#6148be"/>
          <path id="パス_28271" data-name="パス 28271" d="M-74.865,1573.4a4.738,4.738,0,0,1-2.736-.866,4.727,4.727,0,0,1-1.946-3.084,4.717,4.717,0,0,1,.805-3.545l.6-.843a4.771,4.771,0,0,1,3.878-2,4.721,4.721,0,0,1,2.736.866,4.721,4.721,0,0,1,1.945,3.083,4.718,4.718,0,0,1-.805,3.545l-.6.842A4.763,4.763,0,0,1-74.865,1573.4Z" fill="#6148be"/>
          <path id="パス_28272" data-name="パス 28272" d="M-77.1,1576.564a4.725,4.725,0,0,1-2.735-.866,4.728,4.728,0,0,1-1.947-3.084,4.722,4.722,0,0,1,.805-3.545l.6-.842a4.76,4.76,0,0,1,3.878-2.005,4.728,4.728,0,0,1,2.733.865,4.723,4.723,0,0,1,1.948,3.085,4.717,4.717,0,0,1-.805,3.545l-.6.843A4.763,4.763,0,0,1-77.1,1576.564Z" fill="#6148be"/>
          <path id="パス_28273" data-name="パス 28273" d="M-79.339,1579.725a4.726,4.726,0,0,1-2.735-.867,4.728,4.728,0,0,1-1.947-3.084,4.723,4.723,0,0,1,.806-3.545l.6-.842a4.765,4.765,0,0,1,3.878-2.005,4.728,4.728,0,0,1,2.738.869,4.717,4.717,0,0,1,1.943,3.081,4.717,4.717,0,0,1-.805,3.545l-.6.843A4.763,4.763,0,0,1-79.339,1579.725Z" fill="#6148be"/>
          <path id="パス_28274" data-name="パス 28274" d="M-86.049,1589.2a4.73,4.73,0,0,1-2.741-.87,4.758,4.758,0,0,1-1.139-6.62l.6-.847a4.759,4.759,0,0,1,3.879-2.006,4.724,4.724,0,0,1,2.742.872,4.757,4.757,0,0,1,1.137,6.619l-.6.846A4.76,4.76,0,0,1-86.049,1589.2Z" fill="#6148be"/>
          <path id="パス_28275" data-name="パス 28275" d="M-83.813,1586.045a4.728,4.728,0,0,1-2.74-.87,4.758,4.758,0,0,1-1.139-6.621l.6-.846a4.761,4.761,0,0,1,3.879-2.005,4.722,4.722,0,0,1,2.737.868,4.756,4.756,0,0,1,1.142,6.621l-.6.847A4.76,4.76,0,0,1-83.813,1586.045Z" fill="#6148be"/>
        </g>
      </g>
      <g id="グループ_3210" data-name="グループ 3210">
        <rect id="長方形_1388" data-name="長方形 1388" width="320" height="64.513" rx="12.183" transform="translate(-86.18 1517.086)" fill="#fff"/>
        <g id="グループ_3207" data-name="グループ 3207">
          <path id="パス_28276" data-name="パス 28276" d="M179.4,1538.566a7.263,7.263,0,0,1-7.255-7.254v-10.328h-1.9a6.578,6.578,0,0,1,0-12.844h4.227a4.952,4.952,0,0,1,2.668-.776h11.274a4.987,4.987,0,0,1,3.491,1.423,4.981,4.981,0,0,1,3.49-1.423h4.4a4.958,4.958,0,0,1,2.669.776H206.3a6.578,6.578,0,0,1,0,12.844h-1.5v10.328a7.262,7.262,0,0,1-7.255,7.254Zm11.356-15.257v-6.525a4.974,4.974,0,0,1-2.337.58h-2.234v5.945Z" fill="#fff"/>
          <path id="パス_28277" data-name="パス 28277" d="M189.507,1530.282a6.773,6.773,0,0,1-3.926-1.251,7.635,7.635,0,0,1-.661-.521,7.725,7.725,0,0,1-.824-.17,7.238,7.238,0,0,1-5.227-6.29c-.7-4.765,2.6-9.052,9.1-11.923l5.484-11.772a5.017,5.017,0,0,1,4.533-2.888,5,5,0,0,1,4.53,7.113l-5.484,11.773c1.941,6.738.761,12.141-3.272,14.632A8.033,8.033,0,0,1,189.507,1530.282Z" fill="#fff"/>
        </g>
        <path id="パス_28278" data-name="パス 28278" d="M-60.755,1546.2A5.006,5.006,0,0,1-64,1545.006a4.956,4.956,0,0,1-1.742-3.41l-1.135-14.1a4.194,4.194,0,0,1-.01-.463,5.03,5.03,0,0,1,.185-1.306c.018-.065.038-.129.059-.194l3.555-10.818-.685-8.5a5.008,5.008,0,0,1,4.579-5.385l4.561-.368c.107-.009.289-.016.4-.016a5,5,0,0,1,3.248,1.195c.084.07.165.144.243.219l11.8-.949a4.992,4.992,0,0,1,3.6-2l4.561-.368c.107-.009.287-.016.394-.016a5.014,5.014,0,0,1,3.245,1.19,4.967,4.967,0,0,1,1.747,3.414l.684,8.5,5.238,10.11c.041.078.079.158.115.24a4.962,4.962,0,0,1,.358,1.166,3.849,3.849,0,0,1,.074.528l1.132,14.065a5.007,5.007,0,0,1-4.579,5.385l-3.572.288c-.106.009-.294.016-.4.016a5,5,0,0,1-3.241-1.194,4.961,4.961,0,0,1-1.743-3.41l-20.873,1.68v0a5.006,5.006,0,0,1-4.578,5.385l-3.572.288C-60.461,1546.192-60.648,1546.2-60.755,1546.2Z" fill="#fff"/>
        <g id="グループ_3208" data-name="グループ 3208">
          <path id="パス_28279" data-name="パス 28279" d="M203.2,1577.268a4.757,4.757,0,0,1-4.6-3.582l-.86-3.393a4.707,4.707,0,0,1-.911-1.595l-.485-1.443a5.7,5.7,0,0,1,3.592-7.215l9.6-3.227a5.7,5.7,0,0,1,7.212,3.583l.485,1.445a4.728,4.728,0,0,1,.237,1.821l1.363,3.225a4.749,4.749,0,0,1-2.863,6.352l-11.255,3.782A4.731,4.731,0,0,1,203.2,1577.268Z" fill="#fff"/>
          <path id="パス_28280" data-name="パス 28280" d="M221.3,1591.964a4.741,4.741,0,0,1-3.345-1.361c-.624.095-1.29.213-2.017.341-1.332.236-2.98.528-4.877.765a12.72,12.72,0,0,1-1.573.1c-5.684,0-11.426-3.6-12.52-4.325a4.748,4.748,0,0,1-2.081-3.268l-.32-2.173a4.954,4.954,0,0,1-.082-.557l0-.027a4.144,4.144,0,0,1-.043-.6,4.343,4.343,0,0,1,.013-.551c.379-3.783,2.567-6.262,5.576-6.34.187,0,.436,0,.757,0,6-.006,8.626-.668,9.773-1.222a28.434,28.434,0,0,0,2.906-1.925c2.64-1.885,4.537-3.241,6.812-3.241a5.2,5.2,0,0,1,2.046.413,9.189,9.189,0,0,1,1.46.828,5.219,5.219,0,0,0,2.747,1.133,4.179,4.179,0,0,0,1.952-.578,4.752,4.752,0,0,1,3.623-.374,4.792,4.792,0,0,1,2.849,2.352,15.5,15.5,0,0,1,.423,12.04c0,.042,0,.085-.005.127a4.331,4.331,0,0,1-.051.441l-.194,3.4a4.771,4.771,0,0,1-4.672,4.48l-9.143.13Z" fill="#fff"/>
        </g>
        <g id="グループ_3209" data-name="グループ 3209">
          <path id="パス_28281" data-name="パス 28281" d="M-90.726,1594.065a4.737,4.737,0,0,1-4.387-2.927l-8.081-19.45a4.776,4.776,0,0,1-.006-3.633,4.724,4.724,0,0,1,2.575-2.578l28.435-11.815a4.68,4.68,0,0,1,1.823-.365,4.738,4.738,0,0,1,4.386,2.928l8.082,19.45a4.784,4.784,0,0,1,0,3.634,4.731,4.731,0,0,1-2.575,2.578L-88.9,1593.7A4.715,4.715,0,0,1-90.726,1594.065Zm2.563-10.959,19.668-8.172-4.436-10.677L-92.6,1572.43Z" fill="#fff"/>
          <path id="パス_28282" data-name="パス 28282" d="M-93.376,1580.08a4.737,4.737,0,0,1-4.387-2.928l-.4-.968a4.712,4.712,0,0,1,0-3.636,4.714,4.714,0,0,1,2.572-2.573,4.714,4.714,0,0,1,1.818-.362,4.739,4.739,0,0,1,4.384,2.923l.4.974a4.712,4.712,0,0,1,0,3.636,4.722,4.722,0,0,1-2.573,2.573A4.733,4.733,0,0,1-93.376,1580.08Z" fill="#fff"/>
          <path id="パス_28283" data-name="パス 28283" d="M-90.364,1587.327a4.737,4.737,0,0,1-4.387-2.928l-.4-.968a4.712,4.712,0,0,1,0-3.636,4.713,4.713,0,0,1,2.572-2.573,4.711,4.711,0,0,1,1.818-.362,4.737,4.737,0,0,1,4.385,2.927l.4.97a4.712,4.712,0,0,1,0,3.636,4.72,4.72,0,0,1-2.572,2.573A4.73,4.73,0,0,1-90.364,1587.327Z" fill="#fff"/>
          <path id="パス_28284" data-name="パス 28284" d="M-91.87,1583.7a4.736,4.736,0,0,1-4.387-2.928l-.4-.964A4.754,4.754,0,0,1-94.1,1573.6a4.707,4.707,0,0,1,1.822-.365,4.737,4.737,0,0,1,4.389,2.931l.4.962a4.756,4.756,0,0,1-2.563,6.209A4.727,4.727,0,0,1-91.87,1583.7Z" fill="#fff"/>
          <path id="パス_28285" data-name="パス 28285" d="M-94.882,1576.456a4.737,4.737,0,0,1-4.387-2.928l-.2-.478a4.007,4.007,0,0,1-.2-.639,5.071,5.071,0,0,1-.116-.64,4.836,4.836,0,0,1-.032-.63,4.178,4.178,0,0,1,.054-.695,4.1,4.1,0,0,1,.229-.827,4.535,4.535,0,0,1,.235-.549,4.909,4.909,0,0,1,.539-.827,4.834,4.834,0,0,1,.538-.563,4.617,4.617,0,0,1,.734-.534,4.188,4.188,0,0,1,.568-.294l.494-.206a4.717,4.717,0,0,1,1.815-.363,4.759,4.759,0,0,1,2.846.955,4.745,4.745,0,0,1,1.574,1.408,4.717,4.717,0,0,1,.815,3.545,4.738,4.738,0,0,1-3.46,3.8c-.074.035-.15.07-.227.1A4.738,4.738,0,0,1-94.882,1576.456Z" fill="#fff"/>
          <path id="パス_28286" data-name="パス 28286" d="M-87.923,1573.005a4.738,4.738,0,0,1-4.387-2.928,4.721,4.721,0,0,1,0-3.638,4.722,4.722,0,0,1,2.573-2.573l1.023-.425a4.718,4.718,0,0,1,1.822-.364,4.735,4.735,0,0,1,4.387,2.932,4.714,4.714,0,0,1,0,3.635,4.722,4.722,0,0,1-2.573,2.573l-1.023.425A4.736,4.736,0,0,1-87.923,1573.005Z" fill="#fff"/>
          <path id="パス_28287" data-name="パス 28287" d="M-91.777,1574.606a4.737,4.737,0,0,1-4.387-2.927,4.721,4.721,0,0,1,0-3.638,4.715,4.715,0,0,1,2.573-2.573l1.023-.425a4.74,4.74,0,0,1,1.822-.363,4.737,4.737,0,0,1,4.384,2.923,4.72,4.72,0,0,1,0,3.641,4.717,4.717,0,0,1-2.573,2.574l-1.023.425A4.738,4.738,0,0,1-91.777,1574.606Z" fill="#fff"/>
          <path id="パス_28288" data-name="パス 28288" d="M-84.069,1571.4a4.739,4.739,0,0,1-4.385-2.923,4.716,4.716,0,0,1-.007-3.636,4.715,4.715,0,0,1,2.568-2.576l1.025-.427a4.756,4.756,0,0,1,1.826-.365,4.736,4.736,0,0,1,4.384,2.922,4.718,4.718,0,0,1,.008,3.637,4.719,4.719,0,0,1-2.568,2.576l-1.026.427A4.733,4.733,0,0,1-84.069,1571.4Z" fill="#fff"/>
          <path id="パス_28289" data-name="パス 28289" d="M-76.361,1568.2a4.74,4.74,0,0,1-4.386-2.923,4.724,4.724,0,0,1,0-3.641,4.715,4.715,0,0,1,2.572-2.574l1.024-.425a4.726,4.726,0,0,1,1.822-.364,4.737,4.737,0,0,1,4.385,2.927,4.714,4.714,0,0,1,0,3.639,4.713,4.713,0,0,1-2.572,2.573l-1.024.425A4.733,4.733,0,0,1-76.361,1568.2Z" fill="#fff"/>
          <path id="パス_28290" data-name="パス 28290" d="M-80.215,1569.8a4.741,4.741,0,0,1-4.388-2.928,4.716,4.716,0,0,1,0-3.638,4.714,4.714,0,0,1,2.572-2.573l1.024-.425a4.7,4.7,0,0,1,1.821-.363A4.736,4.736,0,0,1-74.8,1562.8a4.712,4.712,0,0,1,0,3.638,4.719,4.719,0,0,1-2.572,2.574l-1.024.424A4.714,4.714,0,0,1-80.215,1569.8Z" fill="#fff"/>
          <path id="パス_28291" data-name="パス 28291" d="M-70.327,1570.5a4.737,4.737,0,0,1-4.387-2.928l-.4-.969a4.709,4.709,0,0,1,0-3.635,4.719,4.719,0,0,1,2.572-2.574,4.727,4.727,0,0,1,1.817-.361,4.738,4.738,0,0,1,4.388,2.931l.4.966a4.718,4.718,0,0,1,0,3.635,4.72,4.72,0,0,1-2.573,2.574A4.729,4.729,0,0,1-70.327,1570.5Z" fill="#fff"/>
          <path id="パス_28292" data-name="パス 28292" d="M-68.821,1574.126a4.735,4.735,0,0,1-4.387-2.928l-.4-.965a4.754,4.754,0,0,1,2.563-6.209,4.709,4.709,0,0,1,1.822-.364,4.737,4.737,0,0,1,4.389,2.931l.4.962A4.754,4.754,0,0,1-67,1573.762,4.713,4.713,0,0,1-68.821,1574.126Z" fill="#fff"/>
          <path id="パス_28293" data-name="パス 28293" d="M-67.315,1577.75a4.737,4.737,0,0,1-4.387-2.928l-.4-.966a4.756,4.756,0,0,1,2.561-6.208,4.766,4.766,0,0,1,1.826-.365,4.735,4.735,0,0,1,4.387,2.931l.4.963a4.755,4.755,0,0,1-2.561,6.208A4.733,4.733,0,0,1-67.315,1577.75Z" fill="#fff"/>
          <path id="パス_28294" data-name="パス 28294" d="M-66.49,1581.082a4.734,4.734,0,0,1-2.314-.6l-.343-.057a4.716,4.716,0,0,1-3.078-1.928,4.719,4.719,0,0,1-.815-3.546,4.733,4.733,0,0,1,4.672-3.962,4.824,4.824,0,0,1,.88.082l.032.006a4.717,4.717,0,0,1,1.244-.167,4.739,4.739,0,0,1,4.385,2.924l.2.479a4.756,4.756,0,0,1-2.56,6.209l-.478.2A4.743,4.743,0,0,1-66.49,1581.082Z" fill="#fff"/>
          <path id="パス_28295" data-name="パス 28295" d="M-81.9,1587.487a4.738,4.738,0,0,1-4.387-2.927,4.712,4.712,0,0,1,0-3.638,4.714,4.714,0,0,1,2.572-2.573l1.024-.425a4.721,4.721,0,0,1,1.822-.363,4.737,4.737,0,0,1,4.387,2.93,4.714,4.714,0,0,1,0,3.635,4.713,4.713,0,0,1-2.572,2.573l-1.023.425A4.742,4.742,0,0,1-81.9,1587.487Z" fill="#fff"/>
          <path id="パス_28296" data-name="パス 28296" d="M-74.2,1584.285a4.737,4.737,0,0,1-4.387-2.928,4.714,4.714,0,0,1,0-3.637,4.719,4.719,0,0,1,2.572-2.574l1.023-.424a4.717,4.717,0,0,1,1.823-.364,4.737,4.737,0,0,1,4.385,2.927,4.714,4.714,0,0,1,0,3.639,4.715,4.715,0,0,1-2.573,2.573l-1.023.425A4.735,4.735,0,0,1-74.2,1584.285Z" fill="#fff"/>
          <path id="パス_28297" data-name="パス 28297" d="M-85.759,1589.089a4.739,4.739,0,0,1-4.387-2.928,4.712,4.712,0,0,1,0-3.638,4.72,4.72,0,0,1,2.572-2.573l1.024-.425a4.713,4.713,0,0,1,1.822-.363,4.737,4.737,0,0,1,4.384,2.923,4.727,4.727,0,0,1,0,3.642,4.727,4.727,0,0,1-2.573,2.574l-1.023.425A4.74,4.74,0,0,1-85.759,1589.089Z" fill="#fff"/>
          <path id="パス_28298" data-name="パス 28298" d="M-78.051,1585.887a4.739,4.739,0,0,1-4.385-2.923,4.723,4.723,0,0,1-.008-3.637,4.717,4.717,0,0,1,2.569-2.576l1.025-.427a4.756,4.756,0,0,1,1.826-.365,4.737,4.737,0,0,1,4.384,2.923,4.723,4.723,0,0,1,.008,3.637,4.723,4.723,0,0,1-2.569,2.576l-1.025.426A4.716,4.716,0,0,1-78.051,1585.887Z" fill="#fff"/>
          <path id="パス_28299" data-name="パス 28299" d="M-70.344,1582.684a4.739,4.739,0,0,1-4.385-2.923,4.726,4.726,0,0,1-.005-3.642,4.717,4.717,0,0,1,2.573-2.574l1.023-.425a4.737,4.737,0,0,1,1.823-.363,4.737,4.737,0,0,1,4.383,2.923,4.713,4.713,0,0,1,0,3.642A4.72,4.72,0,0,1-67.5,1581.9l-1.023.424A4.715,4.715,0,0,1-70.344,1582.684Z" fill="#fff"/>
          <path id="パス_28300" data-name="パス 28300" d="M-86.426,1577.439a4.618,4.618,0,0,1-.849-.077l-.961-.161a4.714,4.714,0,0,1-3.078-1.928,4.718,4.718,0,0,1-.815-3.545,4.731,4.731,0,0,1,4.676-3.961,4.776,4.776,0,0,1,.844.075l.973.164a4.71,4.71,0,0,1,3.078,1.928,4.718,4.718,0,0,1,.815,3.545A4.737,4.737,0,0,1-86.426,1577.439Z" fill="#fff"/>
          <path id="パス_28301" data-name="パス 28301" d="M-74.973,1579.372a4.615,4.615,0,0,1-.849-.077l-.961-.161a4.718,4.718,0,0,1-3.078-1.928,4.72,4.72,0,0,1-.815-3.546A4.735,4.735,0,0,1-76,1569.7a4.825,4.825,0,0,1,.83.073l.986.166a4.718,4.718,0,0,1,3.079,1.928,4.723,4.723,0,0,1,.814,3.546A4.736,4.736,0,0,1-74.973,1579.372Z" fill="#fff"/>
          <path id="パス_28302" data-name="パス 28302" d="M-71.155,1580.017a4.607,4.607,0,0,1-.849-.078l-.961-.161a4.716,4.716,0,0,1-3.078-1.927,4.72,4.72,0,0,1-.815-3.546,4.732,4.732,0,0,1,4.674-3.962,4.726,4.726,0,0,1,.864.08l.955.16a4.713,4.713,0,0,1,3.078,1.928,4.72,4.72,0,0,1,.815,3.546A4.737,4.737,0,0,1-71.155,1580.017Z" fill="#fff"/>
          <path id="パス_28303" data-name="パス 28303" d="M-90.243,1576.8a4.6,4.6,0,0,1-.849-.077l-.961-.161a4.713,4.713,0,0,1-3.078-1.928,4.72,4.72,0,0,1-.815-3.546,4.73,4.73,0,0,1,4.668-3.963,4.8,4.8,0,0,1,.836.074l.989.167a4.718,4.718,0,0,1,3.078,1.928,4.719,4.719,0,0,1,.815,3.546A4.738,4.738,0,0,1-90.243,1576.8Z" fill="#fff"/>
          <path id="パス_28304" data-name="パス 28304" d="M-81.576,1579.885a4.728,4.728,0,0,1-2.74-.87,4.758,4.758,0,0,1-1.139-6.621l.6-.846a4.766,4.766,0,0,1,2.622-1.836,4.726,4.726,0,0,1,2.413-.659,4.709,4.709,0,0,1,.894.086l.928.155a4.716,4.716,0,0,1,3.078,1.928,4.72,4.72,0,0,1,.815,3.546,4.737,4.737,0,0,1-4.349,3.948A4.755,4.755,0,0,1-81.576,1579.885Z" fill="#fff"/>
          <path id="パス_28305" data-name="パス 28305" d="M-82.608,1578.084a4.6,4.6,0,0,1-.849-.077l-.961-.161a4.715,4.715,0,0,1-3.078-1.928,4.719,4.719,0,0,1-.815-3.546,4.733,4.733,0,0,1,4.673-3.962,4.878,4.878,0,0,1,.869.08l.951.16a4.715,4.715,0,0,1,3.078,1.928,4.72,4.72,0,0,1,.815,3.546A4.737,4.737,0,0,1-82.608,1578.084Z" fill="#fff"/>
          <path id="パス_28306" data-name="パス 28306" d="M-89.063,1590.462a4.731,4.731,0,0,1-1.819-.362,4.72,4.72,0,0,1-2.567-2.567l-.2-.478a4.712,4.712,0,0,1,0-3.636,4.716,4.716,0,0,1,2.021-2.3l.063-.089a4.759,4.759,0,0,1,3.877-2,4.725,4.725,0,0,1,2.728.861,4.76,4.76,0,0,1,1.148,6.634l-.215.3a4.745,4.745,0,0,1-2.737,3.078l-.473.2A4.752,4.752,0,0,1-89.063,1590.462Z" fill="#fff"/>
          <path id="パス_28307" data-name="パス 28307" d="M-72.628,1567.244a4.733,4.733,0,0,1-2.735-.866,4.765,4.765,0,0,1-1.853-5.115,4.7,4.7,0,0,1,2.878-3.8l.483-.2a4.287,4.287,0,0,1,.7-.219,4.515,4.515,0,0,1,.735-.12c.106-.009.266-.015.374-.015a4.7,4.7,0,0,1,.565.034,4.15,4.15,0,0,1,.574.1,4.15,4.15,0,0,1,.675.208,3.76,3.76,0,0,1,.5.246,4.054,4.054,0,0,1,.443.273,4.218,4.218,0,0,1,.544.464,4.749,4.749,0,0,1,.411.454,5.3,5.3,0,0,1,.355.507,4.194,4.194,0,0,1,.324.613l.205.5a4.709,4.709,0,0,1,0,3.635,4.718,4.718,0,0,1-2.572,2.574c-.081.033-.163.064-.245.093A4.748,4.748,0,0,1-72.628,1567.244Z" fill="#fff"/>
          <path id="パス_28308" data-name="パス 28308" d="M-74.865,1570.4a4.738,4.738,0,0,1-2.736-.866,4.727,4.727,0,0,1-1.946-3.084,4.717,4.717,0,0,1,.805-3.545l.6-.843a4.771,4.771,0,0,1,3.878-2,4.721,4.721,0,0,1,2.736.866,4.721,4.721,0,0,1,1.945,3.083,4.718,4.718,0,0,1-.805,3.545l-.6.842A4.763,4.763,0,0,1-74.865,1570.4Z" fill="#fff"/>
          <path id="パス_28309" data-name="パス 28309" d="M-77.1,1573.564a4.725,4.725,0,0,1-2.735-.866,4.728,4.728,0,0,1-1.947-3.084,4.722,4.722,0,0,1,.805-3.545l.6-.842a4.76,4.76,0,0,1,3.878-2.005,4.728,4.728,0,0,1,2.733.865,4.723,4.723,0,0,1,1.948,3.085,4.717,4.717,0,0,1-.805,3.545l-.6.843A4.763,4.763,0,0,1-77.1,1573.564Z" fill="#fff"/>
          <path id="パス_28310" data-name="パス 28310" d="M-79.339,1576.725a4.726,4.726,0,0,1-2.735-.867,4.728,4.728,0,0,1-1.947-3.084,4.723,4.723,0,0,1,.806-3.545l.6-.842a4.765,4.765,0,0,1,3.878-2.005,4.728,4.728,0,0,1,2.738.869,4.717,4.717,0,0,1,1.943,3.081,4.717,4.717,0,0,1-.805,3.545l-.6.843A4.763,4.763,0,0,1-79.339,1576.725Z" fill="#fff"/>
          <path id="パス_28311" data-name="パス 28311" d="M-86.049,1586.2a4.73,4.73,0,0,1-2.741-.87,4.758,4.758,0,0,1-1.139-6.62l.6-.847a4.759,4.759,0,0,1,3.879-2.006,4.724,4.724,0,0,1,2.742.872,4.757,4.757,0,0,1,1.137,6.619l-.6.846A4.76,4.76,0,0,1-86.049,1586.2Z" fill="#fff"/>
          <path id="パス_28312" data-name="パス 28312" d="M-83.813,1583.045a4.728,4.728,0,0,1-2.74-.87,4.758,4.758,0,0,1-1.139-6.621l.6-.846a4.761,4.761,0,0,1,3.879-2.005,4.722,4.722,0,0,1,2.737.868,4.756,4.756,0,0,1,1.142,6.621l-.6.847A4.76,4.76,0,0,1-83.813,1583.045Z" fill="#fff"/>
        </g>
      </g>
      <g id="グループ_3214" data-name="グループ 3214">
        <rect id="長方形_1389" data-name="長方形 1389" width="312" height="56.513" rx="8.183" transform="translate(-82.18 1521.086)" fill="#826ad9"/>
        <g id="グループ_3211" data-name="グループ 3211" style="mix-blend-mode: multiply;isolation: isolate">
          <path id="パス_28313" data-name="パス 28313" d="M206.3,1514.985h-5.5v-.845h5.5a1,1,0,0,0,0-2h-5.549a.985.985,0,0,0-.955-.775h-4.4a1,1,0,0,0-1,1,.982.982,0,0,0,.356.749v12.939a1.257,1.257,0,0,1-1.256,1.256h-10.06a1.257,1.257,0,0,1-1.255-1.256v-12.688h6.234a1,1,0,1,0,0-2H177.147a.984.984,0,0,0-.954.775h-5.941a1,1,0,0,0,0,2h5.9v.845h-5.9a1,1,0,0,0,0,2h5.9v14.327a3.258,3.258,0,0,0,3.255,3.255h18.14a3.258,3.258,0,0,0,3.255-3.255v-14.327h5.5a1,1,0,0,0,0-2Zm-8.759,17.582H179.4a1.256,1.256,0,0,1-1.255-1.255v-17.947h2.04v12.688a3.259,3.259,0,0,0,3.255,3.256H193.5a3.26,3.26,0,0,0,3.256-3.256v-12.688H198.8v2.45a.968.968,0,0,0-.034.17.955.955,0,0,0,.034.169v15.158A1.256,1.256,0,0,1,197.542,1532.567Z" fill="#6148be"/>
          <path id="パス_28314" data-name="パス 28314" d="M182.827,1521.471c.3,2.061,1.41,2.77,2.288,3a3.509,3.509,0,0,0,.892.121,2.788,2.788,0,0,0,.795-.121,3.112,3.112,0,0,0,1.084,1.291,2.779,2.779,0,0,0,1.621.519,4.089,4.089,0,0,0,2.148-.7c3.938-2.434,1.759-9.592,1.09-11.505l6.144-13.19a1,1,0,0,0-1.812-.844l-6.144,13.19C189.038,1513.953,182.156,1516.891,182.827,1521.471Zm8.284-5.939c-.045-.023-.082-.039-.114-.053s-.074-.037-.125-.059c.064-.028.118-.049.18-.075C191.072,1515.409,191.091,1515.464,191.111,1515.532Zm-1.044,1.717a.819.819,0,0,0,.084.029c.021.01.034.029.056.038a1.876,1.876,0,0,1,.857.95c-.114.085-.286.184-.393.247l-.227.136c-.177.109-.374.222-.58.342-.224.129-.463.267-.7.415-.041-.28-.089-.552-.135-.808-.041-.233-.081-.457-.111-.662l-.042-.26c-.021-.122-.055-.318-.064-.46A1.9,1.9,0,0,1,190.067,1517.249Zm-4.443,5.289c-.176-.047-.645-.17-.818-1.356-.181-1.234.761-2.43,2.051-3.445.015.107.032.2.045.28l.034.2c.032.227.076.472.122.729a6.406,6.406,0,0,1,.138,2.267c-.005.009-.014.016-.019.025a5.414,5.414,0,0,0-.384.868A.955.955,0,0,1,185.624,1522.538Zm4.98,1.344c-1.02.63-1.416.352-1.564.246a.954.954,0,0,1-.427-1.164,5.434,5.434,0,0,0,.419-.858c0-.012.006-.024.011-.036a6.427,6.427,0,0,1,1.819-1.346c.227-.131.444-.256.64-.378l.177-.1c.068-.04.151-.088.242-.145C191.973,1521.737,191.665,1523.226,190.6,1523.882Z" fill="#6148be"/>
        </g>
        <path id="パス_28315" data-name="パス 28315" d="M-22.184,1533.075l-.733-9.112c0-.014-.009-.026-.011-.04a.965.965,0,0,0-.092-.325l0-.013v0l-5.61-10.826-.749-9.308a1,1,0,0,0-.348-.681,1.022,1.022,0,0,0-.728-.236l-4.558.367a1,1,0,0,0-.916,1.078l.056.7-6.251.5h0l-1.254.1-.785.063h0l-9.006.725-.057-.7a.993.993,0,0,0-.349-.681,1.013,1.013,0,0,0-.728-.236l-4.557.367a1,1,0,0,0-.916,1.078l.749,9.305-3.807,11.585v0l0,.007a.993.993,0,0,0-.039.342c0,.013-.006.026-.005.04l.734,9.112.4,4.988a1,1,0,0,0,.349.682,1,1,0,0,0,.648.238l.08,0,3.568-.287a1,1,0,0,0,.916-1.077l-.321-3.991,28.848-2.321.321,3.991a1,1,0,0,0,.348.681,1,1,0,0,0,.648.239c.027,0,.054,0,.08,0l3.568-.287a1,1,0,0,0,.917-1.078Zm-35.484,1.852h0l-2.571.207-.573-7.118,20.768-1.672,15.215-1.224.573,7.118Zm.39-18.66,3.9-.313h0l2.132-.172.023.282a1,1,0,0,0,1,.919l.081,0,13.026-1.047a1,1,0,0,0,.682-.349,1,1,0,0,0,.234-.729l-.022-.28,3.9-.315,2.126-.171,1.007,1.943-28.771,2.315Zm7.68-4.915,11.033-.888.286,3.554-11.033.887Zm-9.041,9.056,30.291-2.437a.942.942,0,0,0,.141-.041l2.714,5.237-34.977,2.814Zm27.342-15.8.605,7.515-2.564.206-.6-7.514Zm-11.926,2.671,7.506-.6.467,5.815-1.139.092-.263-3.273a.994.994,0,0,0-1.077-.917l-13.026,1.048a1,1,0,0,0-.682.348,1,1,0,0,0-.234.729l.263,3.272-1.139.092-.468-5.814Zm-11.922-.752.6,7.515-2.563.206-.6-7.515Zm-3.12,33.47-1.574.127-.241-2.994.808-.065.767-.062Zm32.835-2.641-.241-2.995.981-.079.593-.047.241,2.994Z" fill="#6148be" style="mix-blend-mode: multiply;isolation: isolate"/>
        <g id="グループ_3212" data-name="グループ 3212" style="mix-blend-mode: multiply;isolation: isolate">
          <path id="パス_28316" data-name="パス 28316" d="M200.619,1567.422a.748.748,0,0,0,.377.432.724.724,0,0,0,.267.063l1.214,4.785a.747.747,0,0,0,.368.474.758.758,0,0,0,.359.092.746.746,0,0,0,.238-.039l11.256-3.782a.749.749,0,0,0,.452-1l-1.918-4.537a.747.747,0,0,0,.21-.794l-.484-1.44a1.7,1.7,0,0,0-2.147-1.068l-9.608,3.229a1.7,1.7,0,0,0-1.068,2.147Zm11.956,1.156-1.131-2.538a.75.75,0,1,0-1.37.611l1.073,2.407-.784.263-.948-2.55a.75.75,0,0,0-1.406.524l.931,2.5-.7.234-.77-2.558a.75.75,0,0,0-1.436.431l.784,2.6-.784.264-.6-2.566a.75.75,0,1,0-1.461.34l.631,2.706-.879.295-1.018-4.015,9.127-3.066,1.613,3.815Zm-10.9-3.322,9.608-3.229a.229.229,0,0,1,.063-.009.2.2,0,0,1,.186.132l.244.73-9.979,3.352-.245-.729A.218.218,0,0,1,201.68,1565.256Z" fill="#6148be"/>
          <path id="パス_28317" data-name="パス 28317" d="M231.362,1583.166l.032-.569a11.586,11.586,0,0,0,.017-9.4.749.749,0,0,0-1.022-.31c-4.218,2.283-7.194.327-8.793-.725a5.907,5.907,0,0,0-.834-.494c-.966-.41-2.362.539-4.954,2.391a28.807,28.807,0,0,1-3.506,2.282c-3.336,1.611-9.491,1.618-11.513,1.62-.286,0-.508,0-.653,0-1.36.035-1.653,2.269-1.7,2.717h0c0,.036.01.07.008.106s-.008.051,0,.077l.021.138a1.687,1.687,0,0,0,.043.3l.343,2.324a.752.752,0,0,0,.329.517c.261.172,6.457,4.222,11.393,3.6,1.785-.222,3.316-.493,4.668-.732a32.519,32.519,0,0,1,5.294-.658l.022.883a.75.75,0,0,0,.75.732h.01l9.084-.13a.75.75,0,0,0,.738-.706l.21-3.7a.336.336,0,0,0,.015-.26Zm-1-8.592a10.407,10.407,0,0,1-.4,7.569.693.693,0,0,0-.028.135.617.617,0,0,0-.032.119l0,.071c-2.171-.109-4.383-.205-6.611-.152-.734-2.114-3.328-2.333-5.1-2.462a7.838,7.838,0,0,1-1.481-.19c-.52-1.3,2.135-4.341,4.238-6.134A9.215,9.215,0,0,0,230.362,1574.574Zm-17.408,3.118a29.5,29.5,0,0,0,3.726-2.413c.33-.235.705-.5,1.085-.769-1.636,1.785-3.282,4.193-2.34,5.946.391.727,1.34.8,2.654.894,1.65.121,2.986.3,3.581,1.05-.321.02-.64.025-.961.052-2.279.194-4.538.528-7.074.962a37.915,37.915,0,0,0-2.259-5.107A11.737,11.737,0,0,0,212.954,1577.692Zm-12.641,1.77h.477a44.677,44.677,0,0,0,9.074-.756,33.771,33.771,0,0,1,2.255,4.962,16.924,16.924,0,0,1-7.436-.408c-3.2-.917-4.458-1.823-4.705-2.265l-.036-.24A3.585,3.585,0,0,1,200.313,1579.462Zm21.723,6.991-.021-.865a.752.752,0,0,0-.724-.732,30.087,30.087,0,0,0-6.313.674c-1.334.236-2.846.5-4.594.721-3.233.405-7.316-1.6-9.255-2.69a21.372,21.372,0,0,0,3.14,1.139,18.379,18.379,0,0,0,8.233.429c3.091-.548,5.69-.959,8.324-1.183a67.212,67.212,0,0,1,8.988.019l-.135,2.379Z" fill="#6148be"/>
        </g>
        <g id="グループ_3213" data-name="グループ 3213" style="mix-blend-mode: multiply;isolation: isolate">
          <path id="パス_28318" data-name="パス 28318" d="M-61.593,1577.21l-8.082-19.45a.749.749,0,0,0-.98-.405L-99.1,1569.173a.75.75,0,0,0-.4.406.746.746,0,0,0,0,.574l8.082,19.451a.747.747,0,0,0,.692.461.751.751,0,0,0,.288-.057L-62,1578.19a.748.748,0,0,0,.406-.406A.756.756,0,0,0-61.593,1577.21Zm-28.728,11.125-7.507-18.064,27.056-11.243,7.506,18.065Z" fill="#6148be"/>
          <path id="パス_28319" data-name="パス 28319" d="M-92.684,1575.043l-.4-.967a.748.748,0,0,0-.98-.405.75.75,0,0,0-.406.979l.4.967a.75.75,0,0,0,.693.463.728.728,0,0,0,.287-.058A.749.749,0,0,0-92.684,1575.043Z" fill="#6148be"/>
          <path id="パス_28320" data-name="パス 28320" d="M-89.672,1582.29l-.4-.967a.749.749,0,0,0-.981-.405.749.749,0,0,0-.4.979l.4.967a.751.751,0,0,0,.694.463.75.75,0,0,0,.287-.057A.75.75,0,0,0-89.672,1582.29Z" fill="#6148be"/>
          <path id="パス_28321" data-name="パス 28321" d="M-91.178,1578.665l-.4-.966a.75.75,0,0,0-.98-.4.749.749,0,0,0-.4.98l.4.966a.751.751,0,0,0,.693.462.745.745,0,0,0,.287-.057A.751.751,0,0,0-91.178,1578.665Z" fill="#6148be"/>
          <path id="パス_28322" data-name="パス 28322" d="M-94.27,1572.127l.083.014a.769.769,0,0,0,.126.01.75.75,0,0,0,.739-.625.75.75,0,0,0-.615-.864l-.032-.005a.744.744,0,0,0-.923-.318l-.476.2c-.019.008-.031.024-.049.033a.729.729,0,0,0-.155.105.643.643,0,0,0-.08.085.716.716,0,0,0-.086.13.666.666,0,0,0-.052.137.724.724,0,0,0-.03.077c0,.021,0,.039,0,.059a.688.688,0,0,0,0,.15.7.7,0,0,0,.029.146.585.585,0,0,0,.011.058l.2.476a.75.75,0,0,0,.693.463.728.728,0,0,0,.287-.058A.735.735,0,0,0-94.27,1572.127Z" fill="#6148be"/>
          <path id="パス_28323" data-name="パス 28323" d="M-87.923,1569.005a.748.748,0,0,0,.287-.058l1.028-.426a.75.75,0,0,0,.4-.98.747.747,0,0,0-.98-.405l-1.028.427a.749.749,0,0,0-.4.979A.75.75,0,0,0-87.923,1569.005Z" fill="#6148be"/>
          <path id="パス_28324" data-name="パス 28324" d="M-91.777,1570.606a.745.745,0,0,0,.287-.057l1.028-.427a.75.75,0,0,0,.4-.98.749.749,0,0,0-.98-.4l-1.028.427a.75.75,0,0,0-.4.98A.749.749,0,0,0-91.777,1570.606Z" fill="#6148be"/>
          <path id="パス_28325" data-name="パス 28325" d="M-84.069,1567.4a.752.752,0,0,0,.288-.057l1.027-.428a.749.749,0,0,0,.4-.981.751.751,0,0,0-.98-.4l-1.027.428a.75.75,0,0,0-.4.98A.751.751,0,0,0-84.069,1567.4Z" fill="#6148be"/>
          <path id="パス_28326" data-name="パス 28326" d="M-76.361,1564.2a.75.75,0,0,0,.287-.057l1.028-.427a.75.75,0,0,0,.4-.98.749.749,0,0,0-.981-.405l-1.027.427a.75.75,0,0,0-.406.98A.751.751,0,0,0-76.361,1564.2Z" fill="#6148be"/>
          <path id="パス_28327" data-name="パス 28327" d="M-80.215,1565.8a.75.75,0,0,0,.287-.058l1.028-.427a.749.749,0,0,0,.4-.979.749.749,0,0,0-.981-.405l-1.027.426a.751.751,0,0,0-.406.98A.75.75,0,0,0-80.215,1565.8Z" fill="#6148be"/>
          <path id="パス_28328" data-name="パス 28328" d="M-71.422,1565.073l.4.967a.752.752,0,0,0,.694.463.746.746,0,0,0,.287-.058.749.749,0,0,0,.4-.979l-.4-.967a.749.749,0,0,0-.981-.405A.749.749,0,0,0-71.422,1565.073Z" fill="#6148be"/>
          <path id="パス_28329" data-name="パス 28329" d="M-69.916,1568.7l.4.966a.75.75,0,0,0,.693.462.75.75,0,0,0,.287-.058.749.749,0,0,0,.4-.98l-.4-.966a.749.749,0,0,0-.98-.4A.749.749,0,0,0-69.916,1568.7Z" fill="#6148be"/>
          <path id="パス_28330" data-name="パス 28330" d="M-68.41,1572.321l.4.967a.751.751,0,0,0,.693.462.757.757,0,0,0,.288-.058.749.749,0,0,0,.4-.98l-.4-.967a.75.75,0,0,0-.98-.4A.749.749,0,0,0-68.41,1572.321Z" fill="#6148be"/>
          <path id="パス_28331" data-name="パス 28331" d="M-66.88,1575.33a.733.733,0,0,0-.333-.159l-1.018-.172a.742.742,0,0,0-.865.614.751.751,0,0,0,.615.865l1.018.171a.691.691,0,0,0,.126.011.727.727,0,0,0,.161-.029.75.75,0,0,0,.686.451.753.753,0,0,0,.288-.058l.476-.2a.749.749,0,0,0,.4-.98l-.2-.477a.75.75,0,0,0-.98-.4A.744.744,0,0,0-66.88,1575.33Z" fill="#6148be"/>
          <path id="パス_28332" data-name="パス 28332" d="M-81.166,1581.618l-1.027.427a.75.75,0,0,0-.406.979.751.751,0,0,0,.694.463.75.75,0,0,0,.287-.057l1.028-.427a.75.75,0,0,0,.4-.98A.75.75,0,0,0-81.166,1581.618Z" fill="#6148be"/>
          <path id="パス_28333" data-name="パス 28333" d="M-73.458,1578.416l-1.028.427a.749.749,0,0,0-.4.979.75.75,0,0,0,.693.463.747.747,0,0,0,.287-.057l1.028-.427a.749.749,0,0,0,.405-.98A.748.748,0,0,0-73.458,1578.416Z" fill="#6148be"/>
          <path id="パス_28334" data-name="パス 28334" d="M-85.02,1583.22l-1.027.426a.751.751,0,0,0-.406.98.75.75,0,0,0,.694.463.752.752,0,0,0,.287-.058l1.028-.427a.75.75,0,0,0,.4-.98A.749.749,0,0,0-85.02,1583.22Z" fill="#6148be"/>
          <path id="パス_28335" data-name="パス 28335" d="M-77.313,1580.017l-1.027.427a.75.75,0,0,0-.4.981.751.751,0,0,0,.693.462.75.75,0,0,0,.287-.058l1.028-.428a.75.75,0,0,0,.4-.98A.75.75,0,0,0-77.313,1580.017Z" fill="#6148be"/>
          <path id="パス_28336" data-name="パス 28336" d="M-69.6,1576.814l-1.028.427a.751.751,0,0,0-.4.981.751.751,0,0,0,.693.462.746.746,0,0,0,.287-.058l1.028-.427a.748.748,0,0,0,.4-.979A.748.748,0,0,0-69.6,1576.814Z" fill="#6148be"/>
          <path id="パス_28337" data-name="パス 28337" d="M-87.32,1571.778a.745.745,0,0,0-.865.615.751.751,0,0,0,.615.864l1.018.172a.678.678,0,0,0,.126.01.749.749,0,0,0,.739-.625.75.75,0,0,0-.615-.864Z" fill="#6148be"/>
          <path id="パス_28338" data-name="パス 28338" d="M-74.234,1574.747a.749.749,0,0,0-.615-.864l-1.018-.172a.743.743,0,0,0-.864.614.749.749,0,0,0,.614.864l1.018.172a.68.68,0,0,0,.126.011A.75.75,0,0,0-74.234,1574.747Z" fill="#6148be"/>
          <path id="パス_28339" data-name="パス 28339" d="M-70.416,1575.392a.751.751,0,0,0-.615-.865l-1.018-.172a.745.745,0,0,0-.865.615.751.751,0,0,0,.615.864l1.018.172a.68.68,0,0,0,.126.011A.75.75,0,0,0-70.416,1575.392Z" fill="#6148be"/>
          <path id="パス_28340" data-name="パス 28340" d="M-91.137,1571.135a.738.738,0,0,0-.865.614.75.75,0,0,0,.615.864l1.018.172a.676.676,0,0,0,.126.011.751.751,0,0,0,.739-.625.751.751,0,0,0-.615-.864Z" fill="#6148be"/>
          <path id="パス_28341" data-name="パス 28341" d="M-78.051,1574.1a.751.751,0,0,0-.615-.865l-1.018-.172a.741.741,0,0,0-.864.613.75.75,0,0,0-1.043.179l-.6.843a.75.75,0,0,0,.18,1.046.744.744,0,0,0,.432.138.751.751,0,0,0,.613-.317l.6-.842a.733.733,0,0,0,.122-.319.738.738,0,0,0,.311.138l1.018.172a.676.676,0,0,0,.126.011A.751.751,0,0,0-78.051,1574.1Z" fill="#6148be"/>
          <path id="パス_28342" data-name="パス 28342" d="M-83.5,1572.423a.742.742,0,0,0-.865.614.75.75,0,0,0,.615.864l1.018.172a.68.68,0,0,0,.126.011.751.751,0,0,0,.739-.625.75.75,0,0,0-.615-.864Z" fill="#6148be"/>
          <path id="パス_28343" data-name="パス 28343" d="M-88.3,1583.339l-.6.843a.723.723,0,0,0-.123.348.738.738,0,0,0-.527.012.75.75,0,0,0-.406.979l.2.478a.745.745,0,0,0,.406.406.749.749,0,0,0,.286.057.761.761,0,0,0,.289-.058l.476-.2a.749.749,0,0,0,.407-.97.714.714,0,0,0,.217-.187l.6-.843a.751.751,0,0,0-.179-1.046A.753.753,0,0,0-88.3,1583.339Z" fill="#6148be"/>
          <path id="パス_28344" data-name="パス 28344" d="M-73.062,1563.106a.752.752,0,0,0,.434.138.749.749,0,0,0,.612-.316l.056-.078a.8.8,0,0,0,.127.029.757.757,0,0,0,.288-.058.749.749,0,0,0,.4-.979l-.2-.478c-.008-.018-.024-.031-.033-.049a.826.826,0,0,0-.082-.123.787.787,0,0,0-.1-.107c-.017-.014-.026-.033-.044-.046a.523.523,0,0,0-.076-.033.671.671,0,0,0-.071-.048c-.022-.009-.045-.006-.067-.013a.822.822,0,0,0-.139-.028.789.789,0,0,0-.145,0,.752.752,0,0,0-.14.028.751.751,0,0,0-.083.017l-.477.2a.742.742,0,0,0-.425.876l-.019.028A.751.751,0,0,0-73.062,1563.106Z" fill="#6148be"/>
          <path id="パス_28345" data-name="パス 28345" d="M-75.477,1565.221a.751.751,0,0,0,.179,1.046.753.753,0,0,0,.433.137.752.752,0,0,0,.613-.316l.6-.843a.752.752,0,0,0-.178-1.046.753.753,0,0,0-1.046.179Z" fill="#6148be"/>
          <path id="パス_28346" data-name="パス 28346" d="M-77.1,1569.564a.751.751,0,0,0,.613-.316l.6-.843a.75.75,0,0,0-.178-1.046.752.752,0,0,0-1.046.179l-.6.843a.751.751,0,0,0,.179,1.046A.748.748,0,0,0-77.1,1569.564Z" fill="#6148be"/>
          <path id="パス_28347" data-name="パス 28347" d="M-79.354,1570.7l-.6.843a.751.751,0,0,0,.179,1.046.749.749,0,0,0,.433.138.752.752,0,0,0,.613-.317l.6-.843a.75.75,0,0,0-.179-1.045A.751.751,0,0,0-79.354,1570.7Z" fill="#6148be"/>
          <path id="パス_28348" data-name="パス 28348" d="M-86.049,1582.2a.748.748,0,0,0,.612-.316l.6-.843a.75.75,0,0,0-.18-1.046.751.751,0,0,0-1.045.179l-.6.842a.751.751,0,0,0,.179,1.046A.747.747,0,0,0-86.049,1582.2Z" fill="#6148be"/>
          <path id="パス_28349" data-name="パス 28349" d="M-82.783,1576.84a.752.752,0,0,0-1.045.179l-.6.842a.75.75,0,0,0,.179,1.046.746.746,0,0,0,.432.138.75.75,0,0,0,.613-.316l.6-.843A.749.749,0,0,0-82.783,1576.84Z" fill="#6148be"/>
        </g>
      </g>
    </g>
    <text id="その他" transform="translate(-3140 3155.598)" fill="#fff" font-size="32" font-family="rounded-mplus-2p-black, 'Rounded M\+ \32 p'" font-weight="800"><tspan x="0" y="0">その</tspan><tspan y="0">他</tspan></text>
  </g>
</svg>
