<svg xmlns="http://www.w3.org/2000/svg" width="343" height="111" viewBox="0 0 343 111">
  <g id="グループ_2882" data-name="グループ 2882" transform="translate(4484 -3089)">
    <rect id="長方形_1342" data-name="長方形 1342" width="343" height="110.528" transform="translate(-4484 3089)" fill="#fff" opacity="0"/>
    <g id="グループ_2881" data-name="グループ 2881" transform="translate(-4481 3089)">
      <g id="グループ_2874" data-name="グループ 2874" transform="translate(0 3)">
        <path id="パス_27626" data-name="パス 27626" d="M231.361,1149.539a3.942,3.942,0,0,0-.041-2.073l1.956-6.7a12.028,12.028,0,0,0-.309-7.487,14.317,14.317,0,0,0-4.274-5.419v-20.894a12.17,12.17,0,0,0-12.183-12.129h-8.956a5.336,5.336,0,0,0-3.345-9.161c-.133-.011-.852-.063-1.946-.063-.763,0-1.718.028-2.787.111a5.359,5.359,0,0,0-3.869-3.557l-5.9-1.4a5.407,5.407,0,0,0-.571-1.68,15.644,15.644,0,0,1,5.939-2.317,5.365,5.365,0,0,0-.664-10.691,5.549,5.549,0,0,0-.655.04c-.872.105-8.674,1.2-13.974,6.907-.074.079-.126.171-.194.254a5.4,5.4,0,0,0-4.068-.242,5.356,5.356,0,0,0-1.359.718,16.733,16.733,0,0,0-6.072-8.295,5.373,5.373,0,0,0-5.955,8.943,4.21,4.21,0,0,1,.662.689,5.393,5.393,0,0,0-2.85,1.981l-8.113,11.089c-.015.02-.1.144-.129.187a5.673,5.673,0,0,0-.493.919c-.042.1-.079.2-.112.3a5.2,5.2,0,0,0-.157.51l-1.143,4.757H6.575l-.715-5.594a8.671,8.671,0,0,0-8.374-7.54l-.6-4.688a8.687,8.687,0,0,0-8.611-7.555,8.639,8.639,0,0,0-1.1.071l-41,5.193a8.663,8.663,0,0,0-7.517,9.668l.6,4.688a8.668,8.668,0,0,0-5.889,5.758H-79.125a12.17,12.17,0,0,0-12.182,12.129v16.284l-3.922,1.1a3.988,3.988,0,0,0-2.914,3.844l0,1.613-4.1,1.152a4,4,0,0,0-2.4,1.887,3.965,3.965,0,0,0-.36,3.028l1.417,5a3.976,3.976,0,0,0,2.8,2.75l6.592,17.92a5.523,5.523,0,0,0,5.168,3.593,5.49,5.49,0,0,0,1.494-.206l16.436-4.615a5.417,5.417,0,0,0,2.2-1.248H196.891l-.3,1.037a3.979,3.979,0,0,0,2.724,4.935l12.3,3.56a3.928,3.928,0,0,0,2.771-.21,8,8,0,0,0,5.684,2.373c.246,0,.484-.038.725-.061l5.814,1.683a5.658,5.658,0,0,0,1.582.224,5.828,5.828,0,0,0,2.914-.784,5.956,5.956,0,0,0,2.787-3.77C236.383,1157.461,233.1,1151.706,231.361,1149.539Z" transform="translate(105.154 -1064.611)" fill="#04afaa"/>
      </g>
      <g id="グループ_2875" data-name="グループ 2875">
        <path id="パス_27627" data-name="パス 27627" d="M231.361,1146.539a3.942,3.942,0,0,0-.041-2.073l1.956-6.7a12.028,12.028,0,0,0-.309-7.487,14.317,14.317,0,0,0-4.274-5.419v-20.894a12.17,12.17,0,0,0-12.183-12.129h-8.956a5.336,5.336,0,0,0-3.345-9.161c-.133-.011-.852-.063-1.946-.063-.763,0-1.718.028-2.787.111a5.359,5.359,0,0,0-3.869-3.557l-5.9-1.4a5.407,5.407,0,0,0-.571-1.68,15.644,15.644,0,0,1,5.939-2.317,5.365,5.365,0,0,0-.664-10.691,5.549,5.549,0,0,0-.655.04c-.872.105-8.674,1.2-13.974,6.907-.074.079-.126.171-.194.254a5.4,5.4,0,0,0-4.068-.242,5.356,5.356,0,0,0-1.359.718,16.733,16.733,0,0,0-6.072-8.295,5.373,5.373,0,0,0-5.955,8.943,4.21,4.21,0,0,1,.662.689,5.393,5.393,0,0,0-2.85,1.981l-8.113,11.089c-.015.02-.1.144-.129.187a5.673,5.673,0,0,0-.493.919c-.042.1-.079.2-.112.3a5.2,5.2,0,0,0-.157.51l-1.143,4.757H6.575l-.715-5.594a8.671,8.671,0,0,0-8.374-7.54l-.6-4.688a8.687,8.687,0,0,0-8.611-7.555,8.639,8.639,0,0,0-1.1.071l-41,5.193a8.663,8.663,0,0,0-7.517,9.668l.6,4.688a8.668,8.668,0,0,0-5.889,5.758H-79.125a12.17,12.17,0,0,0-12.182,12.129v16.284l-3.922,1.1a3.988,3.988,0,0,0-2.914,3.844l0,1.613-4.1,1.152a4,4,0,0,0-2.4,1.887,3.965,3.965,0,0,0-.36,3.028l1.417,5a3.976,3.976,0,0,0,2.8,2.75l6.592,17.92a5.523,5.523,0,0,0,5.168,3.593,5.49,5.49,0,0,0,1.494-.206l16.436-4.615a5.417,5.417,0,0,0,2.2-1.248H196.891l-.3,1.037a3.979,3.979,0,0,0,2.724,4.935l12.3,3.56a3.928,3.928,0,0,0,2.771-.21,8,8,0,0,0,5.684,2.373c.246,0,.484-.038.725-.061l5.814,1.683a5.658,5.658,0,0,0,1.582.224,5.828,5.828,0,0,0,2.914-.784,5.956,5.956,0,0,0,2.787-3.77C236.383,1154.461,233.1,1148.706,231.361,1146.539Z" transform="translate(105.154 -1061.611)" fill="#fff"/>
      </g>
      <g id="グループ_2880" data-name="グループ 2880" transform="translate(4 4)">
        <rect id="長方形_1343" data-name="長方形 1343" width="312" height="56.513" rx="8.183" transform="translate(13.847 29.886)" fill="#27cfbe"/>
        <g id="グループ_2876" data-name="グループ 2876" transform="translate(301.583 59.041)" style="mix-blend-mode: multiply;isolation: isolate">
          <line id="線_1989" data-name="線 1989" x1="2.393" y2="8.23" transform="translate(21.419 22.946)" fill="none" stroke="#04afaa" stroke-linecap="round" stroke-linejoin="round" stroke-width="1.9"/>
          <rect id="長方形_1344" data-name="長方形 1344" width="2.711" height="4.342" transform="translate(22.135 22.226) rotate(-73.787)" fill="none" stroke="#04afaa" stroke-linecap="round" stroke-linejoin="round" stroke-width="1.9"/>
          <path id="パス_27628" data-name="パス 27628" d="M226.995,1145.376l2.44-8.394a8.153,8.153,0,0,0-.2-4.956c-1.656-4.273-12.6-11.659-15.244-2.582l-6.718,23.1" transform="translate(-200.429 -1125.124)" fill="none" stroke="#04afaa" stroke-linecap="round" stroke-linejoin="round" stroke-width="1.9"/>
          <path id="パス_27629" data-name="パス 27629" d="M224.151,1144.371l2.3-7.9a4.565,4.565,0,0,0-.573-3.947c-1.207-1.921-7.55-7.25-9.179-1.648l-6.545,22.508" transform="translate(-200.429 -1125.124)" fill="none" stroke="#04afaa" stroke-linecap="round" stroke-linejoin="round" stroke-width="1.9"/>
          <rect id="長方形_1345" data-name="長方形 1345" width="2.246" height="6.446" transform="translate(4.549 29.263) rotate(-73.787)" fill="none" stroke="#04afaa" stroke-linecap="round" stroke-linejoin="round" stroke-width="1.9"/>
          <rect id="長方形_1346" data-name="長方形 1346" width="5.354" height="12.806" transform="translate(0 33.517) rotate(-73.787)" fill="none" stroke="#04afaa" stroke-linecap="round" stroke-linejoin="round" stroke-width="1.9"/>
          <line id="線_1990" data-name="線 1990" x2="7.483" y2="2.176" transform="translate(3.003 32.166)" fill="none" stroke="#04afaa" stroke-linecap="round" stroke-linejoin="round" stroke-width="1.9"/>
          <circle id="楕円形_399" data-name="楕円形 399" cx="3.988" cy="3.988" r="3.988" transform="translate(15.644 31.126)" fill="none" stroke="#04afaa" stroke-linecap="round" stroke-linejoin="round" stroke-width="1.9"/>
          <path id="パス_27630" data-name="パス 27630" d="M221.085,1164.089l6.637,1.93a1.853,1.853,0,0,0,2.27-1.423c2.215-9.441-.775-14.033-1.874-15.339a1.679,1.679,0,0,0-.817-.53l-3.928-1.142a1.848,1.848,0,0,0-2.246,1.333l-2.179,7.494" transform="translate(-200.429 -1125.124)" fill="none" stroke="#04afaa" stroke-linecap="round" stroke-linejoin="round" stroke-width="1.9"/>
        </g>
        <path id="パス_27631" data-name="パス 27631" d="M-3.326,1082.814l-2.663.339-1.092-8.578a4.688,4.688,0,0,0-5.237-4.055l-20.3,2.582-5.03.64-15.667,1.993a4.689,4.689,0,0,0-4.055,5.238l1.091,8.578-2.663.339a4.672,4.672,0,0,0-4.041,5.219l2.4,18.907a1.637,1.637,0,0,0,1.831,1.417l5.669-.721.472,3.712a1.637,1.637,0,0,0,1.831,1.417l4.863-.619a1.637,1.637,0,0,0,1.418-1.83l-.473-3.712,34.069-4.334.473,3.712a1.636,1.636,0,0,0,1.83,1.417l4.864-.619a1.637,1.637,0,0,0,1.418-1.83l-.472-3.712,5.668-.721a1.638,1.638,0,0,0,1.418-1.831l-2.406-18.907A4.671,4.671,0,0,0-3.326,1082.814Zm-6.364,23.077-37.317,4.747-3.239.412-.252-1.978,43.8-5.571.252,1.978Zm1.993-5.564-19.925,2.534-.152-1.2a1.622,1.622,0,0,0,.041-.612l-.319-2.508a1.418,1.418,0,0,1,1.181-1.033l17.107-2.176a1.437,1.437,0,0,1,1.592,1.26Zm-23.173,2.948-19.925,2.534-.474-3.73a1.438,1.438,0,0,1,1.226-1.619l17.106-2.176a1.437,1.437,0,0,1,1.592,1.26Zm20.541-28.287,1.3,10.2.9,7.1a4.639,4.639,0,0,0-2.05-.2l-17.106,2.176a4.632,4.632,0,0,0-1.268.352l-2.345-18.431,18.992-2.416A1.411,1.411,0,0,1-10.329,1074.988Zm-43.8,5.571a1.41,1.41,0,0,1,1.22-1.575l15.667-1.993,3.093-.394,2.354,18.508a4.636,4.636,0,0,0-1.559-.07l-17.106,2.176a4.624,4.624,0,0,0-1.492.458l-.879-6.907Zm-5.613,14.136a1.394,1.394,0,0,1,1.206-1.557l2.663-.339.993,7.8,1.382,10.862-4.045.514Zm11.786,21.486-1.615.2-.266-2.087,1.615-.206Zm42.181-5.366-1.616.205-.265-2.087,1.615-.206Zm6.614-6.264-4.045.515L-4.584,1094.2l-.992-7.8,2.663-.339a1.394,1.394,0,0,1,1.557,1.206Z" transform="translate(101.154 -1065.611)" fill="#04afaa" style="mix-blend-mode: multiply;isolation: isolate"/>
        <g id="グループ_2877" data-name="グループ 2877" transform="translate(251.701)" style="mix-blend-mode: multiply;isolation: isolate">
          <path id="パス_27632" data-name="パス 27632" d="M197.934,1098.189a1.346,1.346,0,0,0-.011-.3.048.048,0,0,0,0-.012v-.009l-.9-5.562a1.39,1.39,0,1,0-2.744.443l.567,3.513-2.422-.579a1.378,1.378,0,0,0-.208-.621l-5.513-8.7a1.389,1.389,0,0,0-2.4.1l-3.389,6.471-6.38-1.526a5.684,5.684,0,0,0,.267-.829,5.893,5.893,0,1,0-11.463-2.741,5.969,5.969,0,0,0-.136.86l-4.663-1.115,6.346-8.712,1.2.286a1.39,1.39,0,0,0,.647-2.7l-2.1-.5a1.388,1.388,0,0,0-1.447.533l-8.113,11.137,0,.005,0,0-.006.011a1.4,1.4,0,0,0-.144.261c-.014.032-.023.066-.035.1s-.033.081-.043.124l-4.248,17.762a1.39,1.39,0,0,0,1.028,1.675l40.367,9.654a1.389,1.389,0,0,0,1.674-1.028l4.249-17.762c.01-.044.011-.087.017-.13S197.932,1098.225,197.934,1098.189Zm-12.29-8.307,2.938,4.636-.885.036-4-.956Zm-19.607-1.4a3.114,3.114,0,0,1,6.057,1.449,3.073,3.073,0,0,1-.327.814l-5.806-1.388A3.1,3.1,0,0,1,166.037,1088.481Zm-12.426,16.7,3.6-15.059L172,1093.657h.006l15.228,3.642h.01l7.633,1.826-3.6,15.059Z" transform="translate(-150.546 -1065.611)" fill="#04afaa"/>
          <path id="パス_27633" data-name="パス 27633" d="M185.114,1082.278a1.39,1.39,0,0,0,1.028,1.675l6.987,1.671.094.579a1.39,1.39,0,1,0,2.744-.443l-.242-1.494a1.391,1.391,0,0,0-1.048-1.13l-7.888-1.886A1.39,1.39,0,0,0,185.114,1082.278Z" transform="translate(-150.546 -1065.611)" fill="#04afaa"/>
          <path id="パス_27634" data-name="パス 27634" d="M173.134,1083.559l7.137,3.514a1.39,1.39,0,0,0,1.861-.633l3.514-7.138a1.39,1.39,0,0,0-.633-1.86l-7.138-3.514a1.39,1.39,0,0,0-1.861.633L172.5,1081.7A1.389,1.389,0,0,0,173.134,1083.559Zm4.76-6.524,4.645,2.287-2.287,4.644-4.644-2.287Z" transform="translate(-150.546 -1065.611)" fill="#04afaa"/>
          <path id="パス_27635" data-name="パス 27635" d="M164.42,1068.163c.2.136,4.974,3.425,4.276,12.843a1.391,1.391,0,0,0,1.061,1.454,1.342,1.342,0,0,0,.222.034,1.389,1.389,0,0,0,1.488-1.283c.828-11.165-5.276-15.214-5.537-15.381a1.39,1.39,0,0,0-1.51,2.333Z" transform="translate(-150.546 -1065.611)" fill="#04afaa"/>
          <path id="パス_27636" data-name="パス 27636" d="M205.176,1088.247a1.39,1.39,0,0,0-1.28-1.491c-.3-.023-7.382-.53-12.59,2.261a1.389,1.389,0,1,0,1.313,2.449c4.48-2.4,10.992-1.945,11.066-1.939A1.39,1.39,0,0,0,205.176,1088.247Z" transform="translate(-150.546 -1065.611)" fill="#04afaa"/>
          <path id="パス_27637" data-name="パス 27637" d="M182.795,1074.741a1.387,1.387,0,0,0,1.963-.076c3.69-3.99,9.736-4.8,9.823-4.812a1.39,1.39,0,0,0-.341-2.759c-.288.036-7.121.925-11.522,5.684A1.388,1.388,0,0,0,182.795,1074.741Z" transform="translate(-150.546 -1065.611)" fill="#04afaa"/>
        </g>
        <g id="グループ_2879" data-name="グループ 2879" transform="translate(0 56.728)" style="mix-blend-mode: multiply;isolation: isolate">
          <path id="パス_27638" data-name="パス 27638" d="M-72.178,1153.886l-16.439,4.636a1.505,1.505,0,0,1-1.822-.931l-7.666-20.929,22.6-6.372,4.4,21.85A1.505,1.505,0,0,1-72.178,1153.886Z" transform="translate(101.154 -1122.811)" fill="none" stroke="#04afaa" stroke-linecap="round" stroke-linejoin="round" stroke-width="2"/>
          <rect id="長方形_1347" data-name="長方形 1347" width="26.871" height="5.218" transform="translate(0 9.29) rotate(-15.748)" fill="none" stroke="#04afaa" stroke-linecap="round" stroke-linejoin="round" stroke-width="2"/>
          <path id="パス_27639" data-name="パス 27639" d="M-82.374,1126.692l-2.363-3.881-4.7,1.326-4.7,1.326.012,4.544" transform="translate(101.154 -1122.811)" fill="none" stroke="#04afaa" stroke-linecap="round" stroke-linejoin="round" stroke-width="2"/>
          <g id="グループ_2878" data-name="グループ 2878" transform="translate(10.139 9.652)">
            <line id="線_1991" data-name="線 1991" x2="7.372" y2="22.016" transform="translate(0 2.403)" fill="none" stroke="#04afaa" stroke-linecap="round" stroke-linejoin="round" stroke-width="2"/>
            <line id="線_1992" data-name="線 1992" x2="5.216" y2="22.624" transform="translate(8.523)" fill="none" stroke="#04afaa" stroke-linecap="round" stroke-linejoin="round" stroke-width="2"/>
          </g>
        </g>
      </g>
    </g>
    <text id="リビング" transform="translate(-4375 3164.706)" fill="#fff" font-size="32" font-family="rounded-mplus-2p-black, 'Rounded M\+ \32 p'" font-weight="800"><tspan x="0" y="0">リビング</tspan></text>
  </g>
</svg>
