<svg id="グループ_3281" data-name="グループ 3281" xmlns="http://www.w3.org/2000/svg" xmlns:xlink="http://www.w3.org/1999/xlink" width="109.196" height="118.137" viewBox="0 0 109.196 118.137">
  <defs>
    <clipPath id="clip-path">
      <rect id="長方形_1435" data-name="長方形 1435" width="109.196" height="118.137" fill="none"/>
    </clipPath>
  </defs>
  <g id="グループ_3280" data-name="グループ 3280" clip-path="url(#clip-path)">
    <path id="パス_28653" data-name="パス 28653" d="M67.565,55.277a1.959,1.959,0,0,0,1.389-.576L97.7,25.956a1.965,1.965,0,1,0-2.779-2.779L66.176,51.924a1.965,1.965,0,0,0,1.389,3.354" transform="translate(-2.036 -0.702)" fill="#f2b950"/>
    <path id="パス_28654" data-name="パス 28654" d="M54.466,42.894a1.964,1.964,0,0,0,2.723-.551c8.291-12.513,5.06-30.732,4.918-31.5a1.964,1.964,0,0,0-3.863.709c.031.173,3.076,17.445-4.33,28.622a1.964,1.964,0,0,0,.552,2.723" transform="translate(-1.663 -0.287)" fill="#36c8d9"/>
    <path id="パス_28655" data-name="パス 28655" d="M61.616,57.819A82.312,82.312,0,0,0,45.309,44.835c-5.7-3.265-9.728-3.886-11.976-1.87-.029.01-.048.039-.068.058a1.227,1.227,0,0,0-.126.107c-.019.019-.039.048-.058.068a.485.485,0,0,0-.068.078,4.289,4.289,0,0,0-.93,1.618L19.68,67.5a1.915,1.915,0,0,0-.407.756L4.05,95.986a1.937,1.937,0,0,0-.1.2c-1.163,2.868.359,7.18,3.9,11.434a11.491,11.491,0,0,0-3.74,5.135l-.087.262a4.112,4.112,0,0,1-2.606,2.558,1.966,1.966,0,0,0,.543,3.856,2.171,2.171,0,0,0,.552-.077c.165-.048,4.205-1.26,5.291-5.232a6.733,6.733,0,0,1,2.82-3.6c3.672,3.411,7.509,5.349,10.5,5.349a5.538,5.538,0,0,0,2.112-.388,1.933,1.933,0,0,0,.2-.1l25.765-14.05h.01L75.492,87a1.964,1.964,0,0,0,.63-.562,1.446,1.446,0,0,0,.194-.145A4.738,4.738,0,0,0,77.6,82.8c0-6.143-7.538-16.53-15.988-24.98M21.685,111.877c-1.357.436-5.213-1.008-9.157-4.961h-.01c-3.944-3.953-5.387-7.8-4.951-9.166l4.225-7.713c7.044,6.637,16.821,12.015,26.685,12.684Zm25.8-14.069c-8.575,2.713-22.141.2-33.739-11.327l7.81-14.234C30.445,81.733,46.229,89.8,61.422,90.2ZM23.555,68.6l9.4-17.131A33.807,33.807,0,0,0,34.844,55.3,82.751,82.751,0,0,0,47.837,71.607c6.143,6.143,13.313,11.8,19.137,14.428-15.726,1.822-34.3-6.986-43.419-17.432M73.534,83.516C72.3,84.746,63.021,81.239,50.609,68.826A78.684,78.684,0,0,1,38.254,53.352c-2.316-4.07-2.6-6.182-2.481-7.025l.271-.494a1.83,1.83,0,0,1,.64-.1c1.017,0,3.091.455,6.676,2.51A78.358,78.358,0,0,1,58.845,60.6c12.4,12.4,15.92,21.685,14.689,22.916" transform="translate(0 -1.298)" fill="#826ad9"/>
    <path id="パス_28657" data-name="パス 28657" d="M67.729,86.345C52,88.166,33.428,79.359,24.31,68.913l9.4-17.131A33.806,33.806,0,0,0,35.6,55.609,82.751,82.751,0,0,0,48.592,71.917c6.143,6.143,13.313,11.8,19.137,14.428" transform="translate(-0.755 -1.607)" fill="#ffdd81"/>
    <path id="パス_28658" data-name="パス 28658" d="M61.863,91.177,47.929,98.783c-8.575,2.713-22.141.2-33.739-11.327L22,73.222c8.885,9.486,24.67,17.558,39.863,17.955" transform="translate(-0.44 -2.273)" fill="#fdadb6"/>
    <path id="パス_28659" data-name="パス 28659" d="M38.717,104.266l-16.792,9.157c-1.357.436-5.213-1.008-9.157-4.961h-.01c-3.944-3.953-5.387-7.8-4.951-9.166l4.225-7.713c7.044,6.637,16.821,12.015,26.685,12.684" transform="translate(-0.24 -2.843)" fill="#27cfbe"/>
    <path id="パス_28660" data-name="パス 28660" d="M110,59.521c-.77-.142-18.99-3.374-31.5,4.918a1.964,1.964,0,1,0,2.17,3.274c11.179-7.406,28.451-4.359,28.623-4.329A1.964,1.964,0,0,0,110,59.521" transform="translate(-2.409 -1.825)" fill="#f2798f"/>
    <path id="パス_28661" data-name="パス 28661" d="M46.207,20.047a1.964,1.964,0,1,0,3.748-1.175l-2.023-6.452a1.964,1.964,0,1,0-3.748,1.175Z" transform="translate(-1.369 -0.343)" fill="#f2b950"/>
    <path id="パス_28662" data-name="パス 28662" d="M99.017,43.59a1.966,1.966,0,0,0,1.946,1.714,2.055,2.055,0,0,0,.254-.016l7.56-.973a1.964,1.964,0,1,0-.5-3.9l-7.56.972a1.966,1.966,0,0,0-1.7,2.2" transform="translate(-3.073 -1.254)" fill="#36c8d9"/>
    <path id="パス_28663" data-name="パス 28663" d="M108.892,71.6H105.8l1.441-2.494a1.964,1.964,0,1,0-3.4-1.965l-1.624,2.815-1.732-3a1.964,1.964,0,0,0-3.4,1.964L98.627,71.6H95.745a1.965,1.965,0,1,0,0,3.929h3.25l-1.731,3a1.964,1.964,0,1,0,3.4,1.965l1.547-2.681,1.441,2.5a1.963,1.963,0,1,0,3.4-1.963l-1.624-2.815h3.461a1.965,1.965,0,0,0,0-3.929" transform="translate(-2.911 -2.048)" fill="#f25c5c"/>
    <path id="パス_28664" data-name="パス 28664" d="M75.405,8.853h2.419l-1.3,2.255a1.964,1.964,0,1,0,3.4,1.964L81.066,11.1l1.048,1.816a1.964,1.964,0,1,0,3.4-1.964L84.307,8.853h2.6a1.965,1.965,0,0,0,0-3.929H84.629l1.048-1.817a1.964,1.964,0,1,0-3.4-1.964L81.066,3.238,79.763.983a1.964,1.964,0,1,0-3.4,1.964L77.5,4.924h-2.1a1.965,1.965,0,0,0,0,3.929" transform="translate(-2.28 0)" fill="#f25c5c"/>
    <path id="パス_28665" data-name="パス 28665" d="M70.974,36.446a1.963,1.963,0,0,0,2.668-.775l2.859-5.2a1.964,1.964,0,1,0-3.443-1.892l-2.858,5.2a1.964,1.964,0,0,0,.774,2.668" transform="translate(-2.172 -0.856)" fill="#27cfbe"/>
  </g>
</svg>
