<svg xmlns="http://www.w3.org/2000/svg" xmlns:xlink="http://www.w3.org/1999/xlink" width="186.533" height="99.021" viewBox="0 0 186.533 99.021">
  <defs>
    <clipPath id="clip-path">
      <rect id="長方形_1436" data-name="長方形 1436" width="186.533" height="99.021" transform="translate(0 0.612)" fill="none"/>
    </clipPath>
  </defs>
  <g id="グループ_3284" data-name="グループ 3284" transform="translate(0 -0.612)">
    <g id="グループ_3283" data-name="グループ 3283" transform="translate(0 0)" clip-path="url(#clip-path)">
      <path id="パス_28666" data-name="パス 28666" d="M186.011,9.973a3.041,3.041,0,0,0-4.214-.84A148.387,148.387,0,0,1,92.123,34.21,148.66,148.66,0,0,1,4.939,1.484,3.036,3.036,0,0,0,1.144,6.223a155.215,155.215,0,0,0,19.6,13.408L5.914,53.842a3.052,3.052,0,0,0,.345,3.03,3.013,3.013,0,0,0,2.79,1.2l15.508-1.785,9.3,12.538a3.026,3.026,0,0,0,2.445,1.23,2.655,2.655,0,0,0,.345-.015,3.056,3.056,0,0,0,2.445-1.815L53.953,33.94A153.437,153.437,0,0,0,73.84,38.469L72.22,76.144a3.033,3.033,0,0,0,1.41,2.7,3,3,0,0,0,3.03.12L90.5,71.75l13.168,8.384a2.928,2.928,0,0,0,1.635.48,2.869,2.869,0,0,0,1.395-.345,2.994,2.994,0,0,0,1.635-2.565l1.635-37.66a156.838,156.838,0,0,0,20.217-2.8l11.848,35.44a2.973,2.973,0,0,0,2.265,2.01,2.85,2.85,0,0,0,.615.06,3.051,3.051,0,0,0,2.28-1.02l10.334-11.7,15.3,3.12a2.975,2.975,0,0,0,2.88-.96,3.028,3.028,0,0,0,.615-2.97L164.5,25.856a156.545,156.545,0,0,0,20.682-11.669,3.024,3.024,0,0,0,.825-4.214M35.61,60.966,28.4,51.247a3.042,3.042,0,0,0-2.79-1.215L13.593,51.427,26.086,22.586A152.7,152.7,0,0,0,48.118,32.08Zm66.876,11.219-10.2-6.509a3.066,3.066,0,0,0-3.045-.135L78.519,71.15,79.9,39.309q5.939.72,11.968.975c2.31.1,4.6.15,6.9.15,1.71,0,3.4-.03,5.1-.09Zm66.4-14.038-11.848-2.43a3.044,3.044,0,0,0-2.895.975l-8.009,9.059-9.989-29.861a153.038,153.038,0,0,0,22.782-7.559Z" transform="translate(0 0.408)" fill="#f29a2e"/>
      <path id="パス_28667" data-name="パス 28667" d="M43.589,24.825,31.08,53.711l-7.214-9.719a3.042,3.042,0,0,0-2.79-1.215L9.063,44.172,21.556,15.331a152.7,152.7,0,0,0,22.032,9.494" transform="translate(4.53 7.663)" fill="#f2b950"/>
      <path id="パス_28668" data-name="パス 28668" d="M77.7,27.516,76.32,59.357l-10.2-6.509a3.066,3.066,0,0,0-3.045-.135L52.353,58.322l1.38-31.841q5.939.72,11.968.975c2.31.1,4.6.15,6.9.15,1.71,0,3.4-.03,5.1-.09" transform="translate(26.166 13.236)" fill="#27cfbe"/>
      <path id="パス_28669" data-name="パス 28669" d="M123.514,48.977l-11.848-2.43a3.044,3.044,0,0,0-2.895.975l-8.009,9.059L90.773,26.72a153.038,153.038,0,0,0,22.782-7.559Z" transform="translate(45.369 9.577)" fill="#ffdd81"/>
      <path id="パス_28670" data-name="パス 28670" d="M77.8,13.17h4.048v4.048a3.041,3.041,0,1,0,6.082,0V13.17h4.048a3.041,3.041,0,0,0,0-6.082H87.927V3.04a3.041,3.041,0,0,0-6.082,0V7.088H77.8a3.041,3.041,0,0,0,0,6.082" transform="translate(48.364 2.735)" fill="#27cfbe"/>
      <path id="パス_28671" data-name="パス 28671" d="M49.35,19.7A9.712,9.712,0,1,0,39.637,9.99,9.724,9.724,0,0,0,49.35,19.7m0-13.342a3.63,3.63,0,1,1-3.631,3.63,3.632,3.632,0,0,1,3.631-3.63" transform="translate(-38.189 77.14)" fill="#f2798f"/>
    </g>
  </g>
</svg>
