<svg xmlns="http://www.w3.org/2000/svg" width="37.187" height="35.01" viewBox="0 0 37.187 35.01">
  <g id="グループ_2924" data-name="グループ 2924" transform="translate(-44.297 -59.298)">
    <path id="パス_27706" data-name="パス 27706" d="M68.787,137.945H67.273c-4.074.009-8.7.011-12.225-2.925-2.911-2.421-4.4-6.69-3.883-11.141a.975.975,0,1,1,1.936.224c-.441,3.8.783,7.413,3.193,9.418C59.281,136,63.343,136,67.27,135.995h1.005c3.928,0,7.989.01,10.975-2.474,2.411-2,3.634-5.614,3.193-9.418a.975.975,0,1,1,1.936-.225c.516,4.451-.972,8.72-3.883,11.142C77.116,137.833,72.733,137.945,68.787,137.945Z" transform="translate(-4.883 -45.972)" fill="#f5f3e4"/>
    <path id="パス_27707" data-name="パス 27707" d="M80.509,124.384H45.272a.975.975,0,0,1,0-1.95H80.509a.975.975,0,1,1,0,1.95Z" transform="translate(0 -45.553)" fill="#f5f3e4"/>
    <g id="グループ_2921" data-name="グループ 2921" transform="translate(51.451 89.438)">
      <path id="パス_27708" data-name="パス 27708" d="M70.961,172.39a.975.975,0,0,1-.934-1.255l.876-2.92a.975.975,0,1,1,1.867.56l-.876,2.92A.975.975,0,0,1,70.961,172.39Z" transform="translate(-69.986 -167.52)" fill="#f5f3e4"/>
      <path id="パス_27709" data-name="パス 27709" d="M141.389,172.39a.975.975,0,0,1-.933-.695l-.876-2.92a.975.975,0,1,1,1.867-.56l.876,2.92a.975.975,0,0,1-.934,1.255Z" transform="translate(-120.168 -167.519)" fill="#f5f3e4"/>
    </g>
    <path id="パス_27710" data-name="パス 27710" d="M69.116,141.7a.972.972,0,0,1-.478-.126,7.577,7.577,0,0,1-3.529-4.82.975.975,0,0,1,1.914-.369,5.681,5.681,0,0,0,2.572,3.491.975.975,0,0,1-.48,1.824Z" transform="translate(-15.004 -55.05)" fill="#f5f3e4"/>
    <path id="パス_27711" data-name="パス 27711" d="M146.508,85.8a.975.975,0,0,1-.975-.975V74.313c0-.81-.261-2.249-1.238-2.5a1.259,1.259,0,0,0-1.051.161,2.089,2.089,0,0,0-.834,1.416.975.975,0,0,1-1.928-.289,4.035,4.035,0,0,1,1.687-2.754,3.219,3.219,0,0,1,2.616-.421c1.991.518,2.7,2.689,2.7,4.391V84.825A.975.975,0,0,1,146.508,85.8Z" transform="translate(-69.389 -7.586)" fill="#f5f3e4"/>
    <g id="グループ_2922" data-name="グループ 2922" transform="translate(46.563 65.131)">
      <path id="パス_27712" data-name="パス 27712" d="M55.443,80.241a.147.147,0,0,0-.151.135c-.288,2.561-.779,3.135-2.737,3.517a.152.152,0,0,0,0,.3c1.957.382,2.449.956,2.737,3.517a.152.152,0,0,0,.3,0c.287-2.561.779-3.135,2.736-3.517a.152.152,0,0,0,0-.3c-1.957-.382-2.449-.956-2.736-3.517a.147.147,0,0,0-.151-.135Z" transform="translate(-52.432 -80.241)" fill="#f5f3e4"/>
    </g>
    <g id="グループ_2923" data-name="グループ 2923" transform="translate(52.344 59.298)">
      <path id="パス_27713" data-name="パス 27713" d="M79.5,59.747h0M77.4,59.3a.206.206,0,0,0-.211.189c-.4,3.581-1.089,4.383-3.826,4.918a.213.213,0,0,0,0,.418c2.737.535,3.424,1.337,3.826,4.917a.212.212,0,0,0,.422,0c.4-3.58,1.089-4.383,3.826-4.917a.213.213,0,0,0,0-.418c-2.737-.535-3.424-1.337-3.826-4.918A.206.206,0,0,0,77.4,59.3Z" transform="translate(-73.189 -59.298)" fill="#f5f3e4"/>
    </g>
  </g>
</svg>
