<svg xmlns="http://www.w3.org/2000/svg" width="34.809" height="36" viewBox="0 0 34.809 36">
  <g id="グループ_2998" data-name="グループ 2998" transform="translate(-618.13 -1040.26)">
    <path id="パス_27842" data-name="パス 27842" d="M652.828,1080.37c-3.333-6.175-10.556-8.99-10.862-9.107a.928.928,0,0,0-1.227.624,5.5,5.5,0,0,1-10.41,0,.928.928,0,0,0-1.227-.624c-.306.117-7.53,2.932-10.862,9.107a.928.928,0,0,0,.065.984l3.333,4.608a.928.928,0,0,0,1.289.213l2.837-2.016c-.249,3.367-.605,10.15.18,14.094a.928.928,0,0,0,.91.746h17.358a.928.928,0,0,0,.91-.746c.786-3.944.429-10.727.181-14.094l2.837,2.016a.929.929,0,0,0,1.289-.213l3.333-4.608A.928.928,0,0,0,652.828,1080.37Zm-17.293-2.905a7.152,7.152,0,0,0,6.616-4.1c.1.048.211.1.326.157-.441,1.35-2,4.516-6.943,4.516s-6.5-3.169-6.943-4.516c.116-.057.226-.11.327-.157A7.151,7.151,0,0,0,635.535,1077.465Zm12.931,6.664-3.715-2.639a.928.928,0,0,0-1.461.846c.01.1.92,9.577.142,14.808h-15.8c-.777-5.231.132-14.708.142-14.808a.928.928,0,0,0-1.461-.846l-3.715,2.639-2.444-3.379a19.308,19.308,0,0,1,6.795-6.342c.733,1.911,2.868,5.49,8.581,5.49s7.847-3.579,8.58-5.49a19.311,19.311,0,0,1,6.8,6.341Z" transform="translate(0 -22.739)" fill="#f5f3e4"/>
    <path id="パス_27843" data-name="パス 27843" d="M667.789,1050.3a.945.945,0,0,0,.166-.015,19.256,19.256,0,0,1,6.77,0,.928.928,0,1,0,.33-1.826,20.758,20.758,0,0,0-2.779-.308v-1.267a3.377,3.377,0,1,0-4.3-3.247.928.928,0,0,0,1.856,0,1.521,1.521,0,1,1,1.521,1.521.928.928,0,0,0-.928.928v2.065a20.8,20.8,0,0,0-2.8.31.928.928,0,0,0,.164,1.841Z" transform="translate(-35.814)" fill="#f5f3e4"/>
  </g>
</svg>
