<svg xmlns="http://www.w3.org/2000/svg" width="35.073" height="23.635" viewBox="0 0 35.073 23.635">
  <path id="パス_27505" data-name="パス 27505" d="M711.806,916.36h-1.44v-4.637a2.515,2.515,0,0,0-2.512-2.512H685.69a2.515,2.515,0,0,0-2.512,2.512v4.637h-1.44a2.506,2.506,0,0,0-2.5,2.5v10.221a.878.878,0,0,0,.878.878h3.065v2.006a.878.878,0,0,0,.878.878h2.629a.878.878,0,0,0,.878-.878v-2.006h18.417v2.006a.878.878,0,0,0,.878.878h2.629a.878.878,0,0,0,.878-.878v-2.006h3.064a.878.878,0,0,0,.878-.878V918.863A2.506,2.506,0,0,0,711.806,916.36Zm-4.947,11.846H684.935v-1.069H708.61v1.069Zm1.437-2.825H697.525v-.647a.877.877,0,0,0,.063-.323v-1.356a.762.762,0,0,1,.7-.47h9.247a.771.771,0,0,1,.762.778Zm-12.527,0H685v-2.017a.771.771,0,0,1,.762-.778h9.247a.771.771,0,0,1,.762.778Zm12.842-13.658v9.353a2.486,2.486,0,0,0-1.077-.247h-9.247a2.488,2.488,0,0,0-.7.1v-9.964h10.267A.757.757,0,0,1,708.61,911.723Zm-23.675,0a.757.757,0,0,1,.756-.756h10.141v10a2.49,2.49,0,0,0-.825-.142H685.76a2.484,2.484,0,0,0-.825.142v-9.249Zm-3.943,7.14a.748.748,0,0,1,.747-.747h1.44v10.09h-2.187Zm4.816,12.227h-.873v-1.128h.873Zm22.8,0h-.873v-1.128h.873Zm3.942-2.884h-2.186v-10.09h1.44a.748.748,0,0,1,.747.747Z" transform="translate(-679.236 -909.211)" fill="#f5f3e4"/>
</svg>
