<svg xmlns="http://www.w3.org/2000/svg" width="36.941" height="34.667" viewBox="0 0 36.941 34.667">
  <g id="グループ_3147" data-name="グループ 3147" transform="translate(-839.072 -1042.254)">
    <path id="パス_28128" data-name="パス 28128" d="M899.142,1118.745v-5.214a.889.889,0,0,0-.89-.89H889.24a.889.889,0,0,0-.89.89v5.214a2.95,2.95,0,0,0,2.947,2.947h4.9A2.95,2.95,0,0,0,899.142,1118.745Zm-1.779,0a1.169,1.169,0,0,1-1.168,1.168h-4.9a1.169,1.169,0,0,1-1.168-1.168v-4.325h7.233Z" transform="translate(-35.792 -51.123)" fill="#f5f3e4"/>
    <path id="パス_28129" data-name="パス 28129" d="M875.884,1063c-.941.063-1.914.129-2.859.133a2.308,2.308,0,0,1-1.659-.372.566.566,0,0,1-.065-.068,2.133,2.133,0,0,1,.368-.137,2.02,2.02,0,0,0,1.526-1.312,1.766,1.766,0,0,0-.271-1.7,3.163,3.163,0,0,0-2.525-.958h-2.707a.887.887,0,0,0-.827-.57h-1.819V1047.81a.89.89,0,0,0-.889-.889h-.471v-3.777a.889.889,0,1,0-1.779,0v3.777H854v-3.777a.889.889,0,1,0-1.779,0v3.777h-.47a.889.889,0,0,0-.889.889v10.206h-1.819a.887.887,0,0,0-.826.57h-2.707a3.164,3.164,0,0,0-2.526.958,1.766,1.766,0,0,0-.27,1.7,2.02,2.02,0,0,0,1.526,1.313,2.058,2.058,0,0,1,.367.138.608.608,0,0,1-.064.068,2.31,2.31,0,0,1-1.659.372c-.944,0-1.917-.07-2.868-.134a.889.889,0,0,0-.109,1.776c.968.065,1.968.132,2.969.137h.176a3.733,3.733,0,0,0,2.689-.837,1.745,1.745,0,0,0,.34-2.41,2.372,2.372,0,0,0-1.31-.808,1.15,1.15,0,0,1-.362-.152.43.43,0,0,1-.018-.074,1.762,1.762,0,0,1,1.118-.268h2.477l-1.727,15.569a.889.889,0,0,0,.884.987h21.622a.889.889,0,0,0,.884-.987l-1.727-15.569H870.4a1.764,1.764,0,0,1,1.118.268.592.592,0,0,1-.019.088,1.656,1.656,0,0,1-.359.138,2.371,2.371,0,0,0-1.31.809,1.746,1.746,0,0,0,.34,2.41,3.734,3.734,0,0,0,2.689.837h.176c1-.005,2-.073,2.979-.138Zm-23.243-11.673h1.482a.889.889,0,1,0,0-1.779h-1.482v-.85h10.626v.85h-.934a.889.889,0,1,0,0,1.779h.934v6.687H852.641Zm-4.5,23.814.091-.823h.964a.889.889,0,1,0,0-1.779h-.767l1.414-12.746h16.23l1.414,12.746h-.228a.889.889,0,1,0,0,1.779h.425l.091.823Z" fill="#f5f3e4"/>
    <path id="パス_28130" data-name="パス 28130" d="M905.349,1068.91h-1.642a.889.889,0,1,0,0,1.779h1.642a.889.889,0,1,0,0-1.779Z" transform="translate(-46.299 -19.361)" fill="#f5f3e4"/>
    <path id="パス_28131" data-name="パス 28131" d="M905.332,1152.915h-1.642a.889.889,0,1,0,0,1.779h1.642a.889.889,0,1,0,0-1.779Z" transform="translate(-46.287 -80.375)" fill="#f5f3e4"/>
    <path id="パス_28132" data-name="パス 28132" d="M923.332,1152.915h-1.642a.889.889,0,1,0,0,1.779h1.642a.889.889,0,1,0,0-1.779Z" transform="translate(-59.36 -80.375)" fill="#f5f3e4"/>
    <path id="パス_28133" data-name="パス 28133" d="M887.332,1152.915H885.69a.889.889,0,1,0,0,1.779h1.642a.889.889,0,1,0,0-1.779Z" transform="translate(-33.213 -80.375)" fill="#f5f3e4"/>
  </g>
</svg>
