<svg xmlns="http://www.w3.org/2000/svg" width="39.813" height="31.432" viewBox="0 0 39.813 31.432">
  <path id="パス_27295" data-name="パス 27295" d="M372.257,896.14a2.947,2.947,0,0,0-2.716-1.3,8.935,8.935,0,0,0-2.517.51,1.015,1.015,0,0,0,.134-.5,7.807,7.807,0,0,0-7.8-7.8h-3.484a3.615,3.615,0,1,0-6.472,0h-3.484a7.807,7.807,0,0,0-7.8,7.8,1.015,1.015,0,0,0,.134.5,8.935,8.935,0,0,0-2.517-.51,2.946,2.946,0,0,0-2.716,1.3,2.429,2.429,0,0,0,.183,2.6,8.471,8.471,0,0,0,5.208,3.52v4.808a6.206,6.206,0,0,0,6.2,6.2h16.052a6.206,6.206,0,0,0,6.2-6.2v-4.808a8.471,8.471,0,0,0,5.208-3.52A2.429,2.429,0,0,0,372.257,896.14Zm-19.616-12.25a1.565,1.565,0,1,1-1.565,1.565A1.567,1.567,0,0,1,352.641,883.89Zm-6.72,5.217h13.44a5.757,5.757,0,0,1,5.656,4.723H340.265A5.757,5.757,0,0,1,345.921,889.107Zm-10.969,8.559c-.157-.254-.189-.435-.151-.5a1.067,1.067,0,0,1,.879-.272,9.4,9.4,0,0,1,2.736.685v2.54A6.175,6.175,0,0,1,334.952,897.666Zm29.864,9.408a4.153,4.153,0,0,1-4.149,4.149H344.615a4.153,4.153,0,0,1-4.149-4.149V895.88h24.349Zm5.515-9.408a6.175,6.175,0,0,1-3.465,2.452v-2.54a9.4,9.4,0,0,1,2.736-.685,1.064,1.064,0,0,1,.879.272C370.519,897.231,370.488,897.412,370.33,897.666Z" transform="translate(-332.734 -881.84)" fill="#f5f3e4"/>
</svg>
