<svg xmlns="http://www.w3.org/2000/svg" width="258" height="55" viewBox="0 0 258 55">
  <g id="グループ_2497" data-name="グループ 2497" transform="translate(-277.648 -1429.715)">
    <g id="グループ_2482" data-name="グループ 2482" transform="translate(283.648 1435.715)">
      <g id="グループ_2478" data-name="グループ 2478" transform="translate(0 0.978)" style="isolation: isolate">
        <path id="パス_3562" data-name="パス 3562" d="M293.728,1472.477a11.247,11.247,0,0,1-7.161-2.289,6.618,6.618,0,0,1-2.919-5.271,8.586,8.586,0,0,1,2.793-5.985,19.6,19.6,0,0,1,7.623-4.6c.224-.111.336-.252.336-.42q-.042-.544-.063-1.6t-.021-1.6q0-.336-.021-1.092t-.021-1.134c0-.195-.14-.294-.42-.294q-2.814.126-5.8.126a2.231,2.231,0,0,1-1.659-.714,2.334,2.334,0,0,1-.693-1.68v-.672a2.367,2.367,0,0,1,2.394-2.394q2.9,0,5.67-.126a.334.334,0,0,0,.378-.378q0-.546-.021-1.638t-.021-1.638a2.335,2.335,0,0,1,.693-1.68,2.229,2.229,0,0,1,1.659-.714h1.764a2.439,2.439,0,0,1,2.394,2.394q0,.5.021,1.491t.021,1.449q0,.336.378.336,2.9-.168,5.8-.5a2.22,2.22,0,0,1,1.7.546,2.3,2.3,0,0,1,.819,1.6l.042.672a2.373,2.373,0,0,1-.567,1.785,2.3,2.3,0,0,1-1.617.861q-3.108.336-6.09.5a.334.334,0,0,0-.378.378q0,.42.042,1.238t.042,1.2q0,.294.021.924c.014.419.021.728.021.924s.111.294.336.294a35.91,35.91,0,0,1,4.284-.252,12.584,12.584,0,0,1,8.484,2.772,8.928,8.928,0,0,1,3.234,7.1,9.89,9.89,0,0,1-10.5,10.5,16.473,16.473,0,0,1-2.1-.125,2.035,2.035,0,0,1-1.512-.987,2.666,2.666,0,0,1-.378-1.911l.126-.84a2.2,2.2,0,0,1,.966-1.47,2.706,2.706,0,0,1,1.806-.462,7.392,7.392,0,0,0,.882.042,3.889,3.889,0,0,0,3-1.155,4.607,4.607,0,0,0,1.071-3.255q0-4.284-6.3-4.284-1.05,0-2.9.168a.411.411,0,0,0-.378.42q.041,1.554.042,4.62,0,4.956-1.68,6.888T293.728,1472.477Zm.462-11.928a11,11,0,0,0-2.961,1.995,3.015,3.015,0,0,0-1.071,2.037,1.9,1.9,0,0,0,.8,1.491,2.667,2.667,0,0,0,1.722.651q1.174,0,1.512-.525a5.805,5.805,0,0,0,.336-2.541c0-.307-.007-.784-.021-1.428s-.021-1.134-.021-1.47Q294.484,1460.423,294.19,1460.549Zm18.69-17.6a2.509,2.509,0,0,1,1.806-.483,2.314,2.314,0,0,1,1.638.9q2.6,3.234,3.318,4.242a2.184,2.184,0,0,1,.42,1.742,2.315,2.315,0,0,1-1.008,1.534l-.63.462a2.44,2.44,0,0,1-1.806.378,2.371,2.371,0,0,1-1.554-.966q-1.219-1.638-3.15-4.033a2.282,2.282,0,0,1-.546-1.721,2.08,2.08,0,0,1,.882-1.554Z" transform="translate(-283.648 -1436.693)" fill="#fff"/>
      </g>
      <g id="グループ_2479" data-name="グループ 2479" transform="translate(40.502 1.148)" style="isolation: isolate">
        <path id="パス_3563" data-name="パス 3563" d="M326.572,1463.615a2.366,2.366,0,0,1-2.352-2.352v-.84a2.366,2.366,0,0,1,2.352-2.352h13.86q.378,0,.378-.336v-3.36q0-.336-.378-.336h-11.8a2.366,2.366,0,0,1-2.352-2.352v-.672a2.364,2.364,0,0,1,2.352-2.352h11.8c.252,0,.378-.111.378-.336V1445.3q0-.336-.378-.336-4.7.294-9.912.378a2.3,2.3,0,0,1-1.659-.672,2.51,2.51,0,0,1-.777-1.638l-.084-.882a2.2,2.2,0,0,1,.609-1.638,2.1,2.1,0,0,1,1.617-.714,140.264,140.264,0,0,0,26-2.436,2.41,2.41,0,0,1,2.856,1.722l.252.966a2.266,2.266,0,0,1-.252,1.806,2.029,2.029,0,0,1-1.428,1.008,97.661,97.661,0,0,1-9.786,1.512q-.336,0-.336.378v3.57a.3.3,0,0,0,.336.336h10.248a2.364,2.364,0,0,1,2.352,2.352v.672a2.366,2.366,0,0,1-2.352,2.352H347.866a.3.3,0,0,0-.336.336v3.36a.3.3,0,0,0,.336.336h12.306a2.366,2.366,0,0,1,2.352,2.352v.84a2.366,2.366,0,0,1-2.352,2.352H347.866a.3.3,0,0,0-.336.336v2.688q0,1.888-.063,2.961a8.439,8.439,0,0,1-.357,2.016,3.715,3.715,0,0,1-.672,1.364,2.915,2.915,0,0,1-1.26.715,7.368,7.368,0,0,1-1.869.357q-.987.063-2.709.063-2.982,0-5.166-.084a2.459,2.459,0,0,1-1.68-.756,2.641,2.641,0,0,1-.8-1.68l-.042-.714a2.106,2.106,0,0,1,.588-1.6,1.967,1.967,0,0,1,1.6-.63q1.764.084,4.074.084,1.176,0,1.407-.252a2.6,2.6,0,0,0,.231-1.428v-3.108c0-.223-.126-.336-.378-.336Z" transform="translate(-324.22 -1436.863)" fill="#fff"/>
        <path id="パス_3564" data-name="パス 3564" d="M366.22,1458.617l-.672-3.024a5.121,5.121,0,0,1,.882-4.2,39.067,39.067,0,0,0,5.25-12.6,2.379,2.379,0,0,1,1.008-1.512,2.311,2.311,0,0,1,1.764-.378l1.47.252a2.322,2.322,0,0,1,1.89,2.688,43.12,43.12,0,0,1-2.268,7.77,1.7,1.7,0,0,0-.126.672v23.646a2.3,2.3,0,0,1-.672,1.659,2.195,2.195,0,0,1-1.638.693h-1.6a2.2,2.2,0,0,1-1.638-.693,2.3,2.3,0,0,1-.672-1.659v-13.986a.074.074,0,0,0-.084-.084.171.171,0,0,0-.126.042q-.168.252-.462.672t-.336.5a.98.98,0,0,1-1.113.42A1.1,1.1,0,0,1,366.22,1458.617Zm25.284-4.662q-1.723,6.048-3.822,12.222-.086.294.252.294l3.591-.4q2.457-.273,3.759-.4a.26.26,0,0,0,.21-.1.234.234,0,0,0,.042-.231q-.546-1.427-1.932-4.62a2.1,2.1,0,0,1,0-1.743,2.166,2.166,0,0,1,1.26-1.2l1.3-.505a2.562,2.562,0,0,1,1.848.022,2.39,2.39,0,0,1,1.344,1.239q2.856,6.3,4.788,11.592a2.254,2.254,0,0,1-.084,1.806,2.3,2.3,0,0,1-1.344,1.217l-1.47.547a2.317,2.317,0,0,1-1.785-.042,2.163,2.163,0,0,1-1.2-1.3c-.224-.672-.364-1.079-.42-1.218a.442.442,0,0,0-.546-.294q-8.946,1.217-17.724,1.932a2.22,2.22,0,0,1-1.7-.546,2.29,2.29,0,0,1-.819-1.6l-.084-.882a2.221,2.221,0,0,1,.546-1.7,2.291,2.291,0,0,1,1.6-.819h.4a1.373,1.373,0,0,0,.4-.042c.2,0,.35-.126.462-.378q1.974-5.5,4.032-12.81.084-.336-.252-.336h-4.788a2.195,2.195,0,0,1-1.638-.693,2.3,2.3,0,0,1-.672-1.659v-.84a2.3,2.3,0,0,1,.672-1.659,2.2,2.2,0,0,1,1.638-.693h22.47a2.366,2.366,0,0,1,2.352,2.352v.84a2.366,2.366,0,0,1-2.352,2.352h-9.912C391.672,1453.661,391.532,1453.76,391.5,1453.955Zm8.358-10.206H382.1a2.366,2.366,0,0,1-2.352-2.353v-.839a2.365,2.365,0,0,1,2.352-2.352h17.766a2.364,2.364,0,0,1,2.352,2.352v.839a2.366,2.366,0,0,1-2.352,2.353Z" transform="translate(-324.22 -1436.863)" fill="#fff"/>
      </g>
      <g id="グループ_2480" data-name="グループ 2480" transform="translate(127.045 5.587)" style="isolation: isolate">
        <path id="パス_3565" data-name="パス 3565" d="M421.576,1471.133q-4.494,0-7.6-4.6t-3.108-12.873a63.933,63.933,0,0,1,.756-10.206,2.442,2.442,0,0,1,.987-1.617,2.61,2.61,0,0,1,1.827-.525l2.016.167a2.153,2.153,0,0,1,1.554.82,1.977,1.977,0,0,1,.42,1.659,58.916,58.916,0,0,0-.8,9.7,25.491,25.491,0,0,0,.609,5.9,11.474,11.474,0,0,0,1.407,3.7q.8,1.155,1.6,1.155.756,0,1.7-1.659a22.766,22.766,0,0,0,1.869-5.187,2.521,2.521,0,0,1,1.071-1.512,2.373,2.373,0,0,1,1.785-.378l1.638.294a2.377,2.377,0,0,1,1.512,1.008,2.1,2.1,0,0,1,.336,1.722Q428.086,1471.133,421.576,1471.133Zm17.178-7.014a56.64,56.64,0,0,0-4.914-18.354,1.915,1.915,0,0,1-.042-1.7,2.021,2.021,0,0,1,1.26-1.154l1.848-.588a2.742,2.742,0,0,1,1.89.084,2.624,2.624,0,0,1,1.386,1.3,61.659,61.659,0,0,1,5.208,20.118,2.119,2.119,0,0,1-.567,1.68,2.4,2.4,0,0,1-1.617.8l-1.89.084a2.442,2.442,0,0,1-2.562-2.268Z" transform="translate(-410.866 -1441.303)" fill="#fff"/>
      </g>
      <g id="グループ_2481" data-name="グループ 2481" transform="translate(166.62)" style="isolation: isolate">
        <path id="パス_3566" data-name="パス 3566" d="M452.908,1457.819a2.366,2.366,0,0,1-2.352-2.352v-1.974a2.366,2.366,0,0,1,2.352-2.352h32.928a2.366,2.366,0,0,1,2.352,2.352v1.974a2.366,2.366,0,0,1-2.352,2.352Z" transform="translate(-450.556 -1435.715)" fill="#fff"/>
        <path id="パス_3567" data-name="パス 3567" d="M517.84,1443.707q-.336.546-1.092,1.638c-.141.2-.084.294.168.294H526.7a2.3,2.3,0,0,1,1.659.672,2.2,2.2,0,0,1,.693,1.638v.084a2.366,2.366,0,0,1-2.352,2.352H515.866a2.366,2.366,0,0,1-2.352-2.352v-.21a.493.493,0,0,0-.294-.5l-1.722-.882a1.692,1.692,0,0,1-1.008-1.386v1.218a2.366,2.366,0,0,1-2.352,2.352.3.3,0,0,0-.336.336v.588a.3.3,0,0,0,.336.336h2.352a1.793,1.793,0,0,1,1.806,1.806.3.3,0,0,0,.336.335h11.55a2.2,2.2,0,0,1,1.638.694,2.3,2.3,0,0,1,.672,1.659v10.836a.375.375,0,0,0,.336.378l.8.084a2.332,2.332,0,0,1,1.617.84,2.247,2.247,0,0,1,.567,1.722c-.057.644-.1,1.2-.147,1.659a6.727,6.727,0,0,1-.252,1.323c-.126.42-.224.762-.294,1.029a1.737,1.737,0,0,1-.483.776q-.378.38-.63.589a2.432,2.432,0,0,1-.9.378,9.968,9.968,0,0,1-1.113.231q-.462.063-1.47.126t-1.764.063H520.57a40.134,40.134,0,0,1-5.481-.252,3.4,3.4,0,0,1-2.079-.861,3.567,3.567,0,0,1-.5-2.205v-3.528a.3.3,0,0,0-.336-.336h-2.142a.462.462,0,0,0-.462.336,8.966,8.966,0,0,1-4.242,4.7,23.826,23.826,0,0,1-8.736,2.352,2.765,2.765,0,0,1-1.89-.441,2.912,2.912,0,0,1-1.218-1.575l-.294-.8a1.642,1.642,0,0,1,.21-1.554,1.685,1.685,0,0,1,1.386-.8q5.838-.419,7.518-1.974a.116.116,0,0,0,.021-.168.182.182,0,0,0-.147-.084h-3.612a2.295,2.295,0,0,1-2.31-2.31v-10.542a2.5,2.5,0,0,1,.042-.546q.084-.336-.252-.336h-.126a2.294,2.294,0,0,1-1.659-.672,2.2,2.2,0,0,1-.693-1.638v-11.718a2.366,2.366,0,0,1,2.352-2.352h14.07a1.865,1.865,0,0,1,1.89,1.89,1.9,1.9,0,0,1-.546,1.365,1.793,1.793,0,0,1-1.344.567h-1.848a.3.3,0,0,0-.336.336v.588a.3.3,0,0,0,.336.336,2.266,2.266,0,0,1,1.638.651,2.308,2.308,0,0,1,.714,1.617,1.864,1.864,0,0,1,.378-.924,31.6,31.6,0,0,0,3.4-5.88,3.155,3.155,0,0,1,1.3-1.491,3.107,3.107,0,0,1,1.89-.441l1.512.126a1.69,1.69,0,0,1,1.47,2.226q-.084.252.21.252h6.93a2.364,2.364,0,0,1,2.352,2.352v.378a2.366,2.366,0,0,1-2.352,2.352h-9.2A.645.645,0,0,0,517.84,1443.707Zm-18.186-2.436v.588a.3.3,0,0,0,.336.336h2.016a.3.3,0,0,0,.336-.336v-.588a.3.3,0,0,0-.336-.336H499.99A.3.3,0,0,0,499.654,1441.271Zm0,3.864v.546a.3.3,0,0,0,.336.336h4.368q.378,0,.378-.336v-.546a.334.334,0,0,0-.378-.378H499.99Q499.654,1444.757,499.654,1445.135Zm0,3.822v.588a.3.3,0,0,0,.336.336h2.016a.3.3,0,0,0,.336-.336v-.588a.3.3,0,0,0-.336-.336H499.99A.3.3,0,0,0,499.654,1448.957Zm20.286,6.8q0-.378-.336-.378H503.14q-.336,0-.336.378v.378q0,.378.336.378H519.6q.336,0,.336-.378Zm-17.136,3.528v.378q0,.378.336.378H519.6q.336,0,.336-.378v-.378q0-.378-.336-.378H503.14Q502.8,1458.911,502.8,1459.289Zm.336,4.284H519.6q.336,0,.336-.378v-.378a.3.3,0,0,0-.336-.337H503.14a.3.3,0,0,0-.336.337v.378Q502.8,1463.573,503.14,1463.573Zm20.5,3.99q0-.336-.294-.336h-3.948a.3.3,0,0,0-.336.336v1.092c0,.477.084.749.252.819a8.918,8.918,0,0,0,1.932.1,3.942,3.942,0,0,0,1.89-.273Q523.51,1469.033,523.636,1467.563Z" transform="translate(-450.556 -1435.715)" fill="#fff"/>
      </g>
    </g>
    <g id="グループ_2489" data-name="グループ 2489" transform="translate(277.648 1429.715)">
      <g id="グループ_2483" data-name="グループ 2483" transform="translate(0 4)">
        <path id="パス_3568" data-name="パス 3568" d="M306.706,1482.969a22.347,22.347,0,0,1-2.876-.176,7.988,7.988,0,0,1-3.7-1.468,15.514,15.514,0,0,1-6.4,1.225,17.127,17.127,0,0,1-10.864-3.574,12.441,12.441,0,0,1-5.216-10.006,14.423,14.423,0,0,1,4.487-10.179,20.782,20.782,0,0,1,1.713-1.577,8.484,8.484,0,0,1-4.142-7.257v-.673a8.371,8.371,0,0,1,8.394-8.407h.3a8.44,8.44,0,0,1,2.087-3.641,8.246,8.246,0,0,1,5.967-2.542h1.764a8.317,8.317,0,0,1,5.924,2.478,8.454,8.454,0,0,1,1.843,2.754c.052-.006.262-.029.317-.034.255-.023.505-.033.752-.033a8.124,8.124,0,0,1,4.246,1.179,8.48,8.48,0,0,1,3.084-.576q.449,0,.914.047a8.345,8.345,0,0,1,5.733,3.16c2.348,2.922,3.117,3.954,3.479,4.463a8.222,8.222,0,0,1,1.456,6.3,8.361,8.361,0,0,1-3.407,5.36l-.6.443a15.486,15.486,0,0,1,1.247,6.207,15.878,15.878,0,0,1-16.5,16.525Z" transform="translate(-277.648 -1433.715)" fill="#ed4076"/>
        <path id="パス_3569" data-name="パス 3569" d="M340.6,1484.188c-2.047,0-3.862-.029-5.4-.088a8.429,8.429,0,0,1-5.691-2.51,8.633,8.633,0,0,1-2.535-5.418c-.005-.054-.055-.879-.055-.879a8.7,8.7,0,0,1,.075-1.62h-.427a8.371,8.371,0,0,1-8.352-8.365v-.841a8.315,8.315,0,0,1,2.45-5.911l.075-.074a8.355,8.355,0,0,1-.467-2.764v-.673a8.306,8.306,0,0,1,2.186-5.633,8.757,8.757,0,0,1-.358-1.841l-.079-.831c-.009-.1-.016-.2-.021-.294a8.249,8.249,0,0,1,2.167-5.963,8.1,8.1,0,0,1,6.053-2.678,134.539,134.539,0,0,0,24.786-2.315,8.448,8.448,0,0,1,1.767-.185,8.417,8.417,0,0,1,8.089,6.212l.27,1.032a8.321,8.321,0,0,1-.911,6.415c-.048.08-.1.159-.146.236a8.32,8.32,0,0,1,2.385,5.845v.673a8.355,8.355,0,0,1-.467,2.764l.075.074a8.315,8.315,0,0,1,2.45,5.911v.841a8.373,8.373,0,0,1-8.352,8.365h-6.7c-.006.116-.012.229-.018.338a14.483,14.483,0,0,1-.618,3.45,9.418,9.418,0,0,1-1.946,3.607,8.761,8.761,0,0,1-3.814,2.391,13.531,13.531,0,0,1-3.388.654C342.894,1484.164,341.882,1484.188,340.6,1484.188Z" transform="translate(-277.704 -1433.715)" fill="#ed4076"/>
        <path id="パス_3570" data-name="パス 3570" d="M371.512,1484.356a8.205,8.205,0,0,1-5.946-2.521,8.354,8.354,0,0,1-2.364-5.844v-7.714a7.107,7.107,0,0,1-2.825-4.252l-.686-3.092a11.064,11.064,0,0,1,1.794-8.914,33.276,33.276,0,0,0,4.35-10.574,8.444,8.444,0,0,1,3.464-5.114,8.293,8.293,0,0,1,4.707-1.469,8.658,8.658,0,0,1,1.476.129l1.454.249a8.359,8.359,0,0,1,3.12,1.217,8.338,8.338,0,0,1,2.04-.251h17.766a8.371,8.371,0,0,1,8.352,8.364v.84a8.339,8.339,0,0,1-.582,3.073c.036.034.071.068.106.1a8.313,8.313,0,0,1,2.45,5.911v.841a8.312,8.312,0,0,1-2.45,5.91,8.418,8.418,0,0,1-1.791,1.37c1.479,3.383,2.766,6.571,3.835,9.5a8.372,8.372,0,0,1-5.014,10.736l-1.428.533a8.552,8.552,0,0,1-2.948.536,8.254,8.254,0,0,1-3.342-.709,8.134,8.134,0,0,1-2.666-1.878c-4.814.6-9.615,1.1-14.322,1.482-.214.019-.465.029-.711.029a8.42,8.42,0,0,1-1.335-.105,8.2,8.2,0,0,1-4.908,1.61Z" transform="translate(-277.762 -1433.715)" fill="#ed4076"/>
        <path id="パス_3571" data-name="パス 3571" d="M421.576,1481.206c-3.5,0-8.53-1.258-12.573-7.252-2.745-4.069-4.137-9.541-4.137-16.261a70.446,70.446,0,0,1,.833-11.186,8.614,8.614,0,0,1,8.5-7.2c.242,0,.488.01.736.03l2.018.168a8.174,8.174,0,0,1,5.738,3.052,7.992,7.992,0,0,1,1.643,6.49,51.766,51.766,0,0,0-.6,5.388,8.331,8.331,0,0,1,3.494-.769,8.63,8.63,0,0,1,1.466.127l.4.071q-.316-.75-.657-1.48a7.9,7.9,0,0,1-.126-6.719,8.021,8.021,0,0,1,4.854-4.442l1.929-.615a8.939,8.939,0,0,1,2.656-.413,8.711,8.711,0,0,1,3.323.661,8.592,8.592,0,0,1,4.479,4.172q.045.09.087.18a68.137,68.137,0,0,1,5.731,22.1,8.172,8.172,0,0,1-2.106,6.3,8.335,8.335,0,0,1-5.534,2.738c-.083.008-.167.013-.251.017l-1.89.084c-.139.006-.265.009-.389.009a8.314,8.314,0,0,1-5.6-2.125,8.441,8.441,0,0,1-1.594-1.9C431.488,1477.3,427.6,1481.206,421.576,1481.206Z" transform="translate(-277.821 -1433.715)" fill="#ed4076"/>
        <path id="パス_3572" data-name="パス 3572" d="M452.908,1467.819a8.366,8.366,0,0,1-8.352-8.352v-1.974a8.367,8.367,0,0,1,8.352-8.352h32.928a8.367,8.367,0,0,1,8.352,8.352v1.974a8.366,8.366,0,0,1-8.352,8.352Z" transform="translate(-277.878 -1433.68)" fill="#ed4076"/>
        <path id="パス_3573" data-name="パス 3573" d="M496.227,1484.715a8.807,8.807,0,0,1-4.773-1.419,8.9,8.9,0,0,1-3.629-4.624l-.269-.73a7.668,7.668,0,0,1,.848-6.966,7.874,7.874,0,0,1,1.848-1.957v-7.689q-.087-.08-.171-.162a8.234,8.234,0,0,1-2.517-5.955v-11.735a8.371,8.371,0,0,1,8.352-8.364h14.07a8.018,8.018,0,0,1,1.978.246q.261-.182.537-.345a9.159,9.159,0,0,1,4.687-1.3q.381,0,.77.032l1.62.136a7.594,7.594,0,0,1,4.93,2.452h3.076a8.369,8.369,0,0,1,8.352,8.364v.379a8.379,8.379,0,0,0-.882,6.9,8.361,8.361,0,0,1-2.449,5.993c-.039.04-.079.079-.119.117,0,.108.006.217.006.325v7.009a8.572,8.572,0,0,1,1.295,1.222,8.3,8.3,0,0,1,2,6.167l-.149,1.688a12.86,12.86,0,0,1-.481,2.507c-.1.333-.179.606-.234.817a7.7,7.7,0,0,1-2.047,3.515c-.405.406-.749.718-1.022.947a8.127,8.127,0,0,1-3.25,1.588,16.076,16.076,0,0,1-1.8.368c-.467.064-1.072.117-1.908.169-.809.051-1.508.075-2.138.075H520.57a43.79,43.79,0,0,1-6.429-.328,9.022,9.022,0,0,1-5.577-2.76c-.109.064-.219.126-.331.189a29.262,29.262,0,0,1-10.978,3.071A8.505,8.505,0,0,1,496.227,1484.715Z" transform="translate(-277.936 -1433.715)" fill="#ed4076"/>
      </g>
      <g id="グループ_2488" data-name="グループ 2488">
        <g id="グループ_2484" data-name="グループ 2484" transform="translate(0 0.978)">
          <path id="パス_3574" data-name="パス 3574" d="M306.706,1478.969a22.324,22.324,0,0,1-2.876-.176,7.988,7.988,0,0,1-3.7-1.468,15.514,15.514,0,0,1-6.4,1.225,17.127,17.127,0,0,1-10.864-3.574,12.441,12.441,0,0,1-5.216-10.006,14.423,14.423,0,0,1,4.487-10.179,20.781,20.781,0,0,1,1.713-1.576,8.485,8.485,0,0,1-4.142-7.257v-.673a8.372,8.372,0,0,1,8.394-8.407h.3a8.44,8.44,0,0,1,2.087-3.641,8.247,8.247,0,0,1,5.967-2.542h1.764a8.317,8.317,0,0,1,5.924,2.478,8.455,8.455,0,0,1,1.843,2.754c.052-.006.262-.029.317-.034.255-.023.505-.033.752-.033a8.125,8.125,0,0,1,4.246,1.179,8.48,8.48,0,0,1,3.084-.576q.449,0,.914.047a8.344,8.344,0,0,1,5.733,3.16c2.348,2.921,3.117,3.954,3.479,4.463a8.222,8.222,0,0,1,1.456,6.3,8.361,8.361,0,0,1-3.407,5.36l-.6.443a15.486,15.486,0,0,1,1.247,6.207,15.879,15.879,0,0,1-16.5,16.525Z" transform="translate(-277.648 -1430.693)" fill="#f2798f"/>
        </g>
        <g id="グループ_2485" data-name="グループ 2485" transform="translate(40.502 1.148)">
          <path id="パス_3575" data-name="パス 3575" d="M340.6,1480.188c-2.047,0-3.862-.029-5.4-.088a8.429,8.429,0,0,1-5.691-2.51,8.633,8.633,0,0,1-2.535-5.418c-.005-.054-.055-.879-.055-.879a8.7,8.7,0,0,1,.075-1.62h-.427a8.371,8.371,0,0,1-8.352-8.365v-.841a8.315,8.315,0,0,1,2.45-5.911l.075-.074a8.355,8.355,0,0,1-.467-2.764v-.673a8.306,8.306,0,0,1,2.186-5.633,8.757,8.757,0,0,1-.358-1.841l-.079-.831c-.009-.1-.016-.2-.021-.294a8.249,8.249,0,0,1,2.167-5.963,8.1,8.1,0,0,1,6.053-2.678,134.539,134.539,0,0,0,24.786-2.315,8.448,8.448,0,0,1,1.767-.185,8.417,8.417,0,0,1,8.089,6.212l.27,1.032a8.321,8.321,0,0,1-.911,6.415c-.048.08-.1.159-.146.236a8.32,8.32,0,0,1,2.385,5.845v.673a8.355,8.355,0,0,1-.467,2.764l.075.074a8.315,8.315,0,0,1,2.45,5.911v.841a8.373,8.373,0,0,1-8.352,8.365h-6.7c-.006.116-.012.229-.018.338a14.483,14.483,0,0,1-.618,3.45,9.418,9.418,0,0,1-1.946,3.607,8.761,8.761,0,0,1-3.814,2.391,13.531,13.531,0,0,1-3.388.654C342.894,1480.164,341.882,1480.188,340.6,1480.188Z" transform="translate(-318.22 -1430.863)" fill="#f2798f"/>
          <path id="パス_3576" data-name="パス 3576" d="M371.512,1480.356a8.206,8.206,0,0,1-5.946-2.521,8.354,8.354,0,0,1-2.364-5.844v-7.714a7.108,7.108,0,0,1-2.825-4.252l-.686-3.092a11.064,11.064,0,0,1,1.794-8.914,33.277,33.277,0,0,0,4.35-10.574,8.444,8.444,0,0,1,3.464-5.114,8.292,8.292,0,0,1,4.707-1.469,8.658,8.658,0,0,1,1.476.129l1.454.249a8.355,8.355,0,0,1,3.12,1.217,8.338,8.338,0,0,1,2.04-.251h17.766a8.371,8.371,0,0,1,8.352,8.364v.84a8.339,8.339,0,0,1-.582,3.073l.106.1a8.313,8.313,0,0,1,2.45,5.911v.841a8.312,8.312,0,0,1-2.45,5.91,8.422,8.422,0,0,1-1.791,1.37c1.479,3.383,2.766,6.571,3.835,9.5a8.372,8.372,0,0,1-5.014,10.736l-1.428.533a8.552,8.552,0,0,1-2.948.536,8.256,8.256,0,0,1-3.342-.709,8.138,8.138,0,0,1-2.666-1.878c-4.814.6-9.615,1.1-14.322,1.482-.214.019-.465.029-.711.029a8.42,8.42,0,0,1-1.335-.105,8.2,8.2,0,0,1-4.908,1.61Z" transform="translate(-318.22 -1430.863)" fill="#f2798f"/>
        </g>
        <g id="グループ_2486" data-name="グループ 2486" transform="translate(127.045 5.588)">
          <path id="パス_3577" data-name="パス 3577" d="M421.576,1477.206c-3.5,0-8.53-1.258-12.573-7.252-2.745-4.069-4.137-9.541-4.137-16.261a70.444,70.444,0,0,1,.833-11.185,8.614,8.614,0,0,1,8.5-7.2c.242,0,.488.01.736.03l2.018.168a8.174,8.174,0,0,1,5.738,3.052,7.992,7.992,0,0,1,1.643,6.49,51.766,51.766,0,0,0-.6,5.388,8.331,8.331,0,0,1,3.494-.769,8.618,8.618,0,0,1,1.466.127l.4.071q-.316-.75-.657-1.48a7.9,7.9,0,0,1-.126-6.719,8.021,8.021,0,0,1,4.854-4.442l1.929-.615a8.939,8.939,0,0,1,2.656-.413,8.711,8.711,0,0,1,3.323.661,8.592,8.592,0,0,1,4.479,4.172q.045.09.087.18a68.137,68.137,0,0,1,5.731,22.1,8.172,8.172,0,0,1-2.106,6.3,8.335,8.335,0,0,1-5.534,2.738c-.083.008-.167.013-.251.017l-1.89.084c-.139.006-.265.009-.389.009a8.314,8.314,0,0,1-5.6-2.125,8.441,8.441,0,0,1-1.594-1.9C431.488,1473.3,427.6,1477.206,421.576,1477.206Z" transform="translate(-404.866 -1435.303)" fill="#f2798f"/>
        </g>
        <g id="グループ_2487" data-name="グループ 2487" transform="translate(166.62)">
          <path id="パス_3578" data-name="パス 3578" d="M452.908,1463.819a8.366,8.366,0,0,1-8.352-8.352v-1.974a8.367,8.367,0,0,1,8.352-8.352h32.928a8.367,8.367,0,0,1,8.352,8.352v1.974a8.366,8.366,0,0,1-8.352,8.352Z" transform="translate(-444.556 -1429.68)" fill="#f2798f"/>
          <path id="パス_3579" data-name="パス 3579" d="M496.227,1480.715a8.807,8.807,0,0,1-4.773-1.419,8.9,8.9,0,0,1-3.629-4.624l-.269-.73a7.668,7.668,0,0,1,.848-6.966,7.874,7.874,0,0,1,1.848-1.957v-7.689q-.087-.08-.171-.162a8.234,8.234,0,0,1-2.517-5.955v-11.735a8.371,8.371,0,0,1,8.352-8.364h14.07a8.018,8.018,0,0,1,1.978.246q.261-.182.537-.345a9.159,9.159,0,0,1,4.687-1.3q.381,0,.77.032l1.62.136a7.594,7.594,0,0,1,4.93,2.452h3.076a8.369,8.369,0,0,1,8.352,8.364v.379a8.379,8.379,0,0,0-.882,6.9,8.361,8.361,0,0,1-2.449,5.993c-.039.04-.079.079-.119.117,0,.108.006.217.006.325v7.009a8.572,8.572,0,0,1,1.295,1.222,8.3,8.3,0,0,1,2,6.167l-.149,1.688a12.86,12.86,0,0,1-.481,2.507c-.1.333-.179.606-.234.817a7.7,7.7,0,0,1-2.047,3.515c-.405.406-.749.718-1.022.947a8.127,8.127,0,0,1-3.25,1.588,16.049,16.049,0,0,1-1.8.368c-.467.064-1.072.117-1.908.169-.809.051-1.508.075-2.138.075H520.57a43.79,43.79,0,0,1-6.429-.328,9.022,9.022,0,0,1-5.577-2.76c-.109.064-.219.126-.331.189a29.262,29.262,0,0,1-10.978,3.071A8.505,8.505,0,0,1,496.227,1480.715Z" transform="translate(-444.556 -1429.715)" fill="#f2798f"/>
        </g>
      </g>
    </g>
    <g id="グループ_2496" data-name="グループ 2496" transform="translate(283.648 1435.715)">
      <g id="グループ_2490" data-name="グループ 2490" transform="translate(0 2)">
        <path id="パス_3580" data-name="パス 3580" d="M293.728,1474.549a11.232,11.232,0,0,1-7.161-2.294,6.635,6.635,0,0,1-2.919-5.282,8.611,8.611,0,0,1,2.793-6,19.6,19.6,0,0,1,7.623-4.608c.224-.111.336-.252.336-.421q-.042-.545-.063-1.6t-.021-1.6q0-.337-.021-1.094t-.021-1.136c0-.2-.14-.295-.42-.295q-2.814.126-5.8.126a2.229,2.229,0,0,1-1.659-.715,2.341,2.341,0,0,1-.693-1.683v-.673a2.369,2.369,0,0,1,2.394-2.4q2.9,0,5.67-.126a.334.334,0,0,0,.378-.379q0-.547-.021-1.641t-.021-1.641a2.342,2.342,0,0,1,.693-1.683,2.227,2.227,0,0,1,1.659-.715h1.764a2.442,2.442,0,0,1,2.394,2.4q0,.505.021,1.494t.021,1.452q0,.337.378.337,2.9-.168,5.8-.505a2.217,2.217,0,0,1,1.7.547,2.3,2.3,0,0,1,.819,1.6l.042.673a2.381,2.381,0,0,1-.567,1.789,2.3,2.3,0,0,1-1.617.863q-3.108.337-6.09.505a.334.334,0,0,0-.378.379q0,.421.042,1.24t.042,1.2q0,.295.021.926c.014.42.021.729.021.926s.111.295.336.295a35.858,35.858,0,0,1,4.284-.253,12.568,12.568,0,0,1,8.484,2.778,8.954,8.954,0,0,1,3.234,7.111,9.9,9.9,0,0,1-10.5,10.521,16.449,16.449,0,0,1-2.1-.125,2.035,2.035,0,0,1-1.512-.989,2.676,2.676,0,0,1-.378-1.915l.126-.842a2.2,2.2,0,0,1,.966-1.473,2.7,2.7,0,0,1,1.806-.463,7.388,7.388,0,0,0,.882.042,3.885,3.885,0,0,0,3-1.157,4.622,4.622,0,0,0,1.071-3.262q0-4.293-6.3-4.293-1.05,0-2.9.168a.412.412,0,0,0-.378.421q.041,1.557.042,4.629,0,4.966-1.68,6.9T293.728,1474.549Zm.462-11.952a10.994,10.994,0,0,0-2.961,2,3.023,3.023,0,0,0-1.071,2.041,1.9,1.9,0,0,0,.8,1.494,2.665,2.665,0,0,0,1.722.652q1.174,0,1.512-.526a5.828,5.828,0,0,0,.336-2.546c0-.308-.007-.786-.021-1.431s-.021-1.136-.021-1.473Q294.484,1462.471,294.19,1462.6Zm18.69-17.633a2.506,2.506,0,0,1,1.806-.484,2.313,2.313,0,0,1,1.638.9q2.6,3.241,3.318,4.251a2.192,2.192,0,0,1,.42,1.745,2.32,2.32,0,0,1-1.008,1.537l-.63.463a2.436,2.436,0,0,1-1.806.379,2.37,2.37,0,0,1-1.554-.968q-1.219-1.641-3.15-4.041a2.29,2.29,0,0,1-.546-1.724,2.085,2.085,0,0,1,.882-1.557Z" transform="translate(-283.648 -1437.715)" fill="#ed4076"/>
        <path id="パス_3581" data-name="パス 3581" d="M326.572,1465.667a2.368,2.368,0,0,1-2.352-2.357v-.842a2.368,2.368,0,0,1,2.352-2.357h13.86q.378,0,.378-.337v-3.367q0-.337-.378-.337h-11.8a2.369,2.369,0,0,1-2.352-2.357v-.673a2.367,2.367,0,0,1,2.352-2.357h11.8c.252,0,.378-.111.378-.337v-3.03q0-.337-.378-.337-4.7.294-9.912.379a2.3,2.3,0,0,1-1.659-.673,2.517,2.517,0,0,1-.777-1.641l-.084-.884a2.209,2.209,0,0,1,.609-1.641,2.1,2.1,0,0,1,1.617-.715,139.994,139.994,0,0,0,26-2.441,2.41,2.41,0,0,1,2.856,1.725l.252.968a2.274,2.274,0,0,1-.252,1.81,2.029,2.029,0,0,1-1.428,1.01,97.471,97.471,0,0,1-9.786,1.515q-.336,0-.336.379v3.577a.3.3,0,0,0,.336.337h10.248a2.367,2.367,0,0,1,2.352,2.357v.673a2.369,2.369,0,0,1-2.352,2.357H347.866a.3.3,0,0,0-.336.337v3.367a.3.3,0,0,0,.336.337h12.306a2.368,2.368,0,0,1,2.352,2.357v.842a2.368,2.368,0,0,1-2.352,2.357H347.866a.3.3,0,0,0-.336.337v2.693q0,1.892-.063,2.967a8.471,8.471,0,0,1-.357,2.02,3.725,3.725,0,0,1-.672,1.367,2.913,2.913,0,0,1-1.26.716,7.358,7.358,0,0,1-1.869.358q-.987.063-2.709.063-2.982,0-5.166-.084a2.456,2.456,0,0,1-1.68-.757,2.649,2.649,0,0,1-.8-1.683l-.042-.715a2.113,2.113,0,0,1,.588-1.6,1.965,1.965,0,0,1,1.6-.631q1.764.084,4.074.084,1.176,0,1.407-.252a2.607,2.607,0,0,0,.231-1.431V1466c0-.224-.126-.337-.378-.337Z" transform="translate(-283.704 -1437.715)" fill="#ed4076"/>
        <path id="パス_3582" data-name="パス 3582" d="M366.22,1460.659l-.672-3.03a5.139,5.139,0,0,1,.882-4.208,39.185,39.185,0,0,0,5.25-12.625,2.384,2.384,0,0,1,1.008-1.515,2.308,2.308,0,0,1,1.764-.379l1.47.253a2.326,2.326,0,0,1,1.89,2.693,43.266,43.266,0,0,1-2.268,7.785,1.7,1.7,0,0,0-.126.673V1474a2.308,2.308,0,0,1-.672,1.662,2.193,2.193,0,0,1-1.638.694h-1.6a2.193,2.193,0,0,1-1.638-.694A2.308,2.308,0,0,1,369.2,1474v-14.013a.074.074,0,0,0-.084-.084.171.171,0,0,0-.126.042q-.168.253-.462.673t-.336.505a.979.979,0,0,1-1.113.421A1.1,1.1,0,0,1,366.22,1460.659Zm25.284-4.671q-1.723,6.06-3.822,12.246-.086.295.252.295l3.591-.4q2.457-.273,3.759-.4a.26.26,0,0,0,.21-.105.235.235,0,0,0,.042-.231q-.546-1.429-1.932-4.629a2.112,2.112,0,0,1,0-1.746,2.168,2.168,0,0,1,1.26-1.2l1.3-.506a2.557,2.557,0,0,1,1.848.022,2.392,2.392,0,0,1,1.344,1.241q2.856,6.312,4.788,11.615a2.262,2.262,0,0,1-.084,1.81,2.306,2.306,0,0,1-1.344,1.219l-1.47.548a2.313,2.313,0,0,1-1.785-.042,2.165,2.165,0,0,1-1.2-1.3c-.224-.673-.364-1.081-.42-1.22a.442.442,0,0,0-.546-.295q-8.946,1.219-17.724,1.936a2.217,2.217,0,0,1-1.7-.547,2.3,2.3,0,0,1-.819-1.6l-.084-.884a2.229,2.229,0,0,1,.546-1.7,2.29,2.29,0,0,1,1.6-.821h.4a1.368,1.368,0,0,0,.4-.042c.2,0,.35-.126.462-.379q1.974-5.513,4.032-12.835.084-.337-.252-.337h-4.788a2.193,2.193,0,0,1-1.638-.694,2.306,2.306,0,0,1-.672-1.662v-.842a2.3,2.3,0,0,1,.672-1.662,2.193,2.193,0,0,1,1.638-.694h22.47a2.369,2.369,0,0,1,2.352,2.357v.842a2.368,2.368,0,0,1-2.352,2.357h-9.912C391.672,1455.694,391.532,1455.793,391.5,1455.988Zm8.358-10.226H382.1a2.369,2.369,0,0,1-2.352-2.358v-.841a2.367,2.367,0,0,1,2.352-2.357h17.766a2.367,2.367,0,0,1,2.352,2.357v.841a2.368,2.368,0,0,1-2.352,2.358Z" transform="translate(-283.762 -1437.715)" fill="#ed4076"/>
        <path id="パス_3583" data-name="パス 3583" d="M421.576,1473.206q-4.494,0-7.6-4.61t-3.108-12.9a64.242,64.242,0,0,1,.756-10.231,2.449,2.449,0,0,1,.987-1.621,2.605,2.605,0,0,1,1.827-.526l2.016.167a2.152,2.152,0,0,1,1.554.822,1.986,1.986,0,0,1,.42,1.663,59.2,59.2,0,0,0-.8,9.726,25.614,25.614,0,0,0,.609,5.916,11.519,11.519,0,0,0,1.407,3.705q.8,1.158,1.6,1.158.756,0,1.7-1.663a22.857,22.857,0,0,0,1.869-5.2,2.527,2.527,0,0,1,1.071-1.516,2.369,2.369,0,0,1,1.785-.379l1.638.295a2.376,2.376,0,0,1,1.512,1.01,2.114,2.114,0,0,1,.336,1.726Q428.086,1473.206,421.576,1473.206Zm17.178-7.031a56.888,56.888,0,0,0-4.914-18.4,1.924,1.924,0,0,1-.042-1.706,2.023,2.023,0,0,1,1.26-1.157l1.848-.589a2.735,2.735,0,0,1,1.89.084,2.627,2.627,0,0,1,1.386,1.305,61.931,61.931,0,0,1,5.208,20.167,2.128,2.128,0,0,1-.567,1.684,2.4,2.4,0,0,1-1.617.8l-1.89.084a2.378,2.378,0,0,1-1.743-.611A2.407,2.407,0,0,1,438.754,1466.175Z" transform="translate(-283.821 -1437.715)" fill="#ed4076"/>
        <path id="パス_3584" data-name="パス 3584" d="M452.908,1459.819a2.366,2.366,0,0,1-2.352-2.352v-1.974a2.366,2.366,0,0,1,2.352-2.352h32.928a2.366,2.366,0,0,1,2.352,2.352v1.974a2.366,2.366,0,0,1-2.352,2.352Z" transform="translate(-283.878 -1437.681)" fill="#ed4076"/>
        <path id="パス_3585" data-name="パス 3585" d="M517.84,1445.722q-.336.547-1.092,1.641c-.141.2-.084.295.168.295H526.7a2.3,2.3,0,0,1,1.659.673,2.2,2.2,0,0,1,.693,1.641v.084a2.368,2.368,0,0,1-2.352,2.356H515.866a2.368,2.368,0,0,1-2.352-2.356v-.21a.494.494,0,0,0-.294-.505l-1.722-.884a1.694,1.694,0,0,1-1.008-1.389v1.22a2.368,2.368,0,0,1-2.352,2.356.3.3,0,0,0-.336.337v.589a.3.3,0,0,0,.336.337h2.352a1.794,1.794,0,0,1,1.806,1.809.3.3,0,0,0,.336.336h11.55a2.194,2.194,0,0,1,1.638.7,2.306,2.306,0,0,1,.672,1.662v10.856a.376.376,0,0,0,.336.379l.8.084a2.33,2.33,0,0,1,1.617.842,2.253,2.253,0,0,1,.567,1.725c-.057.645-.1,1.2-.147,1.662a6.749,6.749,0,0,1-.252,1.325c-.126.421-.224.763-.294,1.031a1.741,1.741,0,0,1-.483.777q-.378.38-.63.59a2.43,2.43,0,0,1-.9.379,9.979,9.979,0,0,1-1.113.231q-.462.063-1.47.126t-1.764.063H520.57a40.05,40.05,0,0,1-5.481-.253,3.4,3.4,0,0,1-2.079-.863,3.579,3.579,0,0,1-.5-2.209v-3.535a.3.3,0,0,0-.336-.337h-2.142a.462.462,0,0,0-.462.337,8.978,8.978,0,0,1-4.242,4.713,23.789,23.789,0,0,1-8.736,2.356,2.76,2.76,0,0,1-1.89-.442,2.916,2.916,0,0,1-1.218-1.578l-.294-.8a1.648,1.648,0,0,1,.21-1.557,1.684,1.684,0,0,1,1.386-.8q5.838-.419,7.518-1.978a.117.117,0,0,0,.021-.168.181.181,0,0,0-.147-.084h-3.612a2.3,2.3,0,0,1-2.31-2.314V1456.41a2.511,2.511,0,0,1,.042-.547q.084-.337-.252-.337h-.126a2.291,2.291,0,0,1-1.659-.673,2.2,2.2,0,0,1-.693-1.641v-11.74a2.368,2.368,0,0,1,2.352-2.356h14.07a1.866,1.866,0,0,1,1.89,1.894,1.9,1.9,0,0,1-.546,1.368,1.791,1.791,0,0,1-1.344.568h-1.848a.3.3,0,0,0-.336.337v.589a.3.3,0,0,0,.336.337,2.264,2.264,0,0,1,1.638.652,2.315,2.315,0,0,1,.714,1.62,1.87,1.87,0,0,1,.378-.926,31.671,31.671,0,0,0,3.4-5.891,3.159,3.159,0,0,1,1.3-1.494,3.1,3.1,0,0,1,1.89-.442l1.512.126a1.693,1.693,0,0,1,1.47,2.23q-.084.253.21.253h6.93a2.366,2.366,0,0,1,2.352,2.356v.379a2.368,2.368,0,0,1-2.352,2.356h-9.2A.645.645,0,0,0,517.84,1445.722Zm-18.186-2.441v.589a.3.3,0,0,0,.336.337h2.016a.3.3,0,0,0,.336-.337v-.589a.3.3,0,0,0-.336-.337H499.99A.3.3,0,0,0,499.654,1443.281Zm0,3.871v.547a.3.3,0,0,0,.336.337h4.368q.378,0,.378-.337v-.547a.334.334,0,0,0-.378-.379H499.99Q499.654,1446.774,499.654,1447.153Zm0,3.829v.589a.3.3,0,0,0,.336.337h2.016a.3.3,0,0,0,.336-.337v-.589a.3.3,0,0,0-.336-.337H499.99A.3.3,0,0,0,499.654,1450.982Zm20.286,6.817q0-.379-.336-.379H503.14q-.336,0-.336.379v.379q0,.379.336.379H519.6q.336,0,.336-.379Zm-17.136,3.535v.379q0,.378.336.379H519.6q.336,0,.336-.379v-.379q0-.379-.336-.379H503.14Q502.8,1460.954,502.8,1461.333Zm.336,4.292H519.6q.336,0,.336-.379v-.379a.3.3,0,0,0-.336-.338H503.14a.3.3,0,0,0-.336.338v.379Q502.8,1465.625,503.14,1465.625Zm20.5,4q0-.337-.294-.337h-3.948a.3.3,0,0,0-.336.337v1.094c0,.478.084.75.252.82a8.9,8.9,0,0,0,1.932.105,3.937,3.937,0,0,0,1.89-.273Q523.51,1471.1,523.636,1469.623Z" transform="translate(-283.936 -1437.715)" fill="#ed4076"/>
      </g>
      <g id="グループ_2495" data-name="グループ 2495">
        <g id="グループ_2491" data-name="グループ 2491" transform="translate(0 0.978)">
          <path id="パス_3586" data-name="パス 3586" d="M293.728,1472.549a11.232,11.232,0,0,1-7.161-2.294,6.635,6.635,0,0,1-2.919-5.282,8.611,8.611,0,0,1,2.793-6,19.6,19.6,0,0,1,7.623-4.608c.224-.111.336-.252.336-.421q-.042-.545-.063-1.6t-.021-1.6q0-.337-.021-1.094t-.021-1.136c0-.2-.14-.295-.42-.295q-2.814.126-5.8.126a2.229,2.229,0,0,1-1.659-.715,2.341,2.341,0,0,1-.693-1.683v-.673a2.369,2.369,0,0,1,2.394-2.4q2.9,0,5.67-.126a.334.334,0,0,0,.378-.379q0-.547-.021-1.641t-.021-1.641a2.342,2.342,0,0,1,.693-1.683,2.228,2.228,0,0,1,1.659-.715h1.764a2.441,2.441,0,0,1,2.394,2.4q0,.505.021,1.494t.021,1.452q0,.337.378.337,2.9-.168,5.8-.505a2.217,2.217,0,0,1,1.7.547,2.3,2.3,0,0,1,.819,1.6l.042.673a2.381,2.381,0,0,1-.567,1.789,2.3,2.3,0,0,1-1.617.863q-3.108.337-6.09.505a.334.334,0,0,0-.378.379q0,.421.042,1.24t.042,1.2q0,.295.021.926c.014.42.021.729.021.926s.111.295.336.295a35.858,35.858,0,0,1,4.284-.253,12.567,12.567,0,0,1,8.484,2.778,8.954,8.954,0,0,1,3.234,7.111,9.9,9.9,0,0,1-10.5,10.521,16.449,16.449,0,0,1-2.1-.125,2.035,2.035,0,0,1-1.512-.989,2.676,2.676,0,0,1-.378-1.915l.126-.842a2.2,2.2,0,0,1,.966-1.473,2.7,2.7,0,0,1,1.806-.463,7.388,7.388,0,0,0,.882.042,3.885,3.885,0,0,0,3-1.157,4.622,4.622,0,0,0,1.071-3.262q0-4.293-6.3-4.293-1.05,0-2.9.168a.412.412,0,0,0-.378.421q.041,1.557.042,4.629,0,4.966-1.68,6.9T293.728,1472.549Zm.462-11.952a10.994,10.994,0,0,0-2.961,2,3.023,3.023,0,0,0-1.071,2.041,1.9,1.9,0,0,0,.8,1.494,2.665,2.665,0,0,0,1.722.652q1.174,0,1.512-.526a5.828,5.828,0,0,0,.336-2.546c0-.308-.007-.786-.021-1.431s-.021-1.136-.021-1.473Q294.484,1460.471,294.19,1460.6Zm18.69-17.633a2.506,2.506,0,0,1,1.806-.484,2.313,2.313,0,0,1,1.638.9q2.6,3.241,3.318,4.251a2.192,2.192,0,0,1,.42,1.745,2.32,2.32,0,0,1-1.008,1.537l-.63.463a2.436,2.436,0,0,1-1.806.379,2.37,2.37,0,0,1-1.554-.968q-1.219-1.641-3.15-4.041a2.29,2.29,0,0,1-.546-1.724,2.085,2.085,0,0,1,.882-1.557Z" transform="translate(-283.648 -1436.693)" fill="#fff"/>
        </g>
        <g id="グループ_2492" data-name="グループ 2492" transform="translate(40.502 1.148)">
          <path id="パス_3587" data-name="パス 3587" d="M326.572,1463.667a2.369,2.369,0,0,1-2.352-2.357v-.842a2.368,2.368,0,0,1,2.352-2.357h13.86q.378,0,.378-.337v-3.367q0-.337-.378-.337h-11.8a2.368,2.368,0,0,1-2.352-2.357v-.673a2.367,2.367,0,0,1,2.352-2.357h11.8c.252,0,.378-.111.378-.337v-3.03q0-.337-.378-.337-4.7.294-9.912.379a2.3,2.3,0,0,1-1.659-.673,2.517,2.517,0,0,1-.777-1.641l-.084-.884a2.21,2.21,0,0,1,.609-1.641,2.1,2.1,0,0,1,1.617-.715,140,140,0,0,0,26-2.441,2.41,2.41,0,0,1,2.856,1.725l.252.968a2.274,2.274,0,0,1-.252,1.81,2.03,2.03,0,0,1-1.428,1.01,97.51,97.51,0,0,1-9.786,1.515q-.336,0-.336.379v3.577a.3.3,0,0,0,.336.337h10.248a2.367,2.367,0,0,1,2.352,2.357v.673a2.368,2.368,0,0,1-2.352,2.357H347.866a.3.3,0,0,0-.336.337v3.367a.3.3,0,0,0,.336.337h12.306a2.368,2.368,0,0,1,2.352,2.357v.842a2.369,2.369,0,0,1-2.352,2.357H347.866a.3.3,0,0,0-.336.337v2.693q0,1.892-.063,2.967a8.473,8.473,0,0,1-.357,2.02,3.726,3.726,0,0,1-.672,1.367,2.914,2.914,0,0,1-1.26.716,7.352,7.352,0,0,1-1.869.358q-.987.063-2.709.063-2.982,0-5.166-.084a2.457,2.457,0,0,1-1.68-.757,2.649,2.649,0,0,1-.8-1.683l-.042-.715a2.113,2.113,0,0,1,.588-1.6,1.965,1.965,0,0,1,1.6-.631q1.764.084,4.074.084,1.176,0,1.407-.252a2.607,2.607,0,0,0,.231-1.431V1464c0-.224-.126-.337-.378-.337Z" transform="translate(-324.22 -1436.863)" fill="#fff"/>
          <path id="パス_3588" data-name="パス 3588" d="M366.22,1458.659l-.672-3.03a5.139,5.139,0,0,1,.882-4.208,39.185,39.185,0,0,0,5.25-12.625,2.384,2.384,0,0,1,1.008-1.515,2.308,2.308,0,0,1,1.764-.379l1.47.253a2.326,2.326,0,0,1,1.89,2.693,43.27,43.27,0,0,1-2.268,7.785,1.7,1.7,0,0,0-.126.673V1472a2.308,2.308,0,0,1-.672,1.662,2.193,2.193,0,0,1-1.638.694h-1.6a2.193,2.193,0,0,1-1.638-.694A2.308,2.308,0,0,1,369.2,1472v-14.013a.074.074,0,0,0-.084-.084.171.171,0,0,0-.126.042q-.168.253-.462.673t-.336.505a.979.979,0,0,1-1.113.421A1.1,1.1,0,0,1,366.22,1458.659Zm25.284-4.671q-1.723,6.06-3.822,12.246-.086.295.252.295l3.591-.4q2.457-.274,3.759-.4a.26.26,0,0,0,.21-.105.235.235,0,0,0,.042-.231q-.546-1.429-1.932-4.629a2.112,2.112,0,0,1,0-1.746,2.168,2.168,0,0,1,1.26-1.2l1.3-.506a2.557,2.557,0,0,1,1.848.022,2.392,2.392,0,0,1,1.344,1.241q2.856,6.312,4.788,11.615a2.262,2.262,0,0,1-.084,1.81,2.306,2.306,0,0,1-1.344,1.219l-1.47.548a2.313,2.313,0,0,1-1.785-.042,2.165,2.165,0,0,1-1.2-1.3c-.224-.673-.364-1.081-.42-1.22a.442.442,0,0,0-.546-.295q-8.946,1.219-17.724,1.936a2.217,2.217,0,0,1-1.7-.547,2.3,2.3,0,0,1-.819-1.6l-.084-.884a2.229,2.229,0,0,1,.546-1.7,2.29,2.29,0,0,1,1.6-.821h.4a1.368,1.368,0,0,0,.4-.042c.2,0,.35-.126.462-.379q1.974-5.513,4.032-12.835.084-.337-.252-.337h-4.788a2.193,2.193,0,0,1-1.638-.694,2.306,2.306,0,0,1-.672-1.662v-.842a2.3,2.3,0,0,1,.672-1.662,2.193,2.193,0,0,1,1.638-.694h22.47a2.369,2.369,0,0,1,2.352,2.357v.842a2.368,2.368,0,0,1-2.352,2.357h-9.912C391.672,1453.694,391.532,1453.793,391.5,1453.988Zm8.358-10.226H382.1a2.369,2.369,0,0,1-2.352-2.358v-.841a2.367,2.367,0,0,1,2.352-2.357h17.766a2.367,2.367,0,0,1,2.352,2.357v.841a2.368,2.368,0,0,1-2.352,2.358Z" transform="translate(-324.22 -1436.863)" fill="#fff"/>
        </g>
        <g id="グループ_2493" data-name="グループ 2493" transform="translate(127.045 5.587)">
          <path id="パス_3589" data-name="パス 3589" d="M421.576,1471.206q-4.494,0-7.6-4.61t-3.108-12.9a64.242,64.242,0,0,1,.756-10.231,2.448,2.448,0,0,1,.987-1.621,2.605,2.605,0,0,1,1.827-.526l2.016.167a2.152,2.152,0,0,1,1.554.822,1.986,1.986,0,0,1,.42,1.663,59.2,59.2,0,0,0-.8,9.726,25.614,25.614,0,0,0,.609,5.916,11.519,11.519,0,0,0,1.407,3.705q.8,1.158,1.6,1.158.756,0,1.7-1.663a22.859,22.859,0,0,0,1.869-5.2,2.527,2.527,0,0,1,1.071-1.516,2.369,2.369,0,0,1,1.785-.379l1.638.295a2.376,2.376,0,0,1,1.512,1.01,2.114,2.114,0,0,1,.336,1.726Q428.086,1471.206,421.576,1471.206Zm17.178-7.031a56.888,56.888,0,0,0-4.914-18.4,1.924,1.924,0,0,1-.042-1.706,2.023,2.023,0,0,1,1.26-1.157l1.848-.589a2.735,2.735,0,0,1,1.89.084,2.626,2.626,0,0,1,1.386,1.305,61.931,61.931,0,0,1,5.208,20.167,2.128,2.128,0,0,1-.567,1.684,2.4,2.4,0,0,1-1.617.8l-1.89.084a2.377,2.377,0,0,1-1.743-.61A2.408,2.408,0,0,1,438.754,1464.175Z" transform="translate(-410.866 -1441.303)" fill="#fff"/>
        </g>
        <g id="グループ_2494" data-name="グループ 2494" transform="translate(166.62)">
          <path id="パス_3590" data-name="パス 3590" d="M452.908,1457.819a2.366,2.366,0,0,1-2.352-2.352v-1.974a2.366,2.366,0,0,1,2.352-2.352h32.928a2.366,2.366,0,0,1,2.352,2.352v1.974a2.366,2.366,0,0,1-2.352,2.352Z" transform="translate(-450.556 -1435.681)" fill="#fff"/>
          <path id="パス_3591" data-name="パス 3591" d="M517.84,1443.722q-.336.547-1.092,1.641c-.141.2-.084.295.168.295H526.7a2.3,2.3,0,0,1,1.659.673,2.2,2.2,0,0,1,.693,1.641v.084a2.368,2.368,0,0,1-2.352,2.356H515.866a2.368,2.368,0,0,1-2.352-2.356v-.21a.494.494,0,0,0-.294-.505l-1.722-.884a1.7,1.7,0,0,1-1.008-1.389v1.22a2.368,2.368,0,0,1-2.352,2.356.3.3,0,0,0-.336.337v.589a.3.3,0,0,0,.336.337h2.352a1.794,1.794,0,0,1,1.806,1.809.3.3,0,0,0,.336.336h11.55a2.194,2.194,0,0,1,1.638.7,2.306,2.306,0,0,1,.672,1.662v10.856a.376.376,0,0,0,.336.379l.8.084a2.33,2.33,0,0,1,1.617.842,2.254,2.254,0,0,1,.567,1.725c-.057.645-.1,1.2-.147,1.662a6.749,6.749,0,0,1-.252,1.325c-.126.421-.224.763-.294,1.031a1.741,1.741,0,0,1-.483.777q-.378.38-.63.59a2.43,2.43,0,0,1-.9.379,9.924,9.924,0,0,1-1.113.231q-.462.063-1.47.126t-1.764.063H520.57a40.05,40.05,0,0,1-5.481-.253,3.4,3.4,0,0,1-2.079-.863,3.579,3.579,0,0,1-.5-2.209v-3.535a.3.3,0,0,0-.336-.337h-2.142a.462.462,0,0,0-.462.337,8.977,8.977,0,0,1-4.242,4.713,23.791,23.791,0,0,1-8.736,2.357,2.761,2.761,0,0,1-1.89-.442,2.917,2.917,0,0,1-1.218-1.578l-.294-.8a1.648,1.648,0,0,1,.21-1.557,1.684,1.684,0,0,1,1.386-.8q5.838-.419,7.518-1.978a.117.117,0,0,0,.021-.168.181.181,0,0,0-.147-.084h-3.612a2.3,2.3,0,0,1-2.31-2.314V1454.41a2.512,2.512,0,0,1,.042-.547q.084-.337-.252-.337h-.126a2.291,2.291,0,0,1-1.659-.673,2.2,2.2,0,0,1-.693-1.641v-11.74a2.368,2.368,0,0,1,2.352-2.356h14.07a1.867,1.867,0,0,1,1.89,1.894,1.9,1.9,0,0,1-.546,1.368,1.791,1.791,0,0,1-1.344.568h-1.848a.3.3,0,0,0-.336.337v.589a.3.3,0,0,0,.336.337,2.264,2.264,0,0,1,1.638.652,2.315,2.315,0,0,1,.714,1.62,1.87,1.87,0,0,1,.378-.926,31.675,31.675,0,0,0,3.4-5.891,3.159,3.159,0,0,1,1.3-1.494,3.1,3.1,0,0,1,1.89-.442l1.512.126a1.693,1.693,0,0,1,1.47,2.23q-.084.253.21.253h6.93a2.367,2.367,0,0,1,2.352,2.356v.379a2.368,2.368,0,0,1-2.352,2.356h-9.2A.645.645,0,0,0,517.84,1443.722Zm-18.186-2.441v.589a.3.3,0,0,0,.336.337h2.016a.3.3,0,0,0,.336-.337v-.589a.3.3,0,0,0-.336-.337H499.99A.3.3,0,0,0,499.654,1441.281Zm0,3.871v.547a.3.3,0,0,0,.336.337h4.368q.378,0,.378-.337v-.547a.334.334,0,0,0-.378-.379H499.99Q499.654,1444.774,499.654,1445.153Zm0,3.829v.589a.3.3,0,0,0,.336.337h2.016a.3.3,0,0,0,.336-.337v-.589a.3.3,0,0,0-.336-.337H499.99A.3.3,0,0,0,499.654,1448.982Zm20.286,6.817q0-.379-.336-.379H503.14q-.336,0-.336.379v.379q0,.379.336.379H519.6q.336,0,.336-.379Zm-17.136,3.535v.379q0,.379.336.379H519.6q.336,0,.336-.379v-.379q0-.379-.336-.379H503.14Q502.8,1458.954,502.8,1459.333Zm.336,4.292H519.6q.336,0,.336-.379v-.379a.3.3,0,0,0-.336-.338H503.14a.3.3,0,0,0-.336.338v.379Q502.8,1463.625,503.14,1463.625Zm20.5,4q0-.337-.294-.337h-3.948a.3.3,0,0,0-.336.337v1.094c0,.478.084.75.252.821a8.9,8.9,0,0,0,1.932.105,3.935,3.935,0,0,0,1.89-.273Q523.51,1469.1,523.636,1467.623Z" transform="translate(-450.556 -1435.715)" fill="#fff"/>
        </g>
      </g>
    </g>
  </g>
</svg>
