<svg xmlns="http://www.w3.org/2000/svg" width="56.995" height="34.569" viewBox="0 0 56.995 34.569">
  <g id="グループ_3420" data-name="グループ 3420" transform="translate(-1083.156 -672.769)">
    <g id="グループ_2214" data-name="グループ 2214">
      <path id="パス_3301" data-name="パス 3301" d="M1127.681,676.705a.811.811,0,0,1,1-.618,13.139,13.139,0,0,1,9.716,11.281.814.814,0,1,1-1.62.155,11.514,11.514,0,0,0-8.5-9.858.822.822,0,0,1-.595-.96Z" fill="#fff"/>
      <g id="グループ_2213" data-name="グループ 2213">
        <path id="パス_3302" data-name="パス 3302" d="M1134.9,686.791l2.181,3.7a.326.326,0,0,0,.548.02l2.468-3.54a.326.326,0,0,0-.257-.512l-4.649-.154A.326.326,0,0,0,1134.9,686.791Z" fill="#fff"/>
      </g>
    </g>
    <g id="グループ_2216" data-name="グループ 2216">
      <path id="パス_3303" data-name="パス 3303" d="M1097.66,703.393a.811.811,0,0,1-.831.828,13.139,13.139,0,0,1-12.021-8.786.814.814,0,0,1,1.544-.518,11.512,11.512,0,0,0,10.511,7.675.821.821,0,0,1,.8.8Z" fill="#fff"/>
      <g id="グループ_2215" data-name="グループ 2215">
        <path id="パス_3304" data-name="パス 3304" d="M1088.281,695.175l-2.962-3.1a.326.326,0,0,0-.538.1l-1.6,4.007a.325.325,0,0,0,.365.44l4.564-.9A.326.326,0,0,0,1088.281,695.175Z" fill="#fff"/>
      </g>
    </g>
    <g id="グループ_2218" data-name="グループ 2218">
      <g id="グループ_2217" data-name="グループ 2217">
        <path id="パス_3305" data-name="パス 3305" d="M1088.772,679.375a.88.88,0,0,1-.369-.648.93.93,0,0,1,.207-.72l.27-.288a1.076,1.076,0,0,1,.684-.387.98.98,0,0,1,.756.189q.81.63,1.746,1.4a.974.974,0,0,1,.36.693,1,1,0,0,1-.234.747l-.288.36a.961.961,0,0,1-1.368.108Q1089.564,679.987,1088.772,679.375Zm2.88,3.06.414.162a1.059,1.059,0,0,1,.594.522,1.011,1.011,0,0,1,.072.792,23.319,23.319,0,0,1-1.782,4.284.9.9,0,0,1-.6.459.928.928,0,0,1-.746-.117l-.523-.324a.971.971,0,0,1-.459-.63,1.047,1.047,0,0,1,.1-.774,25.768,25.768,0,0,0,1.675-3.762.994.994,0,0,1,.5-.576A.921.921,0,0,1,1091.652,682.435Zm10.117,3.366a.043.043,0,0,0-.046.036.044.044,0,0,0,.027.054,8.576,8.576,0,0,0,2.16.918.842.842,0,0,1,.549.459.763.763,0,0,1,.009.693l-.162.342a1.2,1.2,0,0,1-.576.593.966.966,0,0,1-.792.055,8.458,8.458,0,0,1-3.978-2.862.112.112,0,0,0-.18,0,9.8,9.8,0,0,1-4.626,2.9,1.105,1.105,0,0,1-.828-.072,1.3,1.3,0,0,1-.594-.594l-.144-.306a.711.711,0,0,1-.009-.684.79.79,0,0,1,.531-.433,8.956,8.956,0,0,0,2.592-1.025.061.061,0,0,0,.018-.045c0-.018-.012-.027-.035-.027h-2.107a1.008,1.008,0,0,1,0-2.016h3.582a.177.177,0,0,0,.18-.162,1.512,1.512,0,0,0,.036-.27.127.127,0,0,0-.144-.144h-3.4a.972.972,0,1,1,0-1.944h3.42a.128.128,0,0,0,.145-.144v-.234c0-.108-.049-.162-.145-.162h-2.862a.985.985,0,0,1-.99-.99V677.5a.985.985,0,0,1,.99-.99h.576a.143.143,0,0,0,.162-.162v-.234q0-.144-.162-.144h-1.151a.966.966,0,0,1-.6-.2.463.463,0,1,0-.566.4l-.271.342a.888.888,0,0,1-.675.351.966.966,0,0,1-.729-.243q-.4-.342-1.386-1.116a.88.88,0,0,1-.369-.649.928.928,0,0,1,.207-.719l.252-.306a1.039,1.039,0,0,1,.684-.378,1.015,1.015,0,0,1,.756.2q.972.721,1.4,1.08a.934.934,0,0,1,.323.469,1.015,1.015,0,0,1-.036-.234v-.036a1.016,1.016,0,0,1,1.009-1.008h1.169a.127.127,0,0,0,.144-.144.953.953,0,0,1,.972-.972h.558a.95.95,0,0,1,.684.279.927.927,0,0,1,.288.693.127.127,0,0,0,.144.144h2.25a.127.127,0,0,0,.144-.144.953.953,0,0,1,.972-.972h.558a.95.95,0,0,1,.684.279.927.927,0,0,1,.288.693q0,.144.162.144h.738a1.014,1.014,0,0,1,1.008,1.008v.036a1.014,1.014,0,0,1-1.008,1.008h-.738q-.162,0-.162.144v.234a.143.143,0,0,0,.162.162h.45a.985.985,0,0,1,.991.99v2.232a.985.985,0,0,1-.991.99h-2.934q-.144,0-.144.162v.234a.127.127,0,0,0,.144.144h3.15a.95.95,0,0,1,.684.279.978.978,0,0,1,0,1.386.95.95,0,0,1-.684.279h-3.132q-.144,0-.144.162a1.482,1.482,0,0,0,.018.27.17.17,0,0,0,.18.144h3.258a.941.941,0,0,1,.7.3,1.022,1.022,0,0,1,0,1.422.941.941,0,0,1-.7.3Zm-4.321-6.786v-.828a.127.127,0,0,0-.144-.144H1096.1c-.108,0-.161.048-.161.144v.828a.142.142,0,0,0,.161.162h1.206Q1097.448,679.177,1097.448,679.015Zm2.556-2.5a.143.143,0,0,0,.162-.162v-.234q0-.144-.162-.144h-2.214q-.162,0-.162.144v.234a.143.143,0,0,0,.162.162Zm.144,2.5q0,.162.144.162h1.225c.1,0,.143-.054.143-.162v-.828a.127.127,0,0,0-.143-.144h-1.225a.127.127,0,0,0-.144.144Z" fill="#fff"/>
        <path id="パス_3306" data-name="パス 3306" d="M1107.528,684.469a.983.983,0,0,1-.99-.99v-.36a.984.984,0,0,1,.288-.711.94.94,0,0,1,.7-.3h5.886a.128.128,0,0,0,.145-.144.948.948,0,0,1,.278-.684.926.926,0,0,1,.693-.288h.45a.462.462,0,0,0,.27-.108h.019l.017-.018c.288-.181.72-.462,1.3-.847a.035.035,0,0,0,.019-.053.06.06,0,0,0-.055-.036h-6.372a1,1,0,0,1-.989-.846c-.025-.084-.073-.114-.145-.09a1.075,1.075,0,0,1-.342.054h-.719a.982.982,0,0,1-.711-.288.938.938,0,0,1-.3-.7v-2.628a.942.942,0,0,1,.3-.7.986.986,0,0,1,.711-.287h5.057q.144,0,.144-.162v-.5a1.014,1.014,0,0,1,1.008-1.008h.864a1.014,1.014,0,0,1,1.009,1.008v.5c0,.108.047.162.143.162h5.058a.989.989,0,0,1,.711.287.945.945,0,0,1,.3.7v2.628a.942.942,0,0,1-.3.7.985.985,0,0,1-.711.288h-.72a1.024,1.024,0,0,1-.324-.054q-.144-.036-.144.09a2.045,2.045,0,0,1-.756,1.494q-.918.756-1.89,1.44a.044.044,0,0,0-.027.054.043.043,0,0,0,.045.036h4.266a.94.94,0,0,1,.7.3.988.988,0,0,1,.288.711v.36a.983.983,0,0,1-.99.99H1116.6a.143.143,0,0,0-.163.162v2.088a9.472,9.472,0,0,1-.063,1.3,1.066,1.066,0,0,1-.414.685,1.6,1.6,0,0,1-.882.324q-.531.045-1.683.045-.576,0-1.926-.055a1.143,1.143,0,0,1-.747-.3,1,1,0,0,1-.333-.72l-.018-.324a.9.9,0,0,1,.252-.684.844.844,0,0,1,.685-.27q1.188.054,1.6.053a1.21,1.21,0,0,0,.568-.071c.053-.048.081-.2.081-.45v-1.62c0-.109-.049-.162-.145-.162Zm2.646-6.768h8.91a1.018,1.018,0,0,1,.324.054q.144.036.144-.09V676.8q0-.144-.162-.144h-9.539c-.109,0-.163.048-.163.144v.882q0,.108.144.072A1.073,1.073,0,0,1,1110.174,677.7Z" fill="#fff"/>
      </g>
    </g>
    <g id="グループ_2220" data-name="グループ 2220">
      <g id="グループ_2219" data-name="グループ 2219">
        <path id="パス_3307" data-name="パス 3307" d="M1103.266,706.636a.92.92,0,0,1-.54-.558.966.966,0,0,1,.036-.774,46.268,46.268,0,0,0,2.555-7.147c.025-.083-.017-.126-.126-.126q-.539.054-1.133.109a.947.947,0,0,1-.729-.235.976.976,0,0,1-.351-.683l-.018-.432a1.05,1.05,0,0,1,.936-1.116c.251-.025.594-.054,1.026-.09s.72-.061.864-.072q.126,0,.162-.18.252-1.26.432-2.52a1.087,1.087,0,0,1,.4-.693,1.029,1.029,0,0,1,.757-.225l.558.036a.974.974,0,0,1,.882,1.1q-.126.83-.36,2.161c-.024.083.018.125.126.125h.54q1.008,0,1.584.037a4.081,4.081,0,0,1,1.089.215,1.761,1.761,0,0,1,.737.433,2.187,2.187,0,0,1,.4.81,5.065,5.065,0,0,1,.207,1.206c.023.431.036,1.02.036,1.763a11.251,11.251,0,0,1-1.08,5.491,3.113,3.113,0,0,1-2.664,1.889,5.739,5.739,0,0,1-2.358-.683.96.96,0,0,1-.513-.6,1.1,1.1,0,0,1,.045-.819l.162-.4a.836.836,0,0,1,.558-.494,1,1,0,0,1,.755.063,2.218,2.218,0,0,0,.865.288.659.659,0,0,0,.5-.288,3.015,3.015,0,0,0,.441-.891,8.4,8.4,0,0,0,.333-1.675,21.407,21.407,0,0,0,.126-2.474,1.958,1.958,0,0,0-.225-1.179,1.562,1.562,0,0,0-1.071-.243c-.072,0-.408.011-1.008.036a.17.17,0,0,0-.18.143,48.421,48.421,0,0,1-2.934,8.389.989.989,0,0,1-.567.54,1.044,1.044,0,0,1-.784-.018Zm12.492-3.87q-.882-3.312-2.178-6.8a.942.942,0,0,1,.036-.766.932.932,0,0,1,.575-.495l.649-.216a1.007,1.007,0,0,1,.809.055,1.041,1.041,0,0,1,.54.594q1.188,3.24,2.179,6.983a.942.942,0,0,1-.108.757,1,1,0,0,1-.63.468l-.63.162a.963.963,0,0,1-.765-.108A.994.994,0,0,1,1115.758,702.766Z" fill="#fff"/>
        <path id="パス_3308" data-name="パス 3308" d="M1121.067,704.8a.926.926,0,0,1-.575-.495.939.939,0,0,1-.036-.765q1.26-3.312,2.124-6.48a.11.11,0,0,0-.027-.109.134.134,0,0,0-.1-.054q-.108,0-.342.009c-.156.007-.276.01-.36.01a1.042,1.042,0,0,1-.738-.288.95.95,0,0,1-.306-.721v-.413a1,1,0,0,1,.3-.721.953.953,0,0,1,.711-.3l1.386-.054a.17.17,0,0,0,.18-.144q.108-.468.323-1.44a1.1,1.1,0,0,1,.433-.684,1.045,1.045,0,0,1,.774-.2l.666.073a.9.9,0,0,1,.648.386.938.938,0,0,1,.162.73c-.1.431-.168.75-.216.954q-.036.126.108.126.054,0,1.368-.162a.869.869,0,0,1,.711.216.978.978,0,0,1,.351.684l.018.413a1.066,1.066,0,0,1-.937,1.153q-1.116.144-2.1.215a.176.176,0,0,0-.18.162,72.018,72.018,0,0,1-2.358,7.435,1.056,1.056,0,0,1-.531.594,1.036,1.036,0,0,1-.8.072Zm3.277-.918a3.106,3.106,0,0,1,1.1-2.485,4.605,4.605,0,0,1,3.079-.935,5.941,5.941,0,0,1,.954.071.072.072,0,0,0,.089-.026.153.153,0,0,0,.037-.1,16.147,16.147,0,0,1,.018-1.745.986.986,0,0,1,.342-.721,1.107,1.107,0,0,1,.756-.288h.738a.9.9,0,0,1,.675.3.949.949,0,0,1,.261.712q-.038.936.036,2.735v.126a.233.233,0,0,0,.126.216,21.958,21.958,0,0,1,2.628,1.962,1.009,1.009,0,0,1,.351.712,1.024,1.024,0,0,1-.243.746l-.378.433a.934.934,0,0,1-.684.35.944.944,0,0,1-.72-.243c-.42-.359-.775-.659-1.062-.9-.06-.036-.1-.012-.127.072a2.9,2.9,0,0,1-1.223,1.881,4.783,4.783,0,0,1-2.574.585,4.652,4.652,0,0,1-3.06-.927A3.113,3.113,0,0,1,1124.344,703.882Zm5.219-.864a3.825,3.825,0,0,0-1.206-.216,1.261,1.261,0,0,0-.89.3,1.008,1.008,0,0,0-.333.775,1.045,1.045,0,0,0,.333.809,1.257,1.257,0,0,0,.89.307,1.346,1.346,0,0,0,1.081-.324,2.67,2.67,0,0,0,.251-1.441A.211.211,0,0,0,1129.563,703.018Zm6.229-6.121a.952.952,0,0,1-.54.568,1.032,1.032,0,0,1-.792.026q-1.908-.7-3.4-1.134a1,1,0,0,1-.612-.485.923.923,0,0,1-.072-.757l.18-.521a1.083,1.083,0,0,1,.522-.621.988.988,0,0,1,.792-.081q1.476.414,3.546,1.152a.92.92,0,0,1,.558.53,1.041,1.041,0,0,1,.018.783Z" fill="#fff"/>
      </g>
    </g>
  </g>
</svg>
