<svg xmlns="http://www.w3.org/2000/svg" width="51.923" height="51.245" viewBox="0 0 51.923 51.245">
  <g id="グループ_3418" data-name="グループ 3418" transform="translate(-879.53 -664.811)">
    <circle id="楕円形_322" data-name="楕円形 322" cx="6.011" cy="6.011" r="6.011" transform="translate(899.072 677.926)" fill="none" stroke="#fff" stroke-miterlimit="10" stroke-width="3"/>
    <path id="パス_3290" data-name="パス 3290" d="M892.371,699.716c0-5.506,5.691-9.97,12.712-9.97s12.711,4.464,12.711,9.97Z" transform="translate(0 1)" fill="none" stroke="#fff" stroke-linejoin="round" stroke-width="3"/>
    <g id="グループ_2204" data-name="グループ 2204">
      <path id="パス_3291" data-name="パス 3291" d="M927.677,701.029a1.5,1.5,0,0,1-1.344-2.165c4.021-8.131,2.108-18.069-4.759-24.729-8.533-8.276-21.832-8.453-29.647-.4a1.5,1.5,0,0,1-2.155-2.088c8.967-9.245,24.172-9.094,33.89.332,7.807,7.573,9.961,18.911,5.36,28.214A1.5,1.5,0,0,1,927.677,701.029Z" fill="#fff"/>
      <g id="グループ_2203" data-name="グループ 2203">
        <path id="パス_3292" data-name="パス 3292" d="M924.507,696.756l-.138,6.586a.5.5,0,0,0,.7.47l6.084-2.627a.5.5,0,0,0,.079-.875l-5.946-3.96A.5.5,0,0,0,924.507,696.756Z" fill="#fff"/>
      </g>
    </g>
    <g id="グループ_2206" data-name="グループ 2206">
      <path id="パス_3293" data-name="パス 3293" d="M904.8,716.056l-.284,0a25.055,25.055,0,0,1-17.188-7.18c-7.806-7.571-9.96-18.909-5.359-28.214a1.5,1.5,0,1,1,2.689,1.33c-4.021,8.131-2.109,18.07,4.758,24.73a22.073,22.073,0,0,0,15.135,6.334,19.762,19.762,0,0,0,14.512-5.936,1.5,1.5,0,0,1,2.155,2.088A22.62,22.62,0,0,1,904.8,716.056Z" fill="#fff"/>
      <g id="グループ_2205" data-name="グループ 2205">
        <path id="パス_3294" data-name="パス 3294" d="M886.5,684.117l.251-6.714a.5.5,0,0,0-.7-.476l-6.218,2.739a.5.5,0,0,0-.075.874l5.967,3.974A.5.5,0,0,0,886.5,684.117Z" fill="#fff"/>
      </g>
    </g>
  </g>
</svg>
