<svg xmlns="http://www.w3.org/2000/svg" xmlns:xlink="http://www.w3.org/1999/xlink" width="132.42" height="142.71" viewBox="0 0 132.42 142.71">
  <defs>
    <clipPath id="clip-path">
      <rect id="長方形_1427" data-name="長方形 1427" width="132.42" height="142.71" fill="none"/>
    </clipPath>
  </defs>
  <g id="グループ_3268" data-name="グループ 3268" clip-path="url(#clip-path)">
    <path id="パス_28365" data-name="パス 28365" d="M114.878,66.362a11.862,11.862,0,0,1-6.578-9.283c-.421-2.828-.806-8.263,1.335-12.881a.876.876,0,0,1,1.121-.443,14.526,14.526,0,0,0,2.139.59,15.634,15.634,0,0,1,2.784.81,5.568,5.568,0,0,1,1.075.6,4.885,4.885,0,0,1,1.731,4.818,9.755,9.755,0,0,1-1.1,3,4.211,4.211,0,0,1,.819.262,5,5,0,0,1,2.574,2.634,7.743,7.743,0,0,1,.469,3.354,9.213,9.213,0,0,1,1.932-1.021,5.61,5.61,0,0,1,3.768-.119c.089.032.178.067.264.1a3.99,3.99,0,0,1,.6.322,6.7,6.7,0,0,1,2.067,2.586,2.523,2.523,0,0,1,.286,2.125c-.4,1.059-1.569,1.491-2.7,1.91-.227.083-.46.169-.681.258a16.826,16.826,0,0,1-5.895,1.327,14.1,14.1,0,0,1-5.781-.862c-.075-.03-.149-.062-.223-.094h0" fill="#fbdb80"/>
    <path id="パス_28366" data-name="パス 28366" d="M115.329,45.957a4.76,4.76,0,0,1,.909.509,4.072,4.072,0,0,1,1.384,3.97,12.057,12.057,0,0,1-1.757,4.036,2.933,2.933,0,0,1,1.988.167,4.138,4.138,0,0,1,2.113,2.164,9.592,9.592,0,0,1,.2,4.93,12.418,12.418,0,0,1,3.319-2.11,4.737,4.737,0,0,1,3.168-.114c.071.025.14.052.209.082a3.157,3.157,0,0,1,.468.253,5.891,5.891,0,0,1,1.777,2.271c1.085,2-.925,2.368-2.653,3.065a16.159,16.159,0,0,1-5.591,1.263,13.513,13.513,0,0,1-5.43-.8c-.068-.027-.136-.056-.2-.085-3.438-1.5-5.532-5.044-6.062-8.61-.588-3.952-.457-8.674,1.263-12.384,1.421.573,3.4.736,4.9,1.391m.7-1.6h0a16.294,16.294,0,0,0-2.941-.862,13.935,13.935,0,0,1-2-.548,1.75,1.75,0,0,0-2.241.887,19.722,19.722,0,0,0-1.654,6.695,29.79,29.79,0,0,0,.247,6.683,14.206,14.206,0,0,0,2.219,5.8,11.412,11.412,0,0,0,4.875,4.159c.081.035.163.069.245.1a14.93,14.93,0,0,0,6.132.926,17.66,17.66,0,0,0,6.2-1.39c.208-.084.426-.164.656-.249,1.255-.464,2.678-.989,3.217-2.423a3.346,3.346,0,0,0-.336-2.849,7.487,7.487,0,0,0-2.356-2.9,4.9,4.9,0,0,0-.728-.394c-.1-.045-.211-.087-.319-.126a6.5,6.5,0,0,0-4.367.122q-.4.15-.774.332a7.444,7.444,0,0,0-.513-2.175,5.9,5.9,0,0,0-2.972-3.078,9.352,9.352,0,0,0,.735-2.343,6.485,6.485,0,0,0-.2-3.006,5.2,5.2,0,0,0-1.874-2.659,6.4,6.4,0,0,0-1.242-.7" fill="#0b5106"/>
    <path id="パス_28367" data-name="パス 28367" d="M119.662,61.743a16.557,16.557,0,0,0,9.613.348,4.215,4.215,0,0,1,1.207-.187,1.16,1.16,0,0,1,1,.55c.566,1.173-2.937,5.1-3.725,6.028a28.642,28.642,0,0,1-6.348,5.509,30.1,30.1,0,0,1-16.13,4.8c1.061-6.42,2.094-12.845,3.184-19.261.423-2.492,1.787-3.813,4.136-1.907a23.472,23.472,0,0,0,7.063,4.124" fill="#a1d292"/>
    <path id="パス_28368" data-name="パス 28368" d="M104.247,79.66l.168-1.016q.531-3.21,1.055-6.421c.69-4.211,1.4-8.564,2.13-12.844.388-2.281,1.376-3.1,2.136-3.388,1.018-.383,2.166-.064,3.413.949a22.557,22.557,0,0,0,6.8,3.976,15.682,15.682,0,0,0,9.118.326l.1-.025a4.561,4.561,0,0,1,1.363-.187,2,2,0,0,1,1.742,1.043c.565,1.171-.423,3-3.645,6.741l-.2.235a29.436,29.436,0,0,1-6.543,5.678,31.077,31.077,0,0,1-16.6,4.934Zm6.9-21.938a1.079,1.079,0,0,0-.794-.094c-.456.172-.84.936-1.028,2.044-.726,4.275-1.439,8.626-2.128,12.834q-.442,2.694-.885,5.387a29.441,29.441,0,0,0,14.624-4.638,27.668,27.668,0,0,0,6.154-5.34l.209-.243c.484-.562,1.385-1.609,2.145-2.661a6.317,6.317,0,0,0,1.217-2.181.635.635,0,0,0-.226-.053,3.157,3.157,0,0,0-.849.138l-.1.025a17.366,17.366,0,0,1-10.107-.371l.285-.826-.285.826a24.236,24.236,0,0,1-7.329-4.271,4.051,4.051,0,0,0-.9-.576" fill="#0b5106"/>
    <path id="パス_28369" data-name="パス 28369" d="M111.124,44.739a14.513,14.513,0,0,1-1.374-5.59,26.133,26.133,0,0,0-.388-2.741,11.4,11.4,0,0,0-1.754-3.452c-.387-.6-.787-1.21-1.112-1.817-.183-.344-.369-.7-.565-1.086a19.215,19.215,0,0,0-2.987-4.692l-.063-.062-.05-.073c-2.614-3.873-5.489-7.891-9.334-10.732a30.393,30.393,0,0,0-5.982-3.345q-.3-.132-.6-.259c-1.087-.457-2.224-.9-3.475-1.341a15.528,15.528,0,0,0-2.278-.558.759.759,0,0,0,.545-.312l-1.4-1.05c1.1-1.46,2.316-3.037,3.817-4.677A5.467,5.467,0,0,1,87.912.877a4.1,4.1,0,0,1,1.751.357A6.888,6.888,0,0,1,91.937,2.95a12.5,12.5,0,0,1,2.276,3.539l.009.022c.019.044.044.1.065.147a1.722,1.722,0,0,0,.476-.141l.449-.187a14.83,14.83,0,0,1,3.443-1.117,5.981,5.981,0,0,1,3.262.354,4.334,4.334,0,0,1,1.134.715c1.707,1.5,1.791,3.821,1.485,6.072a22.128,22.128,0,0,1,3.832.225,8.672,8.672,0,0,1,2.24.591,4.326,4.326,0,0,1,1.856,1.45,5.57,5.57,0,0,1,.715,3.836,15.251,15.251,0,0,1-.722,3.277,6.369,6.369,0,0,1,2.5.032,5.2,5.2,0,0,1,.9.3,4.058,4.058,0,0,1,2.191,2.108c1.251,3.024-.828,6.361-2.346,8.8l-.081.131c.82.684,1.617,1.405,2.376,2.149a4.458,4.458,0,0,1,.981,1.26,3.435,3.435,0,0,1-.07,2.848c-1.068,2.407-4.311,4.876-6.7,5.784l-.715.271Z" fill="#fbdb80"/>
    <path id="パス_28370" data-name="パス 28370" d="M101.568,6.368a3.459,3.459,0,0,1,.906.57c1.688,1.483,1.429,4.135,1.027,6.346a21.292,21.292,0,0,1,4.74.159,8.055,8.055,0,0,1,2.019.528,3.451,3.451,0,0,1,1.489,1.152,4.726,4.726,0,0,1,.561,3.239,14.4,14.4,0,0,1-1.219,4.444,10.723,10.723,0,0,1,3.662-.191,4.366,4.366,0,0,1,.753.248,3.2,3.2,0,0,1,1.731,1.64c1.209,2.921-1.315,6.391-2.78,8.812a.3.3,0,0,0-.15.251l.15-.251.028-.014q1.512,1.214,2.9,2.571a3.668,3.668,0,0,1,.8,1.008,2.584,2.584,0,0,1-.078,2.12c-.968,2.18-4.035,4.495-6.212,5.321-1.354-2.5-1.091-5.388-1.677-8.1-.416-1.927-2.02-3.758-2.948-5.5-1-1.882-2.18-4.489-3.712-5.991-2.722-4.031-5.627-8.055-9.54-10.946a31.293,31.293,0,0,0-6.152-3.443c-.2-.09-.41-.177-.616-.264C86.09,9.6,84.914,9.146,83.73,8.724,83.5,8.641,81.155,7.95,81,8.153a58.834,58.834,0,0,1,3.762-4.611A4.733,4.733,0,0,1,87.936,1.75a3.243,3.243,0,0,1,1.378.285,6.073,6.073,0,0,1,1.977,1.5,11.671,11.671,0,0,1,2.118,3.292,1.4,1.4,0,0,0,.307.514.673.673,0,0,0,.187.121A1.641,1.641,0,0,0,95.1,7.325,16.489,16.489,0,0,1,98.79,6.077a5.086,5.086,0,0,1,2.778.291m.7-1.6a6.831,6.831,0,0,0-3.746-.416,15.509,15.509,0,0,0-3.646,1.174l-.118.049A13.331,13.331,0,0,0,92.583,2.36,7.728,7.728,0,0,0,90.012.431,4.958,4.958,0,0,0,87.889,0a6.291,6.291,0,0,0-4.415,2.359C81.948,4.028,80.712,5.625,79.6,7.1l2.8,2.1a1.6,1.6,0,0,1-1.283.661,16.841,16.841,0,0,1,2.03.51c1.233.44,2.352.872,3.423,1.321.2.085.4.17.6.255A29.549,29.549,0,0,1,92.978,15.2c3.733,2.759,6.557,6.709,9.129,10.518l.1.147.126.124a18.693,18.693,0,0,1,2.822,4.467c.2.385.385.748.571,1.1.342.641.753,1.272,1.15,1.882a10.86,10.86,0,0,1,1.632,3.159,25.185,25.185,0,0,1,.373,2.649,15.2,15.2,0,0,0,1.476,5.915l.729,1.345,1.429-.543c2.612-.991,6.016-3.6,7.191-6.247a4.308,4.308,0,0,0,.062-3.576,5.188,5.188,0,0,0-1.16-1.511c-.6-.584-1.214-1.154-1.848-1.7a21.909,21.909,0,0,0,1.927-3.7,7.18,7.18,0,0,0,.168-5.387,4.925,4.925,0,0,0-2.65-2.575,6.2,6.2,0,0,0-2.546-.51,16.122,16.122,0,0,0,.392-2.2,6.282,6.282,0,0,0-.87-4.432,5.185,5.185,0,0,0-2.222-1.749,9.52,9.52,0,0,0-2.463-.655,23.084,23.084,0,0,0-2.984-.24,11.274,11.274,0,0,0,0-1.782,5.854,5.854,0,0,0-1.886-4.066,5.2,5.2,0,0,0-1.362-.86" fill="#0b5106"/>
    <path id="パス_28371" data-name="パス 28371" d="M116.59,55.45c-.039-.192-.08-.385-.123-.576a26.655,26.655,0,0,0-2.3-6.843c-.368-.677-2.231-4.533-1.968-5.046,3.227-6.281,4.523-14.169-.015-20.2a46.544,46.544,0,0,0-4.842-4.794c-3.064-3.018-5.143-7.254-9.173-9.145A27.624,27.624,0,0,0,85.475,6.39c-9.053.362-19.264,4.868-23.446,13.107a18.493,18.493,0,0,0-.973,2.276,26.6,26.6,0,0,1-1.084,3.074c-1.156,2.339-3.1,3.693-4.079,6.25a17.364,17.364,0,0,0-1.041,8.967,14.115,14.115,0,0,0,6.323,9.672,42.5,42.5,0,0,0,.932,22.518C65.6,82.2,74.533,83.525,83.808,83.746a60.3,60.3,0,0,0,24.005-4.332c4.859-1.967,7.667-4.94,8.766-10.182a34.137,34.137,0,0,0,.011-13.782" fill="#a1d292"/>
    <path id="パス_28372" data-name="パス 28372" d="M70.194,82.345a15.786,15.786,0,0,1-8.912-9.8,43.634,43.634,0,0,1-1.1-22.416,15.13,15.13,0,0,1-6.193-9.923,18.221,18.221,0,0,1,1.088-9.421,13.785,13.785,0,0,1,2.332-3.722,14.557,14.557,0,0,0,1.78-2.6,13.046,13.046,0,0,0,.705-1.93c.1-.342.214-.7.337-1.045A19.647,19.647,0,0,1,61.249,19.1,23.386,23.386,0,0,1,71.52,9.215a33.526,33.526,0,0,1,13.921-3.7,28.283,28.283,0,0,1,13.1,2.536c2.851,1.337,4.756,3.731,6.6,6.045a35.965,35.965,0,0,0,2.817,3.268c.51.5,1.066,1,1.6,1.486a24.745,24.745,0,0,1,3.324,3.406,15.905,15.905,0,0,1,3.094,10.573,25.983,25.983,0,0,1-2.917,10.39,28.643,28.643,0,0,0,1.875,4.393,27.762,27.762,0,0,1,2.389,7.07q.064.3.126.591h0a35.194,35.194,0,0,1-.012,14.136c-1.117,5.328-3.983,8.663-9.294,10.814a61.49,61.49,0,0,1-24.354,4.4c-4.278-.1-9.208-.439-13.337-2.167l-.257-.109M97.225,9.379A27.087,27.087,0,0,0,85.511,7.265C77.233,7.6,67,11.629,62.81,19.893a17.879,17.879,0,0,0-.928,2.169c-.111.32-.211.642-.316.984a14.493,14.493,0,0,1-.809,2.189,16.029,16.029,0,0,1-1.979,2.916,12.216,12.216,0,0,0-2.068,3.261,16.463,16.463,0,0,0-.994,8.512,13.3,13.3,0,0,0,5.924,9.07l.54.338-.156.618a41.6,41.6,0,0,0,.909,22.015C66,80.705,73.2,82.618,83.829,82.872A59.731,59.731,0,0,0,107.485,78.6c4.777-1.934,7.241-4.791,8.238-9.551a33.412,33.412,0,0,0,.011-13.427q-.059-.282-.12-.562a26.2,26.2,0,0,0-2.218-6.615c-.182-.336-.756-1.5-1.255-2.656-.914-2.121-.96-2.744-.723-3.207,1.778-3.459,5.342-12.262.065-19.277a23.4,23.4,0,0,0-3.1-3.156c-.552-.5-1.122-1.01-1.66-1.54a37.659,37.659,0,0,1-2.959-3.425c-1.8-2.257-3.492-4.388-5.972-5.551q-.282-.132-.57-.258" fill="#0b5106"/>
    <path id="パス_28373" data-name="パス 28373" d="M74.475,48.973a12.293,12.293,0,0,0-7.959,5.8c-2.691,4.811-2.321,11.306-.464,16.354a12.067,12.067,0,0,0,1.421,2.83c1.934,2.726,5.257,3.91,8.441,4.223a21.484,21.484,0,0,0,6.962-.458c3.114-.726,5-3.258,5.952-6.438a26.328,26.328,0,0,0,.787-7.9,27.153,27.153,0,0,0-.844-7.219c-2.007-6.871-8.138-8.626-14.3-7.193" fill="#c4e0b3"/>
    <path id="パス_28374" data-name="パス 28374" d="M38.523,119.363a16.076,16.076,0,0,0-3.662,9.477c-.256,2.819.118,6.07,2.393,7.754s5.635,1.035,7.783-.783a8.251,8.251,0,0,0,7.767,6.022c3.526-.086,6.8-3.272,6.634-6.8,2.961.756,6.2-1.238,7.34-4.074,3.044-7.592-4.627-16.248-12.133-17.229-5.625-.735-12.271,1.411-16.122,5.629" fill="#e77567"/>
    <path id="パス_28375" data-name="パス 28375" d="M37.826,137.927a5.557,5.557,0,0,1-1.092-.63c-2.726-2.017-3-5.756-2.744-8.536.385-4.224,1.692-7.584,3.887-9.988a18.6,18.6,0,0,1,7.759-4.909,20.589,20.589,0,0,1,9.123-1,15.229,15.229,0,0,1,6.675,2.714A17.5,17.5,0,0,1,66.481,121a11.572,11.572,0,0,1,1.109,10.289,7.613,7.613,0,0,1-7.315,4.766,7.284,7.284,0,0,1-1.966,4.1,7.849,7.849,0,0,1-5.484,2.557,9.063,9.063,0,0,1-8.219-5.508,8.353,8.353,0,0,1-3.307,1.18,6.6,6.6,0,0,1-3.473-.453m1.343-17.974h0c-1.931,2.115-3.087,5.132-3.436,8.966-.174,1.911-.14,5.357,2.042,6.972,2.014,1.492,4.953.727,6.7-.748l1.039-.879.368,1.31a7.422,7.422,0,0,0,6.9,5.385,6.175,6.175,0,0,0,4.245-2,5.351,5.351,0,0,0,1.536-3.88l-.055-1.182,1.146.293a5.739,5.739,0,0,0,6.311-3.552,9.866,9.866,0,0,0-1-8.754A15.206,15.206,0,0,0,54.532,114.6c-5.511-.72-11.829,1.481-15.363,5.351" fill="#0b5106"/>
    <path id="パス_28376" data-name="パス 28376" d="M35.107,135.209a11.584,11.584,0,0,1-.982-6.436c.382-4.193,1.678-7.527,3.852-9.908a18.457,18.457,0,0,1,7.7-4.873A20.461,20.461,0,0,1,54.741,113a15.116,15.116,0,0,1,6.616,2.691,17.355,17.355,0,0,1,5.007,5.377,11.438,11.438,0,0,1,1.1,10.17,7.453,7.453,0,0,1-7.31,4.67,7.122,7.122,0,0,1-1.945,4.15,7.715,7.715,0,0,1-5.387,2.514A9.044,9.044,0,0,1,44.669,137a8.231,8.231,0,0,1-3.387,1.245,6.147,6.147,0,0,1-4.468-1.057,6.017,6.017,0,0,1-1.707-1.98m3.962-15.347c-1.952,2.138-3.119,5.181-3.471,9.046-.216,2.368-.027,5.521,2.1,7.092,2.07,1.533,5.082.756,6.865-.753a.739.739,0,0,1,1.189.364,7.564,7.564,0,0,0,7.038,5.484,6.231,6.231,0,0,0,4.341-2.043,5.491,5.491,0,0,0,1.573-3.979.74.74,0,0,1,.921-.752c2.465.63,5.429-1.034,6.471-3.632a10,10,0,0,0-1-8.873,15.353,15.353,0,0,0-10.539-7.348C49,113.742,42.631,115.96,39.069,119.862Z" fill="#0b5106"/>
    <path id="パス_28377" data-name="パス 28377" d="M44,117.857a8.59,8.59,0,0,0-1.957,5.066c-.138,1.508.062,3.245,1.279,4.146a3.475,3.475,0,0,0,4.16-.419,4.412,4.412,0,0,0,4.153,3.22,3.693,3.693,0,0,0,3.546-3.634,3.521,3.521,0,0,0,3.924-2.178c1.628-4.058-2.474-8.686-6.486-9.21A10.4,10.4,0,0,0,44,117.857" fill="#fbdb80"/>
    <path id="パス_28378" data-name="パス 28378" d="M24.081,100.167a9.972,9.972,0,0,0,2.955,6.007,10.838,10.838,0,0,0,5.256,2.271,41.857,41.857,0,0,0,7.552.571c8.393.061,16.953-.569,24.727-3.807a7.768,7.768,0,0,0,3.772-2.69,8.485,8.485,0,0,0,.91-4.772,52.279,52.279,0,0,0-.934-8.762,7.82,7.82,0,0,0-1.287-3.42c-1.359-1.724-3.749-2.019-5.888-2.132a112.775,112.775,0,0,0-28.976,2.022,13.149,13.149,0,0,0-5.813,2.3c-3.024,2.478-2.822,8.827-2.274,12.408" fill="#d0d2d3"/>
    <path id="パス_28379" data-name="パス 28379" d="M28.877,108.347a9.068,9.068,0,0,1-2.421-1.517,10.823,10.823,0,0,1-3.24-6.53C22.862,97.986,22,90.195,25.8,87.083A13.878,13.878,0,0,1,31.989,84.6a113.8,113.8,0,0,1,29.2-2.039c2.487.131,5,.521,6.529,2.464a8.631,8.631,0,0,1,1.459,3.8,53.278,53.278,0,0,1,.95,8.908,9.25,9.25,0,0,1-1.047,5.262,8.505,8.505,0,0,1-4.173,3.026c-8.484,3.535-17.854,3.928-25.07,3.875a42.894,42.894,0,0,1-7.709-.586,15.262,15.262,0,0,1-3.251-.958m-3.932-8.312a9.1,9.1,0,0,0,2.67,5.484,9.817,9.817,0,0,0,4.84,2.067,41.392,41.392,0,0,0,7.394.556c7.05.051,16.193-.328,24.385-3.741a7,7,0,0,0,3.371-2.352,7.787,7.787,0,0,0,.773-4.283,51.492,51.492,0,0,0-.919-8.615,7.063,7.063,0,0,0-1.115-3.044c-1.1-1.4-3.172-1.69-5.247-1.8a112.107,112.107,0,0,0-28.751,2,12.45,12.45,0,0,0-5.437,2.125c-2.452,2.009-2.591,7.5-1.964,11.6" fill="#0b5106"/>
    <path id="パス_28380" data-name="パス 28380" d="M24.386,104.5a12.743,12.743,0,0,1-1.365-4.17c-.358-2.34-1.225-10.222,2.654-13.4A14.058,14.058,0,0,1,31.949,84.4,114.058,114.058,0,0,1,61.2,82.362c2.533.134,5.095.535,6.674,2.539a8.8,8.8,0,0,1,1.5,3.881,53.472,53.472,0,0,1,.953,8.942,9.418,9.418,0,0,1-1.078,5.372,8.666,8.666,0,0,1-4.263,3.1c-8.517,3.548-17.914,3.942-25.148,3.89a43.08,43.08,0,0,1-7.745-.59,11.649,11.649,0,0,1-5.765-2.521,9.118,9.118,0,0,1-1.94-2.478m.755-4.5a8.9,8.9,0,0,0,2.606,5.366,9.634,9.634,0,0,0,4.746,2.021,41.215,41.215,0,0,0,7.358.552c7.032.051,16.149-.326,24.308-3.725a6.843,6.843,0,0,0,3.28-2.276,7.627,7.627,0,0,0,.742-4.172,51.413,51.413,0,0,0-.915-8.583,6.915,6.915,0,0,0-1.077-2.959c-1.051-1.334-3.073-1.618-5.1-1.725a111.889,111.889,0,0,0-28.7,2,12.271,12.271,0,0,0-5.352,2.084c-2.388,1.956-2.513,7.373-1.894,11.416" fill="#0b5106"/>
    <path id="パス_28381" data-name="パス 28381" d="M4.381,85.555a25.063,25.063,0,0,1-2.238-5.666C.607,74.015,1.029,67.9,1.545,62.632a213.467,213.467,0,0,1,3.769-24.1A74.381,74.381,0,0,1,10,23.269a40.617,40.617,0,0,1,3.184-5.723C17.459,11.191,24.274,6.633,32.9,4.364c5.776-1.519,14.381-2.088,21.211.871,5.46,2.365,9.006,7.532,11.755,12.274.211.366.438.762.712,1.248.464.824.929,1.662,1.381,2.49a206.641,206.641,0,0,1,14.69,33.716c2.214,6.662,3.626,12.3,3.317,18.148A22.386,22.386,0,0,1,77.415,90.09c-4.992,3.728-11.494,5.034-17.778,5.891a174.82,174.82,0,0,1-31.006,1.437c-5.375-.231-10.993-.782-15.662-3.231a20.96,20.96,0,0,1-8.588-8.632" fill="#f2f2f3"/>
    <path id="パス_28382" data-name="パス 28382" d="M13.96,95.63q-.709-.309-1.4-.669a21.827,21.827,0,0,1-8.95-8.988A25.942,25.942,0,0,1,1.3,80.11C-.276,74.1.151,67.891.675,62.546a214.242,214.242,0,0,1,3.784-24.2A75.195,75.195,0,0,1,9.209,22.9a41.549,41.549,0,0,1,3.253-5.847c4.391-6.534,11.38-11.216,20.212-13.539,5.917-1.557,14.746-2.134,21.78.914l.032.013C60.161,6.917,63.8,12.213,66.619,17.07c.214.37.442.77.717,1.257.465.825.932,1.666,1.387,2.5A207.586,207.586,0,0,1,83.475,54.686c2.245,6.757,3.676,12.483,3.36,18.47a23.253,23.253,0,0,1-8.9,17.634c-5.151,3.847-11.783,5.184-18.183,6.057a175.816,175.816,0,0,1-31.162,1.445c-4.956-.213-10.122-.7-14.633-2.662M53.787,6.049l-.028-.012c-6.625-2.87-15.006-2.309-20.64-.828-8.414,2.214-15.055,6.649-19.2,12.824a39.641,39.641,0,0,0-3.115,5.6A73.523,73.523,0,0,0,6.169,38.714a212.828,212.828,0,0,0-3.753,24c-.509,5.194-.926,11.215.573,16.95a24.223,24.223,0,0,0,2.16,5.468,20.089,20.089,0,0,0,8.226,8.277c4.517,2.368,10.02,2.9,15.293,3.132a173.927,173.927,0,0,0,30.851-1.431c6.167-.84,12.54-2.116,17.372-5.724a21.513,21.513,0,0,0,8.2-16.325c.3-5.713-1.09-11.258-3.273-17.826A205.725,205.725,0,0,0,67.187,21.666c-.451-.828-.914-1.662-1.375-2.48-.271-.481-.5-.875-.707-1.24C62.433,13.336,59,8.319,53.787,6.049" fill="#0b5106"/>
    <path id="パス_28383" data-name="パス 28383" d="M67.013,21.761A204.9,204.9,0,0,1,81.626,55.3c1.917,5.768,3.583,11.714,3.264,17.753s-2.865,12.254-8.118,16.177C72,92.8,65.628,94.081,59.492,94.918a173.555,173.555,0,0,1-30.816,1.429c-5.264-.227-10.7-.746-15.21-3.11a19.851,19.851,0,0,1-8.144-8.2A24,24,0,0,1,3.18,79.617c-1.436-5.49-1.121-11.237-.568-16.88a211.713,211.713,0,0,1,3.75-23.981,72.653,72.653,0,0,1,4.617-15.041,39.178,39.178,0,0,1,3.1-5.571C18.441,11.651,25.3,7.473,33.169,5.4c6.29-1.654,14.434-1.814,20.511.818,5.189,2.247,8.633,7.307,11.253,11.827.242.418.477.832.707,1.238q.694,1.233,1.373,2.477M68.9,20.735l-1.883,1.028L68.9,20.734c-.456-.834-.923-1.676-1.389-2.5-.277-.49-.505-.89-.718-1.259a45.755,45.755,0,0,0-4.9-7.1A20.627,20.627,0,0,0,54.532,4.25c-7.081-3.067-15.96-2.488-21.909-.923C23.744,5.663,16.716,10.373,12.3,16.947a41.647,41.647,0,0,0-3.269,5.876A75.317,75.317,0,0,0,4.265,38.305,214.65,214.65,0,0,0,.477,62.528c-.525,5.361-.953,11.587.628,17.632a26.116,26.116,0,0,0,2.334,5.908,22.031,22.031,0,0,0,9.031,9.069c4.857,2.546,10.615,3.116,16.114,3.352a175.84,175.84,0,0,0,31.2-1.446c6.426-.876,13.088-2.22,18.275-6.094a23.452,23.452,0,0,0,8.976-17.782,36.938,36.938,0,0,0-.835-9.528,81.147,81.147,0,0,0-2.535-9.014A207.64,207.64,0,0,0,68.9,20.735" fill="#0b5106"/>
    <path id="パス_28384" data-name="パス 28384" d="M60.005,35.358c.437,6.564,3.666,13.235,9.44,16.388a8.684,8.684,0,0,1,2.889,1.965,6.776,6.776,0,0,1,.866,1.681l1.547,3.846a21.134,21.134,0,0,1,2,7.635c.013,2.423-.805,4.761-1.325,7.127s-.716,4.968.445,7.1,4.1,3.406,6.122,2.074c1.767-1.163,2.072-3.594,2.116-5.71A77.218,77.218,0,0,0,80.9,53.8c-3.381-11.321-9.869-21.072-14.258-31.907a3.722,3.722,0,0,0-.863-1.447,2.362,2.362,0,0,0-3.137.322c-1.208,1.262-1.67,4.474-2.01,6.169a32.036,32.036,0,0,0-.632,8.425" fill="#e7e8e8"/>
    <path id="パス_28385" data-name="パス 28385" d="M35.769,34.3l-.064.016c-6.269,1.6-11.273,7.844-12.534,14.008-1.19,5.818-.554,12.328,3.187,16.939A17.263,17.263,0,0,0,38.963,71.28a28.709,28.709,0,0,0,12.648-2.313c3.537-1.578,5.127-4.022,7.047-7.155A17.419,17.419,0,0,0,60.876,52.7a20.336,20.336,0,0,0-7.321-16.129,15.083,15.083,0,0,0-9.841-3.157,34.38,34.38,0,0,0-7.945.892" fill="#bee0e9"/>
    <path id="パス_28386" data-name="パス 28386" d="M23.9,63.506c-2.3-4.209-2.95-9.656-1.776-15.393a20.687,20.687,0,0,1,4.629-9.2,17.307,17.307,0,0,1,8.691-5.629l.066-.016h0a35.2,35.2,0,0,1,8.2-.924,16.076,16.076,0,0,1,10.533,3.4A21.457,21.457,0,0,1,61.948,52.7a18.33,18.33,0,0,1-2.375,9.673c-1.83,2.985-3.558,5.805-7.525,7.574a29.647,29.647,0,0,1-13.132,2.406,18.389,18.389,0,0,1-13.391-6.41A16.182,16.182,0,0,1,23.9,63.506M36.031,35.344l-.06.015c-5.534,1.412-10.476,6.957-11.75,13.184-1.071,5.236-.5,10.168,1.554,13.929a14.067,14.067,0,0,0,1.416,2.119A16.214,16.214,0,0,0,39.01,70.209a27.469,27.469,0,0,0,12.164-2.221c3.134-1.4,4.572-3.478,6.57-6.737A16.247,16.247,0,0,0,59.8,52.7a19.345,19.345,0,0,0-6.93-15.3,14.151,14.151,0,0,0-9.15-2.912,33.09,33.09,0,0,0-7.692.859" fill="#0b5106"/>
    <path id="パス_28387" data-name="パス 28387" d="M31.782,103.465a7.416,7.416,0,0,1-.627-3.759,1.073,1.073,0,1,1,2.145.043,4.912,4.912,0,0,0,.488,2.886,1.072,1.072,0,0,1-1.746,1.246,4.277,4.277,0,0,1-.26-.416" fill="#0b5106"/>
    <path id="パス_28388" data-name="パス 28388" d="M48.227,103.282a1.08,1.08,0,0,1-.126-.416,22.451,22.451,0,0,0-.655-3.7,1.072,1.072,0,0,1,2.073-.55,24.476,24.476,0,0,1,.718,4.056,1.073,1.073,0,0,1-2.01.611" fill="#0b5106"/>
    <path id="パス_28389" data-name="パス 28389" d="M62.075,101a1.067,1.067,0,0,1-.117-.685,6.941,6.941,0,0,0-.57-3.141,1.072,1.072,0,1,1,2.029-.694,8.66,8.66,0,0,1,.658,4.178,1.072,1.072,0,0,1-2,.342" fill="#0b5106"/>
    <path id="パス_28390" data-name="パス 28390" d="M64.934,18.046A100.172,100.172,0,0,1,48.518,21q-6.031.7-12.082,1.24-11.142.991-22.326,1.428a21.832,21.832,0,0,1-3.13.052,39.188,39.188,0,0,1,3.1-5.572C18.442,11.65,25.3,7.472,33.169,5.4,39.46,3.746,47.6,3.586,53.68,6.218c5.189,2.248,8.634,7.308,11.254,11.828" fill="#e77567"/>
    <path id="パス_28391" data-name="パス 28391" d="M11.565,34a2.142,2.142,0,0,1-.206-1.514A30.646,30.646,0,0,1,30.419,11a2.145,2.145,0,0,1,1.464,4.032A26.444,26.444,0,0,0,15.537,33.46a2.145,2.145,0,0,1-3.972.54" fill="#fff"/>
    <path id="パス_28392" data-name="パス 28392" d="M8.447,47.558a2.143,2.143,0,0,1-.235-1.364l.906-5.679a2.145,2.145,0,0,1,4.236.676l-.9,5.679a2.145,2.145,0,0,1-4,.688" fill="#fff"/>
    <path id="パス_28393" data-name="パス 28393" d="M55.735,62.007a16.329,16.329,0,0,1-4.774,4.387,17.765,17.765,0,0,1-15.374,1.529A16.4,16.4,0,0,1,25.516,56.336a15.37,15.37,0,0,1,1.216-9.819c.568-1.177,1.744-3.617,3.008-4.18,1.68-.749,2.972.972,4.405,2.059q11.1,8.428,21.59,17.611" fill="#dcf1f8"/>
    <path id="パス_28394" data-name="パス 28394" d="M70.14,11.017c-6.037,3.715-8.271,12.216-8.188,18.8.061,4.874.523,9.656,3.625,13.61,3.646,4.648,11.452,6.515,17,5.082" fill="#a1d292"/>
    <path id="パス_28395" data-name="パス 28395" d="M70.605,48.193a14.64,14.64,0,0,1-5.716-4.229c-3.408-4.344-3.754-9.576-3.812-14.139a29.943,29.943,0,0,1,1.857-10.8,17.2,17.2,0,0,1,6.747-8.756.875.875,0,1,1,.917,1.49C64.74,15.368,62.75,23.734,62.827,29.8c.053,4.277.368,9.167,3.438,13.081a12.78,12.78,0,0,0,5.006,3.709,18.055,18.055,0,0,0,11.09,1.066.875.875,0,0,1,.437,1.694,19.228,19.228,0,0,1-9.67-.265,19.558,19.558,0,0,1-2.523-.9" fill="#0b5106"/>
    <path id="パス_28396" data-name="パス 28396" d="M102.7,21.5a9.322,9.322,0,0,1,7.347,1.171,10.064,10.064,0,0,1,3.863,8.625,8.7,8.7,0,0,1-3.6,6.235,10.281,10.281,0,0,1-8.359,1.856,8.619,8.619,0,0,1-6.6-5.28,8.964,8.964,0,0,1-.409-4.676A10.334,10.334,0,0,1,102.7,21.5" fill="#e77567"/>
    <path id="パス_28397" data-name="パス 28397" d="M110.969,25.12a2.538,2.538,0,0,1-2.708,4.007,3.458,3.458,0,0,1-2.205-2.845,2.438,2.438,0,0,1,.119-1.411,2.232,2.232,0,0,1,.567-.718c1.366-1.2,3.212-.32,4.227.967" fill="#fff"/>
    <path id="パス_28398" data-name="パス 28398" d="M104.281,24.151a1.641,1.641,0,0,1-1.751,2.59,2.235,2.235,0,0,1-1.425-1.839,1.573,1.573,0,0,1,.077-.912,1.422,1.422,0,0,1,.367-.464c.883-.775,2.076-.207,2.732.625" fill="#fff"/>
    <path id="パス_28399" data-name="パス 28399" d="M80.041,24.635a3.364,3.364,0,0,1,.02.411,2.618,2.618,0,0,1-5.2.585,3.28,3.28,0,0,1-.074-.427,2.664,2.664,0,1,1,5.256-.569" fill="#0b5106"/>
    <path id="パス_28400" data-name="パス 28400" d="M96.251,22.878a3.366,3.366,0,0,1,.02.411,2.618,2.618,0,0,1-5.2.585A3.281,3.281,0,0,1,91,23.447a2.664,2.664,0,1,1,5.256-.569" fill="#0b5106"/>
    <path id="パス_28401" data-name="パス 28401" d="M84.651,31.149a3.819,3.819,0,0,1-2.14-3.1.875.875,0,0,1,1.741-.172,1.818,1.818,0,0,0,1.654,1.771,2.6,2.6,0,0,0,.94-.155,1.592,1.592,0,0,0,.761-.771,2.724,2.724,0,0,0,.239-1.268.874.874,0,1,1,1.748-.054,4.465,4.465,0,0,1-.414,2.088A3.317,3.317,0,0,1,87.54,31.1a4.217,4.217,0,0,1-1.591.3,3.039,3.039,0,0,1-1.3-.251" fill="#0b5106"/>
    <path id="パス_28402" data-name="パス 28402" d="M89.743,60.069a18.911,18.911,0,0,1-5.906.588,7.93,7.93,0,0,1-5.267-2.471,5.076,5.076,0,0,1-.837-5.543A2.79,2.79,0,0,1,78.9,51.429a4.7,4.7,0,0,1,2.3-.245,23.259,23.259,0,0,0,7.358-1.075" fill="#a1d292"/>
    <path id="パス_28403" data-name="パス 28403" d="M80.682,60.754a7.723,7.723,0,0,1-2.773-2,5.94,5.94,0,0,1-.947-6.528,3.642,3.642,0,0,1,1.546-1.585,4.981,4.981,0,0,1,2.524-.345l.2.009a22.169,22.169,0,0,0,7.081-1.041A.875.875,0,0,1,88.8,50.95a23.817,23.817,0,0,1-7.636,1.108l-.209-.009a3.581,3.581,0,0,0-1.667.163,1.966,1.966,0,0,0-.783.843,4.221,4.221,0,0,0,.726,4.558,6.991,6.991,0,0,0,4.69,2.173,18.158,18.158,0,0,0,5.631-.571.875.875,0,1,1,.382,1.708,19.733,19.733,0,0,1-6.181.6,10.12,10.12,0,0,1-3.071-.774" fill="#0b5106"/>
    <path id="パス_28404" data-name="パス 28404" d="M89.12,73.225c-2.916-.412-6.9.069-9.416,1.721-2.674,1.755-2.624,6.153.355,7.608a11.78,11.78,0,0,0,6.427.992" fill="#a1d292"/>
    <path id="パス_28405" data-name="パス 28405" d="M80.068,83.521c-.133-.058-.264-.118-.393-.181a5.026,5.026,0,0,1-2.78-4.281,5.362,5.362,0,0,1,2.328-4.845c2.834-1.86,7.074-2.272,10.019-1.855A.875.875,0,1,1,89,74.091c-2.535-.359-6.375-.015-8.813,1.586a3.608,3.608,0,0,0-1.543,3.271,3.257,3.257,0,0,0,1.8,2.82,10.988,10.988,0,0,0,5.929.911.874.874,0,0,1,.228,1.734,12.752,12.752,0,0,1-6.532-.892" fill="#0b5106"/>
    <path id="パス_28406" data-name="パス 28406" d="M68.616,25.515a6.126,6.126,0,0,0-4.455,3.6,12.272,12.272,0,0,0,.292,9.055A7.741,7.741,0,0,0,68.88,42.5,5.855,5.855,0,0,0,75,41.251a8.3,8.3,0,0,0,2.609-7.014,11.2,11.2,0,0,0-1.269-4.325c-2.027-3.692-5.533-4.938-7.721-4.4" fill="#e77567"/>
    <path id="パス_28407" data-name="パス 28407" d="M64.362,31.626a3.12,3.12,0,0,0,.912,2.715,1.548,1.548,0,0,0,2.191-.073,3.853,3.853,0,0,0,.516-3.31,2.869,2.869,0,0,0-.543-1.22,1.763,1.763,0,0,0-.609-.445c-1.3-.6-2.221.829-2.467,2.333" fill="#fff"/>
    <path id="パス_28408" data-name="パス 28408" d="M68.45,28.435a2.018,2.018,0,0,0,.59,1.755,1,1,0,0,0,1.416-.047A2.493,2.493,0,0,0,70.79,28a1.865,1.865,0,0,0-.351-.789,1.143,1.143,0,0,0-.394-.287c-.837-.387-1.436.536-1.6,1.508" fill="#fff"/>
    <path id="パス_28409" data-name="パス 28409" d="M123.955,97.86c-.31-.29-.64-.57-.95-.84a11.352,11.352,0,0,1-2.44-2.64,11.65,11.65,0,0,1-.65-1.5c-.12-.32-.25-.66-.39-1a11.261,11.261,0,0,0-4.13-4.83.954.954,0,0,0-.46-.17,1.072,1.072,0,0,0-.98.48,1.039,1.039,0,0,0-.02,1.1l.05.08-.02.1a19.118,19.118,0,0,1-2.54,4.92,11.629,11.629,0,0,1-5.08,3.14c-3.96,1.45-8.63,1.76-13.17,2.07-1.69.11-3.44.23-5.09.41a17.673,17.673,0,0,0-6.11,1.42c-2.29,1.14-4.22,3.26-5.92,6.48-2.18,4.15-2.98,8.03-2.39,11.54.8,4.69,4.28,8.98,9.3,11.49.36.18.73.36,1.1.52a32.808,32.808,0,0,0,9.95,2.38c1.01.1,2.05.18,3.3.24,8.13.44,14.9-.41,20.13-2.51,7.12-2.87,11.28-8.01,12.38-15.29a20.209,20.209,0,0,0-5.87-17.59m3.81,17.28c-.98,6.49-4.72,11.09-11.1,13.66-4.95,1.99-11.42,2.79-19.24,2.37-1.21-.07-2.22-.14-3.19-.24a30.366,30.366,0,0,1-9.34-2.22c-.34-.15-.68-.3-1-.46-4.43-2.22-7.48-5.95-8.17-9.98-.52-3.04.22-6.48,2.18-10.22,1.48-2.82,3.12-4.65,5-5.58a16,16,0,0,1,5.4-1.22c1.61-.17,3.26-.28,5-.4h.03c4.66-.31,9.48-.64,13.72-2.19A13.987,13.987,0,0,0,113,94.93a24.167,24.167,0,0,0,2.59-4.55l.16-.4.28.32a8.942,8.942,0,0,1,1.59,2.43c.12.28.23.58.36.91a12.3,12.3,0,0,0,.78,1.76,12.855,12.855,0,0,0,2.89,3.2c.31.27.6.52.89.79a18.092,18.092,0,0,1,5.23,15.75" fill="#0b5106"/>
    <path id="パス_28410" data-name="パス 28410" d="M127.765,115.14c-.98,6.49-4.72,11.09-11.1,13.66-4.95,1.99-11.42,2.79-19.24,2.37-1.21-.07-2.22-.14-3.19-.24a30.366,30.366,0,0,1-9.34-2.22c-.34-.15-.68-.3-1-.46-4.43-2.22-7.48-5.95-8.17-9.98-.52-3.04.22-6.48,2.18-10.22,1.48-2.82,3.12-4.65,5-5.58a16,16,0,0,1,5.4-1.22c1.61-.17,3.26-.28,5-.4h.03c4.66-.31,9.48-.64,13.72-2.19A13.987,13.987,0,0,0,113,94.93a24.167,24.167,0,0,0,2.59-4.55l.16-.4.28.32a8.942,8.942,0,0,1,1.59,2.43c.12.28.23.58.36.91a12.3,12.3,0,0,0,.78,1.76,12.855,12.855,0,0,0,2.89,3.2c.31.27.6.52.89.79a18.092,18.092,0,0,1,5.23,15.75" fill="#fff"/>
    <path id="パス_28411" data-name="パス 28411" d="M82.146,113.826a19.4,19.4,0,0,1,.2-2.618l2.148.308a16.14,16.14,0,0,0,.094,4.15c.47-.094.833-.188,1.316-.3l.389,1.84c-1.034.443-2.121.886-3.128,1.316a10.947,10.947,0,0,1-1.021-4.7m6.781-1.571,2.162-.5a13.865,13.865,0,0,1,.873,4.069l-2.041.591a26.723,26.723,0,0,0-.994-4.163" fill="#0b5106"/>
    <path id="パス_28412" data-name="パス 28412" d="M94.225,113.826a19.546,19.546,0,0,1,.2-2.618l2.148.308a16.138,16.138,0,0,0,.1,4.15c.47-.094.832-.188,1.316-.3l.389,1.84c-1.034.443-2.122.886-3.129,1.316a10.946,10.946,0,0,1-1.02-4.7m6.781-1.571,2.162-.5a13.865,13.865,0,0,1,.872,4.069l-2.041.591a26.7,26.7,0,0,0-.993-4.163" fill="#0b5106"/>
    <path id="パス_28413" data-name="パス 28413" d="M114.454,115.558c-.121-1.235-1.3-2.363-3.84-.725-.014,1.585.026,3.236.094,4.136l-2.149.08c-.04-.617-.067-1.517-.08-2.645-.417.376-.833.792-1.075,1.034l-1.557-1.464a26.41,26.41,0,0,1,2.618-2.242c.014-.175.014-.322.014-.846-.7.054-1.518.094-2.082.148v-2.055c.887-.013,1.639-.04,2.148-.08.014-.605.028-.913.054-1.235l2.135.053c-.04.765-.08,1.692-.094,2.74,3.612-1.5,6.486.442,5.841,3.867a5.912,5.912,0,0,1,1.048.752l-.994,1.651a7.41,7.41,0,0,0-.779-.483A2.36,2.36,0,0,1,113.7,119.4h-.188c-3.478-.228-2.135-4.887.94-3.84m-.121,1.84a.409.409,0,0,0-.389-.336c-.376-.014-.86.4-.565.738a.569.569,0,0,0,.954-.4" fill="#0b5106"/>
    <path id="パス_28414" data-name="パス 28414" d="M120.491,116.941l2.578-.067c.026.913.026,1.4.067,2.31l-2.605.067c-.027-.9-.014-1.4-.04-2.31m.2-6.821,2.726-.013c-.175,1.772-.336,3.826-.376,5.6l-2.457.121c-.027-1.894.026-4.229.107-5.707" fill="#0b5106"/>
  </g>
</svg>
