<svg id="グループ_3275" data-name="グループ 3275" xmlns="http://www.w3.org/2000/svg" xmlns:xlink="http://www.w3.org/1999/xlink" width="145.058" height="148.953" viewBox="0 0 145.058 148.953">
  <defs>
    <clipPath id="clip-path">
      <rect id="長方形_1431" data-name="長方形 1431" width="145.058" height="148.953" fill="none"/>
    </clipPath>
  </defs>
  <g id="グループ_3274" data-name="グループ 3274" clip-path="url(#clip-path)">
    <path id="パス_28415" data-name="パス 28415" d="M6.836,91.4q.174-.416.356-.828c11.54-26.16,40.415-36.675,68.93-36.917a134.2,134.2,0,0,1,21.991,1.551c5,.785,9.945,2.2,14.93,2.789a37.917,37.917,0,0,1,14.272,4.93c12.312,7.235,14.572,22.391,16.5,35.4a115.886,115.886,0,0,1,1.025,24.114,14.625,14.625,0,0,1-1.6,6.758c-1.5,2.487-4.281,4.085-7.155,5.061-5.4,1.837-11.3,1.82-17.052,1.782l-102.505-.688c-6.272-.042-9.664-2.439-11.465-8.253A52.484,52.484,0,0,1,6.836,91.4" fill="#f5cbd4"/>
    <path id="パス_28416" data-name="パス 28416" d="M35.411,121.893a16.22,16.22,0,0,0-7.783,10.086,13.721,13.721,0,0,0,.207,7.876c1.917,5.458,7.634,8.433,13.084,8.986a17.142,17.142,0,0,0,11.015-2.272A15.423,15.423,0,0,0,58.4,131.486c-1.865-11.4-14.324-14.335-22.99-9.593" fill="#323232"/>
    <path id="パス_28417" data-name="パス 28417" d="M39.774,129.169a6.735,6.735,0,0,0-3.232,4.188,5.7,5.7,0,0,0,.086,3.271c.8,2.266,3.17,3.5,5.433,3.731a7.119,7.119,0,0,0,4.574-.943,6.407,6.407,0,0,0,2.686-6.264c-.775-4.732-5.949-5.952-9.547-3.983" fill="#fff"/>
    <path id="パス_28418" data-name="パス 28418" d="M103.414,121.893a16.22,16.22,0,0,0-7.783,10.086,13.721,13.721,0,0,0,.207,7.876c1.917,5.458,7.634,8.433,13.084,8.986a17.142,17.142,0,0,0,11.015-2.272,15.423,15.423,0,0,0,6.467-15.083c-1.865-11.4-14.324-14.335-22.99-9.593" fill="#323232"/>
    <path id="パス_28419" data-name="パス 28419" d="M107.777,129.169a6.735,6.735,0,0,0-3.232,4.188,5.7,5.7,0,0,0,.086,3.271c.8,2.266,3.17,3.5,5.433,3.731a7.119,7.119,0,0,0,4.574-.943,6.407,6.407,0,0,0,2.686-6.264c-.775-4.732-5.949-5.952-9.547-3.983" fill="#fff"/>
    <path id="パス_28420" data-name="パス 28420" d="M61.755,87.144c-.156-4.741-.184-9.985,2.225-13.582,2.289-3.417,6.072-4.283,9.544-4.937,15.847-2.987,32.1-5.961,47.765-1.681,3.5.958,7.136,2.417,9.551,5.818s3.213,8.167,3.659,12.729a120.877,120.877,0,0,1,.282,20.037,4.087,4.087,0,0,1-.33,1.592,2.354,2.354,0,0,1-2.29,1.007l-35.085.459-17.9.234-8.77.114c-1.708.023-5.884,1.12-7.275-.407-2.454-2.693-1.38-17.246-1.38-21.383" fill="#def2fa"/>
    <path id="パス_28421" data-name="パス 28421" d="M83.537,98.417a.706.706,0,0,1,.927.7q.062.561.124,1.121a.915.915,0,0,1-.051.547c-.152.276-.524.319-.839.328-1.678.065-3.358.086-5.037.14-.616.019-1.228.153-1.846.121-.528-.027-.466-.212-.479-.724a13.973,13.973,0,0,1,.052-1.624.282.282,0,0,1,.034-.132.267.267,0,0,1,.12-.088,7.4,7.4,0,0,1,2.51-.328,39.224,39.224,0,0,1,4.485-.058" fill="#e98a2a"/>
    <path id="パス_28422" data-name="パス 28422" d="M83.524,94.043a.594.594,0,0,0,.305-.111.607.607,0,0,0,.149-.443,11.5,11.5,0,0,0-.24-3.012,1.69,1.69,0,0,0-.273-.7,1.753,1.753,0,0,0-1.342-.49,17.027,17.027,0,0,0-2.369.042.748.748,0,0,0-.408.12.7.7,0,0,0-.2.43,4.185,4.185,0,0,0-.057,1.106.518.518,0,0,0,.079.272.557.557,0,0,0,.512.124,18.631,18.631,0,0,1,1.9.04l.273,2.224a.739.739,0,0,0,.112.367c.224.3,1.242.079,1.559.03" fill="#e98a2a"/>
    <path id="パス_28423" data-name="パス 28423" d="M60.748,97.721A187.7,187.7,0,0,1,61,78.64a7.1,7.1,0,0,1,1.124-4.2c1.032-1.246,2.716-1.444,4.241-1.561,2.95-.225,5.9-.451,8.859-.534a3.662,3.662,0,0,1,3.081.92,4.626,4.626,0,0,1,.759,2.464,235.952,235.952,0,0,1,1.346,30.821,2.208,2.208,0,0,1-.241,1.161,1.758,1.758,0,0,1-1.09.625,42.2,42.2,0,0,1-8.427,1.273c-2.008.123-6.949,1.345-8.37-.851a4.3,4.3,0,0,1-.509-1.6,78.4,78.4,0,0,1-1.027-9.432" fill="#fae27f"/>
    <path id="パス_28424" data-name="パス 28424" d="M61.388,87.585a.613.613,0,0,1-.478-.462,3.048,3.048,0,0,1-.107-.828c-.128-3.407.06-6.893.164-10.305a17.536,17.536,0,0,1,.736-5.454,3.013,3.013,0,0,1,2.651-2.059c1.837-.318,3.675-.637,5.515-.769a1.643,1.643,0,0,1,1.908,1.164,10.969,10.969,0,0,1,.451,3.187c.082,1.78.868,14.937.162,15.015a99.918,99.918,0,0,1-10.775.53,1.173,1.173,0,0,1-.227-.019" fill="#e98a2a"/>
    <path id="パス_28425" data-name="パス 28425" d="M70.841,87.436c-.162-.038-.318-.149-.407-.461a3.585,3.585,0,0,1-.09-.828c-.1-3.407.064-6.892.16-10.305a20.362,20.362,0,0,1,.638-5.455,2.665,2.665,0,0,1,2.265-2.064,41.316,41.316,0,0,1,4.705-.78c.584-.05,1.242.007,1.626,1.161a12.7,12.7,0,0,1,.378,3.185c.066,1.781.712,14.936.11,15.016a73.035,73.035,0,0,1-9.191.55.862.862,0,0,1-.194-.019" fill="#fbbc81"/>
    <path id="パス_28426" data-name="パス 28426" d="M96.82,109.864a17.8,17.8,0,0,0,.2,2.069,3.177,3.177,0,0,0,1.1,2.231,3.837,3.837,0,0,0,1.51.57,4.418,4.418,0,0,0,2.439-.065c.688-.308.963-1.053,1.333-1.624l6.4.145a2.858,2.858,0,0,0,2,1.723,3.462,3.462,0,0,0,2.787-.461c1.328-.941,1.361-2.559,1.358-3.909a28.933,28.933,0,0,0-.536-5.424c-.152-.789-.386-2.334-1.275-2.782a3.991,3.991,0,0,0-1.185-.318,80.026,80.026,0,0,0-14.738-.459,1.141,1.141,0,0,0-.532.1.756.756,0,0,0-.306.528,28.772,28.772,0,0,0-.559,7.673" fill="#fff"/>
    <path id="パス_28427" data-name="パス 28427" d="M93.19,102.038a1.45,1.45,0,0,0-.833.349,1.257,1.257,0,0,0-.285.5,2.891,2.891,0,0,0,.622,2.631,10.725,10.725,0,0,0,5.4,3.067,1.408,1.408,0,0,0,.9.024,1.172,1.172,0,0,0,.435-.363,4.876,4.876,0,0,0,.625-3.743,1.2,1.2,0,0,0-.95-1.292c-.888-.285-1.791-.391-2.663-.68a7.059,7.059,0,0,0-3.25-.494" fill="#fff"/>
    <path id="パス_28428" data-name="パス 28428" d="M120.036,101.451a1.49,1.49,0,0,1,.866.253,1.2,1.2,0,0,1,.334.452,2.685,2.685,0,0,1-.352,2.576,10.742,10.742,0,0,1-5.072,3.461,1.465,1.465,0,0,1-.894.11,1.16,1.16,0,0,1-.469-.305,4.55,4.55,0,0,1-1-3.52,1.463,1.463,0,0,1,.343-1.06,1.576,1.576,0,0,1,.473-.268c.856-.359,1.745-.549,2.585-.91a7.308,7.308,0,0,1,3.189-.789" fill="#fff"/>
    <path id="パス_28429" data-name="パス 28429" d="M99.281,105.652a2.15,2.15,0,0,1-1.1,1.584,4.19,4.19,0,0,1-1.066.355l-.661.157a.423.423,0,0,0-.228.1.43.43,0,0,0-.083.234c-.176,1.255-.869,5.424,1.045,5.6.927.084,1.859.115,2.791.135a122.982,122.982,0,0,0,13.02-.406,19.562,19.562,0,0,0,2.426-.316,1.1,1.1,0,0,0,.6-.274,1.076,1.076,0,0,0,.21-.637,23.841,23.841,0,0,0,.01-4.43c-1.633-.422-3.367-.83-3.947-2.549-.224-.664.024-2.473-.592-2.911a.733.733,0,0,0-.425-.09l-1.819-.012c-.08,0-.436,2.011-.514,2.211a5.379,5.379,0,0,1-.837,1.492,2.615,2.615,0,0,1-2.326.433,3.562,3.562,0,0,1-2.428-1.062,5.81,5.81,0,0,1-.679-2.356.533.533,0,0,0-.148-.307.542.542,0,0,0-.276-.1,14.271,14.271,0,0,0-2.88-.037c-.127.938.1,2.157-.1,3.179" fill="#f5cbd4"/>
    <path id="パス_28430" data-name="パス 28430" d="M122.89,93.307a16.584,16.584,0,0,0-.693-5.814,16.288,16.288,0,0,0-2.013-4.247,19.175,19.175,0,0,0-1.65-2q-.429-.486-.873-.958c-.109-.115-.774-.655-.763-.787a24.261,24.261,0,0,0,.157-4.578c-.394-3.689-1.973-8.51-6.37-8.829a4.053,4.053,0,0,0-1.776.231,4.131,4.131,0,0,0-2.342,3.094,9.687,9.687,0,0,0,.241,4.01,25.373,25.373,0,0,1,.762,3.97c-.321-.022-3.705-.229-3.724.085a16.234,16.234,0,0,0-.776-6.231,7.062,7.062,0,0,0-3.493-4.2,5.041,5.041,0,0,0-5.088.535,4.663,4.663,0,0,0-1.643,4.346,20.309,20.309,0,0,0,1.692,4.892c.117.286,1.208,2.476.918,2.654C92.555,81.264,91,83.874,89.672,87a11.211,11.211,0,0,0-.808,3.124c-.042.363-.067.728-.077,1.092,0,.086,0,.171,0,.257-.034,4.755,3.22,8.877,7.434,10.848,4.027,1.884,8.914,2.209,13.3,1.97l.364-.022a17.994,17.994,0,0,0,3-.426,15.012,15.012,0,0,0,8.722-6.25,9.07,9.07,0,0,0,1.285-4.282" fill="#fff"/>
    <path id="パス_28431" data-name="パス 28431" d="M113.845,87.863a2.86,2.86,0,0,0-1.655.331,1.352,1.352,0,0,0-.648,1.456,1.592,1.592,0,0,0,1,.928,3.3,3.3,0,0,0,1.97.134,1.812,1.812,0,0,0,1.369-.975,1.029,1.029,0,0,0-.035-.756,2.415,2.415,0,0,0-2-1.118" fill="#faccc9"/>
    <path id="パス_28432" data-name="パス 28432" d="M98.94,88.076a2.861,2.861,0,0,0-1.655.331,1.352,1.352,0,0,0-.648,1.456,1.592,1.592,0,0,0,1,.928,3.3,3.3,0,0,0,1.97.134,1.812,1.812,0,0,0,1.369-.975,1.029,1.029,0,0,0-.035-.756,2.415,2.415,0,0,0-2-1.118" fill="#faccc9"/>
    <path id="パス_28433" data-name="パス 28433" d="M102.317,87.025a1.3,1.3,0,0,0-1.245-.216,1.4,1.4,0,0,0-.923,1.033,1.632,1.632,0,0,0,.392,1.391,1.415,1.415,0,0,0,1.466.36l-.035,0a1.236,1.236,0,0,0,.373-.132,1.2,1.2,0,0,0,.381-.347,1.5,1.5,0,0,0,.283-.851,1.456,1.456,0,0,0-.692-1.243" fill="#403f41"/>
    <path id="パス_28434" data-name="パス 28434" d="M111.553,86.874a1.3,1.3,0,0,0-1.245-.216,1.4,1.4,0,0,0-.923,1.033,1.632,1.632,0,0,0,.392,1.391,1.415,1.415,0,0,0,1.466.36l-.035,0a1.236,1.236,0,0,0,.373-.132,1.2,1.2,0,0,0,.381-.347,1.5,1.5,0,0,0,.283-.851,1.456,1.456,0,0,0-.692-1.243" fill="#403f41"/>
    <path id="パス_28435" data-name="パス 28435" d="M107.057,88.533a4.869,4.869,0,0,0-1.718.015.717.717,0,0,0-.457.193.5.5,0,0,0-.067.483,1.628,1.628,0,0,0,1.223.812,1.444,1.444,0,0,0,1.262-.857c.2-.363.053-.554-.243-.646" fill="#f39d94"/>
    <path id="パス_28436" data-name="パス 28436" d="M106.062,92.753a2.111,2.111,0,0,1-1.252-.385,1.547,1.547,0,0,1-.614-1.128.331.331,0,0,1,.66-.043.893.893,0,0,0,.348.64,1.572,1.572,0,0,0,1.713,0,.966.966,0,0,0,.4-.8.331.331,0,1,1,.66-.041,1.62,1.62,0,0,1-.669,1.375,2.116,2.116,0,0,1-1.249.383" fill="#403f41"/>
    <path id="パス_28437" data-name="パス 28437" d="M96.4,74.151a3.456,3.456,0,0,1-.265-2,1.944,1.944,0,0,1,1.884-1.291,2.931,2.931,0,0,1,2.12,1.082,6.17,6.17,0,0,1,1.112,2.168,7.422,7.422,0,0,1,.389,3.46.493.493,0,0,1-.151.331.507.507,0,0,1-.24.079L99,78.328c-.612.095-1.3.437-1.6-.144a10.687,10.687,0,0,1-.428-2.037c-.168-.672-.359-1.339-.578-2" fill="#f39d94"/>
    <path id="パス_28438" data-name="パス 28438" d="M109.511,73.083a3.456,3.456,0,0,1,.128-2.017,1.945,1.945,0,0,1,2.1-.9,2.928,2.928,0,0,1,1.87,1.472,6.152,6.152,0,0,1,.672,2.342,9.987,9.987,0,0,1-.149,3.553.787.787,0,0,1-.281.5.885.885,0,0,1-.706-.006,8.261,8.261,0,0,0-2.16-.3c-.441,0-1.113.055-1.265-.485a10.685,10.685,0,0,1-.026-2.081c-.035-.692-.093-1.383-.181-2.07" fill="#f39d94"/>
    <path id="パス_28439" data-name="パス 28439" d="M71.315,115.617q18.925.935,37.887.321,10.237-.332,20.452-1.114c2.427-.186,4.514-.041,6.366-1.665,1.395-1.222,2.713-3.633.84-5.115a5.15,5.15,0,0,0-3.238-.726q-18.222-.007-36.443.264-9.19.136-18.381.344c-3.811.086-7.595-.469-11.419-.173s-10.756,3.363-3.849,6.715a13.991,13.991,0,0,0,5.375,1.024q1.2.066,2.41.125" fill="#e97692"/>
    <path id="パス_28440" data-name="パス 28440" d="M51.6,90.007q0,1.688-.068,3.373-.066,1.625-.2,3.244c-.026.308-.053.616-.083.925-.142,1.488-.4,3.12-1.466,4.069a5.235,5.235,0,0,1-3.687.9l-.826-.01-21.683-.272-5.69-.072-2.939-.036-.188,0c-.4-.006-.8-.017-1.2-.052a5.243,5.243,0,0,1-2.338-.677,5.442,5.442,0,0,1-2.265-4.32,12.094,12.094,0,0,1,.976-5.024A30.952,30.952,0,0,1,23.278,76.77a44.588,44.588,0,0,1,14.631-5.206c3.226-.593,9.22-1.983,11.466,1.543a5.267,5.267,0,0,1,.591,1.361,14.365,14.365,0,0,1,.322,1.427q.083.44.159.88l.021.124q.149.855.276,1.713.054.36.1.721.087.631.165,1.262c.013.1.025.2.037.307s.024.2.035.3.025.221.037.332.023.2.033.3c.018.161.034.323.051.484.011.115.023.228.033.343l.039.413c.051.552.094,1.1.132,1.657.009.138.019.277.028.415.018.277.033.554.049.83.007.138.013.276.021.416q.041.83.061,1.661c.005.156.009.313.011.468,0,.121,0,.242.007.363q.009.563.01,1.125" fill="#bee0e9"/>
    <path id="パス_28441" data-name="パス 28441" d="M51.531,93.38q-.067,1.625-.2,3.243-.038.463-.082.925c-.142,1.489-.4,3.121-1.466,4.069a5.232,5.232,0,0,1-3.687.9l-.826-.01-21.683-.272-5.691-.071-2.938-.037-.189,0A21.249,21.249,0,0,1,17.9,99.677c1.511-1.018,3.013-1.911,3.615-2.35q.995-.725,1.985-1.456,4.584-3.381,9.068-6.9h0q1.131-.887,2.253-1.782.666-.53,1.329-1.064,1.25-1,2.491-2.021.965-.786,1.922-1.582,2.663-2.207,5.284-4.461c.28-.24.56-.482.839-.723q1.65-1.426,3.282-2.87c.136.466.233.948.322,1.427q.081.44.158.879c.007.042.015.083.022.125q.147.855.275,1.713c.037.24.071.481.1.721q.087.63.166,1.261c.012.1.024.205.037.308s.023.2.034.295.026.222.038.333.022.2.032.3c.019.161.035.323.051.484.011.114.023.228.034.342.013.139.025.276.038.414q.075.828.133,1.657l.027.415c.018.277.034.553.049.83.008.138.014.276.021.415q.041.831.062,1.662c.005.156.008.312.011.468,0,.121,0,.242.006.363q.037,2.25-.057,4.5" fill="#def2fa"/>
    <path id="パス_28442" data-name="パス 28442" d="M52.493,3.057C49.851.561,45.8-.811,42.5.7s-4.737,6.542-2.04,8.979c-4.539.651-9.787,1.97-11.569,6.194-1.716,4.068,1.635,9.347,6.046,9.526-3.428,2.8-2.544,8.786.907,11.562s8.4,2.9,12.677,1.765A12.486,12.486,0,0,0,54.5,35.562c1.826-1.923,2.6-4.6,3.123-7.2,1.787-8.957,2.005-18.561-5.132-25.3" fill="#a1d292"/>
    <path id="パス_28443" data-name="パス 28443" d="M106.833,53.367q.772-.189,1.533-.432c5.225-1.669,10.039-5.791,10.873-11.212a18.215,18.215,0,0,0-1.363-8.907,49.053,49.053,0,0,0-16.4-22.057C93.656,4.83,82.728.127,72.821,0a24.739,24.739,0,0,0-8.3,1.186c-6.971,2.38-12.056,8.654-14.777,15.5-4.391,11.044-8.19,27.056,5.377,33.166,4.729,2.13,10.04,2.475,15.217,2.789l21.7,1.315c4.943.3,10.007.586,14.79-.59" fill="#e98a2a"/>
    <path id="パス_28444" data-name="パス 28444" d="M71.129,24.833A1.436,1.436,0,0,1,69.71,23.6C68.6,15.85,71.813,8.13,74.4,1.927a1.435,1.435,0,0,1,2.65,1.1c-2.576,6.184-5.494,13.193-4.495,20.163a1.437,1.437,0,0,1-1.422,1.639" fill="#e35d25"/>
    <path id="パス_28445" data-name="パス 28445" d="M84.362,20.12a1.459,1.459,0,0,1-.2-.013,1.436,1.436,0,0,1-1.227-1.617A33.379,33.379,0,0,1,86.833,6.779a1.435,1.435,0,0,1,2.51,1.393,30.5,30.5,0,0,0-3.561,10.707,1.436,1.436,0,0,1-1.42,1.241" fill="#e35d25"/>
    <path id="パス_28446" data-name="パス 28446" d="M32.5,120.286a20.206,20.206,0,0,1,9.847-2.516c5.125-.151,10.6,1.052,14.158,4.747a16.276,16.276,0,0,1,3.958,8.067,28.672,28.672,0,0,1,.551,4.608c.046,1.073.339,2.783-.788,3.455a2.4,2.4,0,0,1-1.048.276,2.318,2.318,0,0,1-2.049-.62,2.84,2.84,0,0,1-.439-1.446c-.229-1.829-.643-3.658-.993-5.468a10.151,10.151,0,0,0-1.92-4.664,14.707,14.707,0,0,0-6.511-4.574,15.088,15.088,0,0,0-11.031.675,11.946,11.946,0,0,0-6.853,8.026,42.12,42.12,0,0,0-.785,5.881A2.3,2.3,0,0,1,28.21,138a1.65,1.65,0,0,1-1.518.466,2.724,2.724,0,0,1-2.012-1.472c-.527-1.078-.094-2.5.066-3.638a23.16,23.16,0,0,1,.717-3.546,16.633,16.633,0,0,1,7.041-9.52" fill="#93bfda"/>
    <path id="パス_28447" data-name="パス 28447" d="M100.622,120.286a20.206,20.206,0,0,1,9.847-2.516c5.125-.151,10.6,1.052,14.158,4.747a16.276,16.276,0,0,1,3.958,8.067,28.673,28.673,0,0,1,.551,4.608c.046,1.073.339,2.783-.788,3.455a2.4,2.4,0,0,1-1.048.276,2.319,2.319,0,0,1-2.049-.62,2.84,2.84,0,0,1-.439-1.446c-.229-1.829-.643-3.658-.993-5.468a10.151,10.151,0,0,0-1.92-4.664,14.707,14.707,0,0,0-6.511-4.574,15.088,15.088,0,0,0-11.031.675,11.946,11.946,0,0,0-6.853,8.026,42.12,42.12,0,0,0-.785,5.881A2.3,2.3,0,0,1,96.328,138a1.65,1.65,0,0,1-1.518.466A2.724,2.724,0,0,1,92.8,136.99c-.527-1.078-.094-2.5.066-3.638a23.159,23.159,0,0,1,.717-3.546,16.633,16.633,0,0,1,7.041-9.52" fill="#93bfda"/>
    <path id="パス_28448" data-name="パス 28448" d="M51.954,86.581a15.785,15.785,0,0,0-.658-3.709c-.1-.359-1.81-4.418-1.776-4.441.09-.062.179-.128.267-.2a5.788,5.788,0,0,0,2.132-5.622A6.154,6.154,0,0,0,47.334,68a6.717,6.717,0,0,0-6.263,1.973,5.618,5.618,0,0,0-1.034,1.523,36.606,36.606,0,0,0-5.1-.664,20.142,20.142,0,0,0-5.328.3A5.651,5.651,0,0,0,26.7,67.976a6.153,6.153,0,0,0-6.429,1,6.716,6.716,0,0,0-2.08,6.228,5.036,5.036,0,0,0,1.315,2.636c.087.086.178.168.272.245a18.868,18.868,0,0,0-1.9,3.807,11.492,11.492,0,0,0-.661,3.229q-.035.56-.021,1.118c0,.087,0,.175.009.263a10.374,10.374,0,0,0,1.772,5.57A15.01,15.01,0,0,0,27.4,97.539a32.366,32.366,0,0,0,11.622.952l.37-.041a18.377,18.377,0,0,0,3.042-.593A15.332,15.332,0,0,0,51,91.025a8.1,8.1,0,0,0,.951-4.444" fill="#fee7b0"/>
    <path id="パス_28449" data-name="パス 28449" d="M28.971,82.476a6.551,6.551,0,0,0-1.868.268,2.217,2.217,0,0,0-1.378,1.215,2.057,2.057,0,0,0,.212,1.749,3.791,3.791,0,0,0,1.307,1.241,5.69,5.69,0,0,0,6.74-.493,3.008,3.008,0,0,0,.925-1.508c.635-3.018-4.24-2.55-5.938-2.472" fill="#ffefda"/>
    <path id="パス_28450" data-name="パス 28450" d="M37.962,81.923a2.871,2.871,0,0,0-1.658.335,1.353,1.353,0,0,0-.648,1.461,1.6,1.6,0,0,0,1,.929,3.312,3.312,0,0,0,1.976.13,1.818,1.818,0,0,0,1.371-.979,1.032,1.032,0,0,0-.037-.759,2.418,2.418,0,0,0-2.008-1.117" fill="#f39d94"/>
    <path id="パス_28451" data-name="パス 28451" d="M23.017,82.163a2.871,2.871,0,0,0-1.658.335,1.353,1.353,0,0,0-.648,1.461,1.6,1.6,0,0,0,1,.929,3.312,3.312,0,0,0,1.976.13,1.818,1.818,0,0,0,1.371-.979,1.032,1.032,0,0,0-.037-.759,2.418,2.418,0,0,0-2.008-1.117" fill="#f39d94"/>
    <path id="パス_28452" data-name="パス 28452" d="M26.411,80.884a1.3,1.3,0,0,0-1.249-.215,1.4,1.4,0,0,0-.923,1.038,1.638,1.638,0,0,0,.4,1.394,1.416,1.416,0,0,0,1.47.358l-.034,0a1.251,1.251,0,0,0,.374-.132,1.2,1.2,0,0,0,.381-.349,1.507,1.507,0,0,0,.282-.854,1.462,1.462,0,0,0-.7-1.245" fill="#421e10"/>
    <path id="パス_28453" data-name="パス 28453" d="M35.662,80.936a1.3,1.3,0,0,0-1.249-.215,1.4,1.4,0,0,0-.923,1.038,1.638,1.638,0,0,0,.395,1.394,1.416,1.416,0,0,0,1.47.358l-.034,0a1.251,1.251,0,0,0,.374-.132,1.213,1.213,0,0,0,.381-.349,1.507,1.507,0,0,0,.282-.854,1.462,1.462,0,0,0-.7-1.245" fill="#421e10"/>
    <path id="パス_28454" data-name="パス 28454" d="M31.111,82.312l-.026-.018a.659.659,0,0,0-.235-.078,4.942,4.942,0,0,0-1.492,0,.784.784,0,0,0-.478.186.454.454,0,0,0-.068.465,1.315,1.315,0,0,0,.287.412,1.382,1.382,0,0,0,.879.529,1.294,1.294,0,0,0,.84-.345c.227-.181.532-.439.5-.771a.606.606,0,0,0-.2-.378" fill="#421e10"/>
    <path id="パス_28455" data-name="パス 28455" d="M30,86.088a2.034,2.034,0,0,1-1.238-.394A1.482,1.482,0,0,1,28.2,84.6a.316.316,0,0,1,.632-.028.853.853,0,0,0,.321.619,1.5,1.5,0,0,0,1.639.036.925.925,0,0,0,.4-.76.317.317,0,0,1,.633-.026,1.552,1.552,0,0,1-.667,1.3A2.007,2.007,0,0,1,30,86.088" fill="#421e10"/>
    <path id="パス_28456" data-name="パス 28456" d="M46.862,75.419a.4.4,0,0,0,.151.134c.151.061.305-.08.4-.211a2.7,2.7,0,0,0,.451-2.761,2.177,2.177,0,0,0-1.183-.993,2.546,2.546,0,0,0-2.389.261,1.815,1.815,0,0,0-.652.772.154.154,0,0,0-.013.12.173.173,0,0,0,.052.056,4.571,4.571,0,0,0,.423.313,10.123,10.123,0,0,1,2.758,2.309" fill="#f4c25b"/>
    <path id="パス_28457" data-name="パス 28457" d="M26.144,72.724a.4.4,0,0,0,.164-.117c.093-.135-.01-.315-.117-.439a2.471,2.471,0,0,0-1.814-.975,2.665,2.665,0,0,0-1.849.655,2.49,2.49,0,0,0-.433,2.591,1.809,1.809,0,0,0,.609.807.153.153,0,0,0,.114.039.163.163,0,0,0,.066-.038,4.343,4.343,0,0,0,.4-.344,10.153,10.153,0,0,1,2.862-2.179" fill="#f4c25b"/>
    <path id="パス_28458" data-name="パス 28458" d="M46.247,102.5l-24-.3a13.361,13.361,0,0,1,1.4-6.134c.082-.139.17-.276.262-.411,1.313-1.9,3.978-2.386,6.127-2.578a46.368,46.368,0,0,1,9.245.093,9.027,9.027,0,0,1,4.353,1.333,5.729,5.729,0,0,1,1.735,2.077,7.794,7.794,0,0,1,.661,1.856,14.711,14.711,0,0,1,.214,4.065" fill="#fee7b0"/>
    <path id="パス_28459" data-name="パス 28459" d="M17.892,102.161h0q-1.47-.02-2.939-.037l-.188,0c-.4-.006-.8-.017-1.2-.052a13.933,13.933,0,0,1-.053-1.528c.007-1.631,0-3.26-.04-4.9a2.76,2.76,0,0,1,.112-1.061,2.072,2.072,0,0,1,.545-.752c.028-.026.056-.052.085-.077a2.215,2.215,0,0,1,2.572-.449,2.382,2.382,0,0,1,.875,1.9c.091,1.509.2,2.979.238,4.47.023.818.026,1.643,0,2.484" fill="#666"/>
    <path id="パス_28460" data-name="パス 28460" d="M19,95c-1.069,0-2.336.255-2.785,1.366A2.432,2.432,0,0,0,16.3,98.21a3.554,3.554,0,0,0,1.144,1.371c1.548,1.163,3.5,1.291,5.35,1.384l1.479.073a1.966,1.966,0,0,0,.983-.119c.64-.315.871-1.207.974-1.995.326-2.5.125-2.833-2-3.279A25.533,25.533,0,0,0,19,95" fill="#fee7b0"/>
    <path id="パス_28461" data-name="パス 28461" d="M120.52,88.407c.007-.578.207-1.109.955-.821a1.271,1.271,0,0,1,.682.79,3.235,3.235,0,0,1,.26-1.027.922.922,0,0,1,.29-.449.808.808,0,0,1,.657-.048.851.851,0,0,1,.687.628c.047.208.108,1.027-.058,1.187.26-.251.61-.521.946-.387s.4.6.355.973a4.163,4.163,0,0,1-.408,1.328,1.916,1.916,0,0,1-.7.824,2.515,2.515,0,0,1-2.012-.077c-.565-.186-1.118-.355-1.259-.971-.1-.443-.259-.871-.338-1.321a3.472,3.472,0,0,1-.056-.629" fill="#a1d292"/>
    <path id="パス_28462" data-name="パス 28462" d="M118.677,91.952a3.434,3.434,0,0,1,4.27-2.124,5.7,5.7,0,0,1,1.366.7,3.241,3.241,0,0,1,1.247,1.236,2.5,2.5,0,0,1,.208.83,5.1,5.1,0,0,1-.806,3.1,2.735,2.735,0,0,1-.762.866,2.787,2.787,0,0,1-1.944.3,11.192,11.192,0,0,1-1.767-.423,4.479,4.479,0,0,1-1.283-.563c-1.1-.777-.932-2.788-.529-3.922" fill="#e98a2a"/>
    <path id="パス_28463" data-name="パス 28463" d="M125.44,93.128a.223.223,0,0,1-.118-.034,4.766,4.766,0,0,0-2.135-.714.222.222,0,0,1,.038-.443,5.239,5.239,0,0,1,2.334.781.222.222,0,0,1-.119.41" fill="#e35d25"/>
    <path id="パス_28464" data-name="パス 28464" d="M125.137,94.346a.221.221,0,0,1-.1-.022,5.493,5.493,0,0,0-1.219-.419.222.222,0,1,1,.094-.434,5.946,5.946,0,0,1,1.317.453.222.222,0,0,1-.1.422" fill="#e35d25"/>
    <path id="パス_28465" data-name="パス 28465" d="M119.222,102.618c.051.127.1.254.155.382.129.314.167.643.51.807a.969.969,0,0,0,.961-.151,2.713,2.713,0,0,0,.646-.783,42.89,42.89,0,0,0,2.985-5.643c.233-.532.913-1.442.357-1.931a4.369,4.369,0,0,0-1.305-.6,10.315,10.315,0,0,0-1.839-.548,10.1,10.1,0,0,0-1.908-.2c-.473,0-1.079-.147-1.375.329a1.869,1.869,0,0,0-.178,1.067c.06,1.591.25,3.173.439,4.754a13.217,13.217,0,0,0,.287,1.737,6.293,6.293,0,0,0,.265.781" fill="#fbdb80"/>
    <path id="パス_28466" data-name="パス 28466" d="M120.665,102.716a.148.148,0,0,1-.075-.02.151.151,0,0,1-.056-.207c.648-1.136,1.293-2.29,1.916-3.428.207-.379.422-.76.629-1.129.387-.687.788-1.4,1.151-2.111a.151.151,0,0,1,.27.137c-.366.719-.768,1.433-1.157,2.123-.207.368-.421.748-.627,1.125-.624,1.14-1.27,2.295-1.919,3.434a.151.151,0,0,1-.132.076" fill="#f4c146"/>
    <path id="パス_28467" data-name="パス 28467" d="M120.129,101.463a.151.151,0,0,1-.135-.219l3-6.026a.151.151,0,1,1,.271.135l-3,6.026a.152.152,0,0,1-.136.084" fill="#f4c146"/>
    <path id="パス_28468" data-name="パス 28468" d="M119.256,99.677a.151.151,0,0,1-.135-.219c.775-1.546,1.627-3.077,2.532-4.551a.151.151,0,0,1,.258.158c-.9,1.467-1.748,2.99-2.52,4.528a.151.151,0,0,1-.135.084" fill="#f4c146"/>
    <path id="パス_28469" data-name="パス 28469" d="M119.32,96.6a.147.147,0,0,1-.073-.019.151.151,0,0,1-.059-.206c.325-.586.665-1.174,1.01-1.748a.152.152,0,0,1,.26.157c-.344.57-.682,1.155-1,1.738a.152.152,0,0,1-.133.078" fill="#f4c146"/>
    <path id="パス_28470" data-name="パス 28470" d="M123.5,98.3a.152.152,0,0,1-.094-.033c-1.442-1.145-2.935-2.266-4.437-3.331a.152.152,0,0,1-.036-.211.15.15,0,0,1,.211-.036c1.507,1.068,3,2.192,4.45,3.341a.151.151,0,0,1,.025.213.153.153,0,0,1-.119.057" fill="#f4c146"/>
    <path id="パス_28471" data-name="パス 28471" d="M122.632,99.807a.151.151,0,0,1-.1-.039L118.774,96.4a.152.152,0,0,1,.2-.226l3.757,3.364a.151.151,0,0,1-.1.264" fill="#f4c146"/>
    <path id="パス_28472" data-name="パス 28472" d="M121.609,101.243a.155.155,0,0,1-.107-.044L119.279,99a.97.97,0,0,1-.272-.387.152.152,0,1,1,.29-.088.71.71,0,0,0,.195.259l2.223,2.2a.151.151,0,0,1,0,.214.152.152,0,0,1-.108.045" fill="#f4c146"/>
    <path id="パス_28473" data-name="パス 28473" d="M73.867,85.658c1.147-.062,2.3-.123,3.447-.135a6.035,6.035,0,0,1,2.971.5c.8.464.98,1.486.088,1.854A127.544,127.544,0,0,1,61.1,88.62a1.624,1.624,0,0,1-.786-.139.737.737,0,0,1-.3-.4c-.406-1.039-.551-1.482.941-1.683,1.4-.189,2.931-.176,4.353-.259q4.277-.249,8.556-.481" fill="#fff"/>
    <path id="パス_28474" data-name="パス 28474" d="M24.831,53.423c2.646,1.837,6.008,2.214,9.217,2.5C64.7,58.66,95.561,58.211,126.3,56.7a10.2,10.2,0,0,0,5.118-1.168c2.981-1.928,3.126-6.159,2.941-9.7-.111-2.143-.325-4.516-1.9-5.973-1.435-1.327-3.567-1.48-5.52-1.56-31.644-1.29-63.375-1.775-94.953.642-6.921.529-15.713,8.541-7.154,14.484" fill="#bee0e9"/>
    <path id="パス_28475" data-name="パス 28475" d="M33.139,51.02a2.185,2.185,0,0,1-.92-.265l-.109-.048a7.32,7.32,0,0,1-3.054-2.151,2.64,2.64,0,0,1-.6-1.906A2.247,2.247,0,0,1,30.7,44.783l.107,0a2.675,2.675,0,0,1,1.466.558,2.68,2.68,0,0,1,.988-.952,2.3,2.3,0,0,1,1.1-.276,2.105,2.105,0,0,1,1.7.809,2.411,2.411,0,0,1,.423,1.064,4.2,4.2,0,0,1-.816,3.067,7,7,0,0,1-1.479,1.531,1.731,1.731,0,0,1-1.054.434" fill="#ee8e9e"/>
    <path id="パス_28476" data-name="パス 28476" d="M29.626,48.131a1.978,1.978,0,0,1-.462-1.39A1.554,1.554,0,0,1,30.776,45.5a2.184,2.184,0,0,1,1.752,1.227A2.274,2.274,0,0,1,33.6,45.015a1.514,1.514,0,0,1,1.89.333,1.7,1.7,0,0,1,.292.754,3.529,3.529,0,0,1-.695,2.543,6.362,6.362,0,0,1-1.327,1.375c-.571.432-.715.324-1.366.036a6.627,6.627,0,0,1-2.772-1.925" fill="#fff"/>
    <path id="パス_28477" data-name="パス 28477" d="M125.976,51.987a1.608,1.608,0,0,1-1.318-.773l-.077-.09a7.315,7.315,0,0,1-1.809-3.267,2.639,2.639,0,0,1,.295-1.976,2.142,2.142,0,0,1,1.819-.93,2.329,2.329,0,0,1,1.111.278,2.67,2.67,0,0,1,1.075,1.142,2.67,2.67,0,0,1,1.3-.426l.1,0a2.205,2.205,0,0,1,2.187,1.7,2.41,2.41,0,0,1-.084,1.142,4.206,4.206,0,0,1-2.074,2.4,7.026,7.026,0,0,1-2,.731,2.74,2.74,0,0,1-.532.062" fill="#ee8e9e"/>
    <path id="パス_28478" data-name="パス 28478" d="M123.47,47.722a1.98,1.98,0,0,1,.191-1.452,1.555,1.555,0,0,1,1.994-.417,2.183,2.183,0,0,1,1.04,1.869,2.276,2.276,0,0,1,1.714-1.067,1.516,1.516,0,0,1,1.556,1.125,1.708,1.708,0,0,1-.067.805,3.528,3.528,0,0,1-1.735,1.985,6.373,6.373,0,0,1-1.794.658c-.7.14-.786-.02-1.245-.563a6.638,6.638,0,0,1-1.654-2.943" fill="#fff"/>
    <path id="パス_28479" data-name="パス 28479" d="M1.835,105.918A3.3,3.3,0,0,0,.216,108a7.662,7.662,0,0,0-.176,2.7c.1,1.426.46,3.031,1.7,3.747a3.458,3.458,0,0,0,2.3.3,1.918,1.918,0,0,0,1.466-.859,2.18,2.18,0,0,0,.176-.792,34.876,34.876,0,0,0,.092-4.976c-.116-2.175-1.92-3.187-3.937-2.206" fill="#fbdb80"/>
    <path id="パス_28480" data-name="パス 28480" d="M5.754,106.028a2.893,2.893,0,0,1,.356,1.663q.024,2.367.049,4.735a4,4,0,0,1-.428,2.268,2.041,2.041,0,0,1-2.337.771,1.088,1.088,0,0,1-.63-.509.582.582,0,0,1,.173-.736c.266-.16.608-.016.915-.055.64-.082.892-.867.955-1.509a20.046,20.046,0,0,0-.237-4.963c-.077-.5-.23-1.093-.708-1.27-.461-.171-1.155.061-1.349-.391a.558.558,0,0,1,.253-.647,2.7,2.7,0,0,1,2.988.643" fill="#f2f2f2"/>
    <path id="パス_28481" data-name="パス 28481" d="M128.951,69.368a6.732,6.732,0,0,1-6.746,1.775,15.152,15.152,0,0,1-6.226-3.774,2.2,2.2,0,0,0-1.425-.753c-.031,0-.061,0-.093.007a2.2,2.2,0,0,0-.919.456A10.513,10.513,0,0,1,100.083,65.3c-.006.009-.012.019-.019.028A10.356,10.356,0,0,1,84.672,67.91q-.15.2-.314.4h0A8.247,8.247,0,0,1,71.191,67.6l-.011.016h0A7.9,7.9,0,0,1,64.254,71.4c-2.315-.184-5.614-2.653-5.668-5.19-.06-2.883,3.264-3.679,5.505-3.893q3.2-.306,6.4-.53c4.173-.3,8.351-.5,12.534-.637,5.331-.178,10.667-.251,16-.278,4.193-.021,8.386-.013,12.577-.006,1,0,2.007,0,3.011.012,1.968.015,3.936.056,5.9.171,2.454.144,5.6-.2,7.81,1,2.778,1.5,2.444,5.155.621,7.316" fill="#ee8e9e"/>
    <path id="パス_28482" data-name="パス 28482" d="M84.358,68.307h0a8.246,8.246,0,0,1-13.167-.7l-.011.015c-.154-.5-.277-1.015-.388-1.523-.326-1.484-.848-3.127-.3-4.307l12.534-.637c.066.158.12.322.17.484a26.707,26.707,0,0,1,1.161,6.671" fill="#fdedf1"/>
    <path id="パス_28483" data-name="パス 28483" d="M114.554,66.616c-.031,0-.061,0-.093.007a2.208,2.208,0,0,0-.919.456,10.513,10.513,0,0,1-13.459-1.78c-.006.009-.012.019-.019.028-.182-.533-.326-1.081-.455-1.624a17.106,17.106,0,0,1-.578-2.829c4.193-.02,8.386-.013,12.577-.006,1,0,2.007,0,3.011.012a16.1,16.1,0,0,1-.065,5.736" fill="#fdedf1"/>
    <path id="パス_28484" data-name="パス 28484" d="M54.426,54.332a2.359,2.359,0,0,1-1.728-.767,2,2,0,0,1-.433-.694A6.018,6.018,0,0,1,49,53.779h0a4.145,4.145,0,0,1-2.835-.957,3.827,3.827,0,0,1-1.216-2.995,4.513,4.513,0,0,1,1.485-3.319,2.227,2.227,0,0,1-.873-1.6,2.3,2.3,0,0,1,2.005-2.538c.144-.008.278-.016.4-.025a2.327,2.327,0,0,1,2.175-1.322,2.461,2.461,0,0,1,1.766.706,2.092,2.092,0,0,1,.311.407l.238-.007a2.375,2.375,0,0,1,1.776.686,2.25,2.25,0,0,1,.608,1.707,2.052,2.052,0,0,1-.036.315,2.125,2.125,0,0,1,.764.936,4.592,4.592,0,0,1,2.3,4.041,5.43,5.43,0,0,1-1.732,3.827,2.477,2.477,0,0,1-1.709.692" fill="#ee8e9e"/>
    <path id="パス_28485" data-name="パス 28485" d="M64.936,54.608a2.566,2.566,0,0,1-1.39-.405,2.307,2.307,0,0,1-.69-3.286c.185-.342.35-.652.5-.957a4.551,4.551,0,0,1-1.975.542H61.3a2.805,2.805,0,0,1-2.745-2.889l0-.117c-.013-.374-.024-.716-.024-1.058,0-.494.015-.962.03-1.433.01-.3.02-.6.025-.914a2.334,2.334,0,0,1,2.377-2.379,2.4,2.4,0,0,1,2.431,2.473s-.019,1.1-.022,1.261a2.641,2.641,0,0,1,.553.243,2.026,2.026,0,0,1,.327.235c.029-.582.044-1.249.044-2.029a2.406,2.406,0,0,1,2.346-2.542h.113a2.332,2.332,0,0,1,2.39,2.377c0,4.565-.468,6.734-2.084,9.671a2.421,2.421,0,0,1-2.117,1.207" fill="#ee8e9e"/>
    <path id="パス_28486" data-name="パス 28486" d="M77.658,54.249a2.673,2.673,0,0,1-1.122-.255,2.309,2.309,0,0,1-.979-.852,2.385,2.385,0,0,1-4.312-1.325,2.671,2.671,0,0,1,.1-.676c.221-.763.46-1.662.732-2.723a2.106,2.106,0,0,1-.977-.572,2.28,2.28,0,0,1-.6-1.628,2.312,2.312,0,0,1,2.218-2.411c.163-.016.351-.029.554-.04l.219-.839a2.5,2.5,0,0,1,2.384-1.86,2.233,2.233,0,0,1,.338.025,2.347,2.347,0,0,1,1.653,1.018,2.281,2.281,0,0,1,.357,1.039,2.582,2.582,0,0,1,.913-.606,1.922,1.922,0,0,1,.236-.757,2.093,2.093,0,0,1,1.814-1.016,2.147,2.147,0,0,1,.685.112,2.119,2.119,0,0,1,1.042-.276,2.006,2.006,0,0,1,.9.206,2.46,2.46,0,0,1,1.2,1.9c.006.035.012.07.016.105a3.8,3.8,0,0,1,.038.465A1.939,1.939,0,0,1,83.68,45.23a2.222,2.222,0,0,1-.671.1h-.026a2.3,2.3,0,0,1-.621,2.931A2.37,2.37,0,0,1,81,48.7h-.022a14.275,14.275,0,0,1-1.014,3.968,2.522,2.522,0,0,1-2.3,1.581" fill="#ee8e9e"/>
    <path id="パス_28487" data-name="パス 28487" d="M90.228,54.11c-2.91-.1-4.685-1.661-4.685-4.062a4.5,4.5,0,0,1,1.183-2.994,2.608,2.608,0,0,1-.55-1.319c-.063-.489-.215-1.725-.232-2.557a2.385,2.385,0,0,1,2.418-2.419A2.319,2.319,0,0,1,90.709,43c.022.406.053.842.087,1.27q.372-.176.74-.336a3.123,3.123,0,0,1,1.2-.262,2.411,2.411,0,0,1,2.019,1.085,2.23,2.23,0,0,1,.327,1.914,2.473,2.473,0,0,1-1.434,1.56c-.969.428-1.773.839-2.358,1.171a13.784,13.784,0,0,0,1.695-.2,2.9,2.9,0,0,1,.512-.046,2.244,2.244,0,0,1,2.232,1.723.9.9,0,0,1,.021.1,2.965,2.965,0,0,1,.047.48,2.356,2.356,0,0,1-1.751,2.276,13.868,13.868,0,0,1-3.377.376Z" fill="#ee8e9e"/>
    <path id="パス_28488" data-name="パス 28488" d="M102.244,54.456a2.266,2.266,0,0,1-1.678-.73,2.289,2.289,0,0,1,.052-3.142,7.536,7.536,0,0,0,1.13-1.977,15.09,15.09,0,0,0-2.174.318,2.7,2.7,0,0,1-.542.056,2.294,2.294,0,0,1-1.684-.7,2.417,2.417,0,0,1-.646-1.684,2.373,2.373,0,0,1,1.988-2.33c.091-.02.185-.039.282-.058a2.038,2.038,0,0,1-.173-.283,2.35,2.35,0,0,1-.1-1.816,2.322,2.322,0,0,1,2.221-1.567,2.391,2.391,0,0,1,.494.057c.726.194,1.856.579,2.393.778a2.272,2.272,0,0,1,1.535,2.149,2.3,2.3,0,0,1-.239,1.025,3.982,3.982,0,0,1,1.622,3.344,9.056,9.056,0,0,1-2.043,5.239,3.147,3.147,0,0,1-2.435,1.326" fill="#ee8e9e"/>
    <path id="パス_28489" data-name="パス 28489" d="M111.37,54.151a2.38,2.38,0,0,1-2.46-2.4,2.458,2.458,0,0,1,.511-1.516,2.745,2.745,0,0,1-.342-1.221c-.056-1.109-.089-4.312-.027-5.326a2.416,2.416,0,0,1,2.442-2.276,2.385,2.385,0,0,1,2.445,2.36c0,1.26-.112,4.371-.2,5.488a2.066,2.066,0,0,1-.37,1.04,2.544,2.544,0,0,1,.43,1.451,2.339,2.339,0,0,1-2.432,2.4" fill="#ee8e9e"/>
    <path id="パス_28490" data-name="パス 28490" d="M55.145,52.619a1.08,1.08,0,0,1-.719.291.933.933,0,0,1-.691-.319.922.922,0,0,1,.069-1.147,3.255,3.255,0,0,0,.746-1.728,1.7,1.7,0,0,0-.746-1.3c-1.106,2.876-2.585,3.913-4.825,3.94a2.327,2.327,0,0,1-2.613-2.529,3.672,3.672,0,0,1,2.793-3.305V45.416c-.428.028-.885.07-1.355.111a.775.775,0,0,1-.829-.719.88.88,0,0,1,.719-1.023c.511-.027,1.009-.069,1.479-.1a3.964,3.964,0,0,0,.014-.4.864.864,0,0,1,.953-.843c.484,0,.954.263.941.788,0,.111-.014.235-.014.36l1.424-.042a.816.816,0,0,1,.926.913.879.879,0,0,1-.829.8c-.54.013-1.051.041-1.549.055,0,.29-.014.58-.014.871a8.2,8.2,0,0,1,1.673.083.846.846,0,0,1,.926-.415.814.814,0,0,1,.7.871,3.259,3.259,0,0,1,2.115,3.083,4,4,0,0,1-1.3,2.806M52.09,47.808a4.4,4.4,0,0,0-1.051,0c0,.415,0,.816.014,1.161.028,1.009-1.742,1.12-1.811.056-.014-.194-.027-.4-.027-.636a2.248,2.248,0,0,0-.733.649c-.484.719-.263,1.562.525,1.59,1.576.042,2.267-.65,3.083-2.82" fill="#fff"/>
    <path id="パス_28491" data-name="パス 28491" d="M63.332,48.181a2.853,2.853,0,0,1-1.991.9,1.413,1.413,0,0,1-1.368-1.52c-.014-.4-.028-.761-.028-1.12,0-.8.042-1.535.055-2.323a.922.922,0,0,1,.955-.981.982.982,0,0,1,1.008,1.05c-.013.968-.041,1.811-.027,2.834.622-.318.912-.3,1.272-.1a.872.872,0,0,1,.124,1.259m3.415-5.406a.909.909,0,0,1,.967.954c0,4.438-.469,6.373-1.907,8.986a1.006,1.006,0,0,1-.871.47,1.156,1.156,0,0,1-.622-.18c-.609-.387-.47-.926-.208-1.41,1.189-2.2,1.6-3.387,1.6-7.7a1,1,0,0,1,.981-1.12Z" fill="#fff"/>
    <path id="パス_28492" data-name="パス 28492" d="M79.593,47.849a12,12,0,0,1-.94,4.258,1.1,1.1,0,0,1-1,.719,1.259,1.259,0,0,1-.525-.124.9.9,0,0,1-.36-1.3,8.4,8.4,0,0,0,.844-3.373c-.014-.691-.111-.995-.885-.995H75.86L74.533,52.01a.889.889,0,0,1-.9.692.918.918,0,0,1-.968-.885,1.374,1.374,0,0,1,.056-.332c.318-1.092.691-2.544,1.161-4.424-.373.014-.733.014-1.037.028-.663.013-.926-.3-.926-.871a.9.9,0,0,1,.926-.995c.415-.042.968-.056,1.535-.083l.484-1.853A1.059,1.059,0,0,1,76,42.5c.636.1.954.567.747,1.327l-.36,1.286h.443c2.046,0,2.737,1.05,2.765,2.737m2.059-1.991a.95.95,0,0,1-.11,1.244.911.911,0,0,1-1.3-.234c-.388-.581-.72-1.106-1.079-1.66a.869.869,0,0,1,.318-1.257.8.8,0,0,1,1.134.234,14.909,14.909,0,0,1,1.036,1.673m.236-2.751c.1.443.068.788-.291.9a.592.592,0,0,1-.829-.387c-.18-.608-.3-.871-.152-1.147a.709.709,0,0,1,.815-.236c.235.083.36.4.457.871m1.755.18a.525.525,0,0,1-.373.581.569.569,0,0,1-.8-.4c-.166-.609-.29-.871-.138-1.134a.712.712,0,0,1,.581-.3.6.6,0,0,1,.262.055c.221.1.346.429.443.912a2.735,2.735,0,0,1,.027.291" fill="#fff"/>
    <path id="パス_28493" data-name="パス 28493" d="M86.965,50.047c0-2.17,2.53-3.663,5.143-4.811a1.1,1.1,0,0,1,1.479.332.893.893,0,0,1-.5,1.355A17.534,17.534,0,0,0,89.343,49a1.146,1.146,0,0,0-.415.843c0,.5.525.926,1.507.981a12.063,12.063,0,0,0,2.793-.221.866.866,0,0,1,1.119.609,1.507,1.507,0,0,1,.028.249.933.933,0,0,1-.733.912,12.318,12.318,0,0,1-2.972.318h-.442c-1.894-.069-3.263-.913-3.263-2.641m.4-6.9a.95.95,0,0,1,1-.968.9.9,0,0,1,.926.885c.041.76.11,1.6.18,2.323a.97.97,0,0,1-.94,1.092.948.948,0,0,1-.941-.927c-.083-.635-.207-1.714-.221-2.405" fill="#fff"/>
    <path id="パス_28494" data-name="パス 28494" d="M101.719,51.485a7.468,7.468,0,0,0,1.645-3.539c0-.511-.276-.719-.871-.76a12.9,12.9,0,0,0-3.207.345.9.9,0,0,1-1.161-.94.981.981,0,0,1,.871-.94,17.558,17.558,0,0,1,3.912-.331,2.357,2.357,0,0,1,2.392,2.571,7.7,7.7,0,0,1-1.756,4.382,1.758,1.758,0,0,1-1.3.76.841.841,0,0,1-.636-.276c-.346-.373-.263-.815.11-1.272m-1.23-7.852a.787.787,0,0,1-.442-1.079.909.909,0,0,1,.871-.594,1.051,1.051,0,0,1,.207.028c.608.166,1.7.539,2.184.719a.849.849,0,0,1,.608.815.874.874,0,0,1-1.175.83c-.58-.194-1.479-.484-2.253-.719" fill="#fff"/>
    <path id="パス_28495" data-name="パス 28495" d="M110.333,51.748a1,1,0,0,1,1.037-1.037.957.957,0,0,1,1.009,1.037.916.916,0,0,1-1.009.981.955.955,0,0,1-1.037-.981m1.01-1.825c-.4,0-.8-.276-.844-.995-.054-1.092-.083-4.244-.027-5.157a.989.989,0,0,1,1.022-.94.973.973,0,0,1,1.024.968c0,1.161-.111,4.258-.194,5.35a.966.966,0,0,1-.981.774" fill="#fff"/>
  </g>
</svg>
