<svg id="グループ_3279" data-name="グループ 3279" xmlns="http://www.w3.org/2000/svg" xmlns:xlink="http://www.w3.org/1999/xlink" width="139.642" height="142.799" viewBox="0 0 139.642 142.799">
  <defs>
    <clipPath id="clip-path">
      <rect id="長方形_1433" data-name="長方形 1433" width="139.642" height="142.799" fill="none"/>
    </clipPath>
  </defs>
  <g id="グループ_3278" data-name="グループ 3278" clip-path="url(#clip-path)">
    <path id="パス_28608" data-name="パス 28608" d="M96.53,133.669c-6.355,0-12.834-.348-19.1-.685s-12.724-.683-19.058-.683c-1.926,0-3.721.03-5.486.094-.953.033-1.994.081-3.276.15-1.041.056-2.1.119-3.124.18-1.874.111-3.811.226-5.722.3-1.7.07-3.2.1-4.607.1-1.514,0-2.909-.039-4.262-.119-8.325-.492-15.123-2.7-20.207-6.569a19.581,19.581,0,0,1-3.068-2.932A28.094,28.094,0,0,1,4.206,116.1a41.883,41.883,0,0,1-2.979-18.6C2.374,83.519,8.368,66.679,17.673,51.3c.8-1.319,1.616-2.62,2.432-3.866.8-1.223,1.67-2.459,2.582-3.673a94.107,94.107,0,0,1,7.586-8.787c3.317-3.436,7.066-5.78,11.036-8.262l.729-.457A21.329,21.329,0,0,0,37.291,18.9c-.287-.289-.583-.575-.9-.878-.223-.216-.448-.434-.671-.654-1.613-1.592-3.339-3.506-3.412-6.091A7.14,7.14,0,0,1,33.7,7.061c.207-.3.432-.6.669-.884A14.826,14.826,0,0,1,45.889,1.114a16.236,16.236,0,0,1,8.136,2.131A17.105,17.105,0,0,1,60,9.029a24.293,24.293,0,0,1,3.211,8.949c.114.663.213,1.352.3,2.057.89.087,1.841.13,2.883.13,1.484,0,3-.087,4.474-.17,1.5-.086,3.053-.175,4.6-.175a28.847,28.847,0,0,1,4.41.306l.33.053c2.178-6.174,5.586-10.95,9.894-13.85A17.826,17.826,0,0,1,94.956,4.04a17.334,17.334,0,0,1,5-.75,15,15,0,0,1,4.574.694A13.157,13.157,0,0,1,107.88,5.6c2.17,1.463,4.377,4.161,4.06,7.342-.222,2.241-1.631,4.031-2.874,5.61l-.226.287c-.166.213-.331.426-.492.64a21.7,21.7,0,0,0-3.456,6.874c-.128.427-.242.861-.343,1.3.434.33,1.063.834,2.018,1.6.766.616,2.594,2.1,3.032,2.545.717.733,1.457,1.47,2.172,2.183,1.3,1.3,2.647,2.637,3.93,4.024a77.626,77.626,0,0,1,14.154,22.21A113.062,113.062,0,0,1,137.2,85.656c2.477,14.373,1.493,25.541-3.008,34.144a31.446,31.446,0,0,1-2.132,3.506,23.172,23.172,0,0,1-3.463,3.962,16.512,16.512,0,0,1-2.764,2.011,24.757,24.757,0,0,1-7.689,2.547,110.975,110.975,0,0,1-21.616,1.843" fill="#ee8e9e"/>
    <path id="パス_28609" data-name="パス 28609" d="M45.889,2.228a15.186,15.186,0,0,1,7.576,1.981A15.938,15.938,0,0,1,59.059,9.62a23.464,23.464,0,0,1,3.056,8.547c.163.947.288,1.906.381,2.87a28.562,28.562,0,0,0,3.9.242c3.032,0,6.045-.345,9.074-.345a27.836,27.836,0,0,1,4.241.293q.62.095,1.244.228c1.811-5.566,4.916-10.933,9.771-14.2a16.8,16.8,0,0,1,4.553-2.146,16.308,16.308,0,0,1,4.682-.7,13.877,13.877,0,0,1,4.234.641,12.041,12.041,0,0,1,3.066,1.478c2.1,1.42,3.826,3.782,3.574,6.309-.2,2.037-1.588,3.686-2.867,5.32-.173.22-.342.438-.507.657a22.921,22.921,0,0,0-3.633,7.226q-.309,1.036-.518,2.1h0c.116,0,4.88,3.814,5.494,4.442,2.024,2.068,4.109,4.055,6.081,6.184C126.747,51.568,133.139,68.64,136.1,85.846c1.933,11.216,2.292,23.518-2.9,33.437a30.418,30.418,0,0,1-2.057,3.382,22.031,22.031,0,0,1-3.294,3.773,15.257,15.257,0,0,1-2.576,1.875,23.734,23.734,0,0,1-7.349,2.42,111.236,111.236,0,0,1-21.4,1.822c-12.662,0-25.444-1.368-38.158-1.368q-2.767,0-5.527.1c-1.1.039-2.2.092-3.3.151-2.945.159-5.889.363-8.832.484-1.521.063-3.042.1-4.562.1-1.4,0-2.8-.034-4.2-.117-6.956-.411-14.052-2.125-19.6-6.343a18.463,18.463,0,0,1-2.894-2.767,27.022,27.022,0,0,1-4.232-7.12A40.68,40.68,0,0,1,2.338,97.6C3.6,82.263,10.471,65.355,18.625,51.879q1.191-1.967,2.412-3.831t2.54-3.615a92.7,92.7,0,0,1,7.5-8.682c3.63-3.76,7.87-6.222,12.316-9.026a22.415,22.415,0,0,0-5.308-8.607c-.505-.509-1.047-1.019-1.577-1.541-1.566-1.546-3.02-3.2-3.08-5.329a6.122,6.122,0,0,1,1.194-3.561q.283-.414.6-.8A13.792,13.792,0,0,1,45.889,2.228m0-2.228a17.469,17.469,0,0,0-6.753,1.342,14.679,14.679,0,0,0-5.627,4.123c-.258.309-.5.635-.731.967a8.212,8.212,0,0,0-1.58,4.879c.091,3.248,2.465,5.592,3.741,6.852.229.225.458.447.68.661.309.3.6.582.881.863a20.181,20.181,0,0,1,4.151,6.125c-4,2.5-7.787,4.877-11.179,8.391A94.745,94.745,0,0,0,21.8,43.094c-.927,1.235-1.81,2.49-2.624,3.733s-1.65,2.57-2.455,3.9A134.259,134.259,0,0,0,5.806,73.269,91.949,91.949,0,0,0,.117,97.415a43.022,43.022,0,0,0,3.061,19.114,29.165,29.165,0,0,0,4.592,7.706,20.682,20.682,0,0,0,3.243,3.1c5.262,4,12.265,6.288,20.814,6.794,1.376.081,2.791.121,4.328.121,1.418,0,2.942-.035,4.654-.1,1.92-.079,3.862-.194,5.741-.306,1.023-.061,2.08-.124,3.118-.18,1.278-.068,2.313-.116,3.256-.149,1.753-.063,3.534-.093,5.447-.093,6.3,0,12.757.346,19,.682,6.281.337,12.777.686,19.161.686a112.057,112.057,0,0,0,21.829-1.863,25.773,25.773,0,0,0,8.032-2.675,17.531,17.531,0,0,0,2.95-2.146,24.221,24.221,0,0,0,3.632-4.153,32.578,32.578,0,0,0,2.209-3.631c4.618-8.826,5.638-20.225,3.118-34.848a114.157,114.157,0,0,0-7.422-25.694,78.73,78.73,0,0,0-14.359-22.527c-1.3-1.4-2.653-2.752-3.962-4.056-.713-.71-1.45-1.445-2.162-2.173-.439-.448-1.943-1.68-3.129-2.634-.527-.424-1.034-.828-1.462-1.163.05-.184.1-.367.155-.549a20.617,20.617,0,0,1,3.28-6.524c.158-.21.325-.424.48-.624.072-.091.148-.186.222-.281,1.337-1.7,2.853-3.626,3.109-6.19a7.979,7.979,0,0,0-1.22-4.951A11.316,11.316,0,0,0,108.5,4.676a14.286,14.286,0,0,0-3.63-1.752,16.089,16.089,0,0,0-4.914-.747,18.506,18.506,0,0,0-5.324.8,18.966,18.966,0,0,0-5.154,2.432c-4.3,2.9-7.738,7.554-10.007,13.539a31.156,31.156,0,0,0-4.006-.237c-1.579,0-3.147.089-4.663.176s-2.959.168-4.411.168c-.668,0-1.3-.018-1.894-.055q-.085-.615-.187-1.207a25.372,25.372,0,0,0-3.365-9.352,18.22,18.22,0,0,0-6.363-6.156A17.355,17.355,0,0,0,45.889,0" fill="#b2496f"/>
    <path id="パス_28610" data-name="パス 28610" d="M106.281,61.224c1.275,9.082-.4,18.289-6.129,24.317-4.657,4.9-12,5.951-18.755,6.193a130.684,130.684,0,0,1-25.049-1.512c-5.131-.809-10.567-2.12-14.065-5.96a24.471,24.471,0,0,1-5.79-14.5c-.928-14.1,6.759-31.065,20.527-36.547,5.617-2.236,11.761-2.328,17.708-1.887,5.872.436,10.382.171,15.721,3.191,8.323,4.708,14.275,15.615,15.832,26.707" fill="#fff"/>
    <path id="パス_28611" data-name="パス 28611" d="M76.731,92.715a131.84,131.84,0,0,1-20.523-1.607c-5.141-.811-10.9-2.187-14.588-6.242A25.4,25.4,0,0,1,35.6,69.819a42.548,42.548,0,0,1,4.854-21.984,36.852,36.852,0,0,1,6.8-9.224,28.721,28.721,0,0,1,9.441-6.231c6.177-2.459,12.921-2.333,18.106-1.949.94.07,1.849.122,2.729.172,4.673.267,8.708.5,13.368,3.133a30.022,30.022,0,0,1,10.787,11.291A44.745,44.745,0,0,1,107.169,61.1a37.75,37.75,0,0,1-.452,13.632A24.249,24.249,0,0,1,100.8,86.159c-5.04,5.3-13,6.243-19.373,6.471q-2.346.084-4.7.085m-7.146-60.7a33.161,33.161,0,0,0-12.233,2.035C43.743,39.464,36.514,56.43,37.388,69.7a23.56,23.56,0,0,0,5.558,13.957c3.311,3.635,8.465,4.877,13.541,5.678a130.2,130.2,0,0,0,24.877,1.5c6.032-.217,13.545-1.085,18.138-5.915,5.094-5.358,7.241-13.952,5.891-23.574C103.786,49.9,97.747,39.676,90.007,35.3c-4.3-2.43-7.954-2.638-12.586-2.9-.887-.05-1.805-.1-2.759-.173-1.568-.117-3.282-.209-5.077-.209" fill="#b2496f"/>
    <path id="パス_28612" data-name="パス 28612" d="M63.954,57.922A2.387,2.387,0,0,0,65.9,56.41a5.521,5.521,0,0,0,.265-2.461A2.788,2.788,0,0,0,64.324,51.1a1.963,1.963,0,0,0-2.391.9c-1.038,1.666-.9,6.11,2.021,5.922" fill="#b2496f"/>
    <path id="パス_28613" data-name="パス 28613" d="M80.936,58.261a2.387,2.387,0,0,0,1.941-1.512,5.507,5.507,0,0,0,.265-2.461,2.788,2.788,0,0,0-1.837-2.847,1.963,1.963,0,0,0-2.391.9c-1.038,1.666-.9,6.11,2.022,5.922" fill="#b2496f"/>
    <path id="パス_28614" data-name="パス 28614" d="M70.35,57.35a1.074,1.074,0,0,0-.414.158.528.528,0,0,0-.182.63,1.7,1.7,0,0,0,.456.589,2.737,2.737,0,0,0,1.67.862A2.283,2.283,0,0,0,73,59.351a3.813,3.813,0,0,0,.855-.6c.35-.307.728-1,.12-1.295a1.587,1.587,0,0,0-.515-.122,11.121,11.121,0,0,0-3.114.016" fill="#f38b96"/>
    <path id="パス_28615" data-name="パス 28615" d="M92.017,55.507a9.114,9.114,0,0,0-5.951,5.022,8.689,8.689,0,0,0,.331,7.416,8.893,8.893,0,0,0,3.3,3.547,11.823,11.823,0,0,0,4.665,1.458,9.2,9.2,0,0,0,5.27-.673,7.558,7.558,0,0,0,1.969-1.534,9.516,9.516,0,0,0,2.79-6.824c-.219-5.512-6.347-10.036-12.371-8.412" fill="#f38b96"/>
    <path id="パス_28616" data-name="パス 28616" d="M98.142,56.684a1.4,1.4,0,0,0-1,.661,1.955,1.955,0,0,0-.287,1.272,1.441,1.441,0,0,0,.273.71,1.305,1.305,0,0,0,.542.4.973.973,0,0,0,.715.057,1.159,1.159,0,0,0,.326-.2,2,2,0,0,0,.666-1.07c.214-.945-.383-1.913-1.238-1.832" fill="#fff"/>
    <path id="パス_28617" data-name="パス 28617" d="M100.771,59.543a1.075,1.075,0,0,0-.765.507,1.5,1.5,0,0,0-.219.975,1.122,1.122,0,0,0,.208.545,1.011,1.011,0,0,0,.417.306.75.75,0,0,0,.549.044.9.9,0,0,0,.249-.152,1.525,1.525,0,0,0,.51-.82c.166-.724-.292-1.467-.949-1.405" fill="#fff"/>
    <path id="パス_28618" data-name="パス 28618" d="M53.7,54.741A9.117,9.117,0,0,1,59.442,60a8.689,8.689,0,0,1-.628,7.4,8.88,8.88,0,0,1-3.435,3.413,11.809,11.809,0,0,1-4.72,1.27,9.2,9.2,0,0,1-5.238-.882,7.573,7.573,0,0,1-1.907-1.612A9.515,9.515,0,0,1,41,62.652c.439-5.5,6.743-9.774,12.7-7.911" fill="#f38b96"/>
    <path id="パス_28619" data-name="パス 28619" d="M47.529,55.672a1.4,1.4,0,0,1,.97.7,1.955,1.955,0,0,1,.235,1.282,1.464,1.464,0,0,1-.3.7,1.327,1.327,0,0,1-.558.376.974.974,0,0,1-.718.028,1.127,1.127,0,0,1-.316-.209,1.991,1.991,0,0,1-.623-1.1c-.178-.952.458-1.9,1.31-1.781" fill="#fff"/>
    <path id="パス_28620" data-name="パス 28620" d="M44.788,58.425a1.073,1.073,0,0,1,.744.537,1.5,1.5,0,0,1,.18.983,1.108,1.108,0,0,1-.23.536,1.024,1.024,0,0,1-.428.29.752.752,0,0,1-.55.021.85.85,0,0,1-.243-.161,1.527,1.527,0,0,1-.478-.84c-.136-.73.351-1.454,1-1.366" fill="#fff"/>
    <path id="パス_28621" data-name="パス 28621" d="M72.138,65.068a3.212,3.212,0,0,1-2.415-1.043,6.019,6.019,0,0,1-1.184-2.231.952.952,0,1,1,1.815-.578,4.233,4.233,0,0,0,.8,1.551,1.44,1.44,0,0,0,1.86.1,2.937,2.937,0,0,0,.626-1.651.953.953,0,0,1,1.876.335,4.5,4.5,0,0,1-1.259,2.76,3.245,3.245,0,0,1-2.118.76" fill="#b2496f"/>
    <path id="パス_28622" data-name="パス 28622" d="M58.972,112.651c0-.059-.007-.117-.01-.176a23.166,23.166,0,0,0-1.627-8.456c-3.584-7.774-12.051-7.959-18.312-12.113-5.162-3.425-8.17-9.474-9.032-15.609s.2-12.384,1.783-18.373c2.527-9.57,6.832-19.337,15.089-24.8a38.822,38.822,0,0,1,8.644-4.053c8.188-2.869,16.981-4.458,25.574-3.264s16.975,5.4,22.079,12.416c2.78,3.821,4.5,8.3,6.045,12.763q1.53,4.428,2.868,8.92c1.521,5.107,2.865,10.383,2.51,15.7-.794,11.912-11.223,22.425-23.128,23.316-2.989.223-6.607.219-8.15,2.79a7.866,7.866,0,0,0-.8,3.766q-.418,10.24.04,20.494A7.637,7.637,0,0,1,82,130.017c-1.383,2.527-4.923,2.6-7.792,2.346a2,2,0,0,1-2.312-2.132Q70.1,115.6,69.537,100.86c-.121-3.138.287-6.311.376-9.47a18.594,18.594,0,0,1,4.5-.926c1-.08,2.015-.077,3.023-.075a49.448,49.448,0,0,0,17.2-3.432c5.6-2.039,7.988-6.251,9.4-12.021,2.054-8.367,1.547-17.484-2.214-25.235S90.894,35.744,82.472,33.928c-5.663-1.221-11.556-.481-17.255.565-4.188.768-8.443,1.739-12.041,4.017-6.05,3.833-9.357,10.779-11.51,17.61-1.712,5.431-2.9,11.2-1.885,16.805C42.4,87.36,56.371,89.048,68.242,90.906a.826.826,0,0,1,.878.994c.127,6.092.287,12.338.754,18.434q.444,5.923.721,11.859c.113,2.428,1.38,7.833-.513,9.571-2.124,1.951-11.235,2.13-11.039-2.041a166.75,166.75,0,0,0-.071-17.072" fill="#fbf1e7"/>
    <path id="パス_28623" data-name="パス 28623" d="M64.939,134.212a11.043,11.043,0,0,1-4.513-.85,3.821,3.821,0,0,1-2.5-3.692,166.242,166.242,0,0,0-.07-16.958l-.01-.175a22.366,22.366,0,0,0-1.526-8.052c-2.191-4.752-6.424-6.453-10.905-8.255a38.233,38.233,0,0,1-7.012-3.4c-5.058-3.356-8.527-9.327-9.519-16.382-.758-5.4-.2-11.2,1.809-18.813C33.961,45.282,39.048,36.96,46.249,32.2a40.178,40.178,0,0,1,8.89-4.175c9.414-3.3,18.194-4.415,26.1-3.316,9.521,1.323,17.841,6.012,22.826,12.864,2.962,4.071,4.752,8.873,6.2,13.054,1.022,2.955,1.992,5.972,2.883,8.966,1.434,4.815,2.933,10.427,2.555,16.092a27.018,27.018,0,0,1-24.156,24.352c-.273.021-.551.039-.832.058-2.627.175-5.343.356-6.446,2.195a6.928,6.928,0,0,0-.645,3.238c-.277,6.77-.264,13.633.04,20.4a8.637,8.637,0,0,1-.679,4.626c-1.738,3.175-5.894,3.187-8.869,2.92a3.678,3.678,0,0,1-2.525-.988,2.661,2.661,0,0,1-.3-.4,3.353,3.353,0,0,1-.447.506c-1.148,1.054-3.523,1.627-5.9,1.627M60.084,112.59a168.673,168.673,0,0,1,.072,17.185c-.013.268-.046.979,1.214,1.569,2.472,1.156,6.893.579,7.959-.4,1.044-.959.618-4.484.364-6.59-.094-.781-.183-1.519-.211-2.11-.183-3.927-.425-7.906-.719-11.827-.469-6.125-.63-12.456-.755-18.42l-1.122-.175c-5.975-.927-12.153-1.885-17.358-4.44A18.713,18.713,0,0,1,38.685,73.124c-1.148-6.33.422-12.591,1.919-17.339a46.751,46.751,0,0,1,4.4-10.17,23.976,23.976,0,0,1,7.574-8.046c3.877-2.455,8.452-3.441,12.436-4.172,5.69-1.044,11.77-1.834,17.691-.558a28.1,28.1,0,0,1,11.9,5.892,31.655,31.655,0,0,1,8.221,10.484A38.575,38.575,0,0,1,105.123,75.2,21.769,21.769,0,0,1,101.81,83a14,14,0,0,1-6.792,5c-6.649,2.419-12.049,3.5-17.492,3.5h-.093c-1.015,0-1.973,0-2.933.071a17.433,17.433,0,0,0-3.5.642c-.041.948-.1,1.9-.165,2.819a56.219,56.219,0,0,0-.183,5.782c.374,9.747,1.165,19.6,2.352,29.278a2.14,2.14,0,0,0,.229.89c.171.187.76.24,1.076.269,3.738.335,5.871-.228,6.716-1.772a6.782,6.782,0,0,0,.408-3.456c-.307-6.83-.32-13.757-.04-20.59a8.9,8.9,0,0,1,.96-4.293c1.7-2.838,5.309-3.079,8.208-3.272.275-.018.547-.036.814-.056,11.423-.854,21.337-10.849,22.1-22.279.353-5.3-1.088-10.679-2.467-15.308-.882-2.964-1.842-5.95-2.853-8.875-1.392-4.029-3.11-8.647-5.892-12.471-4.632-6.365-12.407-10.727-21.332-11.968-7.547-1.049-15.976.032-25.052,3.212a38.125,38.125,0,0,0-8.4,3.931C40.753,38.5,35.969,46.4,32.851,58.208c-1.931,7.309-2.472,12.84-1.757,17.934.9,6.425,4.018,11.832,8.545,14.836a36.537,36.537,0,0,0,6.61,3.185c4.688,1.885,9.536,3.834,12.1,9.39a24.194,24.194,0,0,1,1.727,8.86ZM76.128,34.408a59.774,59.774,0,0,0-10.71,1.18c-3.778.693-8.106,1.621-11.646,3.863-4.845,3.069-8.354,8.472-11.044,17-2.108,6.689-2.679,11.707-1.851,16.271a16.619,16.619,0,0,0,9.632,12.657c4.9,2.4,10.908,3.336,16.718,4.238l1.188.185a2.287,2.287,0,0,1,1.216.5,19.744,19.744,0,0,1,4.693-.956c1.051-.083,2.1-.08,3.114-.078,5.2.015,10.388-1.026,16.818-3.365,4.636-1.687,7.158-4.943,8.7-11.24a36.351,36.351,0,0,0-2.134-24.482C97.1,42.5,89.972,36.684,82.238,35.017a28.964,28.964,0,0,0-6.11-.609" fill="#b2496f"/>
    <path id="パス_28624" data-name="パス 28624" d="M122.493,109.661a1.114,1.114,0,0,1-.966-1.667c1.783-3.119,3.56-6.464,3.985-10.034.574-4.824-1.346-9.715-3.04-14.03a1.114,1.114,0,0,1,2.074-.814c1.79,4.559,3.819,9.727,3.178,15.107-.475,3.985-2.366,7.558-4.263,10.877a1.115,1.115,0,0,1-.968.561" fill="#b2496f"/>
    <path id="パス_28625" data-name="パス 28625" d="M30.847,119.686a11.685,11.685,0,0,1-11.665-10.724l-.021-.29a3.134,3.134,0,0,0-.195-1.1,3.119,3.119,0,0,0-.42-.545c-.052-.058-.1-.116-.153-.175a12.6,12.6,0,0,1-2.735-7.4,34.856,34.856,0,0,1,.6-7.512,1.114,1.114,0,1,1,2.2.337,33.172,33.172,0,0,0-.574,7.034,10.413,10.413,0,0,0,2.2,6.092l.134.154a4.79,4.79,0,0,1,.732,1,4.858,4.858,0,0,1,.435,1.963c.006.088.012.176.02.263a9.457,9.457,0,0,0,10.055,8.659,1.114,1.114,0,1,1,.148,2.223q-.38.025-.759.025" fill="#b2496f"/>
    <path id="パス_28626" data-name="パス 28626" d="M107.845,113.506a4.544,4.544,0,1,1-4.544-4.544,4.543,4.543,0,0,1,4.544,4.544" fill="#fff"/>
    <path id="パス_28627" data-name="パス 28627" d="M133.207,119.283a30.117,30.117,0,0,1-2.057,3.382,22.062,22.062,0,0,1-3.294,3.772,4.544,4.544,0,1,1,5.351-7.154" fill="#fff"/>
    <path id="パス_28628" data-name="パス 28628" d="M130.681,73.426a4.544,4.544,0,1,1-4.544-4.544,4.543,4.543,0,0,1,4.544,4.544" fill="#fff"/>
    <path id="パス_28629" data-name="パス 28629" d="M104.191,5.045a4.545,4.545,0,0,1-8.916.062,15.161,15.161,0,0,1,8.916-.062" fill="#fff"/>
    <path id="パス_28630" data-name="パス 28630" d="M103.824,26.035a4.544,4.544,0,1,1,4.14-7.883Z" fill="#fff"/>
    <path id="パス_28631" data-name="パス 28631" d="M62.116,18.166A4.545,4.545,0,1,1,59.059,9.62a23.46,23.46,0,0,1,3.057,8.546" fill="#fff"/>
    <path id="パス_28632" data-name="パス 28632" d="M26.317,48.6a4.543,4.543,0,0,1-7.692,3.275q1.189-1.967,2.412-3.831t2.541-3.615A4.543,4.543,0,0,1,26.317,48.6" fill="#fff"/>
    <path id="パス_28633" data-name="パス 28633" d="M19.094,75.868a4.544,4.544,0,1,1-4.545-4.544,4.544,4.544,0,0,1,4.545,4.544" fill="#fff"/>
    <path id="パス_28634" data-name="パス 28634" d="M41.93,104.762a4.544,4.544,0,1,1-4.544-4.544,4.543,4.543,0,0,1,4.544,4.544" fill="#fff"/>
    <path id="パス_28635" data-name="パス 28635" d="M13.5,118.278a4.544,4.544,0,0,1-4.033,4.515,27.057,27.057,0,0,1-4.233-7.12,4.543,4.543,0,0,1,8.266,2.605" fill="#fff"/>
    <path id="パス_28636" data-name="パス 28636" d="M49.619,130.628a4.539,4.539,0,0,1-.071.8c-2.944.158-5.887.363-8.831.484a4.544,4.544,0,1,1,8.9-1.289" fill="#fff"/>
    <path id="パス_28637" data-name="パス 28637" d="M40.189,12.115A4.543,4.543,0,0,1,36.5,16.577c-1.566-1.546-3.02-3.2-3.08-5.329a6.116,6.116,0,0,1,1.195-3.561,4.549,4.549,0,0,1,5.57,4.428" fill="#fff"/>
    <path id="パス_28638" data-name="パス 28638" d="M39.556,141.9a2.991,2.991,0,0,1-1.494-.4l-2.573-1.479a10.7,10.7,0,0,1-5.162,1.5c-.058,0-.159,0-.258,0a6.536,6.536,0,0,1-6.648-6.628,9.007,9.007,0,0,1,2.13-5.886,3.01,3.01,0,0,1-.291-1.037l-.308-3.3a3,3,0,0,1,2.686-3.263c.232-.023.478-.046.732-.069a3,3,0,0,1,2.738-1.773c.053,0,.106,0,.16,0l3.3.177a3,3,0,0,1,2.161,1.1l0,0c.62-.017,1.185-.025,1.614-.025a3,3,0,0,1,3,2.9l.107,3.2a7.95,7.95,0,0,1,3.437,6.606A10.087,10.087,0,0,1,41.6,141.1a3,3,0,0,1-2.043.8" fill="#b2496f"/>
    <path id="パス_28639" data-name="パス 28639" d="M56.122,142.8a2.992,2.992,0,0,1-1.875-.659l-2.772-2.221a3,3,0,0,1-.371-4.33c-.686.276-1.435.568-2.312.889a3,3,0,0,1-3.946-2.112,50.764,50.764,0,0,1-.965-9.794,3,3,0,0,1,2.928-3.02l3.7-.089a3,3,0,0,1,2.508,1.355,2.991,2.991,0,0,1,2.507-1.657l3.718-.221c.06,0,.12-.005.18-.005a3,3,0,0,1,2.908,2.272,18.862,18.862,0,0,1,.464,4.446c0,5.854-1.725,11.3-4.5,14.215a3,3,0,0,1-2.173.931" fill="#b2496f"/>
    <path id="パス_28640" data-name="パス 28640" d="M73.939,142.052a2.994,2.994,0,0,1-1.448-.374l-2.257-1.247a2.978,2.978,0,0,1-.521.352,3.11,3.11,0,0,1-1.44.36,2.882,2.882,0,0,1-.944-.158l-3.058-1.056a3,3,0,0,1-1.975-3.353,31.428,31.428,0,0,1,1.1-3.635c-.052-.038-.1-.078-.154-.119a3,3,0,0,1-1.079-2.176l-.153-3.476a3,3,0,0,1,2.616-3.108q.755-.1,1.8-.153c.215-.631.417-1.213.559-1.608a3,3,0,0,1,3.8-1.818l3.189,1.1a3,3,0,0,1,1.647,1.382l.246-.087a2.84,2.84,0,0,1,.15-.46,3,3,0,0,1,1.851-1.692l1.649-.529a3.042,3.042,0,0,1,.63-.13c.049-.016,1.8-.529,1.8-.529a3,3,0,0,1,3.527,1.537,18.7,18.7,0,0,1,.959,2.5,3,3,0,0,1-1.9,3.7s-1.726.589-1.754.6c.255.689.477,1.333.623,1.827a3,3,0,0,1-1.681,3.606l-2.653,1.149a20.431,20.431,0,0,1-2.568,6.167,3,3,0,0,1-2.555,1.425" fill="#b2496f"/>
    <path id="パス_28641" data-name="パス 28641" d="M94.1,142.293c-8.95,0-9.646-6.152-9.646-8.038a8.494,8.494,0,0,1,.851-3.616,29.468,29.468,0,0,1-1.285-6.581,3,3,0,0,1,2.455-3.14l3.5-.639a3.068,3.068,0,0,1,.539-.048,3,3,0,0,1,2.953,2.474q.222-.126.439-.244a3,3,0,0,1,4.182,1.454l1.5,3.476a3,3,0,0,1-1.389,3.857,13.954,13.954,0,0,0-1.991,1.239q.342-.031.725-.072a3.1,3.1,0,0,1,.318-.017,3,3,0,0,1,3,3.018l-.022,3.652a3,3,0,0,1-2.6,2.955,26.137,26.137,0,0,1-3.529.27" fill="#b2496f"/>
    <path id="パス_28642" data-name="パス 28642" d="M107.561,142.69a3,3,0,0,1-2.535-1.393l-1.914-3.014a3,3,0,0,1,.483-3.8,3,3,0,0,1-2.893-2.219l-.9-3.345a3,3,0,0,1,2.1-3.673l.206-.056a3.005,3.005,0,0,1,0-.908l.506-3.213a3,3,0,0,1,3.382-2.5c1.532.216,4.785.856,6.012,1.215a3,3,0,0,1,2.074,3.583l-.649,2.695a6.886,6.886,0,0,1,3.132,5.8c0,3.672-2.707,7.456-7.426,10.382a2.989,2.989,0,0,1-1.578.451" fill="#b2496f"/>
    <path id="パス_28643" data-name="パス 28643" d="M39.557,139.9a.989.989,0,0,1-.5-.133l-2.794-1.607a.992.992,0,0,1-.484-.681c0-.019-.007-.039-.01-.058a8.976,8.976,0,0,1-5.5,2.1l-.207,0a4.525,4.525,0,0,1-4.648-4.647,7.163,7.163,0,0,1,3.615-6.253c-.259.023-.491.045-.686.065a.877.877,0,0,1-.1.006,1,1,0,0,1-1-.907l-.307-3.3a1,1,0,0,1,.9-1.088c.655-.066,1.44-.131,2.241-.187.009-.251.019-.488.029-.694a1,1,0,0,1,1-.951l3.354.178a1,1,0,0,1,.936,1.144v.006c1.107-.05,2.228-.073,2.95-.073a1,1,0,0,1,1,.967l.11,3.3a.994.994,0,0,1-.28.729c-.015.015-.03.03-.046.044a6.115,6.115,0,0,1,3.759,5.664,8.132,8.132,0,0,1-2.651,6.1,1,1,0,0,1-.681.268" fill="#fff"/>
    <path id="パス_28644" data-name="パス 28644" d="M56.123,140.8a1,1,0,0,1-.625-.22l-2.772-2.222a1,1,0,0,1-.1-1.466c1.873-1.989,2.976-8.543,2.106-12.522a1,1,0,0,1,.917-1.212s3.758-.223,3.778-.223a1,1,0,0,1,.969.758,16.868,16.868,0,0,1,.4,3.961c0,5.278-1.551,10.317-3.95,12.836a1,1,0,0,1-.724.31m-8.361-6.139a1,1,0,0,1-.972-.765,48.67,48.67,0,0,1-.909-9.338,1,1,0,0,1,.976-1.006l3.655-.088a1,1,0,0,1,1,1.021c-.015.688.038,2.441.1,3.676.094-.017.186-.032.275-.044a1.008,1.008,0,0,1,.144-.011,1,1,0,0,1,.969.762l.638,2.6a1,1,0,0,1-.6,1.165l-1.187.489c-1.1.455-2.232.926-3.751,1.481a1,1,0,0,1-.344.061" fill="#fff"/>
    <path id="パス_28645" data-name="パス 28645" d="M73.941,140.051a.988.988,0,0,1-.482-.125L70.51,138.3a1,1,0,0,1-.415-1.315c1.614-3.3,1.693-4.964,1.478-5.457l-.008.024c-1.02,3-2.175,6.4-2.286,6.842a1,1,0,0,1-.97.757.983.983,0,0,1-.326-.055l-3.058-1.057a1,1,0,0,1-.659-1.117c.062-.351.363-1.348,1.742-5.5-.306.03-.546.061-.706.084a1.071,1.071,0,0,1-.139.01,1,1,0,0,1-1-.956l-.154-3.477a1,1,0,0,1,.872-1.036c.751-.1,1.755-.16,2.992-.192.356-1.047.755-2.22.992-2.874a1,1,0,0,1,1.266-.606l3.191,1.1a1,1,0,0,1,.616,1.28s-.337.962-.444,1.266c.242.029.465.063.67.1a3.785,3.785,0,0,1,.572.154,1,1,0,0,1,.652-1.1l2.584-.918c-.038-.107-.069-.189-.089-.23a1.026,1.026,0,0,1-.011-.832,1.008,1.008,0,0,1,.6-.56l1.65-.528a1.011,1.011,0,0,1,.305-.048.445.445,0,0,0,.423-.114l1.65-.483a.987.987,0,0,1,.282-.041,1,1,0,0,1,.894.553,16.709,16.709,0,0,1,.834,2.184,1,1,0,0,1-.635,1.234l-1.672.571a1,1,0,0,1-.324.054.981.981,0,0,1-.235-.028c-.023.011-.048.021-.072.03l-1.466.552c.53,1.281,1.1,2.808,1.368,3.706a1,1,0,0,1-.561,1.2l-2.64,1.145a1,1,0,0,1-.832-.017.8.8,0,0,1-.087-.048,17.561,17.561,0,0,1-2.567,7.021,1,1,0,0,1-.852.475" fill="#fff"/>
    <path id="パス_28646" data-name="パス 28646" d="M94.1,140.293c-6.652,0-7.646-3.783-7.646-6.038a6.94,6.94,0,0,1,1.016-3.461,27.5,27.5,0,0,1-1.454-6.862,1,1,0,0,1,.818-1.047l3.5-.638a1,1,0,0,1,1.175.887c.1.985.237,2.067.384,2.991a25.006,25.006,0,0,1,2.964-1.9.994.994,0,0,1,.475-.12,1,1,0,0,1,.919.6l1.5,3.477a1,1,0,0,1-.463,1.285c-3.164,1.618-4.89,3.75-4.89,4.391,0,.4,0,.74,1.85.74a28.545,28.545,0,0,0,2.9-.194.925.925,0,0,1,.106-.006,1,1,0,0,1,1,1.006l-.022,3.653a1,1,0,0,1-.865.985,24.266,24.266,0,0,1-3.259.251" fill="#fff"/>
    <path id="パス_28647" data-name="パス 28647" d="M107.559,140.69a1,1,0,0,1-.845-.464l-1.914-3.015a1,1,0,0,1,.258-1.346c3.1-2.24,3.39-2.988,3.416-3.115,0-.3,0-.718-1.483-.718a16.024,16.024,0,0,0-3.183.429,1,1,0,0,1-1.176-.718l-.9-3.345a1,1,0,0,1,.7-1.224,18.587,18.587,0,0,1,4.909-.721,11.858,11.858,0,0,1,1.915.148c-1.449-.336-3.564-.763-4.311-.86a1,1,0,0,1-.86-1.147l.506-3.213a1,1,0,0,1,.988-.844,1.133,1.133,0,0,1,.14.009c1.44.2,4.595.822,5.73,1.154a1,1,0,0,1,.691,1.194l-.769,3.191a1,1,0,0,1-.972.765h-.027c2.62.759,4.195,2.56,4.195,5.007,0,2.921-2.423,6.167-6.48,8.683a.992.992,0,0,1-.526.15" fill="#fff"/>
    <path id="パス_28648" data-name="パス 28648" d="M36.763,137.291c1.43-1.782,1.826-2.684,1.826-4.048a1.743,1.743,0,0,0-.22-.88c-1.76,3.7-4.708,6.072-8.12,6.161a3.535,3.535,0,0,1-3.828-3.653c0-2.75,1.695-4.973,4.6-6.117v-1.3c-1.122.087-2.135.176-2.772.242l-.308-3.3c.88-.089,2-.177,3.124-.242,0-.551.022-1.145.044-1.585l3.3.177c-.023.153-.023.571-.044,1.21,1.341-.088,2.992-.132,3.982-.132l.11,3.3c-.88,0-2.487.067-4.159.155v.77c4.4-.286,7.591,2.025,7.591,5.479a7.1,7.1,0,0,1-2.332,5.369Zm-5.611-1.914c-.066-1.232-.088-2.354-.111-3.367a2.728,2.728,0,0,0-1.363,2.267c0,.792.308,1.122,1.1,1.122a1.28,1.28,0,0,0,.374-.022m4.533-4.357A5.744,5.744,0,0,0,34.3,131c0,.374,0,.835.044,2.288a12.3,12.3,0,0,0,1.343-2.267" fill="#ee8e9e"/>
    <path id="パス_28649" data-name="パス 28649" d="M46.881,124.551l3.631-.088c-.021,1.012.088,3.961.176,4.862.309-.021.881-.153,1.343-.22l.637,2.6c-1.517.616-2.86,1.21-4.906,1.958a48,48,0,0,1-.881-9.109m6.47,13.026c2.156-2.289,3.278-9.2,2.354-13.422l3.718-.221a16.028,16.028,0,0,1,.374,3.719c0,5.017-1.452,9.814-3.674,12.146Z" fill="#ee8e9e"/>
    <path id="パス_28650" data-name="パス 28650" d="M70.993,137.423c1.958-4,2.245-6.733.573-7.018-.176-.023-.4-.067-.638-.089-1.188,3.5-2.486,7.306-2.619,7.834l-3.058-1.057c.066-.374.682-2.288,2.178-6.777-1.012.044-1.8.133-2.267.2l-.153-3.476a34.574,34.574,0,0,1,3.586-.2c.4-1.166.925-2.727,1.211-3.52l3.19,1.1c-.132.374-.528,1.518-.88,2.486a15.772,15.772,0,0,1,1.87.2c3.279.616,3.256,6.6-.044,11.947Zm4.731-11.309,2.663-.946a43.851,43.851,0,0,1,2.134,5.39l-2.64,1.145a21.713,21.713,0,0,0-2.157-5.589m3.059-2.53,1.65-.529a10.2,10.2,0,0,1,.792,2.025l-1.694.637c-.154-.418-.617-1.87-.748-2.133m2.354-.683,1.65-.483a15.7,15.7,0,0,1,.771,2.024l-1.673.571c-.132-.4-.506-1.584-.748-2.112" fill="#ee8e9e"/>
    <path id="パス_28651" data-name="パス 28651" d="M87.45,134.255a6.371,6.371,0,0,1,1.121-3.367,26.041,26.041,0,0,1-1.562-7.019l3.5-.638a42.461,42.461,0,0,0,.7,4.709,24.548,24.548,0,0,1,4.114-2.839l1.5,3.476c-2.969,1.519-5.435,3.917-5.435,5.282,0,1.671,1.3,2.024,5.854,1.54l-.022,3.652a22.972,22.972,0,0,1-3.124.242c-4.379,0-6.645-1.716-6.645-5.038" fill="#ee8e9e"/>
    <path id="パス_28652" data-name="パス 28652" d="M105.644,136.675c2.618-1.893,3.828-3.125,3.828-3.9,0-1.782-1.782-2.178-5.874-1.3l-.9-3.344c6.227-1.717,10.869-.111,10.869,3.718,0,2.575-2.244,5.5-6.007,7.833Zm-.572-11.926.506-3.213c1.408.2,4.533.815,5.589,1.123l-.77,3.191c-1.255-.33-4.312-.969-5.325-1.1" fill="#ee8e9e"/>
  </g>
</svg>
