<svg id="グループ_3277" data-name="グループ 3277" xmlns="http://www.w3.org/2000/svg" xmlns:xlink="http://www.w3.org/1999/xlink" width="136.064" height="149.051" viewBox="0 0 136.064 149.051">
  <defs>
    <clipPath id="clip-path">
      <rect id="長方形_1432" data-name="長方形 1432" width="136.064" height="149.051" fill="none"/>
    </clipPath>
  </defs>
  <g id="グループ_3276" data-name="グループ 3276" clip-path="url(#clip-path)">
    <path id="パス_28496" data-name="パス 28496" d="M7.485,104c.367,5.105.834,10.189,1.2,15.18a4.354,4.354,0,0,0,.368,1.717,4.191,4.191,0,0,0,1.614,1.47,89.26,89.26,0,0,0,14.073,6.9c10.1,3.979,21.393,5.262,32.49,6.21,15.931,1.362,33.312,2.869,48.965-.623,9.137-2.038,17.821-6.722,21.516-13.84,2.4-4.633,2.519-9.845,2.51-14.909-.022-11.071-.262-22.117-.141-33.193-.007.646-24.755,1.592-27.052,1.677q-13.6.505-27.206.391c-18.2-.132-36.4-1.016-54.552-2.358q-3.437-.255-6.87-.53c-1.428-.112-3.933-.334-5.146.547-1.687,1.223-1.7,4.278-1.881,6.094A147.473,147.473,0,0,0,7.485,104" fill="#f38a95"/>
    <path id="パス_28497" data-name="パス 28497" d="M83.947,137.842q-1,0-2.022-.013c-8.284-.1-16.549-.81-24.54-1.493l-.223-.019c-10.866-.929-22.344-2.177-32.724-6.265a90.273,90.273,0,0,1-14.207-6.973,4.9,4.9,0,0,1-1.912-1.791,5.071,5.071,0,0,1-.461-2.043c-.173-2.33-.371-4.728-.562-7.047-.22-2.661-.447-5.412-.643-8.134a149.36,149.36,0,0,1-.106-25.406c.024-.23.044-.484.066-.754.16-1.959.379-4.643,2.155-5.931,1.433-1.04,3.939-.842,5.6-.711l.259.02c2.2.173,4.474.352,6.711.517,19.784,1.463,37.61,2.234,54.5,2.357,9.248.067,18.389-.064,27.17-.391,12.074-.449,25.532-1.146,26.692-1.552a.765.765,0,0,0-.443.7l1.668.018c-.076,6.89-.01,13.889.053,20.657.039,4.1.079,8.346.087,12.525.01,5.4-.181,10.626-2.6,15.294a23.87,23.87,0,0,1-9.021,9.152,43.255,43.255,0,0,1-13.053,5.119,102.962,102.962,0,0,1-22.433,2.165m-75.631-33.9c.195,2.714.422,5.46.641,8.116.192,2.323.39,4.725.563,7.062a3.7,3.7,0,0,0,.274,1.39,3.5,3.5,0,0,0,1.316,1.15A88.477,88.477,0,0,0,25.049,128.5c10.171,4.006,21.512,5.238,32.255,6.156l.222.019c15.485,1.323,33.035,2.822,48.491-.626,10.06-2.244,17.7-7.132,20.957-13.411,2.252-4.339,2.427-9.144,2.417-14.522-.009-4.173-.048-8.413-.087-12.514-.06-6.425-.122-13.058-.064-19.616l-.12.016c-.662.085-1.631.177-2.879.272-2.109.162-5.064.34-8.782.528-6.881.348-14.092.618-14.4.629-8.805.328-17.971.459-27.244.392-16.923-.123-34.786-.9-54.607-2.361-2.241-.166-4.517-.345-6.719-.518l-.259-.02c-1.241-.1-3.552-.281-4.487.4C8.591,74.16,8.408,76.4,8.275,78.04c-.023.278-.044.54-.069.786a147.852,147.852,0,0,0,.11,25.118" fill="#e45c6f"/>
    <path id="パス_28498" data-name="パス 28498" d="M65.892,108.806c6.164,2.147,11.431,5.724,18.088,6.694,4.446.647,9.236.094,12.932-2.46,2.5-1.728,4.336-4.235,6.487-6.382s4.894-4.038,7.932-3.958c3.257.086,6.033,1.63,9.11,2.564,14.3,4.341,10.76-20.166,10.2-27.832a21.238,21.238,0,0,0-1.219-6.683c-3.738-8.96-16.195-13.808-24.777-16.144-2.845-.775-5.238-2.216-8.171-2.811-3.807-.771-7.661-1.344-11.52-1.783A166.807,166.807,0,0,0,37.529,51.65c-6.829,1.192-13.74,2.7-19.648,6.078C13.758,60.085,9.393,63.436,7.114,67.7a23.7,23.7,0,0,0-2.219,9.13,104.125,104.125,0,0,0-.284,14.639A26.246,26.246,0,0,0,6.288,100.5a10.625,10.625,0,0,0,6.416,6.219c3.011.879,6.248-.062,9.109-1.345s5.609-2.93,8.68-3.56c8.467-1.736,9.387,6.851,15.66,9.787,3.14,1.47,6.87.378,9.981-1.152,2.026-1,4.068-2.2,6.325-2.248a9.8,9.8,0,0,1,3.433.605" fill="#fff"/>
    <path id="パス_28499" data-name="パス 28499" d="M87.345,116.73a24.448,24.448,0,0,1-3.506-.259c-4.385-.639-8.207-2.383-11.9-4.07-2.054-.937-4.178-1.906-6.366-2.669a8.814,8.814,0,0,0-3.091-.55,12.213,12.213,0,0,0-5.071,1.726c-.281.142-.561.284-.84.421-4.306,2.119-7.95,2.509-10.83,1.161-2.609-1.221-4.3-3.265-5.93-5.242-2.5-3.03-4.48-5.424-9.117-4.473a26.655,26.655,0,0,0-6.212,2.42c-.737.36-1.5.731-2.264,1.074-3.913,1.756-7.023,2.2-9.785,1.392a11.474,11.474,0,0,1-7.043-6.775,27.257,27.257,0,0,1-1.755-9.367,105.486,105.486,0,0,1,.286-14.777,24.565,24.565,0,0,1,2.332-9.5c2.539-4.751,7.462-8.257,11.145-10.361,6.3-3.6,13.609-5.084,19.966-6.193a167.512,167.512,0,0,1,47.7-1.647c4.206.478,8,1.066,11.6,1.8A26.594,26.594,0,0,1,101.4,52.4a30.95,30.95,0,0,0,3.5,1.256,63.52,63.52,0,0,1,14.429,5.68c5.547,3.127,9.246,6.839,11,11.033a22.279,22.279,0,0,1,1.292,6.988c.048.663.119,1.445.2,2.351a95.753,95.753,0,0,1,.511,13.555c-.342,6-1.726,9.909-4.23,11.946-2.021,1.644-4.694,1.977-7.943.991-.971-.3-1.912-.648-2.822-.99a18.523,18.523,0,0,0-6.028-1.532c-2.287-.059-4.715,1.175-7.214,3.671-.667.666-1.323,1.389-1.956,2.089a27.883,27.883,0,0,1-4.666,4.406,17.7,17.7,0,0,1-10.125,2.883m-21.13-8.85c2.275.792,4.44,1.781,6.535,2.736,3.735,1.705,7.263,3.315,11.372,3.913,4.746.691,9.09-.124,12.233-2.3a25.976,25.976,0,0,0,4.327-4.11c.65-.717,1.322-1.458,2.024-2.159,2.895-2.891,5.8-4.318,8.651-4.244a20.284,20.284,0,0,1,6.666,1.657c.881.33,1.792.672,2.7.949,2.623.8,4.63.588,6.135-.636,2.024-1.646,3.2-5.191,3.51-10.536a92.857,92.857,0,0,0-.507-13.267c-.082-.915-.153-1.705-.2-2.383a20.423,20.423,0,0,0-1.146-6.377c-1.577-3.781-4.991-7.172-10.148-10.079a61.6,61.6,0,0,0-13.981-5.5,32.648,32.648,0,0,1-3.717-1.329,24.672,24.672,0,0,0-4.392-1.466c-3.546-.719-7.286-1.3-11.436-1.77A165.5,165.5,0,0,0,37.7,52.617C31.5,53.7,24.392,55.138,18.369,58.58c-3.46,1.977-8.07,5.244-10.389,9.582-1.317,2.464-1.8,5.282-2.108,8.756a103.526,103.526,0,0,0-.281,14.5,25.545,25.545,0,0,0,1.6,8.695,9.666,9.666,0,0,0,5.79,5.664c2.289.668,4.968.255,8.432-1.3.736-.33,1.485-.695,2.208-1.047a28.523,28.523,0,0,1,6.677-2.579c5.792-1.187,8.452,2.032,11.024,5.146,1.494,1.809,3.039,3.68,5.248,4.714,2.315,1.084,5.388.7,9.133-1.144.273-.134.547-.273.821-.412a13.844,13.844,0,0,1,5.917-1.936A10.7,10.7,0,0,1,66.215,107.88Z" fill="#f17183"/>
    <path id="パス_28500" data-name="パス 28500" d="M109.34,62.647c.217,1.948.433,4.559,1.931,6.108a2.882,2.882,0,0,0,.308.277,1.639,1.639,0,0,0,.288.368,2.938,2.938,0,0,0,2.2.408A2.186,2.186,0,0,0,115.6,69.1c.015-.023.029-.045.042-.068a1.575,1.575,0,0,0,.338.22,2.552,2.552,0,0,0,1.363.148,3.765,3.765,0,0,0,1.41-.409,2.115,2.115,0,0,0,.6-.48,1.53,1.53,0,0,0,.935.38,5.471,5.471,0,0,0,2.444-.423,2.006,2.006,0,0,0,.865-.54.9.9,0,0,0,.082-.125c.012.013.023.026.035.038a1.882,1.882,0,0,0,.908.494,2.813,2.813,0,0,0,2.315-.472,2,2,0,0,0,.45-.478,2.49,2.49,0,0,0,1.155.586,2.386,2.386,0,0,0,2.078-.46,2.837,2.837,0,0,0,.769-1.974,19.189,19.189,0,0,0-1.473-8.322,3.051,3.051,0,0,0-.451-.863,1.325,1.325,0,0,0-.267-.84,1.973,1.973,0,0,0-1.86-.486,4.707,4.707,0,0,0-2.312.671,1.255,1.255,0,0,0-.216.254,2.074,2.074,0,0,0-1.707-.379,4.765,4.765,0,0,0-2.205.629,1.733,1.733,0,0,0-.222.214c-.6-.526-1.606-.346-2.42-.19a3.55,3.55,0,0,0-.974.321c-.068.036-.133.075-.2.115-.028-.01-.057-.018-.087-.026a5.745,5.745,0,0,0-2.456.068,3.552,3.552,0,0,0-.974.322,1.993,1.993,0,0,0-.175.1,5.46,5.46,0,0,0-3.171,1.383c-1.012,1.117-1.022,2.861-.879,4.143" fill="#fff"/>
    <path id="パス_28501" data-name="パス 28501" d="M130.082,69.625a4.254,4.254,0,0,1-1.931,0,4.726,4.726,0,0,1-.549-.164,4.516,4.516,0,0,1-3.4.52,4.133,4.133,0,0,1-.409-.125c-.156.076-.308.139-.449.194a7.094,7.094,0,0,1-3.218.532,3.7,3.7,0,0,1-.566-.1,5.45,5.45,0,0,1-2.029.6,4.681,4.681,0,0,1-1.63-.073,4.754,4.754,0,0,1-1.62.483,4.5,4.5,0,0,1-3.583-.858,3.164,3.164,0,0,1-.4-.463c-.085-.076-.168-.155-.248-.237-1.828-1.89-2.139-4.731-2.367-6.806l-.032-.3c-.266-2.381.175-4.223,1.309-5.474a6.928,6.928,0,0,1,3.862-1.873,5.323,5.323,0,0,1,1.4-.462,8.372,8.372,0,0,1,2.625-.158,5.522,5.522,0,0,1,1.089-.32,6.1,6.1,0,0,1,2.552-.086,7.516,7.516,0,0,1,2.422-.586,4.734,4.734,0,0,1,1.678.078,7.552,7.552,0,0,1,2.471-.614l.071-.009a3.468,3.468,0,0,1,3.408,1.127,2.941,2.941,0,0,1,.574,1.291,5.732,5.732,0,0,1,.4.857,20.478,20.478,0,0,1,1.578,9.064,4.482,4.482,0,0,1-1.33,3.1,3.788,3.788,0,0,1-1.67.852m-3.018-4.86,1.476,1.367a.787.787,0,0,0,.386.178.752.752,0,0,0,.555-.071c.045-.041.157-.205.209-.846a17.245,17.245,0,0,0-1.368-7.579,1.8,1.8,0,0,0-.178-.391l-.383-.468v-.264c-.061,0-.133.009-.218.019l-.073.009a6.7,6.7,0,0,0-1.295.245L125.1,58.618l-1.394-1.37a1.774,1.774,0,0,0-.41.01,4.492,4.492,0,0,0-1.342.276l-1.109,1.278-1.206-1.048a5.09,5.09,0,0,0-1.064.127,1.911,1.911,0,0,0-.507.159c-.01.005-.03.017-.067.041l-.7.448-.763-.271a4.845,4.845,0,0,0-1.675.1,1.837,1.837,0,0,0-.507.159c-.013.007-.034.019-.059.035l-.305.19-.355.051a3.841,3.841,0,0,0-2.153.843,3.8,3.8,0,0,0-.448,2.811l.033.3c.184,1.674.412,3.758,1.43,4.81a1.311,1.311,0,0,0,.126.114l.261.2.13.222a2.633,2.633,0,0,0,.843.011,1.862,1.862,0,0,0,.4-.09l.941-1.619,1.525,1.3a1.6,1.6,0,0,0,.435,0,2.092,2.092,0,0,0,.774-.207.442.442,0,0,0,.116-.086l1.149-1.369,1.239,1.148h.008a3.837,3.837,0,0,0,1.67-.314c.077-.03.131-.054.17-.072l1.082-1.922,1.56,1.757a.612.612,0,0,0,.109.039,1.126,1.126,0,0,0,.856-.166.347.347,0,0,0,.072-.067ZM116.7,67.7h0Z" fill="#809e7a"/>
    <path id="パス_28502" data-name="パス 28502" d="M128.539,67.967a2.383,2.383,0,0,0,2.078-.461,2.841,2.841,0,0,0,.77-1.974,19.217,19.217,0,0,0-1.473-8.321,2.012,2.012,0,0,0-.931-1.24,1.733,1.733,0,0,0-1.864.5,3.358,3.358,0,0,0-.722,1.746,22.858,22.858,0,0,0-.02,6.259c.14,1.407.33,3.063,2.162,3.492" fill="#b7dfcf"/>
    <path id="パス_28503" data-name="パス 28503" d="M109.34,62.647c-.143-1.282-.133-3.026.879-4.143,1.055-1.164,3.458-1.6,5.027-1.438.166.017.362.062.4.2.035.114-.063.229-.145.33a3.326,3.326,0,0,0-.6,1.428,14.666,14.666,0,0,0-.184,5.424c.2,1.264,1.295,3.5.021,4.6a2.119,2.119,0,0,1-1.2.442,2.51,2.51,0,0,1-2.273-.735c-1.5-1.549-1.714-4.16-1.931-6.108" fill="#fff"/>
    <path id="パス_28504" data-name="パス 28504" d="M112.029,59.227c.019-.078.039-.155.06-.232a3.053,3.053,0,0,1,1.476-1.975,3.555,3.555,0,0,1,.973-.321A5.766,5.766,0,0,1,117,56.63a.68.68,0,0,1,.194.078.458.458,0,0,1,.161.22,2.822,2.822,0,0,1,.04.945,3.647,3.647,0,0,1-.233,1.192c-.925,2.864-1.947,5.992-1.4,8.916A1.446,1.446,0,0,1,115.6,69.1a2.187,2.187,0,0,1-1.533.714,2.944,2.944,0,0,1-2.2-.408,2.764,2.764,0,0,1-.67-1.6,16.408,16.408,0,0,1,.176-3.591,30.782,30.782,0,0,1,.657-4.98" fill="#b7dfcf"/>
    <path id="パス_28505" data-name="パス 28505" d="M119.815,58.223c.019-.078.039-.155.06-.232a4.587,4.587,0,0,1,.67-1.418,1.784,1.784,0,0,1,.351-.377,4.758,4.758,0,0,1,2.2-.629,1.934,1.934,0,0,1,1.808.492,2.147,2.147,0,0,1,.034,2,37.35,37.35,0,0,0-1.237,4.554,7.4,7.4,0,0,0-.11,2.239,13.079,13.079,0,0,1,.245,2.3,1.335,1.335,0,0,1-.247.77,2.006,2.006,0,0,1-.865.54,5.471,5.471,0,0,1-2.444.423,1.441,1.441,0,0,1-1.373-1.158,7.934,7.934,0,0,1,.03-2.362c.041-.722.16-1.441.216-2.163a30.782,30.782,0,0,1,.657-4.98" fill="#b7dfcf"/>
    <path id="パス_28506" data-name="パス 28506" d="M115.743,58.748c.019-.078.039-.155.06-.232a3.053,3.053,0,0,1,1.476-1.975,3.555,3.555,0,0,1,.973-.321c.894-.171,2.011-.372,2.585.364a2.147,2.147,0,0,1,.034,2,32.88,32.88,0,0,0-1.18,4.266,15.711,15.711,0,0,0-.046,4.282,2.319,2.319,0,0,1-.014.855,1.755,1.755,0,0,1-.877,1,3.791,3.791,0,0,1-1.41.409,2.054,2.054,0,0,1-2.473-2.457,21.538,21.538,0,0,1,.215-3.211,30.783,30.783,0,0,1,.657-4.98" fill="#fff"/>
    <path id="パス_28507" data-name="パス 28507" d="M124.112,57.673c.118-.358.292-.715.411-1.073a1.976,1.976,0,0,1,.5-.908,4.707,4.707,0,0,1,2.312-.671,1.973,1.973,0,0,1,1.861.486,2.144,2.144,0,0,1,.033,2A33.109,33.109,0,0,0,127.836,63a14.478,14.478,0,0,0-.164,2.77,2.14,2.14,0,0,1-.739,2.087,2.8,2.8,0,0,1-2.314.472,1.875,1.875,0,0,1-.909-.493,3.341,3.341,0,0,1-.5-2.453c.046-.913.162-1.82.233-2.732.081-1.049.161-2.1.309-3.147.075-.531.16-1.065.289-1.592.02-.08.044-.159.07-.239" fill="#fff"/>
    <path id="パス_28508" data-name="パス 28508" d="M25.63,69.125c.965-1.705,2.321-3.948,2.014-6.081a2.835,2.835,0,0,0-.087-.4,1.658,1.658,0,0,0-.017-.467c-.129-.675-.919-1.279-1.545-1.621a2.19,2.19,0,0,0-1.661-.32c-.025.009-.05.019-.074.03a1.527,1.527,0,0,0-.145-.376,2.552,2.552,0,0,0-1.017-.919,3.779,3.779,0,0,0-1.382-.495,2.136,2.136,0,0,0-.764.041,1.534,1.534,0,0,0-.535-.856,5.466,5.466,0,0,0-2.228-1.09,2.007,2.007,0,0,0-1.018-.069.888.888,0,0,0-.139.053c0-.017,0-.034-.006-.051a1.876,1.876,0,0,0-.447-.932,2.808,2.808,0,0,0-2.152-.974,1.968,1.968,0,0,0-.645.123,2.488,2.488,0,0,0-.592-1.152,2.389,2.389,0,0,0-1.954-.845,2.849,2.849,0,0,0-1.78,1.149,19.21,19.21,0,0,0-3.683,7.607,3.092,3.092,0,0,0-.14.964,1.321,1.321,0,0,0-.276.837A1.971,1.971,0,0,0,6.58,64.759a4.717,4.717,0,0,0,2.267.812,1.274,1.274,0,0,0,.323-.08A2.073,2.073,0,0,0,10.331,66.8a4.749,4.749,0,0,0,2.155.782,1.546,1.546,0,0,0,.306-.043c.182.782,1.1,1.222,1.849,1.573a3.546,3.546,0,0,0,.978.31c.076.011.152.018.227.022.017.025.035.049.055.073A5.75,5.75,0,0,0,17.932,70.9a3.563,3.563,0,0,0,.977.31c.067.01.134.016.2.021a5.463,5.463,0,0,0,3.38.737c1.474-.312,2.505-1.719,3.14-2.842" fill="#fff"/>
    <path id="パス_28509" data-name="パス 28509" d="M5.049,65.79a3.188,3.188,0,0,1-1.392-2.451,2.955,2.955,0,0,1,.292-1.382,5.819,5.819,0,0,1,.182-.926,20.473,20.473,0,0,1,4.033-8.269,4.486,4.486,0,0,1,2.9-1.735,4.07,4.07,0,0,1,3.417,1.422,4.722,4.722,0,0,1,.349.453,4.526,4.526,0,0,1,3.058,1.57,4.139,4.139,0,0,1,.258.342c.17.03.331.067.478.106a7.077,7.077,0,0,1,2.919,1.455,3.688,3.688,0,0,1,.4.409,5.458,5.458,0,0,1,2,.7A4.7,4.7,0,0,1,25.216,58.5a4.755,4.755,0,0,1,1.6.559,4.5,4.5,0,0,1,2.4,2.8,3.222,3.222,0,0,1,.056.611c.025.111.045.224.061.338.374,2.6-1.038,5.087-2.07,6.9l-.148.26c-1.18,2.085-2.616,3.319-4.268,3.669a6.937,6.937,0,0,1-4.227-.746,5.288,5.288,0,0,1-1.4-.446,8.36,8.36,0,0,1-2.22-1.409,5.641,5.641,0,0,1-1.071-.379A6.121,6.121,0,0,1,11.8,69.226,7.52,7.52,0,0,1,9.5,68.281a4.737,4.737,0,0,1-1.313-1.046,7.541,7.541,0,0,1-2.363-.951l-.062-.034a5.665,5.665,0,0,1-.71-.46m6.735-11.224a.662.662,0,0,0-.369-.154c-.061.006-.247.074-.665.563a17.229,17.229,0,0,0-3.333,6.943,1.806,1.806,0,0,0-.085.421l.036.6-.154.214c.051.033.113.071.188.112l.064.036a6.71,6.71,0,0,0,1.193.56l1.842-.708.326,1.926a1.828,1.828,0,0,0,.339.233,4.5,4.5,0,0,0,1.249.562l1.648-.385.363,1.556a5.054,5.054,0,0,0,.937.52,1.875,1.875,0,0,0,.5.168c.012,0,.035,0,.078.006l.831.048.46.667a4.847,4.847,0,0,0,1.418.9,1.9,1.9,0,0,0,.5.169c.011,0,.032,0,.069.006l.358.024.318.167a3.849,3.849,0,0,0,2.238.579c.637-.135,1.352-.85,2.011-2.015l.151-.266c.832-1.464,1.868-3.286,1.66-4.735a1.156,1.156,0,0,0-.036-.166l-.093-.317.025-.256a2.625,2.625,0,0,0-.677-.5,1.862,1.862,0,0,0-.377-.163l-1.712.759L22.616,60.7a1.607,1.607,0,0,0-.356-.251,2.089,2.089,0,0,0-.747-.285.479.479,0,0,0-.145,0l-1.733.436L19.3,58.941l0-.005a3.828,3.828,0,0,0-1.538-.723c-.08-.021-.138-.034-.18-.042l-2.005.922-.232-2.337a.622.622,0,0,0-.066-.1,1.135,1.135,0,0,0-.791-.368.374.374,0,0,0-.1.013l-1.879.717-.4-1.973a.786.786,0,0,0-.208-.371.806.806,0,0,0-.122-.113m3.566,2.206h0m2.14,1.385Zm.253-.061h0m8.165,4.517Z" fill="#fcba5b"/>
    <path id="パス_28510" data-name="パス 28510" d="M13.19,53.564a2.389,2.389,0,0,0-1.954-.845,2.843,2.843,0,0,0-1.78,1.149,19.212,19.212,0,0,0-3.683,7.606,2.007,2.007,0,0,0,.028,1.55,1.731,1.731,0,0,0,1.8.688,3.367,3.367,0,0,0,1.607-.991A22.828,22.828,0,0,0,12.9,57.66c.711-1.222,1.528-2.675.294-4.1" fill="#fbdb80"/>
    <path id="パス_28511" data-name="パス 28511" d="M25.63,69.125c-.635,1.123-1.666,2.53-3.14,2.842-1.537.325-3.74-.729-4.916-1.781-.125-.111-.257-.262-.211-.395.04-.114.186-.149.312-.183a3.322,3.322,0,0,0,1.319-.808,14.674,14.674,0,0,0,3.327-4.288c.582-1.139,1-3.6,2.681-3.741a2.125,2.125,0,0,1,1.232.345,2.51,2.51,0,0,1,1.41,1.928c.307,2.133-1.049,4.376-2.014,6.081" fill="#fff"/>
    <path id="パス_28512" data-name="パス 28512" d="M21.447,70.321l-.184.153a3.056,3.056,0,0,1-2.354.735,3.6,3.6,0,0,1-.978-.31,5.746,5.746,0,0,1-2.03-1.384.64.64,0,0,1-.111-.177.443.443,0,0,1,0-.272,2.778,2.778,0,0,1,.52-.789,3.626,3.626,0,0,1,.888-.83c2.428-1.778,5.088-3.714,6.362-6.4a1.446,1.446,0,0,1,.775-.815,2.194,2.194,0,0,1,1.662.32c.626.342,1.414.946,1.545,1.621a2.756,2.756,0,0,1-.4,1.692A16.269,16.269,0,0,1,24.9,66.67a30.929,30.929,0,0,1-3.45,3.651" fill="#fbdb80"/>
    <path id="パス_28513" data-name="パス 28513" d="M14.55,66.572c-.061.052-.122.1-.184.153a4.633,4.633,0,0,1-1.374.757,1.8,1.8,0,0,1-.5.1,4.761,4.761,0,0,1-2.156-.782A1.936,1.936,0,0,1,9.154,65.34c-.027-.715.575-1.224,1.146-1.642a37.381,37.381,0,0,0,3.671-2.965,7.429,7.429,0,0,0,1.4-1.75,13.005,13.005,0,0,1,1.148-2.006,1.338,1.338,0,0,1,.651-.48,2.016,2.016,0,0,1,1.017.07,5.48,5.48,0,0,1,2.229,1.089,1.44,1.44,0,0,1,.433,1.743,7.89,7.89,0,0,1-1.408,1.9c-.456.561-.974,1.073-1.442,1.625a30.856,30.856,0,0,1-3.451,3.651" fill="#fbdb80"/>
    <path id="パス_28514" data-name="パス 28514" d="M18.156,68.532c-.061.052-.123.1-.184.153a3.053,3.053,0,0,1-2.354.735,3.584,3.584,0,0,1-.977-.31c-.824-.385-1.847-.877-1.881-1.81-.027-.715.575-1.224,1.146-1.642a32.88,32.88,0,0,0,3.456-2.765,15.709,15.709,0,0,0,2.546-3.443,2.314,2.314,0,0,1,.513-.685,1.751,1.751,0,0,1,1.3-.294,3.785,3.785,0,0,1,1.382.495,2.552,2.552,0,0,1,1.017.919,2.561,2.561,0,0,1-.452,2.521,21.676,21.676,0,0,1-2.056,2.475,30.856,30.856,0,0,1-3.451,3.651" fill="#fff"/>
    <path id="パス_28515" data-name="パス 28515" d="M10.745,64.5c-.305.221-.655.408-.962.629a1.976,1.976,0,0,1-.937.443A4.706,4.706,0,0,1,6.58,64.76a1.974,1.974,0,0,1-1.223-1.484c-.027-.716.576-1.224,1.146-1.642A33.228,33.228,0,0,0,10.849,58,14.449,14.449,0,0,0,12.6,55.852a2.141,2.141,0,0,1,1.822-1.259,2.808,2.808,0,0,1,2.152.974,1.889,1.889,0,0,1,.447.932,3.337,3.337,0,0,1-1.033,2.28c-.572.714-1.2,1.38-1.789,2.078-.681.8-1.361,1.607-2.1,2.369-.372.386-.754.769-1.167,1.12-.063.053-.129.1-.2.153" fill="#fff"/>
    <path id="パス_28516" data-name="パス 28516" d="M18.632,59.407c-.516,6.17,1.337,11.955,7.07,15.92,4.5,3.113,10.154,3.928,15.587,4.584,12.425,1.5,24.982,2.625,37.443,1.457,7.305-.684,16.43,0,23.355-2.638,4.528-1.727,11.853-5.143,14.765-9.16,4.3-5.934.986-15.282-1.51-21.249-3.809-9.107-10.3-17.61-19.556-21.63-7.172-3.116-15.444-3.975-23.541-4.294-12.868-.507-26.951,1.2-37.143,8.722-7.345,5.424-15.563,17.449-16.47,28.288" fill="#facdcf"/>
    <path id="パス_28517" data-name="パス 28517" d="M67.911,82.976A223.764,223.764,0,0,1,41.154,81.03c-5.867-.71-11.512-1.609-16.093-4.777-5.546-3.836-8.158-9.694-7.552-16.94.553-6.6,3.559-12.709,5.983-16.669A45.3,45.3,0,0,1,34.433,30.213c8.9-6.572,21.636-9.58,37.856-8.941,7.531.3,16.266,1.049,23.946,4.386a34.237,34.237,0,0,1,12.223,9.2,48.338,48.338,0,0,1,7.923,13.024,48.727,48.727,0,0,1,3.377,10.9c.748,4.74.076,8.592-1.994,11.449-3.368,4.647-11.805,8.227-15.276,9.551-5.046,1.924-11.043,2.137-16.842,2.342-2.4.086-4.675.166-6.809.366-3.63.34-7.281.486-10.926.486M18.632,59.407l1.123.094c-.543,6.488,1.673,11.5,6.587,14.9,4.164,2.88,9.294,3.693,15.082,4.393,11.954,1.446,24.735,2.622,37.2,1.454,2.2-.206,4.5-.288,6.939-.374,5.616-.2,11.423-.4,16.12-2.2,2.56-.977,11.157-4.5,14.254-8.767,3.86-5.327.914-14.054-1.637-20.155-4.215-10.079-10.951-17.548-18.966-21.03C88,24.536,79.523,23.811,72.2,23.523c-15.7-.618-27.952,2.242-36.43,8.5C28.584,37.333,20.628,49.062,19.755,59.5Z" fill="#f38b96"/>
    <path id="パス_28518" data-name="パス 28518" d="M96.647,43.228c-2.492-5.894-13.213-6.453-17.027-1.755a8.419,8.419,0,0,0-1.058,8.483,9.636,9.636,0,0,0,6.757,5.408C89.781,56.327,95.79,54,97.036,49.21a10.556,10.556,0,0,0-.389-5.982" fill="#f38a95"/>
    <path id="パス_28519" data-name="パス 28519" d="M94.191,41.086a1.493,1.493,0,0,0-2.68-.378,2.393,2.393,0,0,0-.167,1.836,1.721,1.721,0,0,0,1.063,1.17,1.558,1.558,0,0,0,1.845-1.333,3.1,3.1,0,0,0-.061-1.3" fill="#fff"/>
    <path id="パス_28520" data-name="パス 28520" d="M90.024,40.855a1.493,1.493,0,0,0-2.68-.378,2.393,2.393,0,0,0-.167,1.836,1.721,1.721,0,0,0,1.063,1.17,1.558,1.558,0,0,0,1.845-1.333,3.1,3.1,0,0,0-.061-1.3" fill="#fff"/>
    <path id="パス_28521" data-name="パス 28521" d="M56.96,42.527c-2.492-5.894-13.213-6.452-17.027-1.755a8.421,8.421,0,0,0-1.058,8.484,9.632,9.632,0,0,0,6.757,5.407c4.462.964,10.471-1.364,11.717-6.154a10.556,10.556,0,0,0-.389-5.982" fill="#f38a95"/>
    <path id="パス_28522" data-name="パス 28522" d="M41.116,41.576a1.516,1.516,0,0,1,2.711-.371,2.375,2.375,0,0,1,.164,1.836,1.729,1.729,0,0,1-1.078,1.168,1.574,1.574,0,0,1-1.862-1.338,3.069,3.069,0,0,1,.065-1.295" fill="#fff"/>
    <path id="パス_28523" data-name="パス 28523" d="M45.331,40.794a1.516,1.516,0,0,1,2.711-.371,2.375,2.375,0,0,1,.164,1.836,1.729,1.729,0,0,1-1.078,1.168,1.574,1.574,0,0,1-1.862-1.339,3.065,3.065,0,0,1,.065-1.294" fill="#fff"/>
    <path id="パス_28524" data-name="パス 28524" d="M65.251,49.953a1.014,1.014,0,0,1-.823-1.6,14.518,14.518,0,0,0,2.163-3.734,1.014,1.014,0,0,1,1.947.073,4.447,4.447,0,0,0,2.386,2.891,1.014,1.014,0,0,1-.854,1.839,6.406,6.406,0,0,1-2.511-2.1c-.465.794-.992,1.529-1.484,2.213a1.012,1.012,0,0,1-.824.423" fill="#f38a95"/>
    <path id="パス_28525" data-name="パス 28525" d="M66.437,41.466a5.633,5.633,0,0,0-1.117.173,1.409,1.409,0,0,0-.871.753,1.318,1.318,0,0,0,.009.922,2.566,2.566,0,0,0,.5.794,3.82,3.82,0,0,0,3.4,1.392,4.507,4.507,0,0,0,1.011-.315,4.435,4.435,0,0,0,1.6-1.058,1.981,1.981,0,0,0,.56-1.844,1.365,1.365,0,0,0-.915-.807,2.68,2.68,0,0,0-.586-.067c-.816-.029-1.632-.069-2.449-.045a8.986,8.986,0,0,0-1.1.1l-.031,0" fill="#f38a95"/>
    <path id="パス_28526" data-name="パス 28526" d="M80.287,24.564a43.288,43.288,0,0,1,2.324-15.63A13.391,13.391,0,0,1,86.3,2.8a8.2,8.2,0,0,1,11.62,1.777c1.61,2.49,1.685,5.652,1.488,8.61A60.006,60.006,0,0,1,96.394,28.36" fill="#facdcf"/>
    <path id="パス_28527" data-name="パス 28527" d="M96.395,29.487A1.127,1.127,0,0,1,95.327,28a58.847,58.847,0,0,0,2.957-14.891c.176-2.644.158-5.653-1.31-7.925A7.074,7.074,0,0,0,87.02,3.663,12.585,12.585,0,0,0,83.676,9.3a41.914,41.914,0,0,0-2.263,15.222,1.126,1.126,0,1,1-2.251.082A44.146,44.146,0,0,1,81.546,8.568,14.605,14.605,0,0,1,85.58,1.93,9.32,9.32,0,0,1,98.866,3.961c1.825,2.824,1.866,6.285,1.666,9.3a61.107,61.107,0,0,1-3.07,15.461,1.127,1.127,0,0,1-1.067.767" fill="#f38b96"/>
    <path id="パス_28528" data-name="パス 28528" d="M55.352,26.189a43.288,43.288,0,0,0-2.324-15.63A13.39,13.39,0,0,0,49.34,4.421,8.2,8.2,0,0,0,37.72,6.2c-1.61,2.49-1.685,5.652-1.488,8.61a60.006,60.006,0,0,0,3.013,15.177" fill="#facdcf"/>
    <path id="パス_28529" data-name="パス 28529" d="M39.245,31.112a1.127,1.127,0,0,1-1.067-.767,61.107,61.107,0,0,1-3.07-15.461c-.2-3.013-.159-6.474,1.666-9.3A9.32,9.32,0,0,1,50.06,3.555a14.605,14.605,0,0,1,4.034,6.638A44.146,44.146,0,0,1,56.478,26.23a1.127,1.127,0,1,1-2.252-.082,41.871,41.871,0,0,0-2.263-15.222A12.583,12.583,0,0,0,48.62,5.288a7.074,7.074,0,0,0-9.954,1.521c-1.468,2.272-1.486,5.281-1.31,7.925a58.889,58.889,0,0,0,2.956,14.891,1.126,1.126,0,0,1-1.067,1.487" fill="#f38b96"/>
    <path id="パス_28530" data-name="パス 28530" d="M87.487,12.15a6.912,6.912,0,0,1,2.14-2.993,3.245,3.245,0,0,1,3.564-.267c1.347.9,1.378,2.78,1.218,4.353A67.413,67.413,0,0,1,92.568,23.5,4.842,4.842,0,0,1,91.5,25.765a3.677,3.677,0,0,1-3.163.839c-3.474-.547-3.263-2.22-2.976-5.087a31.263,31.263,0,0,1,2.122-9.367" fill="#fff"/>
    <path id="パス_28531" data-name="パス 28531" d="M41.44,15.784a6.563,6.563,0,0,1,.961-3.418,3.4,3.4,0,0,1,3.228-1.533c1.565.3,2.242,1.949,2.634,3.394a60.78,60.78,0,0,1,1.819,9.711,4.5,4.5,0,0,1-.211,2.385,3.827,3.827,0,0,1-2.657,1.891c-3.424.782-3.8-.769-4.525-3.4a28.268,28.268,0,0,1-1.249-9.029" fill="#fff"/>
    <path id="パス_28532" data-name="パス 28532" d="M58.79,39.341a2.033,2.033,0,0,0-.516.963,3.262,3.262,0,0,0,0,1.832,2.239,2.239,0,0,0,1.166,1.376,3.29,3.29,0,0,0,1.213.231,3.436,3.436,0,0,0,1.149-.1,2.548,2.548,0,0,0,1.277-1.014,2.771,2.771,0,0,0-.829-3.613,3.173,3.173,0,0,0-3.455.327" fill="#221e1f"/>
    <path id="パス_28533" data-name="パス 28533" d="M73.217,39.092a2.033,2.033,0,0,0-.516.963,3.262,3.262,0,0,0,0,1.832,2.239,2.239,0,0,0,1.166,1.376,3.29,3.29,0,0,0,1.213.231,3.436,3.436,0,0,0,1.149-.1A2.548,2.548,0,0,0,77.5,42.378a2.771,2.771,0,0,0-.829-3.613,3.173,3.173,0,0,0-3.455.327" fill="#221e1f"/>
    <path id="パス_28534" data-name="パス 28534" d="M74.352,99.378q-7.149,0-14.3-.58a175.7,175.7,0,0,1-38.047-7.367c-4.88-1.522-10.4-3.5-14.156-7.762a.981.981,0,0,1,1.471-1.3c3.42,3.879,8.642,5.743,13.269,7.187a174.623,174.623,0,0,0,75.926,6.167c6.956-.982,14.938-2.562,21.4-6.831A.981.981,0,1,1,121,90.532c-6.79,4.483-15.038,6.123-22.21,7.136a174.907,174.907,0,0,1-24.439,1.71" fill="#f17183"/>
    <path id="パス_28535" data-name="パス 28535" d="M34.061,77.266c.14-1.955.4-4.561-.79-6.358a2.9,2.9,0,0,0-.251-.327,1.688,1.688,0,0,0-.216-.415,2.944,2.944,0,0,0-2.092-.8,2.191,2.191,0,0,0-1.636.423.753.753,0,0,0-.055.059,1.516,1.516,0,0,0-.292-.277,2.554,2.554,0,0,0-1.312-.394,3.778,3.778,0,0,0-1.461.146,2.091,2.091,0,0,0-.673.364,1.539,1.539,0,0,0-.85-.544,5.467,5.467,0,0,0-2.48-.028,2.006,2.006,0,0,0-.95.373,1.176,1.176,0,0,0-.1.108c-.008-.015-.017-.029-.026-.044a1.89,1.89,0,0,0-.8-.65,2.806,2.806,0,0,0-2.361.043,1.987,1.987,0,0,0-.53.388,2.48,2.48,0,0,0-1.029-.786,2.383,2.383,0,0,0-2.127.075,2.841,2.841,0,0,0-1.115,1.8,19.2,19.2,0,0,0-.065,8.451,3.069,3.069,0,0,0,.287.931,1.327,1.327,0,0,0,.11.874,1.972,1.972,0,0,0,1.741.816,4.7,4.7,0,0,0,2.4-.239,1.243,1.243,0,0,0,.258-.211,2.074,2.074,0,0,0,1.61.683,4.745,4.745,0,0,0,2.281-.218,1.586,1.586,0,0,0,.259-.17c.5.628,1.516.633,2.345.628a3.587,3.587,0,0,0,1.016-.139c.074-.023.144-.05.215-.078.026.015.053.029.08.042a5.742,5.742,0,0,0,2.428.379,3.539,3.539,0,0,0,1.015-.139c.066-.02.13-.043.191-.067a5.459,5.459,0,0,0,3.371-.784c1.2-.914,1.523-2.627,1.617-3.914" fill="#fff"/>
    <path id="パス_28536" data-name="パス 28536" d="M27.761,83.872a8.154,8.154,0,0,1-2.494-.322,5.612,5.612,0,0,1-1.129.117,6.1,6.1,0,0,1-2.525-.38,7.545,7.545,0,0,1-2.489.136,4.718,4.718,0,0,1-1.635-.382,7.55,7.55,0,0,1-2.542.154l-.071,0a3.468,3.468,0,0,1-3.147-1.728,2.953,2.953,0,0,1-.33-1.373,5.742,5.742,0,0,1-.232-.915,20.478,20.478,0,0,1,.1-9.2,4.485,4.485,0,0,1,1.872-2.808,4.065,4.065,0,0,1,3.7-.182,4.878,4.878,0,0,1,.51.26,4.52,4.52,0,0,1,3.435.107,3.894,3.894,0,0,1,.38.2c.167-.046.328-.081.477-.11A7.106,7.106,0,0,1,24.9,67.5a3.694,3.694,0,0,1,.538.2,5.47,5.47,0,0,1,2.1-.223,4.682,4.682,0,0,1,1.59.368,4.746,4.746,0,0,1,1.68-.18,4.5,4.5,0,0,1,3.368,1.5,3.18,3.18,0,0,1,.313.528c.07.09.137.183.2.279,1.454,2.19,1.244,5.041,1.09,7.122l-.022.3c-.172,2.39-.939,4.121-2.282,5.145a6.942,6.942,0,0,1-4.139,1.139,5.266,5.266,0,0,1-1.459.2h-.116m-1.572-3.608a4.865,4.865,0,0,0,1.667.2,1.852,1.852,0,0,0,.527-.064l.065-.023.334-.132.359.014a3.852,3.852,0,0,0,2.27-.437,3.792,3.792,0,0,0,.952-2.683l.022-.3c.124-1.68.279-3.77-.531-4.99a1.227,1.227,0,0,0-.1-.135l-.22-.246-.088-.242a2.634,2.634,0,0,0-.827-.163,1.916,1.916,0,0,0-.41.014L28.985,72.5l-1.263-1.552a1.587,1.587,0,0,0-.429-.074,2.08,2.08,0,0,0-.8.063.455.455,0,0,0-.13.063l-1.379,1.137L23.977,70.78l-.008,0a3.822,3.822,0,0,0-1.7,0c-.081.016-.139.029-.18.04l-1.414,1.691L19.462,70.5a.583.583,0,0,0-.1-.057,1.124,1.124,0,0,0-.871.007.335.335,0,0,0-.083.053l-1.39,1.453-1.2-1.612a.8.8,0,0,0-.348-.245.75.75,0,0,0-.558-.031c-.052.031-.192.172-.36.793a17.258,17.258,0,0,0-.033,7.7,1.718,1.718,0,0,0,.1.416l.291.531-.047.259c.06.008.133.016.218.021l.073.005a6.67,6.67,0,0,0,1.318-.006l1.36-1.43,1.121,1.6a1.807,1.807,0,0,0,.406.065A4.267,4.267,0,0,0,20.729,80l1.324-1.056,1,1.251a5.164,5.164,0,0,0,1.069.068,1.846,1.846,0,0,0,.527-.065c.012,0,.033-.011.075-.027l.77-.313Z" fill="#67b6e5"/>
    <path id="パス_28537" data-name="パス 28537" d="M16.149,68.544a2.386,2.386,0,0,0-2.127.075,2.841,2.841,0,0,0-1.116,1.8,19.215,19.215,0,0,0-.064,8.451,2,2,0,0,0,.69,1.388,1.731,1.731,0,0,0,1.923-.152,3.361,3.361,0,0,0,1.027-1.585,22.812,22.812,0,0,0,1.158-6.151c.119-1.409.233-3.072-1.491-3.827" fill="#89d1d2"/>
    <path id="パス_28538" data-name="パス 28538" d="M34.061,77.266c-.094,1.287-.421,3-1.617,3.914-1.25.953-3.692.945-5.206.5-.16-.047-.344-.127-.36-.267-.013-.119.1-.214.2-.3a3.322,3.322,0,0,0,.845-1.295,14.691,14.691,0,0,0,1.167-5.3c.037-1.278-.637-3.679.816-4.529a2.132,2.132,0,0,1,1.262-.217,2.512,2.512,0,0,1,2.1,1.136c1.194,1.8.93,4.4.79,6.358" fill="#fff"/>
    <path id="パス_28539" data-name="パス 28539" d="M30.794,80.14c-.033.073-.067.145-.1.217a3.054,3.054,0,0,1-1.81,1.674,3.551,3.551,0,0,1-1.016.138,5.754,5.754,0,0,1-2.428-.378.666.666,0,0,1-.177-.112.453.453,0,0,1-.118-.246,2.805,2.805,0,0,1,.132-.936,3.642,3.642,0,0,1,.446-1.13c1.43-2.648,3-5.538,3-8.512a1.446,1.446,0,0,1,.351-1.068,2.19,2.19,0,0,1,1.638-.424,2.95,2.95,0,0,1,2.091.8,2.762,2.762,0,0,1,.367,1.7,16.33,16.33,0,0,1-.826,3.5,30.776,30.776,0,0,1-1.551,4.778" fill="#89d1d2"/>
    <path id="パス_28540" data-name="パス 28540" d="M22.956,79.711c-.033.073-.067.145-.1.217a4.624,4.624,0,0,1-.916,1.273,1.785,1.785,0,0,1-.414.306,4.753,4.753,0,0,1-2.283.218,1.935,1.935,0,0,1-1.689-.812,2.147,2.147,0,0,1,.331-1.975,37.258,37.258,0,0,0,2.044-4.253,7.419,7.419,0,0,0,.516-2.182,13.067,13.067,0,0,1,.177-2.305A1.331,1.331,0,0,1,21,69.486a2.008,2.008,0,0,1,.949-.374,5.481,5.481,0,0,1,2.48.028,1.441,1.441,0,0,1,1.14,1.388,7.893,7.893,0,0,1-.459,2.318c-.171.7-.42,1.388-.606,2.087a30.776,30.776,0,0,1-1.551,4.778" fill="#89d1d2"/>
    <path id="パス_28541" data-name="パス 28541" d="M27.055,79.936c-.033.073-.067.145-.1.217a3.054,3.054,0,0,1-1.81,1.674,3.551,3.551,0,0,1-1.016.138c-.91.006-2.044,0-2.476-.827a2.147,2.147,0,0,1,.331-1.975,33.022,33.022,0,0,0,1.936-3.98,15.683,15.683,0,0,0,.823-4.2,2.338,2.338,0,0,1,.17-.838,1.75,1.75,0,0,1,1.043-.821,3.783,3.783,0,0,1,1.461-.146,2.543,2.543,0,0,1,1.313.394A2.559,2.559,0,0,1,29.4,72.04a21.568,21.568,0,0,1-.8,3.118,30.884,30.884,0,0,1-1.551,4.778" fill="#fff"/>
    <path id="パス_28542" data-name="パス 28542" d="M18.63,79.471c-.181.33-.417.65-.6.981a1.984,1.984,0,0,1-.656.8,4.72,4.72,0,0,1-2.4.239,1.973,1.973,0,0,1-1.741-.816,2.147,2.147,0,0,1,.331-1.975,33.09,33.09,0,0,0,2.368-5.146,14.484,14.484,0,0,0,.664-2.694,2.143,2.143,0,0,1,1.106-1.919,2.809,2.809,0,0,1,2.362-.043,1.889,1.889,0,0,1,.8.65,3.343,3.343,0,0,1,.045,2.5c-.211.89-.49,1.76-.726,2.645-.27,1.017-.54,2.035-.876,3.038a16,16,0,0,1-.574,1.512c-.034.075-.072.149-.112.223" fill="#fff"/>
    <path id="パス_28543" data-name="パス 28543" d="M125.778,80.722c.948-1.715,2.281-3.971,1.953-6.1a2.975,2.975,0,0,0-.092-.4,1.622,1.622,0,0,0-.022-.467c-.136-.674-.931-1.269-1.561-1.605a2.185,2.185,0,0,0-1.664-.3c-.025.009-.05.019-.074.03a1.565,1.565,0,0,0-.148-.374,2.557,2.557,0,0,0-1.027-.909,3.788,3.788,0,0,0-1.387-.481,2.127,2.127,0,0,0-.763.049,1.536,1.536,0,0,0-.544-.851,5.49,5.49,0,0,0-2.239-1.067,2.024,2.024,0,0,0-1.018-.059,1,1,0,0,0-.139.055l-.006-.051a1.9,1.9,0,0,0-.457-.928,2.811,2.811,0,0,0-2.162-.952,1.971,1.971,0,0,0-.643.13,2.492,2.492,0,0,0-.6-1.146,2.39,2.39,0,0,0-1.962-.825,2.846,2.846,0,0,0-1.769,1.167,19.2,19.2,0,0,0-3.6,7.643,3.071,3.071,0,0,0-.131.966,1.326,1.326,0,0,0-.267.84,1.969,1.969,0,0,0,1.238,1.471,4.7,4.7,0,0,0,2.274.788,1.217,1.217,0,0,0,.323-.083,2.076,2.076,0,0,0,1.174,1.3,4.755,4.755,0,0,0,2.163.76,1.6,1.6,0,0,0,.305-.046c.19.78,1.111,1.21,1.866,1.554a3.58,3.58,0,0,0,.98.3c.077.01.152.016.228.02.017.024.036.048.055.072a5.763,5.763,0,0,0,2.045,1.363,3.545,3.545,0,0,0,.98.3c.068.009.135.015.2.019a5.453,5.453,0,0,0,3.387.7c1.471-.326,2.487-1.744,3.111-2.873" fill="#fff"/>
    <path id="パス_28544" data-name="パス 28544" d="M122.024,85.364a7.869,7.869,0,0,1-3.223-.81,5.306,5.306,0,0,1-1.409-.431,8.37,8.37,0,0,1-2.234-1.387,5.535,5.535,0,0,1-1.074-.368,6.1,6.1,0,0,1-2.132-1.4,7.542,7.542,0,0,1-2.316-.921,4.73,4.73,0,0,1-1.324-1.034,7.513,7.513,0,0,1-2.372-.927l-.063-.033a3.472,3.472,0,0,1-2.131-2.889,2.947,2.947,0,0,1,.278-1.385,5.661,5.661,0,0,1,.173-.928,20.479,20.479,0,0,1,3.948-8.31,4.491,4.491,0,0,1,2.878-1.763,4.064,4.064,0,0,1,3.431,1.386,4.738,4.738,0,0,1,.353.45,4.522,4.522,0,0,1,3.074,1.539,4.139,4.139,0,0,1,.261.339c.172.028.332.064.479.1a7.1,7.1,0,0,1,2.935,1.425,3.8,3.8,0,0,1,.406.406,5.434,5.434,0,0,1,2,.681,4.7,4.7,0,0,1,1.289,1,4.718,4.718,0,0,1,1.6.542,4.5,4.5,0,0,1,2.429,2.77,3.22,3.22,0,0,1,.063.611c.025.111.047.223.065.337.4,2.6-.988,5.1-2,6.922l-.145.262c-1.158,2.1-2.582,3.345-4.231,3.711a4.627,4.627,0,0,1-1.011.107m-4.649-5.223a4.886,4.886,0,0,0,1.427.885,1.87,1.87,0,0,0,.5.163l.069,0,.359.021.319.163a3.852,3.852,0,0,0,2.244.557c.636-.141,1.343-.864,1.99-2.036l.148-.267c.817-1.472,1.835-3.305,1.612-4.752a1.1,1.1,0,0,0-.037-.164l-.1-.316.023-.258a2.676,2.676,0,0,0-.682-.495,1.9,1.9,0,0,0-.379-.159l-1.7.777-.495-1.939a1.562,1.562,0,0,0-.358-.247,2.094,2.094,0,0,0-.751-.279.448.448,0,0,0-.144,0l-1.729.454-.348-1.653-.006,0a3.816,3.816,0,0,0-1.544-.708c-.081-.02-.139-.033-.181-.041l-1.994.941-.258-2.333a.539.539,0,0,0-.066-.094A1.125,1.125,0,0,0,114.5,68a.375.375,0,0,0-.1.013l-1.872.736-.415-1.968a.785.785,0,0,0-.213-.369.756.756,0,0,0-.493-.263c-.061.007-.246.077-.66.57a17.255,17.255,0,0,0-3.262,6.977,1.734,1.734,0,0,0-.08.421l.042.6-.152.216c.052.033.114.07.189.11l.065.035a6.7,6.7,0,0,0,1.2.548l1.835-.727.346,1.923a1.8,1.8,0,0,0,.341.229,4.268,4.268,0,0,0,1.254.55l1.645-.4.378,1.552a5.035,5.035,0,0,0,.942.51,1.859,1.859,0,0,0,.5.163.731.731,0,0,0,.079.006l.832.04Zm.4-10.367h0m-2.406-1.3Z" fill="#67b6e5"/>
    <path id="パス_28545" data-name="パス 28545" d="M113.18,65.288a2.387,2.387,0,0,0-1.962-.825,2.842,2.842,0,0,0-1.769,1.167,19.208,19.208,0,0,0-3.6,7.643,2.007,2.007,0,0,0,.043,1.55,1.734,1.734,0,0,0,1.81.669,3.354,3.354,0,0,0,1.6-1.007,22.785,22.785,0,0,0,3.633-5.1c.7-1.229,1.5-2.69.253-4.1" fill="#89d1d2"/>
    <path id="パス_28546" data-name="パス 28546" d="M125.778,80.722c-.624,1.129-1.64,2.547-3.111,2.873-1.534.341-3.747-.691-4.934-1.73-.126-.11-.259-.26-.214-.394.038-.113.184-.15.309-.185a3.323,3.323,0,0,0,1.311-.822,14.685,14.685,0,0,0,3.284-4.322c.57-1.144.966-3.606,2.642-3.767a2.123,2.123,0,0,1,1.236.333,2.512,2.512,0,0,1,1.43,1.912c.328,2.131-1.005,4.387-1.953,6.1" fill="#fff"/>
    <path id="パス_28547" data-name="パス 28547" d="M121.606,81.961c-.061.052-.121.1-.183.155a3.055,3.055,0,0,1-2.345.759,3.544,3.544,0,0,1-.981-.3,5.763,5.763,0,0,1-2.045-1.363.662.662,0,0,1-.113-.175.447.447,0,0,1,0-.273,2.828,2.828,0,0,1,.513-.794,3.64,3.64,0,0,1,.879-.839c2.409-1.8,5.051-3.765,6.3-6.465a1.451,1.451,0,0,1,.768-.823,2.187,2.187,0,0,1,1.663.3c.63.335,1.426.931,1.562,1.6a2.76,2.76,0,0,1-.38,1.695,16.338,16.338,0,0,1-2.218,2.829,30.727,30.727,0,0,1-3.413,3.686" fill="#89d1d2"/>
    <path id="パス_28548" data-name="パス 28548" d="M114.672,78.281c-.061.052-.121.1-.183.155a4.609,4.609,0,0,1-1.366.771,1.822,1.822,0,0,1-.5.1,4.755,4.755,0,0,1-2.163-.76,1.933,1.933,0,0,1-1.192-1.447c-.034-.715.563-1.23,1.129-1.654a37.09,37.09,0,0,0,3.64-3,7.422,7.422,0,0,0,1.385-1.764,13.15,13.15,0,0,1,1.127-2.018,1.342,1.342,0,0,1,.646-.486,2.028,2.028,0,0,1,1.019.059,5.49,5.49,0,0,1,2.239,1.067,1.439,1.439,0,0,1,.451,1.738,7.876,7.876,0,0,1-1.389,1.911c-.45.566-.963,1.084-1.426,1.64a30.726,30.726,0,0,1-3.413,3.686" fill="#89d1d2"/>
    <path id="パス_28549" data-name="パス 28549" d="M118.3,80.205c-.061.052-.121.1-.183.155a3.055,3.055,0,0,1-2.345.759,3.576,3.576,0,0,1-.981-.3c-.828-.377-1.855-.858-1.9-1.791-.034-.715.563-1.23,1.129-1.654a32.767,32.767,0,0,0,3.428-2.8,15.707,15.707,0,0,0,2.511-3.468,2.314,2.314,0,0,1,.506-.69,1.751,1.751,0,0,1,1.291-.308,3.793,3.793,0,0,1,1.388.481,2.055,2.055,0,0,1,.6,3.434,21.569,21.569,0,0,1-2.032,2.5,30.727,30.727,0,0,1-3.413,3.686" fill="#fff"/>
    <path id="パス_28550" data-name="パス 28550" d="M110.847,76.247c-.3.224-.651.415-.955.639a1.985,1.985,0,0,1-.933.452,4.7,4.7,0,0,1-2.274-.788,1.972,1.972,0,0,1-1.238-1.471c-.034-.716.563-1.23,1.129-1.654a33.071,33.071,0,0,0,4.309-3.677,14.43,14.43,0,0,0,1.734-2.167,2.141,2.141,0,0,1,1.809-1.277,2.811,2.811,0,0,1,2.162.952,1.9,1.9,0,0,1,.457.928,3.338,3.338,0,0,1-1.01,2.29c-.565.719-1.184,1.392-1.768,2.1-.673.81-1.345,1.621-2.071,2.39a16.052,16.052,0,0,1-1.156,1.132c-.062.054-.127.1-.195.155" fill="#fff"/>
    <path id="パス_28551" data-name="パス 28551" d="M106.409,78.519c-.643-1.851-1.431-4.35-3.236-5.529a2.791,2.791,0,0,0-.361-.2,1.648,1.648,0,0,0-.362-.3,2.937,2.937,0,0,0-2.237.089,2.186,2.186,0,0,0-1.337,1.035.751.751,0,0,0-.027.075,1.559,1.559,0,0,0-.378-.139,2.554,2.554,0,0,0-1.362.157,3.768,3.768,0,0,0-1.284.711,2.091,2.091,0,0,0-.474.6,1.541,1.541,0,0,0-1-.164,5.484,5.484,0,0,0-2.289.954,2.012,2.012,0,0,0-.725.718.949.949,0,0,0-.052.14l-.042-.03a1.893,1.893,0,0,0-1-.28,2.812,2.812,0,0,0-2.153.973,1.988,1.988,0,0,0-.333.565,2.487,2.487,0,0,0-1.256-.316,2.387,2.387,0,0,0-1.925.909,2.844,2.844,0,0,0-.313,2.1,19.219,19.219,0,0,0,3.278,7.789,3.1,3.1,0,0,0,.632.742,1.327,1.327,0,0,0,.446.76,1.976,1.976,0,0,0,1.922.062,4.718,4.718,0,0,0,2.106-1.166,1.285,1.285,0,0,0,.154-.3,2.068,2.068,0,0,0,1.748-.008,4.754,4.754,0,0,0,2.011-1.1,1.559,1.559,0,0,0,.169-.257c.708.379,1.643-.018,2.4-.35a3.569,3.569,0,0,0,.878-.529c.059-.05.114-.1.167-.156l.09.007a5.772,5.772,0,0,0,2.381-.611,3.569,3.569,0,0,0,.878-.529c.052-.044.1-.09.149-.138a5.45,5.45,0,0,0,2.786-2.051c.739-1.312.363-3.015-.06-4.234" fill="#fff"/>
    <path id="パス_28552" data-name="パス 28552" d="M89.484,91.854a2.923,2.923,0,0,1-2.778-1.791,5.651,5.651,0,0,1-.574-.748,20.47,20.47,0,0,1-3.546-8.49,4.488,4.488,0,0,1,.61-3.319,4.06,4.06,0,0,1,3.325-1.627,4.827,4.827,0,0,1,.57.038,4.518,4.518,0,0,1,3.2-1.259,3.989,3.989,0,0,1,.427.032c.135-.109.269-.2.395-.289a7.1,7.1,0,0,1,3.021-1.231,3.748,3.748,0,0,1,.574-.033A5.466,5.466,0,0,1,96.551,72.1a4.7,4.7,0,0,1,1.606-.29,4.734,4.734,0,0,1,1.473-.829,4.5,4.5,0,0,1,3.684.043,3.27,3.27,0,0,1,.5.362q.15.083.294.177c2.2,1.438,3.134,4.14,3.815,6.113l.1.282c.786,2.264.764,4.157-.065,5.628a6.922,6.922,0,0,1-3.352,2.681,5.263,5.263,0,0,1-1.261.761,8.393,8.393,0,0,1-2.525.735,5.591,5.591,0,0,1-.992.554,6.163,6.163,0,0,1-2.43.648h-.039a7.518,7.518,0,0,1-2.233,1.108,4.742,4.742,0,0,1-1.653.3,7.561,7.561,0,0,1-2.274,1.146l-.067.024a4.845,4.845,0,0,1-1.641.314M86.492,79.282a.755.755,0,0,0-.52.192c-.035.05-.107.234-.016.871a17.249,17.249,0,0,0,3.011,7.089,1.805,1.805,0,0,0,.26.341l.478.372.059.258c.059-.017.128-.039.209-.068l.069-.024a6.732,6.732,0,0,0,1.208-.526l.684-1.851L93.6,86.964a1.857,1.857,0,0,0,.4-.1,4.51,4.51,0,0,0,1.247-.566l.8-1.492,1.407.755a5.055,5.055,0,0,0,1.009-.36,1.837,1.837,0,0,0,.459-.267c.009-.008.026-.023.057-.054l.584-.591.805.094a4.76,4.76,0,0,0,1.612-.471,1.857,1.857,0,0,0,.459-.267c.011-.01.029-.026.05-.047l.254-.253.336-.129a3.845,3.845,0,0,0,1.913-1.3,3.8,3.8,0,0,0-.185-2.841l-.1-.289c-.55-1.592-1.233-3.573-2.459-4.374a1.165,1.165,0,0,0-.148-.083l-.3-.139L101.619,74a2.66,2.66,0,0,0-.824.176,1.862,1.862,0,0,0-.371.176l-.561,1.786-1.773-.926a1.584,1.584,0,0,0-.423.1,2.082,2.082,0,0,0-.709.373.453.453,0,0,0-.094.109l-.817,1.589-1.463-.845h-.008a3.842,3.842,0,0,0-1.559.676c-.068.047-.117.082-.15.108l-.633,2.114-1.907-1.369a.567.567,0,0,0-.115-.013,1.128,1.128,0,0,0-.8.351.333.333,0,0,0-.055.081l-.7,1.884-1.742-1a.777.777,0,0,0-.416-.089Zm6.426-2.126h0" fill="#f38b96"/>
    <path id="パス_28553" data-name="パス 28553" d="M86.509,77.581a2.387,2.387,0,0,0-1.925.909,2.842,2.842,0,0,0-.313,2.1,19.217,19.217,0,0,0,3.278,7.79,2.009,2.009,0,0,0,1.182,1,1.733,1.733,0,0,0,1.708-.9,3.359,3.359,0,0,0,.317-1.862,22.809,22.809,0,0,0-1.366-6.108c-.447-1.342-1-2.914-2.881-2.927" fill="#facdcf"/>
    <path id="パス_28554" data-name="パス 28554" d="M106.409,78.519c.423,1.219.8,2.922.06,4.234-.772,1.369-3.018,2.327-4.584,2.516-.166.02-.367.019-.436-.1-.059-.1.011-.237.068-.354a3.319,3.319,0,0,0,.265-1.524,14.689,14.689,0,0,0-1.022-5.331c-.471-1.189-2.037-3.128-1.038-4.483a2.123,2.123,0,0,1,1.073-.7,2.508,2.508,0,0,1,2.378.214c1.805,1.179,2.593,3.678,3.236,5.529" fill="#fff"/>
    <path id="パス_28555" data-name="パス 28555" d="M104.544,82.45c0,.08,0,.16-.007.239a3.056,3.056,0,0,1-1,2.253,3.575,3.575,0,0,1-.879.529,5.768,5.768,0,0,1-2.38.611.664.664,0,0,1-.206-.034.446.446,0,0,1-.206-.179,2.806,2.806,0,0,1-.248-.911,3.634,3.634,0,0,1-.037-1.215c.268-3,.573-6.274-.6-9a1.448,1.448,0,0,1-.1-1.121,2.186,2.186,0,0,1,1.337-1.035,2.935,2.935,0,0,1,2.238-.089,2.756,2.756,0,0,1,1.008,1.414,16.348,16.348,0,0,1,.623,3.541,30.778,30.778,0,0,1,.462,5" fill="#facdcf"/>
    <path id="パス_28556" data-name="パス 28556" d="M97.173,85.152c0,.08,0,.16-.007.239a4.615,4.615,0,0,1-.339,1.532,1.813,1.813,0,0,1-.259.444,4.743,4.743,0,0,1-2.011,1.1,1.934,1.934,0,0,1-1.873-.079,2.147,2.147,0,0,1-.476-1.945,37.3,37.3,0,0,0,.2-4.715,7.4,7.4,0,0,0-.388-2.208,13.155,13.155,0,0,1-.748-2.187,1.34,1.34,0,0,1,.07-.806,2.012,2.012,0,0,1,.725-.718,5.484,5.484,0,0,1,2.289-.954,1.439,1.439,0,0,1,1.6.826,7.9,7.9,0,0,1,.494,2.31c.12.713.163,1.441.268,2.157a30.778,30.778,0,0,1,.462,5" fill="#facdcf"/>
    <path id="パス_28557" data-name="パス 28557" d="M101.028,83.739c0,.08,0,.16-.007.239a3.054,3.054,0,0,1-1,2.253,3.575,3.575,0,0,1-.879.529c-.833.364-1.878.807-2.6.217a2.147,2.147,0,0,1-.476-1.945,33,33,0,0,0,.207-4.421,15.727,15.727,0,0,0-.9-4.186,2.317,2.317,0,0,1-.175-.837,1.755,1.755,0,0,1,.634-1.167,3.782,3.782,0,0,1,1.285-.711,2.552,2.552,0,0,1,1.362-.157c.971.222,1.362,1.243,1.594,2a21.646,21.646,0,0,1,.5,3.179,30.779,30.779,0,0,1,.462,5" fill="#fff"/>
    <path id="パス_28558" data-name="パス 28558" d="M93.1,86.639c-.036.375-.126.761-.163,1.138a1.983,1.983,0,0,1-.286,1,4.727,4.727,0,0,1-2.106,1.166,1.976,1.976,0,0,1-1.922-.062,2.147,2.147,0,0,1-.476-1.945,33.171,33.171,0,0,0,.143-5.664,14.511,14.511,0,0,0-.454-2.737,2.141,2.141,0,0,1,.258-2.2,2.809,2.809,0,0,1,2.153-.973,1.884,1.884,0,0,1,1,.28,3.336,3.336,0,0,1,1.03,2.282c.157.9.245,1.81.378,2.716.153,1.041.308,2.083.4,3.137a16.087,16.087,0,0,1,.07,1.616c0,.083-.007.165-.015.249" fill="#fff"/>
    <path id="パス_28559" data-name="パス 28559" d="M55.273,75.443c-.943-1.718-2.137-4.05-4.113-4.912a2.853,2.853,0,0,0-.39-.138,1.651,1.651,0,0,0-.406-.231,2.941,2.941,0,0,0-2.191.461,2.192,2.192,0,0,0-1.146,1.244c-.006.027-.01.053-.014.079a1.562,1.562,0,0,0-.4-.074,2.547,2.547,0,0,0-1.316.381,3.791,3.791,0,0,0-1.148.916,2.136,2.136,0,0,0-.367.671,1.535,1.535,0,0,0-1.01.005,5.476,5.476,0,0,0-2.1,1.322,2.008,2.008,0,0,0-.594.829.955.955,0,0,0-.029.147c-.015-.008-.03-.016-.046-.023a1.9,1.9,0,0,0-1.028-.11,2.809,2.809,0,0,0-1.96,1.319,1.949,1.949,0,0,0-.234.613,2.484,2.484,0,0,0-1.291-.1,2.382,2.382,0,0,0-1.746,1.217,2.841,2.841,0,0,0,.04,2.118,19.2,19.2,0,0,0,4.533,7.133,3.076,3.076,0,0,0,.747.627,1.325,1.325,0,0,0,.566.675,1.974,1.974,0,0,0,1.9-.26,4.714,4.714,0,0,0,1.882-1.5,1.262,1.262,0,0,0,.1-.317,2.076,2.076,0,0,0,1.722-.3,4.755,4.755,0,0,0,1.8-1.422,1.678,1.678,0,0,0,.124-.283c.761.257,1.616-.291,2.31-.746a3.527,3.527,0,0,0,.778-.668c.05-.059.1-.12.138-.182.03,0,.061,0,.091-.008a5.757,5.757,0,0,0,2.245-1,3.577,3.577,0,0,0,.778-.668c.044-.053.084-.106.123-.161a5.46,5.46,0,0,0,2.405-2.487c.51-1.418-.145-3.034-.766-4.165" fill="#fff"/>
    <path id="パス_28560" data-name="パス 28560" d="M40.242,91.466A2.9,2.9,0,0,1,38.8,91.09a2.941,2.941,0,0,1-1.022-.975,5.734,5.734,0,0,1-.692-.642,20.476,20.476,0,0,1-4.912-7.779,4.482,4.482,0,0,1,.047-3.375,4.064,4.064,0,0,1,3.006-2.158,4.67,4.67,0,0,1,.569-.058,4.516,4.516,0,0,1,2.944-1.776,3.874,3.874,0,0,1,.426-.039c.115-.13.232-.247.341-.351a7.1,7.1,0,0,1,2.773-1.718,3.668,3.668,0,0,1,.56-.127,5.473,5.473,0,0,1,1.647-1.33,4.711,4.711,0,0,1,1.534-.554,4.761,4.761,0,0,1,1.314-1.063,4.5,4.5,0,0,1,3.64-.572,3.2,3.2,0,0,1,.55.274c.107.037.214.079.319.125,2.41,1.051,3.781,3.559,4.781,5.391l.144.262c1.153,2.1,1.447,3.971.875,5.56a6.922,6.922,0,0,1-2.858,3.2,5.268,5.268,0,0,1-1.117.96A8.376,8.376,0,0,1,51.3,85.5a5.675,5.675,0,0,1-.885.711,6.1,6.1,0,0,1-2.327,1.051,7.541,7.541,0,0,1-2.016,1.465,4.74,4.74,0,0,1-1.581.567,7.561,7.561,0,0,1-2.052,1.51l-.062.034a4.344,4.344,0,0,1-2.134.633M35.972,79.5a1.291,1.291,0,0,0-.2.018.755.755,0,0,0-.485.277c-.027.055-.067.249.128.861a17.268,17.268,0,0,0,4.153,6.487,1.845,1.845,0,0,0,.314.293l.532.287.1.244c.056-.026.121-.059.195-.1l.064-.036a6.711,6.711,0,0,0,1.1-.72l.366-1.939,1.81.736a1.856,1.856,0,0,0,.376-.166,4.238,4.238,0,0,0,1.135-.767l.539-1.6,1.515.51a5.124,5.124,0,0,0,.934-.524,1.848,1.848,0,0,0,.408-.339c.008-.01.022-.028.047-.063l.478-.683.809-.039A4.874,4.874,0,0,0,51.8,81.5a1.869,1.869,0,0,0,.408-.34c.007-.009.02-.025.042-.056l.209-.291.308-.183a3.843,3.843,0,0,0,1.67-1.6,3.794,3.794,0,0,0-.656-2.77L53.635,76c-.808-1.479-1.813-3.318-3.155-3.9a1.1,1.1,0,0,0-.16-.057L50,71.948l-.2-.157a2.681,2.681,0,0,0-.783.312,1.967,1.967,0,0,0-.337.235l-.254,1.856-1.9-.619a1.611,1.611,0,0,0-.4.171,2.083,2.083,0,0,0-.636.486.438.438,0,0,0-.075.123l-.541,1.7-1.583-.59-.007,0a3.825,3.825,0,0,0-1.424.927c-.06.057-.1.1-.131.13l-.27,2.192-2.11-1.032a.507.507,0,0,0-.115.006,1.13,1.13,0,0,0-.729.479.379.379,0,0,0-.04.089l-.379,1.976-1.885-.7a.608.608,0,0,0-.222-.035m5.772-3.15h0m1.584-.893Zm6.4-3.721Z" fill="#fcba5b"/>
    <path id="パス_28561" data-name="パス 28561" d="M35.5,77.84a2.385,2.385,0,0,0-1.746,1.218,2.842,2.842,0,0,0,.041,2.118,19.213,19.213,0,0,0,4.532,7.133,2.01,2.01,0,0,0,1.333.791,1.731,1.731,0,0,0,1.533-1.171,3.363,3.363,0,0,0,0-1.889,22.823,22.823,0,0,0-2.367-5.795C38.16,79,37.354,77.538,35.5,77.84" fill="#fbdb80"/>
    <path id="パス_28562" data-name="パス 28562" d="M55.273,75.443c.621,1.131,1.276,2.747.766,4.165-.532,1.479-2.588,2.8-4.1,3.245-.161.048-.358.08-.447-.029-.076-.093-.029-.236.008-.361a3.329,3.329,0,0,0,.007-1.547,14.691,14.691,0,0,0-1.9-5.085c-.662-1.094-2.531-2.745-1.772-4.247a2.13,2.13,0,0,1,.942-.867,2.514,2.514,0,0,1,2.381-.186c1.976.862,3.17,3.194,4.113,4.912" fill="#fff"/>
    <path id="パス_28563" data-name="パス 28563" d="M54.09,79.631q.018.119.033.237a3.054,3.054,0,0,1-.612,2.388,3.55,3.55,0,0,1-.778.668,5.745,5.745,0,0,1-2.245,1,.667.667,0,0,1-.209,0,.454.454,0,0,1-.233-.143,2.808,2.808,0,0,1-.4-.857,3.635,3.635,0,0,1-.239-1.192c-.235-3-.482-6.281-2.1-8.778a1.448,1.448,0,0,1-.285-1.088,2.189,2.189,0,0,1,1.146-1.244,2.937,2.937,0,0,1,2.191-.461,2.753,2.753,0,0,1,1.23,1.226A16.4,16.4,0,0,1,52.8,74.776a30.859,30.859,0,0,1,1.29,4.855" fill="#fbdb80"/>
    <path id="パス_28564" data-name="パス 28564" d="M47.274,83.525q.018.118.033.237a4.622,4.622,0,0,1-.079,1.567,1.747,1.747,0,0,1-.181.481,4.767,4.767,0,0,1-1.8,1.423,1.935,1.935,0,0,1-1.859.234,2.149,2.149,0,0,1-.795-1.839A37.236,37.236,0,0,0,42,80.947a7.416,7.416,0,0,0-.751-2.113,13.128,13.128,0,0,1-1.1-2.032A1.336,1.336,0,0,1,40.084,76a2.008,2.008,0,0,1,.594-.829,5.486,5.486,0,0,1,2.1-1.323,1.44,1.44,0,0,1,1.71.548,7.869,7.869,0,0,1,.872,2.2c.238.682.4,1.393.625,2.081a30.859,30.859,0,0,1,1.29,4.855" fill="#fbdb80"/>
    <path id="パス_28565" data-name="パス 28565" d="M50.839,81.488q.018.119.033.237a3.054,3.054,0,0,1-.612,2.388,3.55,3.55,0,0,1-.778.668c-.761.5-1.717,1.11-2.528.649a2.149,2.149,0,0,1-.795-1.839,32.78,32.78,0,0,0-.534-4.393,15.685,15.685,0,0,0-1.589-3.977,2.312,2.312,0,0,1-.313-.8,1.752,1.752,0,0,1,.431-1.256,3.779,3.779,0,0,1,1.148-.916,2.557,2.557,0,0,1,1.316-.381c.995.056,1.551,1,1.907,1.71a21.774,21.774,0,0,1,1.024,3.051,30.859,30.859,0,0,1,1.29,4.855" fill="#fff"/>
    <path id="パス_28566" data-name="パス 28566" d="M43.511,85.67c.026.376,0,.772.029,1.149a2,2,0,0,1-.116,1.03,4.714,4.714,0,0,1-1.882,1.5,1.974,1.974,0,0,1-1.9.26,2.149,2.149,0,0,1-.8-1.839,33.211,33.211,0,0,0-.8-5.607,14.528,14.528,0,0,0-.906-2.624,2.145,2.145,0,0,1-.112-2.211,2.813,2.813,0,0,1,1.96-1.319,1.9,1.9,0,0,1,1.028.11c.788.351,1.138,1.35,1.4,2.078.306.862.545,1.744.826,2.615.325,1,.651,2,.914,3.027a16.11,16.11,0,0,1,.339,1.582c.011.082.021.164.027.248" fill="#fff"/>
    <path id="パス_28567" data-name="パス 28567" d="M80.522,85.794a6.326,6.326,0,0,0,.947,7.975,7.627,7.627,0,0,0,6.62,1.836,6.363,6.363,0,0,0,2.929-1.422,6.823,6.823,0,0,0,1.781-7.5,4.1,4.1,0,0,0-2.409-2.428c-2.856-1.427-7.625-1.354-9.5,1.024a6.187,6.187,0,0,0-.366.515" fill="#ea3432"/>
    <path id="パス_28568" data-name="パス 28568" d="M88.622,93.768a.88.88,0,0,1-.381-1.673,4.717,4.717,0,0,0,2.12-1.527,2.4,2.4,0,0,0,.275-.761,3.384,3.384,0,0,0-.847-2.931.88.88,0,0,1,1.279-1.208,5.169,5.169,0,0,1,1.294,4.479,4.155,4.155,0,0,1-.486,1.314A6.237,6.237,0,0,1,89,93.681a.875.875,0,0,1-.38.087" fill="#fff"/>
    <path id="パス_28569" data-name="パス 28569" d="M21.041,78.253a6.325,6.325,0,0,0,.947,7.975,7.627,7.627,0,0,0,6.62,1.836,6.363,6.363,0,0,0,2.929-1.422,6.822,6.822,0,0,0,1.781-7.5,4.09,4.09,0,0,0-2.409-2.428c-2.856-1.428-7.625-1.355-9.5,1.023a6.189,6.189,0,0,0-.366.515" fill="#ea3432"/>
    <path id="パス_28570" data-name="パス 28570" d="M29.141,86.228a.88.88,0,0,1-.381-1.673,4.717,4.717,0,0,0,2.12-1.527,2.4,2.4,0,0,0,.275-.761,3.384,3.384,0,0,0-.847-2.931.88.88,0,0,1,1.279-1.208,5.169,5.169,0,0,1,1.294,4.479,4.173,4.173,0,0,1-.486,1.314,6.237,6.237,0,0,1-2.874,2.22.875.875,0,0,1-.38.087" fill="#fff"/>
    <path id="パス_28571" data-name="パス 28571" d="M105.568,79.163a6.326,6.326,0,0,0,.947,7.975,7.627,7.627,0,0,0,6.62,1.836,6.363,6.363,0,0,0,2.929-1.422,6.823,6.823,0,0,0,1.781-7.5,4.1,4.1,0,0,0-2.409-2.428c-2.856-1.427-7.625-1.354-9.5,1.024a6.188,6.188,0,0,0-.366.515" fill="#fcba5b"/>
    <path id="パス_28572" data-name="パス 28572" d="M113.668,87.137a.88.88,0,0,1-.381-1.673,4.717,4.717,0,0,0,2.12-1.527,2.4,2.4,0,0,0,.275-.761,3.384,3.384,0,0,0-.847-2.931.88.88,0,0,1,1.279-1.208,5.172,5.172,0,0,1,1.294,4.479,4.155,4.155,0,0,1-.486,1.314,6.237,6.237,0,0,1-2.874,2.22.875.875,0,0,1-.38.087" fill="#fff"/>
    <path id="パス_28573" data-name="パス 28573" d="M59.466,81.207c-.371,1.924-.94,4.482.031,6.406a3,3,0,0,0,.212.355,1.644,1.644,0,0,0,.166.438,2.936,2.936,0,0,0,1.981,1.043,2.188,2.188,0,0,0,1.676-.226l.061-.052a1.546,1.546,0,0,0,.257.31,2.555,2.555,0,0,0,1.257.546,3.785,3.785,0,0,0,1.468.028,2.139,2.139,0,0,0,.711-.282,1.539,1.539,0,0,0,.78.641,5.5,5.5,0,0,0,2.459.321,2.021,2.021,0,0,0,.987-.259.893.893,0,0,0,.115-.1c.008.016.014.031.022.047a1.88,1.88,0,0,0,.721.74,2.809,2.809,0,0,0,2.35.237,1.96,1.96,0,0,0,.572-.323,2.484,2.484,0,0,0,.929.9,2.385,2.385,0,0,0,2.121.177A2.845,2.845,0,0,0,79.663,90.5a19.22,19.22,0,0,0,1.063-8.384,3.1,3.1,0,0,0-.175-.958,1.328,1.328,0,0,0-.006-.882,1.969,1.969,0,0,0-1.632-1.015,4.7,4.7,0,0,0-2.407-.046,1.245,1.245,0,0,0-.281.179,2.074,2.074,0,0,0-1.517-.869,4.76,4.76,0,0,0-2.293-.053,1.607,1.607,0,0,0-.275.138c-.422-.683-1.431-.807-2.255-.9a3.515,3.515,0,0,0-1.025.018c-.076.013-.15.031-.223.051q-.036-.027-.075-.051a5.75,5.75,0,0,0-2.366-.664,3.586,3.586,0,0,0-1.025.018c-.067.012-.133.028-.2.045a5.445,5.445,0,0,0-3.438.38c-1.3.766-1.825,2.428-2.069,3.695" fill="#fff"/>
    <path id="パス_28574" data-name="パス 28574" d="M77.5,94.038a4.242,4.242,0,0,1-2.138-.586,4.79,4.79,0,0,1-.475-.318,4.523,4.523,0,0,1-3.4-.513,3.986,3.986,0,0,1-.353-.241c-.171.027-.335.042-.487.052a7.1,7.1,0,0,1-3.231-.447,3.732,3.732,0,0,1-.513-.26,5.437,5.437,0,0,1-2.115-.027,4.7,4.7,0,0,1-1.535-.553,4.77,4.77,0,0,1-1.69-.02,4.5,4.5,0,0,1-3.167-1.883,3.261,3.261,0,0,1-.249-.561c-.058-.1-.114-.2-.166-.3-1.184-2.347-.638-5.153-.24-7.2l.057-.294c.453-2.352,1.421-3.98,2.875-4.838a6.921,6.921,0,0,1,4.244-.642,5.25,5.25,0,0,1,1.473-.026,8.355,8.355,0,0,1,2.554.627,5.564,5.564,0,0,1,1.135.018,6.1,6.1,0,0,1,2.462.675,7.533,7.533,0,0,1,2.488.16,4.739,4.739,0,0,1,1.578.572,7.538,7.538,0,0,1,2.543.148l.07.012a3.471,3.471,0,0,1,2.92,2.088,2.946,2.946,0,0,1,.165,1.4,5.748,5.748,0,0,1,.122.935,20.468,20.468,0,0,1-1.183,9.124,4.488,4.488,0,0,1-2.19,2.568,3.737,3.737,0,0,1-1.554.329M75.762,88.49l1,1.743a.779.779,0,0,0,.316.285.757.757,0,0,0,.551.1c.055-.025.21-.149.45-.746a17.254,17.254,0,0,0,.944-7.643,1.725,1.725,0,0,0-.055-.426l-.226-.561.077-.252c-.059-.016-.13-.032-.214-.047l-.072-.013a6.6,6.6,0,0,0-1.31-.15l-1.52,1.258-.923-1.721a1.82,1.82,0,0,0-.4-.112,4.544,4.544,0,0,0-1.363-.135l-1.44.89L70.748,79.6a5.1,5.1,0,0,0-1.054-.193,1.87,1.87,0,0,0-.53,0,.81.81,0,0,0-.079.019l-.8.219-.646-.485A4.879,4.879,0,0,0,66,78.76a1.83,1.83,0,0,0-.531,0c-.011,0-.031.006-.067.016l-.347.091-.355-.057a3.852,3.852,0,0,0-2.306.166,3.8,3.8,0,0,0-1.262,2.551l-.058.3c-.322,1.653-.722,3.71-.063,5.018a1.263,1.263,0,0,0,.087.145l.189.27.059.252a2.694,2.694,0,0,0,.8.26,1.964,1.964,0,0,0,.41.034l1.379-1.267,1.071,1.691a1.565,1.565,0,0,0,.418.125,2.092,2.092,0,0,0,.8.032.437.437,0,0,0,.137-.048l1.5-.966.843,1.464.007,0a3.835,3.835,0,0,0,1.688.2c.083-.006.142-.012.184-.018L72.2,87.5l.965,2.143a.577.577,0,0,0,.093.069,1.124,1.124,0,0,0,.866.1.351.351,0,0,0,.088-.043Zm-5.3.653ZM70.681,89Zm-5.69-.784h0Zm-3.71-.753Z" fill="#809e7a"/>
    <path id="パス_28575" data-name="パス 28575" d="M76.221,91.985a2.385,2.385,0,0,0,2.121.177A2.845,2.845,0,0,0,79.663,90.5a19.206,19.206,0,0,0,1.063-8.384,2.006,2.006,0,0,0-.521-1.459,1.731,1.731,0,0,0-1.928-.077,3.36,3.36,0,0,0-1.207,1.452,22.807,22.807,0,0,0-1.877,5.972c-.285,1.385-.6,3.023,1.028,3.976" fill="#b7dfcf"/>
    <path id="パス_28576" data-name="パス 28576" d="M59.466,81.207c.244-1.267.771-2.929,2.069-3.695,1.353-.8,3.777-.5,5.228.119.153.065.326.166.325.307,0,.12-.129.2-.237.273a3.323,3.323,0,0,0-.992,1.187,14.682,14.682,0,0,0-1.785,5.125c-.188,1.265.2,3.729-1.347,4.4a2.13,2.13,0,0,1-1.278.066A2.512,2.512,0,0,1,59.5,87.613c-.971-1.924-.4-4.482-.031-6.406" fill="#fff"/>
    <path id="パス_28577" data-name="パス 28577" d="M63.049,78.739c.041-.068.083-.136.126-.2a3.048,3.048,0,0,1,1.995-1.448A3.557,3.557,0,0,1,66.2,77.07a5.753,5.753,0,0,1,2.366.663.682.682,0,0,1,.162.132.451.451,0,0,1,.088.258,2.82,2.82,0,0,1-.241.914,3.63,3.63,0,0,1-.577,1.069c-1.733,2.46-3.638,5.144-3.987,8.1a1.451,1.451,0,0,1-.476,1.02,2.19,2.19,0,0,1-1.675.227,2.945,2.945,0,0,1-1.982-1.044,2.761,2.761,0,0,1-.164-1.729A16.336,16.336,0,0,1,60.944,83.3a30.773,30.773,0,0,1,2.1-4.561" fill="#b7dfcf"/>
    <path id="パス_28578" data-name="パス 28578" d="M70.782,80.092c.041-.068.083-.136.126-.2a4.608,4.608,0,0,1,1.061-1.157,1.827,1.827,0,0,1,.446-.255,4.773,4.773,0,0,1,2.293.054,1.933,1.933,0,0,1,1.581,1.006,2.146,2.146,0,0,1-.562,1.922,37.527,37.527,0,0,0-2.533,3.982,7.413,7.413,0,0,0-.77,2.106,13.041,13.041,0,0,1-.448,2.268,1.338,1.338,0,0,1-.464.662,2.02,2.02,0,0,1-.986.259,5.484,5.484,0,0,1-2.46-.322A1.44,1.44,0,0,1,67.1,88.9a7.873,7.873,0,0,1,.73-2.247c.253-.678.58-1.329.848-2a30.773,30.773,0,0,1,2.1-4.561" fill="#b7dfcf"/>
    <path id="パス_28579" data-name="パス 28579" d="M66.738,79.384c.041-.068.083-.136.126-.2a3.048,3.048,0,0,1,2-1.448,3.522,3.522,0,0,1,1.026-.018c.9.1,2.03.241,2.36,1.114a2.146,2.146,0,0,1-.562,1.922,32.947,32.947,0,0,0-2.393,3.724,15.664,15.664,0,0,0-1.314,4.075,2.333,2.333,0,0,1-.268.813,1.754,1.754,0,0,1-1.133.692,3.785,3.785,0,0,1-1.468-.028,2.054,2.054,0,0,1-1.633-3.08,21.649,21.649,0,0,1,1.159-3,30.773,30.773,0,0,1,2.1-4.561" fill="#fff"/>
    <path id="パス_28580" data-name="パス 28580" d="M75.049,80.842c.219-.307.491-.6.711-.9a1.983,1.983,0,0,1,.746-.719,4.713,4.713,0,0,1,2.407.046,1.971,1.971,0,0,1,1.633,1.016,2.147,2.147,0,0,1-.563,1.922,33.1,33.1,0,0,0-2.959,4.83,14.473,14.473,0,0,0-.978,2.6A2.143,2.143,0,0,1,74.721,91.4a2.811,2.811,0,0,1-2.351-.236,1.889,1.889,0,0,1-.721-.741,3.344,3.344,0,0,1,.251-2.491c.315-.858.695-1.689,1.033-2.54.389-.978.777-1.957,1.23-2.913a15.893,15.893,0,0,1,.749-1.434c.042-.071.088-.14.137-.208" fill="#fff"/>
    <path id="パス_28581" data-name="パス 28581" d="M48.933,83.345a6.326,6.326,0,0,0,.947,7.975,7.627,7.627,0,0,0,6.62,1.836,6.363,6.363,0,0,0,2.929-1.422,5.167,5.167,0,0,0,1.618-4.284,7.551,7.551,0,0,0-.589-3.631c-1.887-3.556-8.622-4.2-11.159-.989a6.188,6.188,0,0,0-.366.515" fill="#67b6e5"/>
    <path id="パス_28582" data-name="パス 28582" d="M56.117,92.16a.88.88,0,0,1-.381-1.673,4.717,4.717,0,0,0,2.12-1.527,2.4,2.4,0,0,0,.275-.761,3.384,3.384,0,0,0-.847-2.931.879.879,0,1,1,1.279-1.207,5.166,5.166,0,0,1,1.294,4.478,4.155,4.155,0,0,1-.486,1.314,6.237,6.237,0,0,1-2.874,2.22.875.875,0,0,1-.38.087" fill="#fff"/>
    <path id="パス_28583" data-name="パス 28583" d="M135.02,125.991c-.67,6.041-4.838,11.811-11.331,10.768-1.3-.208-2.761-.653-3.816.147a5.16,5.16,0,0,0-1.185,1.677,11.21,11.21,0,0,1-7.633,5.2,18.036,18.036,0,0,1-9.3-.935,4.115,4.115,0,0,0-1.965-.364,4.738,4.738,0,0,0-2.127,1.349,13.67,13.67,0,0,1-9.986,2.926,24.788,24.788,0,0,1-10.03-3.419,2.9,2.9,0,0,0-1.516-.525,2.793,2.793,0,0,0-1.22.472c-8.82,5.124-18.944,6.886-28.225,1.54a5.472,5.472,0,0,0-2.384-.956,5.873,5.873,0,0,0-1.954.41,15.214,15.214,0,0,1-15.255-4.1,4.172,4.172,0,0,0-1.181-1.013,3.9,3.9,0,0,0-2.718.175,18.94,18.94,0,0,1-14.8-1.515,14.961,14.961,0,0,1-7.42-12.841,9.341,9.341,0,0,1,1.332-4.817c3.118-4.855,9.538-5.01,14.406-3.514A15.8,15.8,0,0,1,26.8,126.527a19.2,19.2,0,0,1,20.628,4c-.248-.246,6.032-3.823,6.627-4.066a24.478,24.478,0,0,1,7.965-1.793c5.66-.3,11.5,2.014,16.406,4.8a14.579,14.579,0,0,1,17.789-1c4.318-7.327,14.086-10.675,21.83-7.484a14.486,14.486,0,0,1,2.541-4.659c2.607-2.813,7.312-2.914,10.379-.643s4.486,6.44,4.058,10.3" fill="#fff"/>
    <path id="パス_28584" data-name="パス 28584" d="M58.756,149.051A24.818,24.818,0,0,1,46.2,145.669l-.17-.1a4.31,4.31,0,0,0-1.775-.73,4.2,4.2,0,0,0-1.354.283c-.091.029-.181.058-.272.085a15.167,15.167,0,0,1-4.465.661,16.308,16.308,0,0,1-11.78-5.028l-.111-.118a3.029,3.029,0,0,0-.776-.681,3.13,3.13,0,0,0-1.936.2l-.1.03a21.757,21.757,0,0,1-6.073.878A18.652,18.652,0,0,1,7.9,138.661a16.41,16.41,0,0,1-5.756-5.78A14.871,14.871,0,0,1,0,124.961a10.306,10.306,0,0,1,1.486-5.316,10.4,10.4,0,0,1,7.194-4.569,18.214,18.214,0,0,1,8.311.653,16.782,16.782,0,0,1,10.36,9.537,19.647,19.647,0,0,1,10.508-.765,19.9,19.9,0,0,1,9.581,4.717c.52-.366,1.332-.873,2.612-1.628,1.4-.825,3.232-1.857,3.629-2.02a25.362,25.362,0,0,1,8.28-1.864c4.863-.257,10.358,1.288,16.343,4.6a15.622,15.622,0,0,1,17.613-1.175,18.9,18.9,0,0,1,9.607-7.248,18.421,18.421,0,0,1,11.967-.123,13.25,13.25,0,0,1,2.377-4.076c2.849-3.074,8.082-3.416,11.666-.763a12.3,12.3,0,0,1,4.444,11.181l-.962-.107.962.107a14.374,14.374,0,0,1-5.083,9.815,9.414,9.414,0,0,1-7.364,1.8c-.205-.033-.412-.072-.613-.109-.981-.181-1.908-.351-2.465.071a3.381,3.381,0,0,0-.746,1.058c-.06.11-.12.219-.181.327a12.219,12.219,0,0,1-8.29,5.674,18.834,18.834,0,0,1-9.8-.971l-.1-.034a3.214,3.214,0,0,0-1.4-.288,3.289,3.289,0,0,0-1.377.889c-.091.081-.183.161-.274.239a14.343,14.343,0,0,1-9.321,3.212q-.683,0-1.373-.057a25.447,25.447,0,0,1-10.427-3.54l-.008,0a2.322,2.322,0,0,0-.982-.4,2.2,2.2,0,0,0-.784.342,34.549,34.549,0,0,1-14.343,4.824q-1.158.1-2.3.1M44.187,142.9c.052,0,.1,0,.157,0A5.843,5.843,0,0,1,47,143.9l.164.1c10.213,5.883,20.459,2.411,27.255-1.538a3.681,3.681,0,0,1,1.656-.6,3.73,3.73,0,0,1,2.036.645l.007.005a23.594,23.594,0,0,0,9.633,3.3,12.7,12.7,0,0,0,9.277-2.7c.085-.072.17-.147.255-.222a4.757,4.757,0,0,1,2.347-1.346,4.689,4.689,0,0,1,2.343.372l.094.032a16.942,16.942,0,0,0,8.8.9,10.263,10.263,0,0,0,6.978-4.731c.055-.1.11-.2.164-.3a4.927,4.927,0,0,1,1.276-1.673c1.238-.938,2.762-.657,3.986-.431.2.036.386.071.569.1a7.417,7.417,0,0,0,5.884-1.432,12.418,12.418,0,0,0,4.331-8.486,10.339,10.339,0,0,0-3.671-9.411c-2.767-2.049-6.932-1.81-9.093.522a13.711,13.711,0,0,0-2.351,4.357.97.97,0,0,1-1.27.54c-7.3-3.008-16.552.168-20.626,7.08a.968.968,0,0,1-1.4.295,13.676,13.676,0,0,0-16.577.929.968.968,0,0,1-1.126.122c-5.888-3.351-11.229-4.925-15.876-4.679a23.426,23.426,0,0,0-7.649,1.722,70.575,70.575,0,0,0-6.152,3.649.97.97,0,0,1-1.524.208,18.234,18.234,0,0,0-19.565-3.8.967.967,0,0,1-1.3-.577,14.818,14.818,0,0,0-9.455-9.261c-4.565-1.4-10.459-1.322-13.306,3.112a8.385,8.385,0,0,0-1.18,4.318,14.057,14.057,0,0,0,6.945,11.982,17.883,17.883,0,0,0,14.037,1.419l.1-.028a4.567,4.567,0,0,1,3.3-.093,4.521,4.521,0,0,1,1.37,1.114l.1.112a14.234,14.234,0,0,0,14.264,3.842l.256-.08a6.149,6.149,0,0,1,1.869-.375m3.92-13.058,0,0,0,0" fill="#f17183"/>
    <path id="パス_28585" data-name="パス 28585" d="M8.157,124.068a1.8,1.8,0,0,0,.467.774,1.324,1.324,0,0,0,1.084.2,1.239,1.239,0,0,0,.753-.393c.367-.454.165-1.123-.052-1.665l-.5-1.238a5.193,5.193,0,0,0-.641-1.257c-.708-.926-2.318-1.023-2.362.447a2.7,2.7,0,0,0,.472,1.227c.3.613.527,1.268.776,1.9" fill="#ea3432"/>
    <path id="パス_28586" data-name="パス 28586" d="M97.818,131.22a1.807,1.807,0,0,0-.556.713,1.329,1.329,0,0,0,.2,1.084,1.247,1.247,0,0,0,.637.563c.555.18,1.108-.248,1.536-.645l.978-.907a5.187,5.187,0,0,0,.944-1.048c.612-.993.126-2.531-1.262-2.046-.431.151-.68.559-.976.88-.465.5-1,.946-1.5,1.406" fill="#ea3432"/>
    <path id="パス_28587" data-name="パス 28587" d="M125.29,124.826a1.733,1.733,0,0,0-.518.7,1.278,1.278,0,0,0,.22,1.041,1.2,1.2,0,0,0,.628.527c.54.16,1.062-.266,1.465-.659l.922-.9a5.065,5.065,0,0,0,.885-1.034c.566-.973.059-2.444-1.268-1.942-.412.155-.642.555-.92.872-.436.5-.937.936-1.414,1.393" fill="#ea3432"/>
    <path id="パス_28588" data-name="パス 28588" d="M53.9,136.654a1.8,1.8,0,0,0,.467.774,1.324,1.324,0,0,0,1.084.2,1.239,1.239,0,0,0,.753-.393c.367-.454.165-1.123-.052-1.665l-.5-1.238a5.193,5.193,0,0,0-.641-1.257c-.708-.926-2.318-1.023-2.362.447a2.7,2.7,0,0,0,.472,1.227c.3.613.527,1.268.776,1.905" fill="#ea3432"/>
    <path id="パス_28589" data-name="パス 28589" d="M14.167,133.991a1.8,1.8,0,0,0,.686-.588,1.324,1.324,0,0,0,.019-1.1,1.245,1.245,0,0,0-.512-.679c-.509-.286-1.135.023-1.634.327l-1.139.694a5.247,5.247,0,0,0-1.133.84c-.8.851-.627,2.455.831,2.256a2.7,2.7,0,0,0,1.131-.668c.555-.4,1.164-.729,1.751-1.08" fill="#fcba5b"/>
    <path id="パス_28590" data-name="パス 28590" d="M70.41,139.645a1.8,1.8,0,0,0,.686-.588,1.324,1.324,0,0,0,.019-1.1,1.245,1.245,0,0,0-.512-.679c-.509-.286-1.135.023-1.634.327l-1.139.694a5.247,5.247,0,0,0-1.133.84c-.8.851-.627,2.455.831,2.256a2.7,2.7,0,0,0,1.131-.668c.555-.4,1.164-.729,1.751-1.08" fill="#fcba5b"/>
    <path id="パス_28591" data-name="パス 28591" d="M110.426,137.518a1.8,1.8,0,0,0,.686-.588,1.324,1.324,0,0,0,.019-1.1,1.245,1.245,0,0,0-.512-.679c-.509-.286-1.135.023-1.634.327l-1.139.694a5.247,5.247,0,0,0-1.133.84c-.8.851-.627,2.455.831,2.256a2.7,2.7,0,0,0,1.131-.668c.555-.4,1.164-.729,1.751-1.08" fill="#fcba5b"/>
    <path id="パス_28592" data-name="パス 28592" d="M34.824,131.573a1.805,1.805,0,0,0,.889.16,1.324,1.324,0,0,0,.866-.683,1.24,1.24,0,0,0,.2-.825c-.1-.576-.735-.865-1.286-1.059l-1.258-.444a5.229,5.229,0,0,0-1.368-.347c-1.163-.079-2.3,1.067-1.222,2.07a2.706,2.706,0,0,0,1.233.454c.661.177,1.3.441,1.944.674" fill="#fcba5b"/>
    <path id="パス_28593" data-name="パス 28593" d="M18.406,129.586a1.8,1.8,0,0,0,.8.427,1.323,1.323,0,0,0,1.035-.381,1.248,1.248,0,0,0,.448-.722c.083-.578-.432-1.05-.9-1.405l-1.059-.812a5.228,5.228,0,0,0-1.191-.753c-1.083-.436-2.517.3-1.8,1.59a2.689,2.689,0,0,0,1.031.813c.575.374,1.1.822,1.641,1.243" fill="#fcf7c0"/>
    <path id="パス_28594" data-name="パス 28594" d="M80.222,136.911a1.8,1.8,0,0,0,.8.427,1.323,1.323,0,0,0,1.035-.381,1.241,1.241,0,0,0,.447-.722c.084-.578-.431-1.05-.895-1.4l-1.059-.812a5.233,5.233,0,0,0-1.192-.753c-1.082-.436-2.516.3-1.8,1.59a2.689,2.689,0,0,0,1.031.813c.574.374,1.1.822,1.64,1.243" fill="#fcf7c0"/>
    <path id="パス_28595" data-name="パス 28595" d="M43.727,137.484a1.8,1.8,0,0,0,.64-.638,1.322,1.322,0,0,0-.065-1.1,1.235,1.235,0,0,0-.561-.637c-.529-.248-1.13.108-1.6.448l-1.083.779a5.264,5.264,0,0,0-1.067.922c-.731.909-.44,2.5,1,2.187a2.7,2.7,0,0,0,1.078-.751c.524-.441,1.106-.815,1.665-1.209" fill="#809e7a"/>
    <path id="パス_28596" data-name="パス 28596" d="M66.891,132.625a1.8,1.8,0,0,0,.64-.638,1.322,1.322,0,0,0-.065-1.1,1.235,1.235,0,0,0-.561-.637c-.529-.248-1.13.108-1.6.448l-1.083.779a5.264,5.264,0,0,0-1.067.922c-.731.909-.44,2.5,1,2.187a2.7,2.7,0,0,0,1.078-.751c.524-.441,1.106-.815,1.665-1.209" fill="#809e7a"/>
    <path id="パス_28597" data-name="パス 28597" d="M92.755,140.145a1.8,1.8,0,0,0,.64-.638,1.322,1.322,0,0,0-.065-1.1,1.235,1.235,0,0,0-.561-.637c-.529-.248-1.13.108-1.6.448L90.081,139a5.263,5.263,0,0,0-1.067.922c-.731.909-.44,2.5,1,2.187a2.7,2.7,0,0,0,1.078-.751c.524-.441,1.106-.815,1.665-1.209" fill="#809e7a"/>
    <path id="パス_28598" data-name="パス 28598" d="M27.308,138.925a1.8,1.8,0,0,0,.818.382,1.33,1.33,0,0,0,1.013-.438,1.247,1.247,0,0,0,.406-.746c.051-.582-.489-1.025-.972-1.353l-1.1-.751a5.21,5.21,0,0,0-1.232-.686c-1.1-.375-2.494.443-1.712,1.688a2.691,2.691,0,0,0,1.076.755c.593.34,1.145.759,1.707,1.149" fill="#f38b96"/>
    <path id="パス_28599" data-name="パス 28599" d="M54.717,144.19a1.809,1.809,0,0,0,.809-.4,1.326,1.326,0,0,0,.287-1.064,1.25,1.25,0,0,0-.331-.783c-.424-.4-1.106-.255-1.664-.082l-1.274.4a5.2,5.2,0,0,0-1.3.538c-.981.631-1.206,2.228.255,2.39a2.7,2.7,0,0,0,1.26-.372c.636-.253,1.307-.423,1.962-.62" fill="#f38b96"/>
    <path id="パス_28600" data-name="パス 28600" d="M117.566,129.351a1.812,1.812,0,0,0,.9.032,1.327,1.327,0,0,0,.76-.8,1.243,1.243,0,0,0,.082-.846c-.18-.556-.851-.752-1.423-.865l-1.309-.26a5.2,5.2,0,0,0-1.4-.149c-1.163.087-2.122,1.383-.915,2.223a2.71,2.71,0,0,0,1.285.274c.68.081,1.35.251,2.02.39" fill="#f38b96"/>
    <path id="パス_28601" data-name="パス 28601" d="M9.769,27.96a4.161,4.161,0,0,1,5.8-.837,7.641,7.641,0,0,1-.39-2.661,2.958,2.958,0,0,1,1.242-2.292,2.768,2.768,0,0,1,2.485-.126,5.018,5.018,0,0,1,1.984,1.61c2,2.547,2.874,8.133-.21,10.3-2.3,1.617-8.36,1.092-10.32-.8a4.188,4.188,0,0,1-.588-5.194" fill="#facdcf"/>
    <path id="パス_28602" data-name="パス 28602" d="M124.124,26.6a2.941,2.941,0,0,1,2.143,3.543,5.383,5.383,0,0,1,1.625-.987,2.09,2.09,0,0,1,1.835.176,1.957,1.957,0,0,1,.767,1.583,3.544,3.544,0,0,1-.5,1.736c-1.106,2.005-4.5,4.113-6.763,2.7-1.687-1.054-3.015-5.142-2.325-6.939a2.961,2.961,0,0,1,3.219-1.815" fill="#facdcf"/>
    <path id="パス_28603" data-name="パス 28603" d="M109.721,16.987a3.813,3.813,0,0,1,3.989,3.591,7.012,7.012,0,0,1,1.645-1.835,2.713,2.713,0,0,1,2.343-.47,2.542,2.542,0,0,1,1.546,1.676,4.6,4.6,0,0,1,.03,2.342c-.62,2.9-4.042,6.794-7.376,5.892-2.488-.674-5.671-5.247-5.49-7.736a3.838,3.838,0,0,1,3.313-3.46" fill="#facdcf"/>
    <path id="パス_28604" data-name="パス 28604" d="M59.837,30.419A10.51,10.51,0,0,1,52.025,27.1a10.9,10.9,0,0,1-3.175-7.819,11.845,11.845,0,0,1,.884-4.549,10.9,10.9,0,0,1,2.424-3.655,11.224,11.224,0,0,1,3.429-2.3,10.365,10.365,0,0,1,4.119-.857,10.7,10.7,0,0,1,7.725,3.2,10.747,10.747,0,0,1,3.283,7.95,11.3,11.3,0,0,1-3.081,7.954,10.415,10.415,0,0,1-7.8,3.394m-.066-12.626c-.116,0-.334,0-.709.365a1.21,1.21,0,0,0-.339,1.011,1.193,1.193,0,0,0,.341,1c.388.374.61.374.729.374a.982.982,0,0,0,.739-.36c.1-.1.309-.294.309-1s-.224-.924-.333-1.028c-.387-.37-.615-.37-.737-.37" fill="#f17183"/>
    <path id="パス_28605" data-name="パス 28605" d="M79.17,30.375a4.947,4.947,0,0,1-3.625-1.968l-.225-.257c-.559.945-1.754,2.006-4.257,2.006-3.265,0-4.314-1.925-4.628-2.845a6.222,6.222,0,0,1-.3-2.1V13.042A8.766,8.766,0,0,1,66.2,11.89a4.651,4.651,0,0,1,.537-1.6c.5-.973,1.686-2.175,4.351-2.175a4.676,4.676,0,0,1,4.223,1.961l.239-.279a4.776,4.776,0,0,1,3.613-1.945,5.212,5.212,0,0,1,3.405,1.485,4.757,4.757,0,0,1,1.915,3.583A5.041,5.041,0,0,1,83.1,16.2c-.682.788-1.6,1.749-2.781,2.919,1.169,1.169,2.065,2.112,2.708,2.857a4.981,4.981,0,0,1,1.455,3.33,4.762,4.762,0,0,1-1.917,3.586,5.2,5.2,0,0,1-3.392,1.482" fill="#f17183"/>
    <path id="パス_28606" data-name="パス 28606" d="M59.705,10.92a7.762,7.762,0,0,1,5.624,2.341,7.815,7.815,0,0,1,2.385,5.809,8.355,8.355,0,0,1-2.275,5.909,7.36,7.36,0,0,1-5.6,2.44,7.58,7.58,0,0,1-5.657-2.408,7.958,7.958,0,0,1-2.33-5.733,8.823,8.823,0,0,1,.656-3.4,7.9,7.9,0,0,1,1.751-2.659,8.2,8.2,0,0,1,2.517-1.685,7.34,7.34,0,0,1,2.931-.612m-3.982,8.249a4.192,4.192,0,0,0,1.259,3.162,3.886,3.886,0,0,0,5.612.033,4.165,4.165,0,0,0,1.247-3.173A4.221,4.221,0,0,0,62.583,16a3.976,3.976,0,0,0-2.812-1.2,3.925,3.925,0,0,0-2.8,1.214,4.219,4.219,0,0,0-1.247,3.162" fill="#fff"/>
    <path id="パス_28607" data-name="パス 28607" d="M76.008,19.1q3.346,3.216,4.748,4.835a2.3,2.3,0,0,1,.723,1.368q0,.558-.876,1.313a2.491,2.491,0,0,1-1.433.755q-.558,0-1.346-.919L73.01,20.964V25.23a6.57,6.57,0,0,1-.032.767,1.8,1.8,0,0,1-.208.568q-.307.591-1.707.591-1.533,0-1.794-.831a3.42,3.42,0,0,1-.132-1.116V13.042a6.327,6.327,0,0,1,.033-.754,1.75,1.75,0,0,1,.208-.58q.306-.591,1.706-.591,1.533,0,1.817.81a4.348,4.348,0,0,1,.109,1.137v4.18q2.976-3.348,4.814-5.493.765-.9,1.335-.9a2.5,2.5,0,0,1,1.444.755q.876.756.876,1.313a2.2,2.2,0,0,1-.658,1.324q-1.268,1.467-3.938,4.026Z" fill="#fff"/>
  </g>
</svg>
